<svg width="1261" height="578" aria-label="A chart." style="overflow: hidden;"><defs id="_ABSTRACT_RENDERER_ID_260"><clipPath id="_ABSTRACT_RENDERER_ID_261"><rect x="200" y="111" width="862" height="357"></rect></clipPath></defs><rect x="0" y="0" width="1261" height="578" stroke="none" stroke-width="0" fill="#ffffff"></rect><g><text text-anchor="start" x="200" y="84.75" font-family="Arial" font-size="15" font-weight="bold" stroke="none" stroke-width="0" fill="#000000">Diamante do Norte</text><rect x="200" y="72" width="862" height="15" stroke="none" stroke-width="0" fill-opacity="0" fill="#ffffff"></rect></g><g><rect x="1077" y="111" width="169" height="15" stroke="none" stroke-width="0" fill-opacity="0" fill="#ffffff"></rect><g column-id="LST_Day_1km"><rect x="1077" y="111" width="169" height="15" stroke="none" stroke-width="0" fill-opacity="0" fill="#ffffff"></rect><g><text text-anchor="start" x="1113" y="123.75" font-family="Arial" font-size="15" stroke="none" stroke-width="0" fill="#222222">LST_Day_1km</text></g><path d="M1077,118.5L1107,118.5" stroke="#3366cc" stroke-width="1" fill-opacity="1" fill="none"></path><circle cx="1092" cy="118.5" r="2.5" stroke="none" stroke-width="0" fill="#3366cc"></circle></g></g><g><rect x="200" y="111" width="862" height="357" stroke="none" stroke-width="0" fill-opacity="0" fill="#ffffff"></rect><g clip-path="url(https://code.earthengine.google.com/#_ABSTRACT_RENDERER_ID_261)"><g><rect x="200" y="111" width="1" height="357" stroke="none" stroke-width="0" fill="#cccccc"></rect><rect x="218" y="111" width="1" height="357" stroke="none" stroke-width="0" fill="#ebebeb"></rect><rect x="243" y="111" width="1" height="357" stroke="none" stroke-width="0" fill="#ebebeb"></rect><rect x="268" y="111" width="1" height="357" stroke="none" stroke-width="0" fill="#ebebeb"></rect><rect x="293" y="111" width="1" height="357" stroke="none" stroke-width="0" fill="#ebebeb"></rect><rect x="311" y="111" width="1" height="357" stroke="none" stroke-width="0" fill="#cccccc"></rect><rect x="318" y="111" width="1" height="357" stroke="none" stroke-width="0" fill="#ebebeb"></rect><rect x="343" y="111" width="1" height="357" stroke="none" stroke-width="0" fill="#ebebeb"></rect><rect x="368" y="111" width="1" height="357" stroke="none" stroke-width="0" fill="#ebebeb"></rect><rect x="393" y="111" width="1" height="357" stroke="none" stroke-width="0" fill="#ebebeb"></rect><rect x="414" y="111" width="1" height="357" stroke="none" stroke-width="0" fill="#cccccc"></rect><rect x="417" y="111" width="1" height="357" stroke="none" stroke-width="0" fill="#ebebeb"></rect><rect x="442" y="111" width="1" height="357" stroke="none" stroke-width="0" fill="#ebebeb"></rect><rect x="467" y="111" width="1" height="357" stroke="none" stroke-width="0" fill="#ebebeb"></rect><rect x="492" y="111" width="1" height="357" stroke="none" stroke-width="0" fill="#ebebeb"></rect><rect x="517" y="111" width="1" height="357" stroke="none" stroke-width="0" fill="#ebebeb"></rect><rect x="524" y="111" width="1" height="357" stroke="none" stroke-width="0" fill="#cccccc"></rect><rect x="542" y="111" width="1" height="357" stroke="none" stroke-width="0" fill="#ebebeb"></rect><rect x="567" y="111" width="1" height="357" stroke="none" stroke-width="0" fill="#ebebeb"></rect><rect x="592" y="111" width="1" height="357" stroke="none" stroke-width="0" fill="#ebebeb"></rect><rect x="617" y="111" width="1" height="357" stroke="none" stroke-width="0" fill="#ebebeb"></rect><rect x="631" y="111" width="1" height="357" stroke="none" stroke-width="0" fill="#cccccc"></rect><rect x="642" y="111" width="1" height="357" stroke="none" stroke-width="0" fill="#ebebeb"></rect><rect x="667" y="111" width="1" height="357" stroke="none" stroke-width="0" fill="#ebebeb"></rect><rect x="691" y="111" width="1" height="357" stroke="none" stroke-width="0" fill="#ebebeb"></rect><rect x="716" y="111" width="1" height="357" stroke="none" stroke-width="0" fill="#ebebeb"></rect><rect x="741" y="111" width="1" height="357" stroke="none" stroke-width="0" fill="#ebebeb"></rect><rect x="741" y="111" width="1" height="357" stroke="none" stroke-width="0" fill="#cccccc"></rect><rect x="766" y="111" width="1" height="357" stroke="none" stroke-width="0" fill="#ebebeb"></rect><rect x="791" y="111" width="1" height="357" stroke="none" stroke-width="0" fill="#ebebeb"></rect><rect x="816" y="111" width="1" height="357" stroke="none" stroke-width="0" fill="#ebebeb"></rect><rect x="841" y="111" width="1" height="357" stroke="none" stroke-width="0" fill="#ebebeb"></rect><rect x="848" y="111" width="1" height="357" stroke="none" stroke-width="0" fill="#cccccc"></rect><rect x="866" y="111" width="1" height="357" stroke="none" stroke-width="0" fill="#ebebeb"></rect><rect x="891" y="111" width="1" height="357" stroke="none" stroke-width="0" fill="#ebebeb"></rect><rect x="916" y="111" width="1" height="357" stroke="none" stroke-width="0" fill="#ebebeb"></rect><rect x="940" y="111" width="1" height="357" stroke="none" stroke-width="0" fill="#ebebeb"></rect><rect x="958" y="111" width="1" height="357" stroke="none" stroke-width="0" fill="#cccccc"></rect><rect x="965" y="111" width="1" height="357" stroke="none" stroke-width="0" fill="#ebebeb"></rect><rect x="990" y="111" width="1" height="357" stroke="none" stroke-width="0" fill="#ebebeb"></rect><rect x="1015" y="111" width="1" height="357" stroke="none" stroke-width="0" fill="#ebebeb"></rect><rect x="1040" y="111" width="1" height="357" stroke="none" stroke-width="0" fill="#ebebeb"></rect><rect x="200" y="467" width="862" height="1" stroke="none" stroke-width="0" fill="#cccccc"></rect><rect x="200" y="423" width="862" height="1" stroke="none" stroke-width="0" fill="#cccccc"></rect><rect x="200" y="378" width="862" height="1" stroke="none" stroke-width="0" fill="#cccccc"></rect><rect x="200" y="334" width="862" height="1" stroke="none" stroke-width="0" fill="#cccccc"></rect><rect x="200" y="289" width="862" height="1" stroke="none" stroke-width="0" fill="#cccccc"></rect><rect x="200" y="245" width="862" height="1" stroke="none" stroke-width="0" fill="#cccccc"></rect><rect x="200" y="200" width="862" height="1" stroke="none" stroke-width="0" fill="#cccccc"></rect><rect x="200" y="156" width="862" height="1" stroke="none" stroke-width="0" fill="#cccccc"></rect><rect x="200" y="111" width="862" height="1" stroke="none" stroke-width="0" fill="#cccccc"></rect><rect x="200" y="445" width="862" height="1" stroke="none" stroke-width="0" fill="#ebebeb"></rect><rect x="200" y="400" width="862" height="1" stroke="none" stroke-width="0" fill="#ebebeb"></rect><rect x="200" y="356" width="862" height="1" stroke="none" stroke-width="0" fill="#ebebeb"></rect><rect x="200" y="311" width="862" height="1" stroke="none" stroke-width="0" fill="#ebebeb"></rect><rect x="200" y="267" width="862" height="1" stroke="none" stroke-width="0" fill="#ebebeb"></rect><rect x="200" y="222" width="862" height="1" stroke="none" stroke-width="0" fill="#ebebeb"></rect><rect x="200" y="178" width="862" height="1" stroke="none" stroke-width="0" fill="#ebebeb"></rect><rect x="200" y="133" width="862" height="1" stroke="none" stroke-width="0" fill="#ebebeb"></rect></g><g><rect x="200" y="467" width="862" height="1" stroke="none" stroke-width="0" fill="#333333"></rect></g><g><g><path d="M200.5,161.25337917692502L204.05785123966942,225.68699999999998M214.7314049586777,179.12219999999996L218.28925619834712,188.663M246.7520661157025,226.577L250.3099173553719,180.014435960617L253.86776859504133,170.104037690489L257.42561983471074,237.969L260.9834710743802,264.135L264.5413223140496,161.80118181819796M328.58264462809916,208.64349999999996L332.1404958677686,242.06300000000002L335.69834710743805,262.533L339.25619834710744,225.27276253298197L342.81404958677683,233.614846153853L346.3719008264463,278.375L349.9297520661157,241.80528597350897L353.4876033057851,181.40458435618302M360.603305785124,195.92539999999997L364.1611570247934,175.09353409090102L367.7190082644628,168.626615446541L371.27685950413223,167.81465526350496L374.8347107438017,247.93699999999998M385.50826446280996,189.054305785135L389.06611570247935,245.89000000000001L392.62396694214874,220.28694055942498M403.297520661157,233.54442857145398L406.85537190082647,242.06300000000002L410.4132231404959,187.463306158168L413.9710743801653,212.021910319924L417.5289256198347,221.47386614174698L421.08677685950414,215.858857142819L424.6446280991736,208.07983333336296L428.202479338843,178.52295957047397L431.7603305785124,228.17899999999997L435.31818181818187,181.88026315787596M442.43388429752065,167.56066202414695L445.9917355371901,177.434752193009L449.54958677685954,171.91136401481697L453.10743801652893,173.033278065645L456.6652892561984,192.89661469435902L460.22314049586777,150.10006390898303M474.4545454545455,204.332132752998L478.0123966942149,189.03305998744298M485.1280991735537,179.05100000000004L488.68595041322317,226.547057364299L492.24380165289256,171.27225583610897M499.35950413223145,177.963652173944L502.91735537190084,178.56927194288897L506.4752066115703,189.74371428572698L510.0330578512397,207.175M531.3801652892562,231.20499999999998L534.9380165289256,184.65561812949M542.0537190082645,174.365996978824L545.611570247934,268.407L549.1694214876034,192.342924100556M556.2851239669421,187.971017450308L559.8429752066115,188.516226161394L563.400826446281,214.65099999999998L566.9586776859504,203.62141481855696M574.0743801652893,243.750059732993L577.6322314049587,261.64300000000003L581.1900826446281,212.454399198947M588.305785123967,217.491688874547L591.8636363636364,204.725003033088L595.4214876033059,211.98142227180298L598.9793388429753,186.823666666637L602.5371900826447,239.338826086972L606.095041322314,197.950471566879M613.2107438016529,178.02931296292996L616.7685950413223,206.169979713648L620.3264462809918,213.40499999999997L623.8842975206612,184.66024917596002L627.4421487603306,205.24613536022196L631,165.68616666663695L634.5578512396694,242.58513333336302L638.1157024793389,201.86837499999996L641.6735537190083,243.74715384614697L645.2314049586778,241.885M652.3471074380166,250.242523809545L655.904958677686,220.266314347337L659.4628099173553,251.85299999999998L663.0206611570248,193.59771039326597M680.8099173553719,259.863L684.3677685950413,253.182127232917L687.9256198347108,214.088798695223L691.4834710743802,259.32899999999995L695.0413223140497,225.82173284962698L698.5991735537191,216.42290993622296L702.1570247933885,256.941525043143M716.3884297520661,306.499L719.9462809917355,263.090850180751M727.0619834710744,262.091497193234L730.6198347107438,238.055453292946L734.1776859504133,256.025285588773L737.7355371900827,224.76237437520402M783.9876033057851,215.18499999999997L787.5454545454546,247.581L791.103305785124,257.648904761935L794.6611570247934,230.363772759615L798.2190082644629,255.158136363604L801.7768595041323,291.369L805.3347107438017,252.654L808.8925619834711,210.73858916191801L812.4504132231406,215.09133667785798L816.00826446281,217.49269167154497L819.5661157024794,215.2060425726L823.1239669421489,302.939L826.6818181818182,238.325M840.9132231404959,364.349L844.4710743801653,273.671488713709L848.0289256198348,312.466523264177L851.5867768595042,293.219977326005L855.1446280991736,305.96500000000003L858.702479338843,267.980482832119M865.8181818181819,228.84782329810199L869.3760330578513,227.451087481562M880.0495867768595,296.061727272703L883.6074380165289,226.42442857145397L887.1652892561984,244.73299999999998L890.7231404958678,207.57088683727898M897.8388429752067,241.851453247889L901.3966942148761,275.438L904.9545454545455,225.887544919033L908.5123966942149,202.45082826946202L912.0702479338844,243.73916666663698L915.6280991735538,211.36153633863802L919.1859504132232,278.909L922.7438016528927,207.542125L926.3016528925621,204.16224809161798L929.8595041322315,210.73499999999996L933.4173553719008,283.537L936.9752066115703,304.18499999999995L940.5330578512397,292.081L944.0909090909091,241.82774361398L947.6487603305786,263.64549999999997M954.7644628099174,242.344080999275L958.3223140495868,219.663092002809L961.8801652892563,229.16297515526898L965.4380165289257,211.394629604955L968.9958677685951,243.770742574268L972.5537190082646,211.366090909099L976.111570247934,256.080917772764L979.6694214876034,200.29491304348596L983.2272727272727,205.25817452292102L986.7851239669423,204.18063688482397L990.3429752066116,178.47425183648403L993.900826446281,224.126938848958L997.4586776859504,245.89000000000001M1033.0371900826447,317.53499999999997L1036.595041322314,257.631677595661M1043.7107438016528,235.331568258076L1047.2685950413224,220.92654569188298L1050.8264462809918,223.540230109555L1054.3842975206612,172.220785278307" stroke="#3366cc" stroke-width="1" fill-opacity="1" fill="none"></path></g></g></g><g><circle cx="200.5" cy="161.25337917692502" r="2.5" stroke="none" stroke-width="0" fill="#3366cc"></circle><circle cx="204.05785123966942" cy="225.68699999999998" r="2.5" stroke="none" stroke-width="0" fill="#3366cc"></circle><circle cx="214.7314049586777" cy="179.12219999999996" r="2.5" stroke="none" stroke-width="0" fill="#3366cc"></circle><circle cx="218.28925619834712" cy="188.663" r="2.5" stroke="none" stroke-width="0" fill="#3366cc"></circle><circle cx="232.5206611570248" cy="189.76195028221997" r="2.5" stroke="none" stroke-width="0" fill="#3366cc"></circle><circle cx="239.63636363636363" cy="174.3874" r="2.5" stroke="none" stroke-width="0" fill="#3366cc"></circle><circle cx="246.7520661157025" cy="226.577" r="2.5" stroke="none" stroke-width="0" fill="#3366cc"></circle><circle cx="250.3099173553719" cy="180.014435960617" r="2.5" stroke="none" stroke-width="0" fill="#3366cc"></circle><circle cx="253.86776859504133" cy="170.104037690489" r="2.5" stroke="none" stroke-width="0" fill="#3366cc"></circle><circle cx="257.42561983471074" cy="237.969" r="2.5" stroke="none" stroke-width="0" fill="#3366cc"></circle><circle cx="260.9834710743802" cy="264.135" r="2.5" stroke="none" stroke-width="0" fill="#3366cc"></circle><circle cx="264.5413223140496" cy="161.80118181819796" r="2.5" stroke="none" stroke-width="0" fill="#3366cc"></circle><circle cx="271.6570247933884" cy="198.83662629339898" r="2.5" stroke="none" stroke-width="0" fill="#3366cc"></circle><circle cx="282.3305785123967" cy="231.4186" r="2.5" stroke="none" stroke-width="0" fill="#3366cc"></circle><circle cx="289.44628099173553" cy="156.21629142319" r="2.5" stroke="none" stroke-width="0" fill="#3366cc"></circle><circle cx="296.56198347107437" cy="142.10190069742998" r="2.5" stroke="none" stroke-width="0" fill="#3366cc"></circle><circle cx="328.58264462809916" cy="208.64349999999996" r="2.5" stroke="none" stroke-width="0" fill="#3366cc"></circle><circle cx="332.1404958677686" cy="242.06300000000002" r="2.5" stroke="none" stroke-width="0" fill="#3366cc"></circle><circle cx="335.69834710743805" cy="262.533" r="2.5" stroke="none" stroke-width="0" fill="#3366cc"></circle><circle cx="339.25619834710744" cy="225.27276253298197" r="2.5" stroke="none" stroke-width="0" fill="#3366cc"></circle><circle cx="342.81404958677683" cy="233.614846153853" r="2.5" stroke="none" stroke-width="0" fill="#3366cc"></circle><circle cx="346.3719008264463" cy="278.375" r="2.5" stroke="none" stroke-width="0" fill="#3366cc"></circle><circle cx="349.9297520661157" cy="241.80528597350897" r="2.5" stroke="none" stroke-width="0" fill="#3366cc"></circle><circle cx="353.4876033057851" cy="181.40458435618302" r="2.5" stroke="none" stroke-width="0" fill="#3366cc"></circle><circle cx="360.603305785124" cy="195.92539999999997" r="2.5" stroke="none" stroke-width="0" fill="#3366cc"></circle><circle cx="364.1611570247934" cy="175.09353409090102" r="2.5" stroke="none" stroke-width="0" fill="#3366cc"></circle><circle cx="367.7190082644628" cy="168.626615446541" r="2.5" stroke="none" stroke-width="0" fill="#3366cc"></circle><circle cx="371.27685950413223" cy="167.81465526350496" r="2.5" stroke="none" stroke-width="0" fill="#3366cc"></circle><circle cx="374.8347107438017" cy="247.93699999999998" r="2.5" stroke="none" stroke-width="0" fill="#3366cc"></circle><circle cx="385.50826446280996" cy="189.054305785135" r="2.5" stroke="none" stroke-width="0" fill="#3366cc"></circle><circle cx="389.06611570247935" cy="245.89000000000001" r="2.5" stroke="none" stroke-width="0" fill="#3366cc"></circle><circle cx="392.62396694214874" cy="220.28694055942498" r="2.5" stroke="none" stroke-width="0" fill="#3366cc"></circle><circle cx="403.297520661157" cy="233.54442857145398" r="2.5" stroke="none" stroke-width="0" fill="#3366cc"></circle><circle cx="406.85537190082647" cy="242.06300000000002" r="2.5" stroke="none" stroke-width="0" fill="#3366cc"></circle><circle cx="410.4132231404959" cy="187.463306158168" r="2.5" stroke="none" stroke-width="0" fill="#3366cc"></circle><circle cx="413.9710743801653" cy="212.021910319924" r="2.5" stroke="none" stroke-width="0" fill="#3366cc"></circle><circle cx="417.5289256198347" cy="221.47386614174698" r="2.5" stroke="none" stroke-width="0" fill="#3366cc"></circle><circle cx="421.08677685950414" cy="215.858857142819" r="2.5" stroke="none" stroke-width="0" fill="#3366cc"></circle><circle cx="424.6446280991736" cy="208.07983333336296" r="2.5" stroke="none" stroke-width="0" fill="#3366cc"></circle><circle cx="428.202479338843" cy="178.52295957047397" r="2.5" stroke="none" stroke-width="0" fill="#3366cc"></circle><circle cx="431.7603305785124" cy="228.17899999999997" r="2.5" stroke="none" stroke-width="0" fill="#3366cc"></circle><circle cx="435.31818181818187" cy="181.88026315787596" r="2.5" stroke="none" stroke-width="0" fill="#3366cc"></circle><circle cx="442.43388429752065" cy="167.56066202414695" r="2.5" stroke="none" stroke-width="0" fill="#3366cc"></circle><circle cx="445.9917355371901" cy="177.434752193009" r="2.5" stroke="none" stroke-width="0" fill="#3366cc"></circle><circle cx="449.54958677685954" cy="171.91136401481697" r="2.5" stroke="none" stroke-width="0" fill="#3366cc"></circle><circle cx="453.10743801652893" cy="173.033278065645" r="2.5" stroke="none" stroke-width="0" fill="#3366cc"></circle><circle cx="456.6652892561984" cy="192.89661469435902" r="2.5" stroke="none" stroke-width="0" fill="#3366cc"></circle><circle cx="460.22314049586777" cy="150.10006390898303" r="2.5" stroke="none" stroke-width="0" fill="#3366cc"></circle><circle cx="467.33884297520666" cy="147.57893282877097" r="2.5" stroke="none" stroke-width="0" fill="#3366cc"></circle><circle cx="474.4545454545455" cy="204.332132752998" r="2.5" stroke="none" stroke-width="0" fill="#3366cc"></circle><circle cx="478.0123966942149" cy="189.03305998744298" r="2.5" stroke="none" stroke-width="0" fill="#3366cc"></circle><circle cx="485.1280991735537" cy="179.05100000000004" r="2.5" stroke="none" stroke-width="0" fill="#3366cc"></circle><circle cx="488.68595041322317" cy="226.547057364299" r="2.5" stroke="none" stroke-width="0" fill="#3366cc"></circle><circle cx="492.24380165289256" cy="171.27225583610897" r="2.5" stroke="none" stroke-width="0" fill="#3366cc"></circle><circle cx="499.35950413223145" cy="177.963652173944" r="2.5" stroke="none" stroke-width="0" fill="#3366cc"></circle><circle cx="502.91735537190084" cy="178.56927194288897" r="2.5" stroke="none" stroke-width="0" fill="#3366cc"></circle><circle cx="506.4752066115703" cy="189.74371428572698" r="2.5" stroke="none" stroke-width="0" fill="#3366cc"></circle><circle cx="510.0330578512397" cy="207.175" r="2.5" stroke="none" stroke-width="0" fill="#3366cc"></circle><circle cx="517.1487603305785" cy="196.94" r="2.5" stroke="none" stroke-width="0" fill="#3366cc"></circle><circle cx="524.2644628099174" cy="169.85433333336294" r="2.5" stroke="none" stroke-width="0" fill="#3366cc"></circle><circle cx="531.3801652892562" cy="231.20499999999998" r="2.5" stroke="none" stroke-width="0" fill="#3366cc"></circle><circle cx="534.9380165289256" cy="184.65561812949" r="2.5" stroke="none" stroke-width="0" fill="#3366cc"></circle><circle cx="542.0537190082645" cy="174.365996978824" r="2.5" stroke="none" stroke-width="0" fill="#3366cc"></circle><circle cx="545.611570247934" cy="268.407" r="2.5" stroke="none" stroke-width="0" fill="#3366cc"></circle><circle cx="549.1694214876034" cy="192.342924100556" r="2.5" stroke="none" stroke-width="0" fill="#3366cc"></circle><circle cx="556.2851239669421" cy="187.971017450308" r="2.5" stroke="none" stroke-width="0" fill="#3366cc"></circle><circle cx="559.8429752066115" cy="188.516226161394" r="2.5" stroke="none" stroke-width="0" fill="#3366cc"></circle><circle cx="563.400826446281" cy="214.65099999999998" r="2.5" stroke="none" stroke-width="0" fill="#3366cc"></circle><circle cx="566.9586776859504" cy="203.62141481855696" r="2.5" stroke="none" stroke-width="0" fill="#3366cc"></circle><circle cx="574.0743801652893" cy="243.750059732993" r="2.5" stroke="none" stroke-width="0" fill="#3366cc"></circle><circle cx="577.6322314049587" cy="261.64300000000003" r="2.5" stroke="none" stroke-width="0" fill="#3366cc"></circle><circle cx="581.1900826446281" cy="212.454399198947" r="2.5" stroke="none" stroke-width="0" fill="#3366cc"></circle><circle cx="588.305785123967" cy="217.491688874547" r="2.5" stroke="none" stroke-width="0" fill="#3366cc"></circle><circle cx="591.8636363636364" cy="204.725003033088" r="2.5" stroke="none" stroke-width="0" fill="#3366cc"></circle><circle cx="595.4214876033059" cy="211.98142227180298" r="2.5" stroke="none" stroke-width="0" fill="#3366cc"></circle><circle cx="598.9793388429753" cy="186.823666666637" r="2.5" stroke="none" stroke-width="0" fill="#3366cc"></circle><circle cx="602.5371900826447" cy="239.338826086972" r="2.5" stroke="none" stroke-width="0" fill="#3366cc"></circle><circle cx="606.095041322314" cy="197.950471566879" r="2.5" stroke="none" stroke-width="0" fill="#3366cc"></circle><circle cx="613.2107438016529" cy="178.02931296292996" r="2.5" stroke="none" stroke-width="0" fill="#3366cc"></circle><circle cx="616.7685950413223" cy="206.169979713648" r="2.5" stroke="none" stroke-width="0" fill="#3366cc"></circle><circle cx="620.3264462809918" cy="213.40499999999997" r="2.5" stroke="none" stroke-width="0" fill="#3366cc"></circle><circle cx="623.8842975206612" cy="184.66024917596002" r="2.5" stroke="none" stroke-width="0" fill="#3366cc"></circle><circle cx="627.4421487603306" cy="205.24613536022196" r="2.5" stroke="none" stroke-width="0" fill="#3366cc"></circle><circle cx="631" cy="165.68616666663695" r="2.5" stroke="none" stroke-width="0" fill="#3366cc"></circle><circle cx="634.5578512396694" cy="242.58513333336302" r="2.5" stroke="none" stroke-width="0" fill="#3366cc"></circle><circle cx="638.1157024793389" cy="201.86837499999996" r="2.5" stroke="none" stroke-width="0" fill="#3366cc"></circle><circle cx="641.6735537190083" cy="243.74715384614697" r="2.5" stroke="none" stroke-width="0" fill="#3366cc"></circle><circle cx="645.2314049586778" cy="241.885" r="2.5" stroke="none" stroke-width="0" fill="#3366cc"></circle><circle cx="652.3471074380166" cy="250.242523809545" r="2.5" stroke="none" stroke-width="0" fill="#3366cc"></circle><circle cx="655.904958677686" cy="220.266314347337" r="2.5" stroke="none" stroke-width="0" fill="#3366cc"></circle><circle cx="659.4628099173553" cy="251.85299999999998" r="2.5" stroke="none" stroke-width="0" fill="#3366cc"></circle><circle cx="663.0206611570248" cy="193.59771039326597" r="2.5" stroke="none" stroke-width="0" fill="#3366cc"></circle><circle cx="680.8099173553719" cy="259.863" r="2.5" stroke="none" stroke-width="0" fill="#3366cc"></circle><circle cx="684.3677685950413" cy="253.182127232917" r="2.5" stroke="none" stroke-width="0" fill="#3366cc"></circle><circle cx="687.9256198347108" cy="214.088798695223" r="2.5" stroke="none" stroke-width="0" fill="#3366cc"></circle><circle cx="691.4834710743802" cy="259.32899999999995" r="2.5" stroke="none" stroke-width="0" fill="#3366cc"></circle><circle cx="695.0413223140497" cy="225.82173284962698" r="2.5" stroke="none" stroke-width="0" fill="#3366cc"></circle><circle cx="698.5991735537191" cy="216.42290993622296" r="2.5" stroke="none" stroke-width="0" fill="#3366cc"></circle><circle cx="702.1570247933885" cy="256.941525043143" r="2.5" stroke="none" stroke-width="0" fill="#3366cc"></circle><circle cx="716.3884297520661" cy="306.499" r="2.5" stroke="none" stroke-width="0" fill="#3366cc"></circle><circle cx="719.9462809917355" cy="263.090850180751" r="2.5" stroke="none" stroke-width="0" fill="#3366cc"></circle><circle cx="727.0619834710744" cy="262.091497193234" r="2.5" stroke="none" stroke-width="0" fill="#3366cc"></circle><circle cx="730.6198347107438" cy="238.055453292946" r="2.5" stroke="none" stroke-width="0" fill="#3366cc"></circle><circle cx="734.1776859504133" cy="256.025285588773" r="2.5" stroke="none" stroke-width="0" fill="#3366cc"></circle><circle cx="737.7355371900827" cy="224.76237437520402" r="2.5" stroke="none" stroke-width="0" fill="#3366cc"></circle><circle cx="762.6404958677687" cy="277.527406273309" r="2.5" stroke="none" stroke-width="0" fill="#3366cc"></circle><circle cx="769.7561983471074" cy="211.32825089319698" r="2.5" stroke="none" stroke-width="0" fill="#3366cc"></circle><circle cx="776.8719008264463" cy="268.051" r="2.5" stroke="none" stroke-width="0" fill="#3366cc"></circle><circle cx="783.9876033057851" cy="215.18499999999997" r="2.5" stroke="none" stroke-width="0" fill="#3366cc"></circle><circle cx="787.5454545454546" cy="247.581" r="2.5" stroke="none" stroke-width="0" fill="#3366cc"></circle><circle cx="791.103305785124" cy="257.648904761935" r="2.5" stroke="none" stroke-width="0" fill="#3366cc"></circle><circle cx="794.6611570247934" cy="230.363772759615" r="2.5" stroke="none" stroke-width="0" fill="#3366cc"></circle><circle cx="798.2190082644629" cy="255.158136363604" r="2.5" stroke="none" stroke-width="0" fill="#3366cc"></circle><circle cx="801.7768595041323" cy="291.369" r="2.5" stroke="none" stroke-width="0" fill="#3366cc"></circle><circle cx="805.3347107438017" cy="252.654" r="2.5" stroke="none" stroke-width="0" fill="#3366cc"></circle><circle cx="808.8925619834711" cy="210.73858916191801" r="2.5" stroke="none" stroke-width="0" fill="#3366cc"></circle><circle cx="812.4504132231406" cy="215.09133667785798" r="2.5" stroke="none" stroke-width="0" fill="#3366cc"></circle><circle cx="816.00826446281" cy="217.49269167154497" r="2.5" stroke="none" stroke-width="0" fill="#3366cc"></circle><circle cx="819.5661157024794" cy="215.2060425726" r="2.5" stroke="none" stroke-width="0" fill="#3366cc"></circle><circle cx="823.1239669421489" cy="302.939" r="2.5" stroke="none" stroke-width="0" fill="#3366cc"></circle><circle cx="826.6818181818182" cy="238.325" r="2.5" stroke="none" stroke-width="0" fill="#3366cc"></circle><circle cx="833.797520661157" cy="293.683" r="2.5" stroke="none" stroke-width="0" fill="#3366cc"></circle><circle cx="840.9132231404959" cy="364.349" r="2.5" stroke="none" stroke-width="0" fill="#3366cc"></circle><circle cx="844.4710743801653" cy="273.671488713709" r="2.5" stroke="none" stroke-width="0" fill="#3366cc"></circle><circle cx="848.0289256198348" cy="312.466523264177" r="2.5" stroke="none" stroke-width="0" fill="#3366cc"></circle><circle cx="851.5867768595042" cy="293.219977326005" r="2.5" stroke="none" stroke-width="0" fill="#3366cc"></circle><circle cx="855.1446280991736" cy="305.96500000000003" r="2.5" stroke="none" stroke-width="0" fill="#3366cc"></circle><circle cx="858.702479338843" cy="267.980482832119" r="2.5" stroke="none" stroke-width="0" fill="#3366cc"></circle><circle cx="865.8181818181819" cy="228.84782329810199" r="2.5" stroke="none" stroke-width="0" fill="#3366cc"></circle><circle cx="869.3760330578513" cy="227.451087481562" r="2.5" stroke="none" stroke-width="0" fill="#3366cc"></circle><circle cx="880.0495867768595" cy="296.061727272703" r="2.5" stroke="none" stroke-width="0" fill="#3366cc"></circle><circle cx="883.6074380165289" cy="226.42442857145397" r="2.5" stroke="none" stroke-width="0" fill="#3366cc"></circle><circle cx="887.1652892561984" cy="244.73299999999998" r="2.5" stroke="none" stroke-width="0" fill="#3366cc"></circle><circle cx="890.7231404958678" cy="207.57088683727898" r="2.5" stroke="none" stroke-width="0" fill="#3366cc"></circle><circle cx="897.8388429752067" cy="241.851453247889" r="2.5" stroke="none" stroke-width="0" fill="#3366cc"></circle><circle cx="901.3966942148761" cy="275.438" r="2.5" stroke="none" stroke-width="0" fill="#3366cc"></circle><circle cx="904.9545454545455" cy="225.887544919033" r="2.5" stroke="none" stroke-width="0" fill="#3366cc"></circle><circle cx="908.5123966942149" cy="202.45082826946202" r="2.5" stroke="none" stroke-width="0" fill="#3366cc"></circle><circle cx="912.0702479338844" cy="243.73916666663698" r="2.5" stroke="none" stroke-width="0" fill="#3366cc"></circle><circle cx="915.6280991735538" cy="211.36153633863802" r="2.5" stroke="none" stroke-width="0" fill="#3366cc"></circle><circle cx="919.1859504132232" cy="278.909" r="2.5" stroke="none" stroke-width="0" fill="#3366cc"></circle><circle cx="922.7438016528927" cy="207.542125" r="2.5" stroke="none" stroke-width="0" fill="#3366cc"></circle><circle cx="926.3016528925621" cy="204.16224809161798" r="2.5" stroke="none" stroke-width="0" fill="#3366cc"></circle><circle cx="929.8595041322315" cy="210.73499999999996" r="2.5" stroke="none" stroke-width="0" fill="#3366cc"></circle><circle cx="933.4173553719008" cy="283.537" r="2.5" stroke="none" stroke-width="0" fill="#3366cc"></circle><circle cx="936.9752066115703" cy="304.18499999999995" r="2.5" stroke="none" stroke-width="0" fill="#3366cc"></circle><circle cx="940.5330578512397" cy="292.081" r="2.5" stroke="none" stroke-width="0" fill="#3366cc"></circle><circle cx="944.0909090909091" cy="241.82774361398" r="2.5" stroke="none" stroke-width="0" fill="#3366cc"></circle><circle cx="947.6487603305786" cy="263.64549999999997" r="2.5" stroke="none" stroke-width="0" fill="#3366cc"></circle><circle cx="954.7644628099174" cy="242.344080999275" r="2.5" stroke="none" stroke-width="0" fill="#3366cc"></circle><circle cx="958.3223140495868" cy="219.663092002809" r="2.5" stroke="none" stroke-width="0" fill="#3366cc"></circle><circle cx="961.8801652892563" cy="229.16297515526898" r="2.5" stroke="none" stroke-width="0" fill="#3366cc"></circle><circle cx="965.4380165289257" cy="211.394629604955" r="2.5" stroke="none" stroke-width="0" fill="#3366cc"></circle><circle cx="968.9958677685951" cy="243.770742574268" r="2.5" stroke="none" stroke-width="0" fill="#3366cc"></circle><circle cx="972.5537190082646" cy="211.366090909099" r="2.5" stroke="none" stroke-width="0" fill="#3366cc"></circle><circle cx="976.111570247934" cy="256.080917772764" r="2.5" stroke="none" stroke-width="0" fill="#3366cc"></circle><circle cx="979.6694214876034" cy="200.29491304348596" r="2.5" stroke="none" stroke-width="0" fill="#3366cc"></circle><circle cx="983.2272727272727" cy="205.25817452292102" r="2.5" stroke="none" stroke-width="0" fill="#3366cc"></circle><circle cx="986.7851239669423" cy="204.18063688482397" r="2.5" stroke="none" stroke-width="0" fill="#3366cc"></circle><circle cx="990.3429752066116" cy="178.47425183648403" r="2.5" stroke="none" stroke-width="0" fill="#3366cc"></circle><circle cx="993.900826446281" cy="224.126938848958" r="2.5" stroke="none" stroke-width="0" fill="#3366cc"></circle><circle cx="997.4586776859504" cy="245.89000000000001" r="2.5" stroke="none" stroke-width="0" fill="#3366cc"></circle><circle cx="1004.5743801652893" cy="227.467" r="2.5" stroke="none" stroke-width="0" fill="#3366cc"></circle><circle cx="1018.805785123967" cy="273.92499999999995" r="2.5" stroke="none" stroke-width="0" fill="#3366cc"></circle><circle cx="1033.0371900826447" cy="317.53499999999997" r="2.5" stroke="none" stroke-width="0" fill="#3366cc"></circle><circle cx="1036.595041322314" cy="257.631677595661" r="2.5" stroke="none" stroke-width="0" fill="#3366cc"></circle><circle cx="1043.7107438016528" cy="235.331568258076" r="2.5" stroke="none" stroke-width="0" fill="#3366cc"></circle><circle cx="1047.2685950413224" cy="220.92654569188298" r="2.5" stroke="none" stroke-width="0" fill="#3366cc"></circle><circle cx="1050.8264462809918" cy="223.540230109555" r="2.5" stroke="none" stroke-width="0" fill="#3366cc"></circle><circle cx="1054.3842975206612" cy="172.220785278307" r="2.5" stroke="none" stroke-width="0" fill="#3366cc"></circle><circle cx="1061.5" cy="147.60544657055" r="2.5" stroke="none" stroke-width="0" fill="#3366cc"></circle></g><g><g><text text-anchor="middle" x="200.94473140495867" y="489.75" font-family="Arial" font-size="15" stroke="none" stroke-width="0" fill="#444444">January 2020</text></g><g><text text-anchor="middle" x="311.23811983471074" y="489.75" font-family="Arial" font-size="15" stroke="none" stroke-width="0" fill="#444444">February 2020</text></g><g><text text-anchor="middle" x="414.415805785124" y="489.75" font-family="Arial" font-size="15" stroke="none" stroke-width="0" fill="#444444">March 2020</text></g><g><text text-anchor="middle" x="524.7091942148761" y="489.75" font-family="Arial" font-size="15" stroke="none" stroke-width="0" fill="#444444">April 2020</text></g><g><text text-anchor="middle" x="631.4447314049587" y="489.75" font-family="Arial" font-size="15" stroke="none" stroke-width="0" fill="#444444">May 2020</text></g><g><text text-anchor="middle" x="741.7381198347108" y="489.75" font-family="Arial" font-size="15" stroke="none" stroke-width="0" fill="#444444">June 2020</text></g><g><text text-anchor="middle" x="848.4736570247934" y="489.75" font-family="Arial" font-size="15" stroke="none" stroke-width="0" fill="#444444">July 2020</text></g><g><text text-anchor="middle" x="958.7670454545455" y="489.75" font-family="Arial" font-size="15" stroke="none" stroke-width="0" fill="#444444">August 2020</text></g><g><text text-anchor="middle" x="1040.5976239669421" y="489.75" font-family="Arial" font-size="15" stroke="none" stroke-width="0" fill="#444444">24</text></g><g><text text-anchor="end" x="185" y="472.75" font-family="Arial" font-size="15" stroke="none" stroke-width="0" fill="#444444">0</text></g><g><text text-anchor="end" x="185" y="428.25" font-family="Arial" font-size="15" stroke="none" stroke-width="0" fill="#444444">5</text></g><g><text text-anchor="end" x="185" y="383.75" font-family="Arial" font-size="15" stroke="none" stroke-width="0" fill="#444444">10</text></g><g><text text-anchor="end" x="185" y="339.25" font-family="Arial" font-size="15" stroke="none" stroke-width="0" fill="#444444">15</text></g><g><text text-anchor="end" x="185" y="294.75" font-family="Arial" font-size="15" stroke="none" stroke-width="0" fill="#444444">20</text></g><g><text text-anchor="end" x="185" y="250.25" font-family="Arial" font-size="15" stroke="none" stroke-width="0" fill="#444444">25</text></g><g><text text-anchor="end" x="185" y="205.75" font-family="Arial" font-size="15" stroke="none" stroke-width="0" fill="#444444">30</text></g><g><text text-anchor="end" x="185" y="161.25" font-family="Arial" font-size="15" stroke="none" stroke-width="0" fill="#444444">35</text></g><g><text text-anchor="end" x="185" y="116.75" font-family="Arial" font-size="15" stroke="none" stroke-width="0" fill="#444444">40</text></g></g></g><g><g><text text-anchor="middle" x="631" y="540.25" font-family="Arial" font-size="15" font-style="italic" stroke="none" stroke-width="0" fill="#222222">Ano</text><rect x="200" y="527.5" width="862" height="15" stroke="none" stroke-width="0" fill-opacity="0" fill="#ffffff"></rect></g><g><text text-anchor="middle" x="89.25" y="289.5" font-family="Arial" font-size="15" font-style="italic" transform="rotate(-90 89.25 289.5)" stroke="none" stroke-width="0" fill="#222222">Temperatura do solo (ºC)</text><path d="M76.49999999999999,468L76.50000000000001,111L91.50000000000001,111L91.49999999999999,468Z" stroke="none" stroke-width="0" fill-opacity="0" fill="#ffffff"></path></g></g><g></g></svg>