<svg width="1261" height="498" aria-label="A chart." style="overflow: hidden;"><defs id="_ABSTRACT_RENDERER_ID_235"><clipPath id="_ABSTRACT_RENDERER_ID_236"><rect x="183" y="95" width="895" height="308"></rect></clipPath></defs><rect x="0" y="0" width="1261" height="498" stroke="none" stroke-width="0" fill="#ffffff"></rect><g><text text-anchor="start" x="183" y="68.75" font-family="Arial" font-size="15" font-weight="bold" stroke="none" stroke-width="0" fill="#000000">Diamante do Norte</text><rect x="183" y="56" width="895" height="15" stroke="none" stroke-width="0" fill-opacity="0" fill="#ffffff"></rect></g><g><rect x="1093" y="95" width="153" height="15" stroke="none" stroke-width="0" fill-opacity="0" fill="#ffffff"></rect><g column-id="LST_Day_1km"><rect x="1093" y="95" width="153" height="15" stroke="none" stroke-width="0" fill-opacity="0" fill="#ffffff"></rect><g><text text-anchor="start" x="1129" y="107.75" font-family="Arial" font-size="15" stroke="none" stroke-width="0" fill="#222222">LST_Day_1km</text></g><path d="M1093,102.5L1123,102.5" stroke="#3366cc" stroke-width="1" fill-opacity="1" fill="none"></path><circle cx="1108" cy="102.5" r="2.5" stroke="none" stroke-width="0" fill="#3366cc"></circle></g></g><g><rect x="183" y="95" width="895" height="308" stroke="none" stroke-width="0" fill-opacity="0" fill="#ffffff"></rect><g clip-path="url(https://code.earthengine.google.com/#_ABSTRACT_RENDERER_ID_236)"><g><rect x="253" y="95" width="1" height="308" stroke="none" stroke-width="0" fill="#cccccc"></rect><rect x="322" y="95" width="1" height="308" stroke="none" stroke-width="0" fill="#cccccc"></rect><rect x="399" y="95" width="1" height="308" stroke="none" stroke-width="0" fill="#cccccc"></rect><rect x="473" y="95" width="1" height="308" stroke="none" stroke-width="0" fill="#cccccc"></rect><rect x="550" y="95" width="1" height="308" stroke="none" stroke-width="0" fill="#cccccc"></rect><rect x="624" y="95" width="1" height="308" stroke="none" stroke-width="0" fill="#cccccc"></rect><rect x="701" y="95" width="1" height="308" stroke="none" stroke-width="0" fill="#cccccc"></rect><rect x="778" y="95" width="1" height="308" stroke="none" stroke-width="0" fill="#cccccc"></rect><rect x="852" y="95" width="1" height="308" stroke="none" stroke-width="0" fill="#cccccc"></rect><rect x="929" y="95" width="1" height="308" stroke="none" stroke-width="0" fill="#cccccc"></rect><rect x="1003" y="95" width="1" height="308" stroke="none" stroke-width="0" fill="#cccccc"></rect><rect x="183" y="402" width="895" height="1" stroke="none" stroke-width="0" fill="#cccccc"></rect><rect x="183" y="341" width="895" height="1" stroke="none" stroke-width="0" fill="#cccccc"></rect><rect x="183" y="279" width="895" height="1" stroke="none" stroke-width="0" fill="#cccccc"></rect><rect x="183" y="218" width="895" height="1" stroke="none" stroke-width="0" fill="#cccccc"></rect><rect x="183" y="156" width="895" height="1" stroke="none" stroke-width="0" fill="#cccccc"></rect><rect x="183" y="95" width="895" height="1" stroke="none" stroke-width="0" fill="#cccccc"></rect><rect x="183" y="371" width="895" height="1" stroke="none" stroke-width="0" fill="#ebebeb"></rect><rect x="183" y="310" width="895" height="1" stroke="none" stroke-width="0" fill="#ebebeb"></rect><rect x="183" y="249" width="895" height="1" stroke="none" stroke-width="0" fill="#ebebeb"></rect><rect x="183" y="187" width="895" height="1" stroke="none" stroke-width="0" fill="#ebebeb"></rect><rect x="183" y="126" width="895" height="1" stroke="none" stroke-width="0" fill="#ebebeb"></rect></g><g><rect x="183" y="402" width="895" height="1" stroke="none" stroke-width="0" fill="#333333"></rect></g><g><g><path d="M183.5,198.94581238157738L185.97645429362882,222.58776666664622M203.31163434903047,263.8324857142594L205.7880886426593,229.35643956341022M228.07617728531855,220.0649300062864L230.55263157894737,245.79492000000002L233.02908587257616,197.731M237.9819944598338,264.4114L240.45844875346262,224.18212L242.9349030470914,255.9382M255.31717451523548,211.66880000000003L257.79362880886424,202.029911096794L260.27008310249306,216.8878L262.7465373961219,193.2061000000254L265.2229916897507,220.5020753334768L267.6994459833795,174.2201320374614L270.1759002770083,185.86167907602L272.6523545706371,182.68032499999998M302.3698060941828,221.96309224140262L304.84626038781164,231.48937172428282L307.32271468144046,198.5906L309.7991689750693,224.9360895813864L312.27562326869804,208.2086286852778L314.75207756232686,233.09740000000002M329.6108033240997,210.8849018622742L332.08725761772854,204.85340000000002M337.0401662049861,249.1520776061878L339.516620498615,221.9071133531334M346.9459833795014,207.3950882613446L349.42243767313016,230.0274L351.89889196675904,196.2695280973824M359.32825484764544,225.5110888888616L361.8047091412742,223.206740335394L364.2811634349031,201.9835837986756M374.1869806094183,240.21980000000002L376.6634349030471,210.8541937327914L379.1398891966759,228.37432307692782M408.8573407202216,208.90824987528862L411.3337950138504,206.2270610956472L413.81024930747924,214.6828309582032L416.286703601108,205.084980509142L418.7631578947369,230.47320673133L421.23961218836564,211.95541692534L423.71606648199446,242.3863428571604L426.1925207756233,204.3346430952264L428.66897506925204,225.40191244900342L431.1454293628809,219.6256215827612M436.0983379501385,248.11037226276702L438.5747922437673,248.84235979646502L441.05124653739614,252.74540000000002L443.52770083102496,212.764711845168M448.48060941828254,225.58204L450.95706371191136,214.6698707862566L453.4335180055402,221.1760796833556L455.909972299169,210.44273762294782L458.3864265927978,232.77505000000002L460.8628808864266,203.45253764986919L463.3393351800554,244.8862L465.8157894736842,203.4633003012026L468.29224376731304,212.353236877788L470.76869806094186,201.2839766629406L473.2451523545706,199.33507500000002L475.72160664819944,224.24678037327882L478.19806094182826,200.0709928703138L480.6745152354571,226.65040000000002M488.1038781163435,218.8260753520264L490.5803324099723,231.91379087271622L493.0567867036011,234.9796228302984L495.53324099722994,225.01716000000002M500.4861495844875,239.9836461538556L502.96260387811634,260.2362L505.43905817174516,229.6366727272504L507.915512465374,233.34300000000002M512.8684210526316,247.7465517795566L515.3448753462603,241.22676M520.2977839335181,290.6906L522.7742382271468,264.45798168881777M527.7271468144045,259.5666985171156L530.2036011080332,257.2955874493686L532.680055401662,267.23580000000004L535.1565096952909,243.8137466666462L537.6329639889198,253.9287454545622L540.1094182825484,234.5493294117936L542.5858725761773,266.499L545.0623268698062,274.60380000000004L547.5387811634349,236.91065823171783M567.3504155124654,271.8118690967714L569.8268698060942,296.5236M589.6385041551247,288.3949790012514L592.1149584487534,285.9014L594.5914127423823,270.3690167801956L597.0678670360111,278.53340000000003L599.5443213296398,264.82585L602.0207756232687,248.45006088842302M606.9736842105262,226.58509808151462L609.4501385041551,229.2906L611.926592797784,238.54665L614.4030470914128,221.94102L616.8795013850415,262.8013555555692L619.3559556786704,263.30782649005243L621.8324099722992,259.745L624.3088642659279,225.7794693036808L626.7853185595568,243.781L629.2617728531857,229.30814285716042L631.7382271468144,273.76466666664624L634.2146814404432,241.2636L636.6911357340721,217.0494843644532L639.1675900277008,273.3758L641.6440443213296,265.27099999999996M646.5969529085874,272.6367537592236L649.073407202216,305.6275454545622L651.5498614958449,294.0612207792144L654.0263157894738,243.264891578639L656.5027700831025,249.614L658.9792243767313,215.0435232908244L661.4556786703602,252.5305L663.9321329639889,215.78250361065741L666.4085872576177,213.05570077838402L668.8850415512466,214.3367196066074L671.3614958448754,208.1509265292586L673.8379501385041,281.84900000000005L676.314404432133,258.7626M686.2202216066482,229.32830760870903L688.696675900277,240.3221085852242L691.1731301939058,227.30533333335381L693.6495844875346,214.76128853684102L696.1260387811634,258.3942L698.6024930747923,223.15827500000003M725.8434903047091,256.9644571428396L728.319944598338,237.2901526905546L730.7963988919668,255.970409388218L733.2728531855956,222.7852238810478M738.2257617728532,297.9358L740.702216066482,281.235L743.1786703601108,231.9278643292008L745.6551246537397,220.11568571425943L748.1315789473684,221.910698061597M755.5609418282548,248.8796123054268L758.0373961218837,246.23700000000002L760.5138504155125,244.9737344763318M765.4667590027701,235.84401504614362L767.9432132963989,235.0063818181874L770.4196675900278,212.36876L772.8961218836565,193.1715744375362L775.3725761772853,209.2459451327526L777.8490304709142,218.6629611526336M785.2783933518006,274.06764710999744L787.7548476454293,244.192520981768L790.2313019390582,222.7431089716814L792.707756232687,219.6303333333538L795.1842105263158,189.58193324597164L797.6606648199446,216.9867531064768L800.1371191135735,199.31134153843323M827.3781163434903,233.459906032563L829.8545706371191,198.97253298396703L832.331024930748,197.34299887724222L834.8074792243767,171.90139797742063L837.2839335180056,202.81322101576583L839.7603878116344,185.81386803885823M844.713296398892,253.8663198794944L847.1897506925208,244.7634M857.095567867036,192.4151485786218L859.5720221606648,264.2886L862.0484764542937,238.6234L864.5249307479224,239.7286L867.0013850415513,208.167505213009M884.3365650969529,221.5127585450518L886.8130193905818,260.08270000000005L889.2894736842105,248.20180000000002M894.2423822714682,217.05972L896.7188365650969,236.5332600719716L899.1952908587258,266.1681017964002L901.6717451523546,217.98072000000002L904.1481994459834,219.7220101503704M931.3891966759003,228.8449906267514L933.8656509695292,210.4432272328106M938.8185595567867,258.42148888886163L941.2950138504156,222.52786283483022M946.2479224376732,201.6700872042378L948.724376731302,227.93980000000002M953.6772853185596,194.0265333333538L956.1537396121884,203.855206523764L958.6301939058172,194.1120970292028M963.5831024930748,207.90271086954922L966.0595567867036,232.5184857142594M973.48891966759,253.3048222222154L975.9653739612188,196.596061377868L978.4418282548477,228.0216666666462L980.9182825484764,230.6414M985.8711911357341,245.80720000000002L988.347645429363,207.83130000000003L990.8240997229917,217.37900000000002L993.3005540166205,197.0225384615668L995.7770083102494,244.7634M1008.1592797783934,191.5435185746776L1010.6357340720222,183.44260742460278L1013.112188365651,175.15115L1015.5886426592798,153.43244237659601M1020.5415512465374,180.41617325201102L1023.0180055401662,190.8353076922888L1025.4944598337952,149.6295176470516L1027.9709141274238,169.5906338363772L1030.4473684210525,160.3029394939392L1032.9238227146816,167.23179051614443L1035.4002770083102,180.604003765243L1037.8767313019391,158.6806M1042.8296398891966,142.6685927650326L1045.3060941828255,168.03015196271662L1047.7825484764544,193.5967333333538L1050.259002770083,166.5670888888616L1052.735457063712,178.94260000000003L1055.2119113573408,219.71220000000002M1065.1177285318558,215.0458L1067.594182825485,209.5198L1070.0706371191136,246.38436000000002L1072.5470914127422,211.6770353141118" stroke="#3366cc" stroke-width="1" fill-opacity="1" fill="none"></path></g></g></g><g><circle cx="183.5" cy="198.94581238157738" r="2.5" stroke="none" stroke-width="0" fill="#3366cc"></circle><circle cx="185.97645429362882" cy="222.58776666664622" r="2.5" stroke="none" stroke-width="0" fill="#3366cc"></circle><circle cx="193.40581717451522" cy="222.6594" r="2.5" stroke="none" stroke-width="0" fill="#3366cc"></circle><circle cx="203.31163434903047" cy="263.8324857142594" r="2.5" stroke="none" stroke-width="0" fill="#3366cc"></circle><circle cx="205.7880886426593" cy="229.35643956341022" r="2.5" stroke="none" stroke-width="0" fill="#3366cc"></circle><circle cx="213.21745152354572" cy="252.6226" r="2.5" stroke="none" stroke-width="0" fill="#3366cc"></circle><circle cx="223.12326869806094" cy="210.451237146847" r="2.5" stroke="none" stroke-width="0" fill="#3366cc"></circle><circle cx="228.07617728531855" cy="220.0649300062864" r="2.5" stroke="none" stroke-width="0" fill="#3366cc"></circle><circle cx="230.55263157894737" cy="245.79492000000002" r="2.5" stroke="none" stroke-width="0" fill="#3366cc"></circle><circle cx="233.02908587257616" cy="197.731" r="2.5" stroke="none" stroke-width="0" fill="#3366cc"></circle><circle cx="237.9819944598338" cy="264.4114" r="2.5" stroke="none" stroke-width="0" fill="#3366cc"></circle><circle cx="240.45844875346262" cy="224.18212" r="2.5" stroke="none" stroke-width="0" fill="#3366cc"></circle><circle cx="242.9349030470914" cy="255.9382" r="2.5" stroke="none" stroke-width="0" fill="#3366cc"></circle><circle cx="255.31717451523548" cy="211.66880000000003" r="2.5" stroke="none" stroke-width="0" fill="#3366cc"></circle><circle cx="257.79362880886424" cy="202.029911096794" r="2.5" stroke="none" stroke-width="0" fill="#3366cc"></circle><circle cx="260.27008310249306" cy="216.8878" r="2.5" stroke="none" stroke-width="0" fill="#3366cc"></circle><circle cx="262.7465373961219" cy="193.2061000000254" r="2.5" stroke="none" stroke-width="0" fill="#3366cc"></circle><circle cx="265.2229916897507" cy="220.5020753334768" r="2.5" stroke="none" stroke-width="0" fill="#3366cc"></circle><circle cx="267.6994459833795" cy="174.2201320374614" r="2.5" stroke="none" stroke-width="0" fill="#3366cc"></circle><circle cx="270.1759002770083" cy="185.86167907602" r="2.5" stroke="none" stroke-width="0" fill="#3366cc"></circle><circle cx="272.6523545706371" cy="182.68032499999998" r="2.5" stroke="none" stroke-width="0" fill="#3366cc"></circle><circle cx="289.9875346260388" cy="209.64260000000002" r="2.5" stroke="none" stroke-width="0" fill="#3366cc"></circle><circle cx="302.3698060941828" cy="221.96309224140262" r="2.5" stroke="none" stroke-width="0" fill="#3366cc"></circle><circle cx="304.84626038781164" cy="231.48937172428282" r="2.5" stroke="none" stroke-width="0" fill="#3366cc"></circle><circle cx="307.32271468144046" cy="198.5906" r="2.5" stroke="none" stroke-width="0" fill="#3366cc"></circle><circle cx="309.7991689750693" cy="224.9360895813864" r="2.5" stroke="none" stroke-width="0" fill="#3366cc"></circle><circle cx="312.27562326869804" cy="208.2086286852778" r="2.5" stroke="none" stroke-width="0" fill="#3366cc"></circle><circle cx="314.75207756232686" cy="233.09740000000002" r="2.5" stroke="none" stroke-width="0" fill="#3366cc"></circle><circle cx="319.7049861495845" cy="253.2366" r="2.5" stroke="none" stroke-width="0" fill="#3366cc"></circle><circle cx="329.6108033240997" cy="210.8849018622742" r="2.5" stroke="none" stroke-width="0" fill="#3366cc"></circle><circle cx="332.08725761772854" cy="204.85340000000002" r="2.5" stroke="none" stroke-width="0" fill="#3366cc"></circle><circle cx="337.0401662049861" cy="249.1520776061878" r="2.5" stroke="none" stroke-width="0" fill="#3366cc"></circle><circle cx="339.516620498615" cy="221.9071133531334" r="2.5" stroke="none" stroke-width="0" fill="#3366cc"></circle><circle cx="346.9459833795014" cy="207.3950882613446" r="2.5" stroke="none" stroke-width="0" fill="#3366cc"></circle><circle cx="349.42243767313016" cy="230.0274" r="2.5" stroke="none" stroke-width="0" fill="#3366cc"></circle><circle cx="351.89889196675904" cy="196.2695280973824" r="2.5" stroke="none" stroke-width="0" fill="#3366cc"></circle><circle cx="359.32825484764544" cy="225.5110888888616" r="2.5" stroke="none" stroke-width="0" fill="#3366cc"></circle><circle cx="361.8047091412742" cy="223.206740335394" r="2.5" stroke="none" stroke-width="0" fill="#3366cc"></circle><circle cx="364.2811634349031" cy="201.9835837986756" r="2.5" stroke="none" stroke-width="0" fill="#3366cc"></circle><circle cx="369.23407202216066" cy="197.3632444314978" r="2.5" stroke="none" stroke-width="0" fill="#3366cc"></circle><circle cx="374.1869806094183" cy="240.21980000000002" r="2.5" stroke="none" stroke-width="0" fill="#3366cc"></circle><circle cx="376.6634349030471" cy="210.8541937327914" r="2.5" stroke="none" stroke-width="0" fill="#3366cc"></circle><circle cx="379.1398891966759" cy="228.37432307692782" r="2.5" stroke="none" stroke-width="0" fill="#3366cc"></circle><circle cx="391.5221606648199" cy="256.55219999999997" r="2.5" stroke="none" stroke-width="0" fill="#3366cc"></circle><circle cx="398.9515235457064" cy="284.4278" r="2.5" stroke="none" stroke-width="0" fill="#3366cc"></circle><circle cx="403.90443213296396" cy="213.0617590528964" r="2.5" stroke="none" stroke-width="0" fill="#3366cc"></circle><circle cx="408.8573407202216" cy="208.90824987528862" r="2.5" stroke="none" stroke-width="0" fill="#3366cc"></circle><circle cx="411.3337950138504" cy="206.2270610956472" r="2.5" stroke="none" stroke-width="0" fill="#3366cc"></circle><circle cx="413.81024930747924" cy="214.6828309582032" r="2.5" stroke="none" stroke-width="0" fill="#3366cc"></circle><circle cx="416.286703601108" cy="205.084980509142" r="2.5" stroke="none" stroke-width="0" fill="#3366cc"></circle><circle cx="418.7631578947369" cy="230.47320673133" r="2.5" stroke="none" stroke-width="0" fill="#3366cc"></circle><circle cx="421.23961218836564" cy="211.95541692534" r="2.5" stroke="none" stroke-width="0" fill="#3366cc"></circle><circle cx="423.71606648199446" cy="242.3863428571604" r="2.5" stroke="none" stroke-width="0" fill="#3366cc"></circle><circle cx="426.1925207756233" cy="204.3346430952264" r="2.5" stroke="none" stroke-width="0" fill="#3366cc"></circle><circle cx="428.66897506925204" cy="225.40191244900342" r="2.5" stroke="none" stroke-width="0" fill="#3366cc"></circle><circle cx="431.1454293628809" cy="219.6256215827612" r="2.5" stroke="none" stroke-width="0" fill="#3366cc"></circle><circle cx="436.0983379501385" cy="248.11037226276702" r="2.5" stroke="none" stroke-width="0" fill="#3366cc"></circle><circle cx="438.5747922437673" cy="248.84235979646502" r="2.5" stroke="none" stroke-width="0" fill="#3366cc"></circle><circle cx="441.05124653739614" cy="252.74540000000002" r="2.5" stroke="none" stroke-width="0" fill="#3366cc"></circle><circle cx="443.52770083102496" cy="212.764711845168" r="2.5" stroke="none" stroke-width="0" fill="#3366cc"></circle><circle cx="448.48060941828254" cy="225.58204" r="2.5" stroke="none" stroke-width="0" fill="#3366cc"></circle><circle cx="450.95706371191136" cy="214.6698707862566" r="2.5" stroke="none" stroke-width="0" fill="#3366cc"></circle><circle cx="453.4335180055402" cy="221.1760796833556" r="2.5" stroke="none" stroke-width="0" fill="#3366cc"></circle><circle cx="455.909972299169" cy="210.44273762294782" r="2.5" stroke="none" stroke-width="0" fill="#3366cc"></circle><circle cx="458.3864265927978" cy="232.77505000000002" r="2.5" stroke="none" stroke-width="0" fill="#3366cc"></circle><circle cx="460.8628808864266" cy="203.45253764986919" r="2.5" stroke="none" stroke-width="0" fill="#3366cc"></circle><circle cx="463.3393351800554" cy="244.8862" r="2.5" stroke="none" stroke-width="0" fill="#3366cc"></circle><circle cx="465.8157894736842" cy="203.4633003012026" r="2.5" stroke="none" stroke-width="0" fill="#3366cc"></circle><circle cx="468.29224376731304" cy="212.353236877788" r="2.5" stroke="none" stroke-width="0" fill="#3366cc"></circle><circle cx="470.76869806094186" cy="201.2839766629406" r="2.5" stroke="none" stroke-width="0" fill="#3366cc"></circle><circle cx="473.2451523545706" cy="199.33507500000002" r="2.5" stroke="none" stroke-width="0" fill="#3366cc"></circle><circle cx="475.72160664819944" cy="224.24678037327882" r="2.5" stroke="none" stroke-width="0" fill="#3366cc"></circle><circle cx="478.19806094182826" cy="200.0709928703138" r="2.5" stroke="none" stroke-width="0" fill="#3366cc"></circle><circle cx="480.6745152354571" cy="226.65040000000002" r="2.5" stroke="none" stroke-width="0" fill="#3366cc"></circle><circle cx="488.1038781163435" cy="218.8260753520264" r="2.5" stroke="none" stroke-width="0" fill="#3366cc"></circle><circle cx="490.5803324099723" cy="231.91379087271622" r="2.5" stroke="none" stroke-width="0" fill="#3366cc"></circle><circle cx="493.0567867036011" cy="234.9796228302984" r="2.5" stroke="none" stroke-width="0" fill="#3366cc"></circle><circle cx="495.53324099722994" cy="225.01716000000002" r="2.5" stroke="none" stroke-width="0" fill="#3366cc"></circle><circle cx="500.4861495844875" cy="239.9836461538556" r="2.5" stroke="none" stroke-width="0" fill="#3366cc"></circle><circle cx="502.96260387811634" cy="260.2362" r="2.5" stroke="none" stroke-width="0" fill="#3366cc"></circle><circle cx="505.43905817174516" cy="229.6366727272504" r="2.5" stroke="none" stroke-width="0" fill="#3366cc"></circle><circle cx="507.915512465374" cy="233.34300000000002" r="2.5" stroke="none" stroke-width="0" fill="#3366cc"></circle><circle cx="512.8684210526316" cy="247.7465517795566" r="2.5" stroke="none" stroke-width="0" fill="#3366cc"></circle><circle cx="515.3448753462603" cy="241.22676" r="2.5" stroke="none" stroke-width="0" fill="#3366cc"></circle><circle cx="520.2977839335181" cy="290.6906" r="2.5" stroke="none" stroke-width="0" fill="#3366cc"></circle><circle cx="522.7742382271468" cy="264.45798168881777" r="2.5" stroke="none" stroke-width="0" fill="#3366cc"></circle><circle cx="527.7271468144045" cy="259.5666985171156" r="2.5" stroke="none" stroke-width="0" fill="#3366cc"></circle><circle cx="530.2036011080332" cy="257.2955874493686" r="2.5" stroke="none" stroke-width="0" fill="#3366cc"></circle><circle cx="532.680055401662" cy="267.23580000000004" r="2.5" stroke="none" stroke-width="0" fill="#3366cc"></circle><circle cx="535.1565096952909" cy="243.8137466666462" r="2.5" stroke="none" stroke-width="0" fill="#3366cc"></circle><circle cx="537.6329639889198" cy="253.9287454545622" r="2.5" stroke="none" stroke-width="0" fill="#3366cc"></circle><circle cx="540.1094182825484" cy="234.5493294117936" r="2.5" stroke="none" stroke-width="0" fill="#3366cc"></circle><circle cx="542.5858725761773" cy="266.499" r="2.5" stroke="none" stroke-width="0" fill="#3366cc"></circle><circle cx="545.0623268698062" cy="274.60380000000004" r="2.5" stroke="none" stroke-width="0" fill="#3366cc"></circle><circle cx="547.5387811634349" cy="236.91065823171783" r="2.5" stroke="none" stroke-width="0" fill="#3366cc"></circle><circle cx="562.3975069252078" cy="281.03033333335384" r="2.5" stroke="none" stroke-width="0" fill="#3366cc"></circle><circle cx="567.3504155124654" cy="271.8118690967714" r="2.5" stroke="none" stroke-width="0" fill="#3366cc"></circle><circle cx="569.8268698060942" cy="296.5236" r="2.5" stroke="none" stroke-width="0" fill="#3366cc"></circle><circle cx="574.7797783933518" cy="231.05408662902423" r="2.5" stroke="none" stroke-width="0" fill="#3366cc"></circle><circle cx="579.7326869806094" cy="296.5236" r="2.5" stroke="none" stroke-width="0" fill="#3366cc"></circle><circle cx="589.6385041551247" cy="288.3949790012514" r="2.5" stroke="none" stroke-width="0" fill="#3366cc"></circle><circle cx="592.1149584487534" cy="285.9014" r="2.5" stroke="none" stroke-width="0" fill="#3366cc"></circle><circle cx="594.5914127423823" cy="270.3690167801956" r="2.5" stroke="none" stroke-width="0" fill="#3366cc"></circle><circle cx="597.0678670360111" cy="278.53340000000003" r="2.5" stroke="none" stroke-width="0" fill="#3366cc"></circle><circle cx="599.5443213296398" cy="264.82585" r="2.5" stroke="none" stroke-width="0" fill="#3366cc"></circle><circle cx="602.0207756232687" cy="248.45006088842302" r="2.5" stroke="none" stroke-width="0" fill="#3366cc"></circle><circle cx="606.9736842105262" cy="226.58509808151462" r="2.5" stroke="none" stroke-width="0" fill="#3366cc"></circle><circle cx="609.4501385041551" cy="229.2906" r="2.5" stroke="none" stroke-width="0" fill="#3366cc"></circle><circle cx="611.926592797784" cy="238.54665" r="2.5" stroke="none" stroke-width="0" fill="#3366cc"></circle><circle cx="614.4030470914128" cy="221.94102" r="2.5" stroke="none" stroke-width="0" fill="#3366cc"></circle><circle cx="616.8795013850415" cy="262.8013555555692" r="2.5" stroke="none" stroke-width="0" fill="#3366cc"></circle><circle cx="619.3559556786704" cy="263.30782649005243" r="2.5" stroke="none" stroke-width="0" fill="#3366cc"></circle><circle cx="621.8324099722992" cy="259.745" r="2.5" stroke="none" stroke-width="0" fill="#3366cc"></circle><circle cx="624.3088642659279" cy="225.7794693036808" r="2.5" stroke="none" stroke-width="0" fill="#3366cc"></circle><circle cx="626.7853185595568" cy="243.781" r="2.5" stroke="none" stroke-width="0" fill="#3366cc"></circle><circle cx="629.2617728531857" cy="229.30814285716042" r="2.5" stroke="none" stroke-width="0" fill="#3366cc"></circle><circle cx="631.7382271468144" cy="273.76466666664624" r="2.5" stroke="none" stroke-width="0" fill="#3366cc"></circle><circle cx="634.2146814404432" cy="241.2636" r="2.5" stroke="none" stroke-width="0" fill="#3366cc"></circle><circle cx="636.6911357340721" cy="217.0494843644532" r="2.5" stroke="none" stroke-width="0" fill="#3366cc"></circle><circle cx="639.1675900277008" cy="273.3758" r="2.5" stroke="none" stroke-width="0" fill="#3366cc"></circle><circle cx="641.6440443213296" cy="265.27099999999996" r="2.5" stroke="none" stroke-width="0" fill="#3366cc"></circle><circle cx="646.5969529085874" cy="272.6367537592236" r="2.5" stroke="none" stroke-width="0" fill="#3366cc"></circle><circle cx="649.073407202216" cy="305.6275454545622" r="2.5" stroke="none" stroke-width="0" fill="#3366cc"></circle><circle cx="651.5498614958449" cy="294.0612207792144" r="2.5" stroke="none" stroke-width="0" fill="#3366cc"></circle><circle cx="654.0263157894738" cy="243.264891578639" r="2.5" stroke="none" stroke-width="0" fill="#3366cc"></circle><circle cx="656.5027700831025" cy="249.614" r="2.5" stroke="none" stroke-width="0" fill="#3366cc"></circle><circle cx="658.9792243767313" cy="215.0435232908244" r="2.5" stroke="none" stroke-width="0" fill="#3366cc"></circle><circle cx="661.4556786703602" cy="252.5305" r="2.5" stroke="none" stroke-width="0" fill="#3366cc"></circle><circle cx="663.9321329639889" cy="215.78250361065741" r="2.5" stroke="none" stroke-width="0" fill="#3366cc"></circle><circle cx="666.4085872576177" cy="213.05570077838402" r="2.5" stroke="none" stroke-width="0" fill="#3366cc"></circle><circle cx="668.8850415512466" cy="214.3367196066074" r="2.5" stroke="none" stroke-width="0" fill="#3366cc"></circle><circle cx="671.3614958448754" cy="208.1509265292586" r="2.5" stroke="none" stroke-width="0" fill="#3366cc"></circle><circle cx="673.8379501385041" cy="281.84900000000005" r="2.5" stroke="none" stroke-width="0" fill="#3366cc"></circle><circle cx="676.314404432133" cy="258.7626" r="2.5" stroke="none" stroke-width="0" fill="#3366cc"></circle><circle cx="686.2202216066482" cy="229.32830760870903" r="2.5" stroke="none" stroke-width="0" fill="#3366cc"></circle><circle cx="688.696675900277" cy="240.3221085852242" r="2.5" stroke="none" stroke-width="0" fill="#3366cc"></circle><circle cx="691.1731301939058" cy="227.30533333335381" r="2.5" stroke="none" stroke-width="0" fill="#3366cc"></circle><circle cx="693.6495844875346" cy="214.76128853684102" r="2.5" stroke="none" stroke-width="0" fill="#3366cc"></circle><circle cx="696.1260387811634" cy="258.3942" r="2.5" stroke="none" stroke-width="0" fill="#3366cc"></circle><circle cx="698.6024930747923" cy="223.15827500000003" r="2.5" stroke="none" stroke-width="0" fill="#3366cc"></circle><circle cx="703.5554016620499" cy="262.1089" r="2.5" stroke="none" stroke-width="0" fill="#3366cc"></circle><circle cx="720.8905817174515" cy="286.344281141674" r="2.5" stroke="none" stroke-width="0" fill="#3366cc"></circle><circle cx="725.8434903047091" cy="256.9644571428396" r="2.5" stroke="none" stroke-width="0" fill="#3366cc"></circle><circle cx="728.319944598338" cy="237.2901526905546" r="2.5" stroke="none" stroke-width="0" fill="#3366cc"></circle><circle cx="730.7963988919668" cy="255.970409388218" r="2.5" stroke="none" stroke-width="0" fill="#3366cc"></circle><circle cx="733.2728531855956" cy="222.7852238810478" r="2.5" stroke="none" stroke-width="0" fill="#3366cc"></circle><circle cx="738.2257617728532" cy="297.9358" r="2.5" stroke="none" stroke-width="0" fill="#3366cc"></circle><circle cx="740.702216066482" cy="281.235" r="2.5" stroke="none" stroke-width="0" fill="#3366cc"></circle><circle cx="743.1786703601108" cy="231.9278643292008" r="2.5" stroke="none" stroke-width="0" fill="#3366cc"></circle><circle cx="745.6551246537397" cy="220.11568571425943" r="2.5" stroke="none" stroke-width="0" fill="#3366cc"></circle><circle cx="748.1315789473684" cy="221.910698061597" r="2.5" stroke="none" stroke-width="0" fill="#3366cc"></circle><circle cx="755.5609418282548" cy="248.8796123054268" r="2.5" stroke="none" stroke-width="0" fill="#3366cc"></circle><circle cx="758.0373961218837" cy="246.23700000000002" r="2.5" stroke="none" stroke-width="0" fill="#3366cc"></circle><circle cx="760.5138504155125" cy="244.9737344763318" r="2.5" stroke="none" stroke-width="0" fill="#3366cc"></circle><circle cx="765.4667590027701" cy="235.84401504614362" r="2.5" stroke="none" stroke-width="0" fill="#3366cc"></circle><circle cx="767.9432132963989" cy="235.0063818181874" r="2.5" stroke="none" stroke-width="0" fill="#3366cc"></circle><circle cx="770.4196675900278" cy="212.36876" r="2.5" stroke="none" stroke-width="0" fill="#3366cc"></circle><circle cx="772.8961218836565" cy="193.1715744375362" r="2.5" stroke="none" stroke-width="0" fill="#3366cc"></circle><circle cx="775.3725761772853" cy="209.2459451327526" r="2.5" stroke="none" stroke-width="0" fill="#3366cc"></circle><circle cx="777.8490304709142" cy="218.6629611526336" r="2.5" stroke="none" stroke-width="0" fill="#3366cc"></circle><circle cx="785.2783933518006" cy="274.06764710999744" r="2.5" stroke="none" stroke-width="0" fill="#3366cc"></circle><circle cx="787.7548476454293" cy="244.192520981768" r="2.5" stroke="none" stroke-width="0" fill="#3366cc"></circle><circle cx="790.2313019390582" cy="222.7431089716814" r="2.5" stroke="none" stroke-width="0" fill="#3366cc"></circle><circle cx="792.707756232687" cy="219.6303333333538" r="2.5" stroke="none" stroke-width="0" fill="#3366cc"></circle><circle cx="795.1842105263158" cy="189.58193324597164" r="2.5" stroke="none" stroke-width="0" fill="#3366cc"></circle><circle cx="797.6606648199446" cy="216.9867531064768" r="2.5" stroke="none" stroke-width="0" fill="#3366cc"></circle><circle cx="800.1371191135735" cy="199.31134153843323" r="2.5" stroke="none" stroke-width="0" fill="#3366cc"></circle><circle cx="805.090027700831" cy="217.7429073170552" r="2.5" stroke="none" stroke-width="0" fill="#3366cc"></circle><circle cx="812.5193905817175" cy="272.639" r="2.5" stroke="none" stroke-width="0" fill="#3366cc"></circle><circle cx="822.4252077562327" cy="210.2956641160232" r="2.5" stroke="none" stroke-width="0" fill="#3366cc"></circle><circle cx="827.3781163434903" cy="233.459906032563" r="2.5" stroke="none" stroke-width="0" fill="#3366cc"></circle><circle cx="829.8545706371191" cy="198.97253298396703" r="2.5" stroke="none" stroke-width="0" fill="#3366cc"></circle><circle cx="832.331024930748" cy="197.34299887724222" r="2.5" stroke="none" stroke-width="0" fill="#3366cc"></circle><circle cx="834.8074792243767" cy="171.90139797742063" r="2.5" stroke="none" stroke-width="0" fill="#3366cc"></circle><circle cx="837.2839335180056" cy="202.81322101576583" r="2.5" stroke="none" stroke-width="0" fill="#3366cc"></circle><circle cx="839.7603878116344" cy="185.81386803885823" r="2.5" stroke="none" stroke-width="0" fill="#3366cc"></circle><circle cx="844.713296398892" cy="253.8663198794944" r="2.5" stroke="none" stroke-width="0" fill="#3366cc"></circle><circle cx="847.1897506925208" cy="244.7634" r="2.5" stroke="none" stroke-width="0" fill="#3366cc"></circle><circle cx="852.1426592797784" cy="221.192515305106" r="2.5" stroke="none" stroke-width="0" fill="#3366cc"></circle><circle cx="857.095567867036" cy="192.4151485786218" r="2.5" stroke="none" stroke-width="0" fill="#3366cc"></circle><circle cx="859.5720221606648" cy="264.2886" r="2.5" stroke="none" stroke-width="0" fill="#3366cc"></circle><circle cx="862.0484764542937" cy="238.6234" r="2.5" stroke="none" stroke-width="0" fill="#3366cc"></circle><circle cx="864.5249307479224" cy="239.7286" r="2.5" stroke="none" stroke-width="0" fill="#3366cc"></circle><circle cx="867.0013850415513" cy="208.167505213009" r="2.5" stroke="none" stroke-width="0" fill="#3366cc"></circle><circle cx="879.3836565096954" cy="281.84900000000005" r="2.5" stroke="none" stroke-width="0" fill="#3366cc"></circle><circle cx="884.3365650969529" cy="221.5127585450518" r="2.5" stroke="none" stroke-width="0" fill="#3366cc"></circle><circle cx="886.8130193905818" cy="260.08270000000005" r="2.5" stroke="none" stroke-width="0" fill="#3366cc"></circle><circle cx="889.2894736842105" cy="248.20180000000002" r="2.5" stroke="none" stroke-width="0" fill="#3366cc"></circle><circle cx="894.2423822714682" cy="217.05972" r="2.5" stroke="none" stroke-width="0" fill="#3366cc"></circle><circle cx="896.7188365650969" cy="236.5332600719716" r="2.5" stroke="none" stroke-width="0" fill="#3366cc"></circle><circle cx="899.1952908587258" cy="266.1681017964002" r="2.5" stroke="none" stroke-width="0" fill="#3366cc"></circle><circle cx="901.6717451523546" cy="217.98072000000002" r="2.5" stroke="none" stroke-width="0" fill="#3366cc"></circle><circle cx="904.1481994459834" cy="219.7220101503704" r="2.5" stroke="none" stroke-width="0" fill="#3366cc"></circle><circle cx="919.0069252077562" cy="194.6848628309984" r="2.5" stroke="none" stroke-width="0" fill="#3366cc"></circle><circle cx="923.9598337950139" cy="194.97475490872003" r="2.5" stroke="none" stroke-width="0" fill="#3366cc"></circle><circle cx="931.3891966759003" cy="228.8449906267514" r="2.5" stroke="none" stroke-width="0" fill="#3366cc"></circle><circle cx="933.8656509695292" cy="210.4432272328106" r="2.5" stroke="none" stroke-width="0" fill="#3366cc"></circle><circle cx="938.8185595567867" cy="258.42148888886163" r="2.5" stroke="none" stroke-width="0" fill="#3366cc"></circle><circle cx="941.2950138504156" cy="222.52786283483022" r="2.5" stroke="none" stroke-width="0" fill="#3366cc"></circle><circle cx="946.2479224376732" cy="201.6700872042378" r="2.5" stroke="none" stroke-width="0" fill="#3366cc"></circle><circle cx="948.724376731302" cy="227.93980000000002" r="2.5" stroke="none" stroke-width="0" fill="#3366cc"></circle><circle cx="953.6772853185596" cy="194.0265333333538" r="2.5" stroke="none" stroke-width="0" fill="#3366cc"></circle><circle cx="956.1537396121884" cy="203.855206523764" r="2.5" stroke="none" stroke-width="0" fill="#3366cc"></circle><circle cx="958.6301939058172" cy="194.1120970292028" r="2.5" stroke="none" stroke-width="0" fill="#3366cc"></circle><circle cx="963.5831024930748" cy="207.90271086954922" r="2.5" stroke="none" stroke-width="0" fill="#3366cc"></circle><circle cx="966.0595567867036" cy="232.5184857142594" r="2.5" stroke="none" stroke-width="0" fill="#3366cc"></circle><circle cx="973.48891966759" cy="253.3048222222154" r="2.5" stroke="none" stroke-width="0" fill="#3366cc"></circle><circle cx="975.9653739612188" cy="196.596061377868" r="2.5" stroke="none" stroke-width="0" fill="#3366cc"></circle><circle cx="978.4418282548477" cy="228.0216666666462" r="2.5" stroke="none" stroke-width="0" fill="#3366cc"></circle><circle cx="980.9182825484764" cy="230.6414" r="2.5" stroke="none" stroke-width="0" fill="#3366cc"></circle><circle cx="985.8711911357341" cy="245.80720000000002" r="2.5" stroke="none" stroke-width="0" fill="#3366cc"></circle><circle cx="988.347645429363" cy="207.83130000000003" r="2.5" stroke="none" stroke-width="0" fill="#3366cc"></circle><circle cx="990.8240997229917" cy="217.37900000000002" r="2.5" stroke="none" stroke-width="0" fill="#3366cc"></circle><circle cx="993.3005540166205" cy="197.0225384615668" r="2.5" stroke="none" stroke-width="0" fill="#3366cc"></circle><circle cx="995.7770083102494" cy="244.7634" r="2.5" stroke="none" stroke-width="0" fill="#3366cc"></circle><circle cx="1003.2063711911358" cy="237.76380000000003" r="2.5" stroke="none" stroke-width="0" fill="#3366cc"></circle><circle cx="1008.1592797783934" cy="191.5435185746776" r="2.5" stroke="none" stroke-width="0" fill="#3366cc"></circle><circle cx="1010.6357340720222" cy="183.44260742460278" r="2.5" stroke="none" stroke-width="0" fill="#3366cc"></circle><circle cx="1013.112188365651" cy="175.15115" r="2.5" stroke="none" stroke-width="0" fill="#3366cc"></circle><circle cx="1015.5886426592798" cy="153.43244237659601" r="2.5" stroke="none" stroke-width="0" fill="#3366cc"></circle><circle cx="1020.5415512465374" cy="180.41617325201102" r="2.5" stroke="none" stroke-width="0" fill="#3366cc"></circle><circle cx="1023.0180055401662" cy="190.8353076922888" r="2.5" stroke="none" stroke-width="0" fill="#3366cc"></circle><circle cx="1025.4944598337952" cy="149.6295176470516" r="2.5" stroke="none" stroke-width="0" fill="#3366cc"></circle><circle cx="1027.9709141274238" cy="169.5906338363772" r="2.5" stroke="none" stroke-width="0" fill="#3366cc"></circle><circle cx="1030.4473684210525" cy="160.3029394939392" r="2.5" stroke="none" stroke-width="0" fill="#3366cc"></circle><circle cx="1032.9238227146816" cy="167.23179051614443" r="2.5" stroke="none" stroke-width="0" fill="#3366cc"></circle><circle cx="1035.4002770083102" cy="180.604003765243" r="2.5" stroke="none" stroke-width="0" fill="#3366cc"></circle><circle cx="1037.8767313019391" cy="158.6806" r="2.5" stroke="none" stroke-width="0" fill="#3366cc"></circle><circle cx="1042.8296398891966" cy="142.6685927650326" r="2.5" stroke="none" stroke-width="0" fill="#3366cc"></circle><circle cx="1045.3060941828255" cy="168.03015196271662" r="2.5" stroke="none" stroke-width="0" fill="#3366cc"></circle><circle cx="1047.7825484764544" cy="193.5967333333538" r="2.5" stroke="none" stroke-width="0" fill="#3366cc"></circle><circle cx="1050.259002770083" cy="166.5670888888616" r="2.5" stroke="none" stroke-width="0" fill="#3366cc"></circle><circle cx="1052.735457063712" cy="178.94260000000003" r="2.5" stroke="none" stroke-width="0" fill="#3366cc"></circle><circle cx="1055.2119113573408" cy="219.71220000000002" r="2.5" stroke="none" stroke-width="0" fill="#3366cc"></circle><circle cx="1065.1177285318558" cy="215.0458" r="2.5" stroke="none" stroke-width="0" fill="#3366cc"></circle><circle cx="1067.594182825485" cy="209.5198" r="2.5" stroke="none" stroke-width="0" fill="#3366cc"></circle><circle cx="1070.0706371191136" cy="246.38436000000002" r="2.5" stroke="none" stroke-width="0" fill="#3366cc"></circle><circle cx="1072.5470914127422" cy="211.6770353141118" r="2.5" stroke="none" stroke-width="0" fill="#3366cc"></circle><circle cx="1077.5" cy="205.4551248138214" r="2.5" stroke="none" stroke-width="0" fill="#3366cc"></circle></g><g><g><text text-anchor="middle" x="253.0470914127424" y="424.75" font-family="Arial" font-size="15" stroke="none" stroke-width="0" fill="#444444">February 2018</text></g><g><text text-anchor="middle" x="399.26108033240996" y="424.75" font-family="Arial" font-size="15" stroke="none" stroke-width="0" fill="#444444">April 2018</text></g><g><text text-anchor="middle" x="550.3247922437673" y="424.75" font-family="Arial" font-size="15" stroke="none" stroke-width="0" fill="#444444">June 2018</text></g><g><text text-anchor="middle" x="701.3885041551247" y="424.75" font-family="Arial" font-size="15" stroke="none" stroke-width="0" fill="#444444">August 2018</text></g><g><text text-anchor="middle" x="852.452216066482" y="424.75" font-family="Arial" font-size="15" stroke="none" stroke-width="0" fill="#444444">October 2018</text></g><g><text text-anchor="middle" x="1003.4127423822715" y="424.75" font-family="Arial" font-size="15" stroke="none" stroke-width="0" fill="#444444">December 2018</text></g><g><text text-anchor="end" x="168" y="407.75" font-family="Arial" font-size="15" stroke="none" stroke-width="0" fill="#444444">0</text></g><g><text text-anchor="end" x="168" y="346.35" font-family="Arial" font-size="15" stroke="none" stroke-width="0" fill="#444444">10</text></g><g><text text-anchor="end" x="168" y="284.95" font-family="Arial" font-size="15" stroke="none" stroke-width="0" fill="#444444">20</text></g><g><text text-anchor="end" x="168" y="223.55" font-family="Arial" font-size="15" stroke="none" stroke-width="0" fill="#444444">30</text></g><g><text text-anchor="end" x="168" y="162.15" font-family="Arial" font-size="15" stroke="none" stroke-width="0" fill="#444444">40</text></g><g><text text-anchor="end" x="168" y="100.75" font-family="Arial" font-size="15" stroke="none" stroke-width="0" fill="#444444">50</text></g></g></g><g><g><text text-anchor="middle" x="630.5" y="467.75" font-family="Arial" font-size="15" font-style="italic" stroke="none" stroke-width="0" fill="#222222">Ano</text><rect x="183" y="455" width="895" height="15" stroke="none" stroke-width="0" fill-opacity="0" fill="#ffffff"></rect></g><g><text text-anchor="middle" x="80.75" y="249" font-family="Arial" font-size="15" font-style="italic" transform="rotate(-90 80.75 249)" stroke="none" stroke-width="0" fill="#222222">Temperatura do solo (ºC)</text><path d="M67.99999999999999,403L68.00000000000001,95L83.00000000000001,95L82.99999999999999,403Z" stroke="none" stroke-width="0" fill-opacity="0" fill="#ffffff"></path></g></g><g></g></svg>