<svg width="1261" height="578" aria-label="A chart." style="overflow: hidden;"><defs id="_ABSTRACT_RENDERER_ID_224"><clipPath id="_ABSTRACT_RENDERER_ID_225"><rect x="200" y="111" width="862" height="357"></rect></clipPath></defs><rect x="0" y="0" width="1261" height="578" stroke="none" stroke-width="0" fill="#ffffff"></rect><g><text text-anchor="start" x="200" y="84.75" font-family="Arial" font-size="15" font-weight="bold" stroke="none" stroke-width="0" fill="#000000">Diamante do Norte</text><rect x="200" y="72" width="862" height="15" stroke="none" stroke-width="0" fill-opacity="0" fill="#ffffff"></rect></g><g><rect x="1077" y="111" width="169" height="15" stroke="none" stroke-width="0" fill-opacity="0" fill="#ffffff"></rect><g column-id="LST_Day_1km"><rect x="1077" y="111" width="169" height="15" stroke="none" stroke-width="0" fill-opacity="0" fill="#ffffff"></rect><g><text text-anchor="start" x="1113" y="123.75" font-family="Arial" font-size="15" stroke="none" stroke-width="0" fill="#222222">LST_Day_1km</text></g><path d="M1077,118.5L1107,118.5" stroke="#3366cc" stroke-width="1" fill-opacity="1" fill="none"></path><circle cx="1092" cy="118.5" r="2.5" stroke="none" stroke-width="0" fill="#3366cc"></circle></g></g><g><rect x="200" y="111" width="862" height="357" stroke="none" stroke-width="0" fill-opacity="0" fill="#ffffff"></rect><g clip-path="url(https://code.earthengine.google.com/#_ABSTRACT_RENDERER_ID_225)"><g><rect x="200" y="111" width="1" height="357" stroke="none" stroke-width="0" fill="#cccccc"></rect><rect x="274" y="111" width="1" height="357" stroke="none" stroke-width="0" fill="#cccccc"></rect><rect x="340" y="111" width="1" height="357" stroke="none" stroke-width="0" fill="#cccccc"></rect><rect x="413" y="111" width="1" height="357" stroke="none" stroke-width="0" fill="#cccccc"></rect><rect x="484" y="111" width="1" height="357" stroke="none" stroke-width="0" fill="#cccccc"></rect><rect x="557" y="111" width="1" height="357" stroke="none" stroke-width="0" fill="#cccccc"></rect><rect x="628" y="111" width="1" height="357" stroke="none" stroke-width="0" fill="#cccccc"></rect><rect x="702" y="111" width="1" height="357" stroke="none" stroke-width="0" fill="#cccccc"></rect><rect x="775" y="111" width="1" height="357" stroke="none" stroke-width="0" fill="#cccccc"></rect><rect x="846" y="111" width="1" height="357" stroke="none" stroke-width="0" fill="#cccccc"></rect><rect x="919" y="111" width="1" height="357" stroke="none" stroke-width="0" fill="#cccccc"></rect><rect x="990" y="111" width="1" height="357" stroke="none" stroke-width="0" fill="#cccccc"></rect><rect x="200" y="467" width="862" height="1" stroke="none" stroke-width="0" fill="#cccccc"></rect><rect x="200" y="396" width="862" height="1" stroke="none" stroke-width="0" fill="#cccccc"></rect><rect x="200" y="325" width="862" height="1" stroke="none" stroke-width="0" fill="#cccccc"></rect><rect x="200" y="253" width="862" height="1" stroke="none" stroke-width="0" fill="#cccccc"></rect><rect x="200" y="182" width="862" height="1" stroke="none" stroke-width="0" fill="#cccccc"></rect><rect x="200" y="111" width="862" height="1" stroke="none" stroke-width="0" fill="#cccccc"></rect><rect x="200" y="431" width="862" height="1" stroke="none" stroke-width="0" fill="#ebebeb"></rect><rect x="200" y="360" width="862" height="1" stroke="none" stroke-width="0" fill="#ebebeb"></rect><rect x="200" y="289" width="862" height="1" stroke="none" stroke-width="0" fill="#ebebeb"></rect><rect x="200" y="218" width="862" height="1" stroke="none" stroke-width="0" fill="#ebebeb"></rect><rect x="200" y="147" width="862" height="1" stroke="none" stroke-width="0" fill="#ebebeb"></rect></g><g><rect x="200" y="467" width="862" height="1" stroke="none" stroke-width="0" fill="#333333"></rect></g><g><g><path d="M214.69230769230768,233.82575018926L217.05769230769232,224.12416L219.42307692307693,173.5152M226.51923076923077,250.9076071246736L228.8846153846154,251.8690935102976L231.25,277.4672L233.6153846153846,304.6656L235.98076923076923,241.8672L238.34615384615384,251.8905777777936L240.71153846153845,291.1376L243.0769230769231,243.6625273228968L245.44230769230768,304.9504L247.80769230769232,255.9648L250.17307692307693,275.924750785372L252.53846153846155,267.4754666666904L254.90384615384616,268.7808M278.5576923076923,299.82399999999996L280.9230769230769,228.78551157897357L283.28846153846155,254.0500167441728L285.6538461538462,259.6672L288.0192307692308,224.37501414139763L290.38461538461536,244.34589708655358L292.75,229.213473866608M306.9423076923077,237.6863392991944L309.3076923076923,227.9168206231984L311.6730769230769,239.8676225292408L314.03846153846155,225.6544822353976L316.4038461538462,237.71170909088318L318.7692307692308,222.536318747984L321.13461538461536,261.8032L323.5,231.1590446540576L325.86538461538464,226.0914325581296M330.59615384615387,252.4048L332.96153846153845,291.15342222220636L335.3269230769231,249.042654235344M340.0576923076923,231.20164903422878L342.4230769230769,289.58702222220643L344.78846153846155,255.2338133333096M354.25,296.5488L356.61538461538464,230.32966781993838L358.9807692307692,252.86104622141758L361.34615384615387,248.3685922078144L363.71153846153845,231.06527401674802L366.0769230769231,237.14502905030238L368.44230769230774,243.86079999999998L370.8076923076923,263.3696L373.1730769230769,227.00222222220637M385,263.1365094971896L387.36538461538464,263.79679999999996L389.7307692307693,266.24608M394.46153846153845,225.19709695616638L396.8269230769231,248.3730116868664M403.9230769230769,282.024L406.28846153846155,250.4804627877656L408.6538461538462,273.38582310759443L411.0192307692308,246.14664861541198M415.75,263.2698620127976L418.11538461538464,254.38890666669042L420.4807692307693,297.2608M434.6730769230769,275.45579999999995L437.03846153846155,275.616M441.7692307692308,277.8373773869336L444.13461538461536,253.2634911644056L446.5,277.8107667907088M460.69230769230774,341.12L463.0576923076923,301.1746762386392L465.42307692307696,271.5243265104808M474.8846153846154,319.1904L477.25,287.6555021041312L479.61538461538464,298.74531238152883L481.9807692307692,281.59680000000003L484.34615384615387,309.08L486.71153846153845,288.8798513219072M496.17307692307696,287.3710762295152L498.53846153846155,306.6991436477768L500.9038461538462,292.081840699696L503.2692307692308,324.8152M508,290.0871831672352L510.36538461538464,299.0918581205008L512.7307692307693,268.3167275385912L515.0961538461538,290.5058122914424M534.0192307692307,309.64959999999996L536.3846153846155,301.2126373333096L538.75,299.05601599236957L541.1153846153846,266.1679489973384L543.4807692307693,300.25120000000004L545.8461538461538,289.0016L548.2115384615386,291.1376L550.5769230769231,350.8032M557.6730769230769,351.08799999999997L560.0384615384615,327.4496L562.4038461538462,307.4215274429608M569.5,317.02592L571.8653846153846,356.072M578.9615384615386,335.9582097747088L581.3269230769231,349.4711900046264L583.6923076923077,332.1076887029104M590.7884615384615,310.2877441913704L593.1538461538462,309.0136572881368L595.5192307692307,282.024L597.8846153846155,298.78235828079755L600.25,318.5364992M604.9807692307693,311.0068631359728L607.3461538461538,294.4761749728296L609.7115384615386,299.98064M614.4423076923077,306.94399999999996L616.8076923076924,300.4264791633424L619.1730769230769,324.3168L621.5384615384615,284.47312999762M626.2692307692307,280.903019769212L628.6346153846155,276.781277912428L631,327.1684980249024L633.3653846153846,346.2464L635.7307692307693,334.8544L638.0961538461538,304.81864322463036M647.5576923076924,331.0808L649.9230769230769,278.9977316350248L652.2884615384615,299.24015999999995L654.6538461538462,274.1807309352728L657.0192307692307,317.1968L659.3846153846155,276.3142553790552L661.75,275.9230481310712L664.1153846153846,269.7206772652968M668.8461538461538,354.5296476820928L671.2115384615386,317.7572855421824L673.5769230769231,337.435439351528L675.9423076923077,276.76849476524717M680.6730769230769,281.2894383467064L683.0384615384615,268.72025116720397L685.4038461538462,272.3679022997936L687.7692307692307,255.4998181956872L690.1346153846155,285.7026450319296L692.5,271.0783805538312L694.8653846153846,311.216L697.2307692307693,268.33574239485677M701.9615384615386,275.9055665272184L704.3269230769231,280.42912M709.0576923076924,275.45775656838157L711.4230769230769,318.92924062500003L713.7884615384615,275.43645217394396M718.5192307692308,276.38496L720.8846153846155,226.69119468575522L723.25,245.3186415656968L725.6153846153846,275.4578108786736L727.9807692307693,280.5762666666904L730.3461538461539,254.3984L732.7115384615385,314.97414455021124M746.9038461538462,304.3096L749.2692307692308,314.585561445796L751.6346153846155,292.2768M756.3653846153846,260.3716882085432L758.7307692307693,250.5796386941864L761.0961538461539,254.5561639392056L763.4615384615385,234.10864395230078L765.8269230769231,257.6292913680136L768.1923076923077,226.81904069681678L770.5576923076924,256.3790545454416L772.9230769230769,221.6681621262792L775.2884615384615,269.6658302430616L777.6538461538462,258.99206649420796L780.0192307692308,240.7220344997408L782.3846153846155,245.7002372966304L784.75,216.1393727281912L787.1153846153846,258.1364L789.4807692307693,219.5389842725424M794.2115384615385,259.6468571428368L796.5769230769231,233.2270123864864L798.9423076923077,228.64120304880478L801.3076923076924,202.73707622559203L803.6730769230769,239.01919999999998L806.0384615384615,200.06991811983602L808.4038461538462,238.55930313428956L810.7692307692308,204.52039453847362L813.1346153846155,235.67041898599038L815.5,214.31784529002798L817.8653846153846,205.431931213584L820.2307692307693,222.047631942764L822.5961538461539,209.94681295157204L824.9615384615385,227.46695932977678L827.3269230769231,182.2942859981544M832.0576923076924,239.01919999999998L834.4230769230769,238.0936L836.7884615384615,210.75050975324558L839.1538461538462,182.22364295481435M853.3461538461539,249.6873003573144L855.7115384615385,230.2554265896176L858.0769230769231,302.57706666669037M869.9038461538462,202.75398270895283L872.2692307692308,219.68906355089197L874.6346153846155,200.06080706359836M879.3653846153846,250.10503999999997L881.7307692307693,220.5818171688128L884.0961538461539,259.04518979036004L886.4615384615385,191.11185688161117L888.8269230769231,193.1664M900.6538461538462,272.6532557502096L903.0192307692308,252.832M919.5769230769231,240.3020439755704L921.9423076923077,286.296L924.3076923076924,215.21564563856637M938.5,300.25120000000004L940.8653846153846,224.06609143664798M945.5961538461539,199.3008572417536L947.9615384615385,206.11071095403918L950.3269230769231,213.43729074532482L952.6923076923077,199.27150497240478L955.0576923076924,212.6547388016016L957.423076923077,229.39864459276322M962.1538461538462,251.3975173210456L964.5192307692308,257.67607921653837L966.8846153846155,219.614352611252M971.6153846153846,233.64395160496642L973.9807692307693,200.96553627751678M992.9038461538462,286.48793043478884L995.2692307692308,211.5226048014568M1007.0961538461539,273.8913777777936L1009.4615384615385,238.15027445510557M1014.1923076923077,224.7775679083168L1016.5576923076924,214.0866542168872M1021.2884615384615,198.2928L1023.6538461538462,220.3475462915408L1026.019230769231,216.9978443514552L1028.3846153846155,204.29757099449517L1030.75,222.09394285716323L1033.1153846153848,209.081452879964M1059.1346153846155,287.57759999999996L1061.5,355.7872" stroke="#3366cc" stroke-width="1" fill-opacity="1" fill="none"></path></g></g></g><g><circle cx="200.5" cy="265.3632" r="2.5" stroke="none" stroke-width="0" fill="#3366cc"></circle><circle cx="205.23076923076923" cy="265.6836" r="2.5" stroke="none" stroke-width="0" fill="#3366cc"></circle><circle cx="214.69230769230768" cy="233.82575018926" r="2.5" stroke="none" stroke-width="0" fill="#3366cc"></circle><circle cx="217.05769230769232" cy="224.12416" r="2.5" stroke="none" stroke-width="0" fill="#3366cc"></circle><circle cx="219.42307692307693" cy="173.5152" r="2.5" stroke="none" stroke-width="0" fill="#3366cc"></circle><circle cx="226.51923076923077" cy="250.9076071246736" r="2.5" stroke="none" stroke-width="0" fill="#3366cc"></circle><circle cx="228.8846153846154" cy="251.8690935102976" r="2.5" stroke="none" stroke-width="0" fill="#3366cc"></circle><circle cx="231.25" cy="277.4672" r="2.5" stroke="none" stroke-width="0" fill="#3366cc"></circle><circle cx="233.6153846153846" cy="304.6656" r="2.5" stroke="none" stroke-width="0" fill="#3366cc"></circle><circle cx="235.98076923076923" cy="241.8672" r="2.5" stroke="none" stroke-width="0" fill="#3366cc"></circle><circle cx="238.34615384615384" cy="251.8905777777936" r="2.5" stroke="none" stroke-width="0" fill="#3366cc"></circle><circle cx="240.71153846153845" cy="291.1376" r="2.5" stroke="none" stroke-width="0" fill="#3366cc"></circle><circle cx="243.0769230769231" cy="243.6625273228968" r="2.5" stroke="none" stroke-width="0" fill="#3366cc"></circle><circle cx="245.44230769230768" cy="304.9504" r="2.5" stroke="none" stroke-width="0" fill="#3366cc"></circle><circle cx="247.80769230769232" cy="255.9648" r="2.5" stroke="none" stroke-width="0" fill="#3366cc"></circle><circle cx="250.17307692307693" cy="275.924750785372" r="2.5" stroke="none" stroke-width="0" fill="#3366cc"></circle><circle cx="252.53846153846155" cy="267.4754666666904" r="2.5" stroke="none" stroke-width="0" fill="#3366cc"></circle><circle cx="254.90384615384616" cy="268.7808" r="2.5" stroke="none" stroke-width="0" fill="#3366cc"></circle><circle cx="271.46153846153845" cy="270.2048" r="2.5" stroke="none" stroke-width="0" fill="#3366cc"></circle><circle cx="278.5576923076923" cy="299.82399999999996" r="2.5" stroke="none" stroke-width="0" fill="#3366cc"></circle><circle cx="280.9230769230769" cy="228.78551157897357" r="2.5" stroke="none" stroke-width="0" fill="#3366cc"></circle><circle cx="283.28846153846155" cy="254.0500167441728" r="2.5" stroke="none" stroke-width="0" fill="#3366cc"></circle><circle cx="285.6538461538462" cy="259.6672" r="2.5" stroke="none" stroke-width="0" fill="#3366cc"></circle><circle cx="288.0192307692308" cy="224.37501414139763" r="2.5" stroke="none" stroke-width="0" fill="#3366cc"></circle><circle cx="290.38461538461536" cy="244.34589708655358" r="2.5" stroke="none" stroke-width="0" fill="#3366cc"></circle><circle cx="292.75" cy="229.213473866608" r="2.5" stroke="none" stroke-width="0" fill="#3366cc"></circle><circle cx="306.9423076923077" cy="237.6863392991944" r="2.5" stroke="none" stroke-width="0" fill="#3366cc"></circle><circle cx="309.3076923076923" cy="227.9168206231984" r="2.5" stroke="none" stroke-width="0" fill="#3366cc"></circle><circle cx="311.6730769230769" cy="239.8676225292408" r="2.5" stroke="none" stroke-width="0" fill="#3366cc"></circle><circle cx="314.03846153846155" cy="225.6544822353976" r="2.5" stroke="none" stroke-width="0" fill="#3366cc"></circle><circle cx="316.4038461538462" cy="237.71170909088318" r="2.5" stroke="none" stroke-width="0" fill="#3366cc"></circle><circle cx="318.7692307692308" cy="222.536318747984" r="2.5" stroke="none" stroke-width="0" fill="#3366cc"></circle><circle cx="321.13461538461536" cy="261.8032" r="2.5" stroke="none" stroke-width="0" fill="#3366cc"></circle><circle cx="323.5" cy="231.1590446540576" r="2.5" stroke="none" stroke-width="0" fill="#3366cc"></circle><circle cx="325.86538461538464" cy="226.0914325581296" r="2.5" stroke="none" stroke-width="0" fill="#3366cc"></circle><circle cx="330.59615384615387" cy="252.4048" r="2.5" stroke="none" stroke-width="0" fill="#3366cc"></circle><circle cx="332.96153846153845" cy="291.15342222220636" r="2.5" stroke="none" stroke-width="0" fill="#3366cc"></circle><circle cx="335.3269230769231" cy="249.042654235344" r="2.5" stroke="none" stroke-width="0" fill="#3366cc"></circle><circle cx="340.0576923076923" cy="231.20164903422878" r="2.5" stroke="none" stroke-width="0" fill="#3366cc"></circle><circle cx="342.4230769230769" cy="289.58702222220643" r="2.5" stroke="none" stroke-width="0" fill="#3366cc"></circle><circle cx="344.78846153846155" cy="255.2338133333096" r="2.5" stroke="none" stroke-width="0" fill="#3366cc"></circle><circle cx="349.5192307692308" cy="230.61759999999998" r="2.5" stroke="none" stroke-width="0" fill="#3366cc"></circle><circle cx="354.25" cy="296.5488" r="2.5" stroke="none" stroke-width="0" fill="#3366cc"></circle><circle cx="356.61538461538464" cy="230.32966781993838" r="2.5" stroke="none" stroke-width="0" fill="#3366cc"></circle><circle cx="358.9807692307692" cy="252.86104622141758" r="2.5" stroke="none" stroke-width="0" fill="#3366cc"></circle><circle cx="361.34615384615387" cy="248.3685922078144" r="2.5" stroke="none" stroke-width="0" fill="#3366cc"></circle><circle cx="363.71153846153845" cy="231.06527401674802" r="2.5" stroke="none" stroke-width="0" fill="#3366cc"></circle><circle cx="366.0769230769231" cy="237.14502905030238" r="2.5" stroke="none" stroke-width="0" fill="#3366cc"></circle><circle cx="368.44230769230774" cy="243.86079999999998" r="2.5" stroke="none" stroke-width="0" fill="#3366cc"></circle><circle cx="370.8076923076923" cy="263.3696" r="2.5" stroke="none" stroke-width="0" fill="#3366cc"></circle><circle cx="373.1730769230769" cy="227.00222222220637" r="2.5" stroke="none" stroke-width="0" fill="#3366cc"></circle><circle cx="385" cy="263.1365094971896" r="2.5" stroke="none" stroke-width="0" fill="#3366cc"></circle><circle cx="387.36538461538464" cy="263.79679999999996" r="2.5" stroke="none" stroke-width="0" fill="#3366cc"></circle><circle cx="389.7307692307693" cy="266.24608" r="2.5" stroke="none" stroke-width="0" fill="#3366cc"></circle><circle cx="394.46153846153845" cy="225.19709695616638" r="2.5" stroke="none" stroke-width="0" fill="#3366cc"></circle><circle cx="396.8269230769231" cy="248.3730116868664" r="2.5" stroke="none" stroke-width="0" fill="#3366cc"></circle><circle cx="403.9230769230769" cy="282.024" r="2.5" stroke="none" stroke-width="0" fill="#3366cc"></circle><circle cx="406.28846153846155" cy="250.4804627877656" r="2.5" stroke="none" stroke-width="0" fill="#3366cc"></circle><circle cx="408.6538461538462" cy="273.38582310759443" r="2.5" stroke="none" stroke-width="0" fill="#3366cc"></circle><circle cx="411.0192307692308" cy="246.14664861541198" r="2.5" stroke="none" stroke-width="0" fill="#3366cc"></circle><circle cx="415.75" cy="263.2698620127976" r="2.5" stroke="none" stroke-width="0" fill="#3366cc"></circle><circle cx="418.11538461538464" cy="254.38890666669042" r="2.5" stroke="none" stroke-width="0" fill="#3366cc"></circle><circle cx="420.4807692307693" cy="297.2608" r="2.5" stroke="none" stroke-width="0" fill="#3366cc"></circle><circle cx="427.5769230769231" cy="295.1248" r="2.5" stroke="none" stroke-width="0" fill="#3366cc"></circle><circle cx="434.6730769230769" cy="275.45579999999995" r="2.5" stroke="none" stroke-width="0" fill="#3366cc"></circle><circle cx="437.03846153846155" cy="275.616" r="2.5" stroke="none" stroke-width="0" fill="#3366cc"></circle><circle cx="441.7692307692308" cy="277.8373773869336" r="2.5" stroke="none" stroke-width="0" fill="#3366cc"></circle><circle cx="444.13461538461536" cy="253.2634911644056" r="2.5" stroke="none" stroke-width="0" fill="#3366cc"></circle><circle cx="446.5" cy="277.8107667907088" r="2.5" stroke="none" stroke-width="0" fill="#3366cc"></circle><circle cx="453.59615384615387" cy="299.500363636396" r="2.5" stroke="none" stroke-width="0" fill="#3366cc"></circle><circle cx="460.69230769230774" cy="341.12" r="2.5" stroke="none" stroke-width="0" fill="#3366cc"></circle><circle cx="463.0576923076923" cy="301.1746762386392" r="2.5" stroke="none" stroke-width="0" fill="#3366cc"></circle><circle cx="465.42307692307696" cy="271.5243265104808" r="2.5" stroke="none" stroke-width="0" fill="#3366cc"></circle><circle cx="474.8846153846154" cy="319.1904" r="2.5" stroke="none" stroke-width="0" fill="#3366cc"></circle><circle cx="477.25" cy="287.6555021041312" r="2.5" stroke="none" stroke-width="0" fill="#3366cc"></circle><circle cx="479.61538461538464" cy="298.74531238152883" r="2.5" stroke="none" stroke-width="0" fill="#3366cc"></circle><circle cx="481.9807692307692" cy="281.59680000000003" r="2.5" stroke="none" stroke-width="0" fill="#3366cc"></circle><circle cx="484.34615384615387" cy="309.08" r="2.5" stroke="none" stroke-width="0" fill="#3366cc"></circle><circle cx="486.71153846153845" cy="288.8798513219072" r="2.5" stroke="none" stroke-width="0" fill="#3366cc"></circle><circle cx="496.17307692307696" cy="287.3710762295152" r="2.5" stroke="none" stroke-width="0" fill="#3366cc"></circle><circle cx="498.53846153846155" cy="306.6991436477768" r="2.5" stroke="none" stroke-width="0" fill="#3366cc"></circle><circle cx="500.9038461538462" cy="292.081840699696" r="2.5" stroke="none" stroke-width="0" fill="#3366cc"></circle><circle cx="503.2692307692308" cy="324.8152" r="2.5" stroke="none" stroke-width="0" fill="#3366cc"></circle><circle cx="508" cy="290.0871831672352" r="2.5" stroke="none" stroke-width="0" fill="#3366cc"></circle><circle cx="510.36538461538464" cy="299.0918581205008" r="2.5" stroke="none" stroke-width="0" fill="#3366cc"></circle><circle cx="512.7307692307693" cy="268.3167275385912" r="2.5" stroke="none" stroke-width="0" fill="#3366cc"></circle><circle cx="515.0961538461538" cy="290.5058122914424" r="2.5" stroke="none" stroke-width="0" fill="#3366cc"></circle><circle cx="519.8269230769231" cy="314.6336" r="2.5" stroke="none" stroke-width="0" fill="#3366cc"></circle><circle cx="524.5576923076924" cy="315.41679999999997" r="2.5" stroke="none" stroke-width="0" fill="#3366cc"></circle><circle cx="534.0192307692307" cy="309.64959999999996" r="2.5" stroke="none" stroke-width="0" fill="#3366cc"></circle><circle cx="536.3846153846155" cy="301.2126373333096" r="2.5" stroke="none" stroke-width="0" fill="#3366cc"></circle><circle cx="538.75" cy="299.05601599236957" r="2.5" stroke="none" stroke-width="0" fill="#3366cc"></circle><circle cx="541.1153846153846" cy="266.1679489973384" r="2.5" stroke="none" stroke-width="0" fill="#3366cc"></circle><circle cx="543.4807692307693" cy="300.25120000000004" r="2.5" stroke="none" stroke-width="0" fill="#3366cc"></circle><circle cx="545.8461538461538" cy="289.0016" r="2.5" stroke="none" stroke-width="0" fill="#3366cc"></circle><circle cx="548.2115384615386" cy="291.1376" r="2.5" stroke="none" stroke-width="0" fill="#3366cc"></circle><circle cx="550.5769230769231" cy="350.8032" r="2.5" stroke="none" stroke-width="0" fill="#3366cc"></circle><circle cx="557.6730769230769" cy="351.08799999999997" r="2.5" stroke="none" stroke-width="0" fill="#3366cc"></circle><circle cx="560.0384615384615" cy="327.4496" r="2.5" stroke="none" stroke-width="0" fill="#3366cc"></circle><circle cx="562.4038461538462" cy="307.4215274429608" r="2.5" stroke="none" stroke-width="0" fill="#3366cc"></circle><circle cx="569.5" cy="317.02592" r="2.5" stroke="none" stroke-width="0" fill="#3366cc"></circle><circle cx="571.8653846153846" cy="356.072" r="2.5" stroke="none" stroke-width="0" fill="#3366cc"></circle><circle cx="578.9615384615386" cy="335.9582097747088" r="2.5" stroke="none" stroke-width="0" fill="#3366cc"></circle><circle cx="581.3269230769231" cy="349.4711900046264" r="2.5" stroke="none" stroke-width="0" fill="#3366cc"></circle><circle cx="583.6923076923077" cy="332.1076887029104" r="2.5" stroke="none" stroke-width="0" fill="#3366cc"></circle><circle cx="590.7884615384615" cy="310.2877441913704" r="2.5" stroke="none" stroke-width="0" fill="#3366cc"></circle><circle cx="593.1538461538462" cy="309.0136572881368" r="2.5" stroke="none" stroke-width="0" fill="#3366cc"></circle><circle cx="595.5192307692307" cy="282.024" r="2.5" stroke="none" stroke-width="0" fill="#3366cc"></circle><circle cx="597.8846153846155" cy="298.78235828079755" r="2.5" stroke="none" stroke-width="0" fill="#3366cc"></circle><circle cx="600.25" cy="318.5364992" r="2.5" stroke="none" stroke-width="0" fill="#3366cc"></circle><circle cx="604.9807692307693" cy="311.0068631359728" r="2.5" stroke="none" stroke-width="0" fill="#3366cc"></circle><circle cx="607.3461538461538" cy="294.4761749728296" r="2.5" stroke="none" stroke-width="0" fill="#3366cc"></circle><circle cx="609.7115384615386" cy="299.98064" r="2.5" stroke="none" stroke-width="0" fill="#3366cc"></circle><circle cx="614.4423076923077" cy="306.94399999999996" r="2.5" stroke="none" stroke-width="0" fill="#3366cc"></circle><circle cx="616.8076923076924" cy="300.4264791633424" r="2.5" stroke="none" stroke-width="0" fill="#3366cc"></circle><circle cx="619.1730769230769" cy="324.3168" r="2.5" stroke="none" stroke-width="0" fill="#3366cc"></circle><circle cx="621.5384615384615" cy="284.47312999762" r="2.5" stroke="none" stroke-width="0" fill="#3366cc"></circle><circle cx="626.2692307692307" cy="280.903019769212" r="2.5" stroke="none" stroke-width="0" fill="#3366cc"></circle><circle cx="628.6346153846155" cy="276.781277912428" r="2.5" stroke="none" stroke-width="0" fill="#3366cc"></circle><circle cx="631" cy="327.1684980249024" r="2.5" stroke="none" stroke-width="0" fill="#3366cc"></circle><circle cx="633.3653846153846" cy="346.2464" r="2.5" stroke="none" stroke-width="0" fill="#3366cc"></circle><circle cx="635.7307692307693" cy="334.8544" r="2.5" stroke="none" stroke-width="0" fill="#3366cc"></circle><circle cx="638.0961538461538" cy="304.81864322463036" r="2.5" stroke="none" stroke-width="0" fill="#3366cc"></circle><circle cx="642.8269230769231" cy="294.10014316226477" r="2.5" stroke="none" stroke-width="0" fill="#3366cc"></circle><circle cx="647.5576923076924" cy="331.0808" r="2.5" stroke="none" stroke-width="0" fill="#3366cc"></circle><circle cx="649.9230769230769" cy="278.9977316350248" r="2.5" stroke="none" stroke-width="0" fill="#3366cc"></circle><circle cx="652.2884615384615" cy="299.24015999999995" r="2.5" stroke="none" stroke-width="0" fill="#3366cc"></circle><circle cx="654.6538461538462" cy="274.1807309352728" r="2.5" stroke="none" stroke-width="0" fill="#3366cc"></circle><circle cx="657.0192307692307" cy="317.1968" r="2.5" stroke="none" stroke-width="0" fill="#3366cc"></circle><circle cx="659.3846153846155" cy="276.3142553790552" r="2.5" stroke="none" stroke-width="0" fill="#3366cc"></circle><circle cx="661.75" cy="275.9230481310712" r="2.5" stroke="none" stroke-width="0" fill="#3366cc"></circle><circle cx="664.1153846153846" cy="269.7206772652968" r="2.5" stroke="none" stroke-width="0" fill="#3366cc"></circle><circle cx="668.8461538461538" cy="354.5296476820928" r="2.5" stroke="none" stroke-width="0" fill="#3366cc"></circle><circle cx="671.2115384615386" cy="317.7572855421824" r="2.5" stroke="none" stroke-width="0" fill="#3366cc"></circle><circle cx="673.5769230769231" cy="337.435439351528" r="2.5" stroke="none" stroke-width="0" fill="#3366cc"></circle><circle cx="675.9423076923077" cy="276.76849476524717" r="2.5" stroke="none" stroke-width="0" fill="#3366cc"></circle><circle cx="680.6730769230769" cy="281.2894383467064" r="2.5" stroke="none" stroke-width="0" fill="#3366cc"></circle><circle cx="683.0384615384615" cy="268.72025116720397" r="2.5" stroke="none" stroke-width="0" fill="#3366cc"></circle><circle cx="685.4038461538462" cy="272.3679022997936" r="2.5" stroke="none" stroke-width="0" fill="#3366cc"></circle><circle cx="687.7692307692307" cy="255.4998181956872" r="2.5" stroke="none" stroke-width="0" fill="#3366cc"></circle><circle cx="690.1346153846155" cy="285.7026450319296" r="2.5" stroke="none" stroke-width="0" fill="#3366cc"></circle><circle cx="692.5" cy="271.0783805538312" r="2.5" stroke="none" stroke-width="0" fill="#3366cc"></circle><circle cx="694.8653846153846" cy="311.216" r="2.5" stroke="none" stroke-width="0" fill="#3366cc"></circle><circle cx="697.2307692307693" cy="268.33574239485677" r="2.5" stroke="none" stroke-width="0" fill="#3366cc"></circle><circle cx="701.9615384615386" cy="275.9055665272184" r="2.5" stroke="none" stroke-width="0" fill="#3366cc"></circle><circle cx="704.3269230769231" cy="280.42912" r="2.5" stroke="none" stroke-width="0" fill="#3366cc"></circle><circle cx="709.0576923076924" cy="275.45775656838157" r="2.5" stroke="none" stroke-width="0" fill="#3366cc"></circle><circle cx="711.4230769230769" cy="318.92924062500003" r="2.5" stroke="none" stroke-width="0" fill="#3366cc"></circle><circle cx="713.7884615384615" cy="275.43645217394396" r="2.5" stroke="none" stroke-width="0" fill="#3366cc"></circle><circle cx="718.5192307692308" cy="276.38496" r="2.5" stroke="none" stroke-width="0" fill="#3366cc"></circle><circle cx="720.8846153846155" cy="226.69119468575522" r="2.5" stroke="none" stroke-width="0" fill="#3366cc"></circle><circle cx="723.25" cy="245.3186415656968" r="2.5" stroke="none" stroke-width="0" fill="#3366cc"></circle><circle cx="725.6153846153846" cy="275.4578108786736" r="2.5" stroke="none" stroke-width="0" fill="#3366cc"></circle><circle cx="727.9807692307693" cy="280.5762666666904" r="2.5" stroke="none" stroke-width="0" fill="#3366cc"></circle><circle cx="730.3461538461539" cy="254.3984" r="2.5" stroke="none" stroke-width="0" fill="#3366cc"></circle><circle cx="732.7115384615385" cy="314.97414455021124" r="2.5" stroke="none" stroke-width="0" fill="#3366cc"></circle><circle cx="746.9038461538462" cy="304.3096" r="2.5" stroke="none" stroke-width="0" fill="#3366cc"></circle><circle cx="749.2692307692308" cy="314.585561445796" r="2.5" stroke="none" stroke-width="0" fill="#3366cc"></circle><circle cx="751.6346153846155" cy="292.2768" r="2.5" stroke="none" stroke-width="0" fill="#3366cc"></circle><circle cx="756.3653846153846" cy="260.3716882085432" r="2.5" stroke="none" stroke-width="0" fill="#3366cc"></circle><circle cx="758.7307692307693" cy="250.5796386941864" r="2.5" stroke="none" stroke-width="0" fill="#3366cc"></circle><circle cx="761.0961538461539" cy="254.5561639392056" r="2.5" stroke="none" stroke-width="0" fill="#3366cc"></circle><circle cx="763.4615384615385" cy="234.10864395230078" r="2.5" stroke="none" stroke-width="0" fill="#3366cc"></circle><circle cx="765.8269230769231" cy="257.6292913680136" r="2.5" stroke="none" stroke-width="0" fill="#3366cc"></circle><circle cx="768.1923076923077" cy="226.81904069681678" r="2.5" stroke="none" stroke-width="0" fill="#3366cc"></circle><circle cx="770.5576923076924" cy="256.3790545454416" r="2.5" stroke="none" stroke-width="0" fill="#3366cc"></circle><circle cx="772.9230769230769" cy="221.6681621262792" r="2.5" stroke="none" stroke-width="0" fill="#3366cc"></circle><circle cx="775.2884615384615" cy="269.6658302430616" r="2.5" stroke="none" stroke-width="0" fill="#3366cc"></circle><circle cx="777.6538461538462" cy="258.99206649420796" r="2.5" stroke="none" stroke-width="0" fill="#3366cc"></circle><circle cx="780.0192307692308" cy="240.7220344997408" r="2.5" stroke="none" stroke-width="0" fill="#3366cc"></circle><circle cx="782.3846153846155" cy="245.7002372966304" r="2.5" stroke="none" stroke-width="0" fill="#3366cc"></circle><circle cx="784.75" cy="216.1393727281912" r="2.5" stroke="none" stroke-width="0" fill="#3366cc"></circle><circle cx="787.1153846153846" cy="258.1364" r="2.5" stroke="none" stroke-width="0" fill="#3366cc"></circle><circle cx="789.4807692307693" cy="219.5389842725424" r="2.5" stroke="none" stroke-width="0" fill="#3366cc"></circle><circle cx="794.2115384615385" cy="259.6468571428368" r="2.5" stroke="none" stroke-width="0" fill="#3366cc"></circle><circle cx="796.5769230769231" cy="233.2270123864864" r="2.5" stroke="none" stroke-width="0" fill="#3366cc"></circle><circle cx="798.9423076923077" cy="228.64120304880478" r="2.5" stroke="none" stroke-width="0" fill="#3366cc"></circle><circle cx="801.3076923076924" cy="202.73707622559203" r="2.5" stroke="none" stroke-width="0" fill="#3366cc"></circle><circle cx="803.6730769230769" cy="239.01919999999998" r="2.5" stroke="none" stroke-width="0" fill="#3366cc"></circle><circle cx="806.0384615384615" cy="200.06991811983602" r="2.5" stroke="none" stroke-width="0" fill="#3366cc"></circle><circle cx="808.4038461538462" cy="238.55930313428956" r="2.5" stroke="none" stroke-width="0" fill="#3366cc"></circle><circle cx="810.7692307692308" cy="204.52039453847362" r="2.5" stroke="none" stroke-width="0" fill="#3366cc"></circle><circle cx="813.1346153846155" cy="235.67041898599038" r="2.5" stroke="none" stroke-width="0" fill="#3366cc"></circle><circle cx="815.5" cy="214.31784529002798" r="2.5" stroke="none" stroke-width="0" fill="#3366cc"></circle><circle cx="817.8653846153846" cy="205.431931213584" r="2.5" stroke="none" stroke-width="0" fill="#3366cc"></circle><circle cx="820.2307692307693" cy="222.047631942764" r="2.5" stroke="none" stroke-width="0" fill="#3366cc"></circle><circle cx="822.5961538461539" cy="209.94681295157204" r="2.5" stroke="none" stroke-width="0" fill="#3366cc"></circle><circle cx="824.9615384615385" cy="227.46695932977678" r="2.5" stroke="none" stroke-width="0" fill="#3366cc"></circle><circle cx="827.3269230769231" cy="182.2942859981544" r="2.5" stroke="none" stroke-width="0" fill="#3366cc"></circle><circle cx="832.0576923076924" cy="239.01919999999998" r="2.5" stroke="none" stroke-width="0" fill="#3366cc"></circle><circle cx="834.4230769230769" cy="238.0936" r="2.5" stroke="none" stroke-width="0" fill="#3366cc"></circle><circle cx="836.7884615384615" cy="210.75050975324558" r="2.5" stroke="none" stroke-width="0" fill="#3366cc"></circle><circle cx="839.1538461538462" cy="182.22364295481435" r="2.5" stroke="none" stroke-width="0" fill="#3366cc"></circle><circle cx="846.25" cy="289.144" r="2.5" stroke="none" stroke-width="0" fill="#3366cc"></circle><circle cx="853.3461538461539" cy="249.6873003573144" r="2.5" stroke="none" stroke-width="0" fill="#3366cc"></circle><circle cx="855.7115384615385" cy="230.2554265896176" r="2.5" stroke="none" stroke-width="0" fill="#3366cc"></circle><circle cx="858.0769230769231" cy="302.57706666669037" r="2.5" stroke="none" stroke-width="0" fill="#3366cc"></circle><circle cx="865.1730769230769" cy="325.0288" r="2.5" stroke="none" stroke-width="0" fill="#3366cc"></circle><circle cx="869.9038461538462" cy="202.75398270895283" r="2.5" stroke="none" stroke-width="0" fill="#3366cc"></circle><circle cx="872.2692307692308" cy="219.68906355089197" r="2.5" stroke="none" stroke-width="0" fill="#3366cc"></circle><circle cx="874.6346153846155" cy="200.06080706359836" r="2.5" stroke="none" stroke-width="0" fill="#3366cc"></circle><circle cx="879.3653846153846" cy="250.10503999999997" r="2.5" stroke="none" stroke-width="0" fill="#3366cc"></circle><circle cx="881.7307692307693" cy="220.5818171688128" r="2.5" stroke="none" stroke-width="0" fill="#3366cc"></circle><circle cx="884.0961538461539" cy="259.04518979036004" r="2.5" stroke="none" stroke-width="0" fill="#3366cc"></circle><circle cx="886.4615384615385" cy="191.11185688161117" r="2.5" stroke="none" stroke-width="0" fill="#3366cc"></circle><circle cx="888.8269230769231" cy="193.1664" r="2.5" stroke="none" stroke-width="0" fill="#3366cc"></circle><circle cx="900.6538461538462" cy="272.6532557502096" r="2.5" stroke="none" stroke-width="0" fill="#3366cc"></circle><circle cx="903.0192307692308" cy="252.832" r="2.5" stroke="none" stroke-width="0" fill="#3366cc"></circle><circle cx="907.75" cy="230.344082639292" r="2.5" stroke="none" stroke-width="0" fill="#3366cc"></circle><circle cx="912.4807692307693" cy="252.37632" r="2.5" stroke="none" stroke-width="0" fill="#3366cc"></circle><circle cx="919.5769230769231" cy="240.3020439755704" r="2.5" stroke="none" stroke-width="0" fill="#3366cc"></circle><circle cx="921.9423076923077" cy="286.296" r="2.5" stroke="none" stroke-width="0" fill="#3366cc"></circle><circle cx="924.3076923076924" cy="215.21564563856637" r="2.5" stroke="none" stroke-width="0" fill="#3366cc"></circle><circle cx="938.5" cy="300.25120000000004" r="2.5" stroke="none" stroke-width="0" fill="#3366cc"></circle><circle cx="940.8653846153846" cy="224.06609143664798" r="2.5" stroke="none" stroke-width="0" fill="#3366cc"></circle><circle cx="945.5961538461539" cy="199.3008572417536" r="2.5" stroke="none" stroke-width="0" fill="#3366cc"></circle><circle cx="947.9615384615385" cy="206.11071095403918" r="2.5" stroke="none" stroke-width="0" fill="#3366cc"></circle><circle cx="950.3269230769231" cy="213.43729074532482" r="2.5" stroke="none" stroke-width="0" fill="#3366cc"></circle><circle cx="952.6923076923077" cy="199.27150497240478" r="2.5" stroke="none" stroke-width="0" fill="#3366cc"></circle><circle cx="955.0576923076924" cy="212.6547388016016" r="2.5" stroke="none" stroke-width="0" fill="#3366cc"></circle><circle cx="957.423076923077" cy="229.39864459276322" r="2.5" stroke="none" stroke-width="0" fill="#3366cc"></circle><circle cx="962.1538461538462" cy="251.3975173210456" r="2.5" stroke="none" stroke-width="0" fill="#3366cc"></circle><circle cx="964.5192307692308" cy="257.67607921653837" r="2.5" stroke="none" stroke-width="0" fill="#3366cc"></circle><circle cx="966.8846153846155" cy="219.614352611252" r="2.5" stroke="none" stroke-width="0" fill="#3366cc"></circle><circle cx="971.6153846153846" cy="233.64395160496642" r="2.5" stroke="none" stroke-width="0" fill="#3366cc"></circle><circle cx="973.9807692307693" cy="200.96553627751678" r="2.5" stroke="none" stroke-width="0" fill="#3366cc"></circle><circle cx="985.8076923076924" cy="250.9930717134512" r="2.5" stroke="none" stroke-width="0" fill="#3366cc"></circle><circle cx="992.9038461538462" cy="286.48793043478884" r="2.5" stroke="none" stroke-width="0" fill="#3366cc"></circle><circle cx="995.2692307692308" cy="211.5226048014568" r="2.5" stroke="none" stroke-width="0" fill="#3366cc"></circle><circle cx="1007.0961538461539" cy="273.8913777777936" r="2.5" stroke="none" stroke-width="0" fill="#3366cc"></circle><circle cx="1009.4615384615385" cy="238.15027445510557" r="2.5" stroke="none" stroke-width="0" fill="#3366cc"></circle><circle cx="1014.1923076923077" cy="224.7775679083168" r="2.5" stroke="none" stroke-width="0" fill="#3366cc"></circle><circle cx="1016.5576923076924" cy="214.0866542168872" r="2.5" stroke="none" stroke-width="0" fill="#3366cc"></circle><circle cx="1021.2884615384615" cy="198.2928" r="2.5" stroke="none" stroke-width="0" fill="#3366cc"></circle><circle cx="1023.6538461538462" cy="220.3475462915408" r="2.5" stroke="none" stroke-width="0" fill="#3366cc"></circle><circle cx="1026.019230769231" cy="216.9978443514552" r="2.5" stroke="none" stroke-width="0" fill="#3366cc"></circle><circle cx="1028.3846153846155" cy="204.29757099449517" r="2.5" stroke="none" stroke-width="0" fill="#3366cc"></circle><circle cx="1030.75" cy="222.09394285716323" r="2.5" stroke="none" stroke-width="0" fill="#3366cc"></circle><circle cx="1033.1153846153848" cy="209.081452879964" r="2.5" stroke="none" stroke-width="0" fill="#3366cc"></circle><circle cx="1059.1346153846155" cy="287.57759999999996" r="2.5" stroke="none" stroke-width="0" fill="#3366cc"></circle><circle cx="1061.5" cy="355.7872" r="2.5" stroke="none" stroke-width="0" fill="#3366cc"></circle></g><g><g><text text-anchor="middle" x="200.6971153846154" y="489.75" font-family="Arial" font-size="15" stroke="none" stroke-width="0" fill="#444444">January 2017</text></g><g><text text-anchor="middle" x="340.35336538461536" y="489.75" font-family="Arial" font-size="15" stroke="none" stroke-width="0" fill="#444444">March 2017</text></g><g><text text-anchor="middle" x="484.64182692307696" y="489.75" font-family="Arial" font-size="15" stroke="none" stroke-width="0" fill="#444444">May 2017</text></g><g><text text-anchor="middle" x="628.9302884615386" y="489.75" font-family="Arial" font-size="15" stroke="none" stroke-width="0" fill="#444444">July 2017</text></g><g><text text-anchor="middle" x="775.5841346153846" y="489.75" font-family="Arial" font-size="15" stroke="none" stroke-width="0" fill="#444444">September 2017</text></g><g><text text-anchor="middle" x="919.7740384615385" y="489.75" font-family="Arial" font-size="15" stroke="none" stroke-width="0" fill="#444444">November 2017</text></g><g><text text-anchor="end" x="185" y="472.75" font-family="Arial" font-size="15" stroke="none" stroke-width="0" fill="#444444">0</text></g><g><text text-anchor="end" x="185" y="401.55" font-family="Arial" font-size="15" stroke="none" stroke-width="0" fill="#444444">10</text></g><g><text text-anchor="end" x="185" y="330.35" font-family="Arial" font-size="15" stroke="none" stroke-width="0" fill="#444444">20</text></g><g><text text-anchor="end" x="185" y="259.15" font-family="Arial" font-size="15" stroke="none" stroke-width="0" fill="#444444">30</text></g><g><text text-anchor="end" x="185" y="187.95" font-family="Arial" font-size="15" stroke="none" stroke-width="0" fill="#444444">40</text></g><g><text text-anchor="end" x="185" y="116.75" font-family="Arial" font-size="15" stroke="none" stroke-width="0" fill="#444444">50</text></g></g></g><g><g><text text-anchor="middle" x="631" y="540.25" font-family="Arial" font-size="15" font-style="italic" stroke="none" stroke-width="0" fill="#222222">Ano</text><rect x="200" y="527.5" width="862" height="15" stroke="none" stroke-width="0" fill-opacity="0" fill="#ffffff"></rect></g><g><text text-anchor="middle" x="89.25" y="289.5" font-family="Arial" font-size="15" font-style="italic" transform="rotate(-90 89.25 289.5)" stroke="none" stroke-width="0" fill="#222222">Temperatura do solo (ºC)</text><path d="M76.49999999999999,468L76.50000000000001,111L91.50000000000001,111L91.49999999999999,468Z" stroke="none" stroke-width="0" fill-opacity="0" fill="#ffffff"></path></g></g><g></g></svg>