<svg width="1261" height="498" aria-label="A chart." style="overflow: hidden;"><defs id="_ABSTRACT_RENDERER_ID_243"><clipPath id="_ABSTRACT_RENDERER_ID_244"><rect x="183" y="95" width="895" height="308"></rect></clipPath></defs><rect x="0" y="0" width="1261" height="498" stroke="none" stroke-width="0" fill="#ffffff"></rect><g><text text-anchor="start" x="183" y="68.75" font-family="Arial" font-size="15" font-weight="bold" stroke="none" stroke-width="0" fill="#000000">Diamante do Norte</text><rect x="183" y="56" width="895" height="15" stroke="none" stroke-width="0" fill-opacity="0" fill="#ffffff"></rect></g><g><rect x="1093" y="95" width="153" height="15" stroke="none" stroke-width="0" fill-opacity="0" fill="#ffffff"></rect><g column-id="LST_Day_1km"><rect x="1093" y="95" width="153" height="15" stroke="none" stroke-width="0" fill-opacity="0" fill="#ffffff"></rect><g><text text-anchor="start" x="1129" y="107.75" font-family="Arial" font-size="15" stroke="none" stroke-width="0" fill="#222222">LST_Day_1km</text></g><path d="M1093,102.5L1123,102.5" stroke="#3366cc" stroke-width="1" fill-opacity="1" fill="none"></path><circle cx="1108" cy="102.5" r="2.5" stroke="none" stroke-width="0" fill="#3366cc"></circle></g></g><g><rect x="183" y="95" width="895" height="308" stroke="none" stroke-width="0" fill-opacity="0" fill="#ffffff"></rect><g clip-path="url(https://code.earthengine.google.com/#_ABSTRACT_RENDERER_ID_244)"><g><rect x="257" y="95" width="1" height="308" stroke="none" stroke-width="0" fill="#cccccc"></rect><rect x="327" y="95" width="1" height="308" stroke="none" stroke-width="0" fill="#cccccc"></rect><rect x="403" y="95" width="1" height="308" stroke="none" stroke-width="0" fill="#cccccc"></rect><rect x="477" y="95" width="1" height="308" stroke="none" stroke-width="0" fill="#cccccc"></rect><rect x="554" y="95" width="1" height="308" stroke="none" stroke-width="0" fill="#cccccc"></rect><rect x="628" y="95" width="1" height="308" stroke="none" stroke-width="0" fill="#cccccc"></rect><rect x="704" y="95" width="1" height="308" stroke="none" stroke-width="0" fill="#cccccc"></rect><rect x="781" y="95" width="1" height="308" stroke="none" stroke-width="0" fill="#cccccc"></rect><rect x="855" y="95" width="1" height="308" stroke="none" stroke-width="0" fill="#cccccc"></rect><rect x="932" y="95" width="1" height="308" stroke="none" stroke-width="0" fill="#cccccc"></rect><rect x="1006" y="95" width="1" height="308" stroke="none" stroke-width="0" fill="#cccccc"></rect><rect x="183" y="402" width="895" height="1" stroke="none" stroke-width="0" fill="#cccccc"></rect><rect x="183" y="341" width="895" height="1" stroke="none" stroke-width="0" fill="#cccccc"></rect><rect x="183" y="279" width="895" height="1" stroke="none" stroke-width="0" fill="#cccccc"></rect><rect x="183" y="218" width="895" height="1" stroke="none" stroke-width="0" fill="#cccccc"></rect><rect x="183" y="156" width="895" height="1" stroke="none" stroke-width="0" fill="#cccccc"></rect><rect x="183" y="95" width="895" height="1" stroke="none" stroke-width="0" fill="#cccccc"></rect><rect x="183" y="371" width="895" height="1" stroke="none" stroke-width="0" fill="#ebebeb"></rect><rect x="183" y="310" width="895" height="1" stroke="none" stroke-width="0" fill="#ebebeb"></rect><rect x="183" y="249" width="895" height="1" stroke="none" stroke-width="0" fill="#ebebeb"></rect><rect x="183" y="187" width="895" height="1" stroke="none" stroke-width="0" fill="#ebebeb"></rect><rect x="183" y="126" width="895" height="1" stroke="none" stroke-width="0" fill="#ebebeb"></rect></g><g><rect x="183" y="402" width="895" height="1" stroke="none" stroke-width="0" fill="#333333"></rect></g><g><g><path d="M183.5,232.9746L185.9696132596685,189.5852666666462L188.439226519337,181.85228227539602M200.78729281767954,246.8100666666462L203.25690607734808,188.0635981651624L205.72651933701658,194.69170000000003L208.1961325966851,246.23700000000002L210.6657458563536,198.5659044163972L213.1353591160221,199.34065442487682L215.6049723756906,231.58286666664623L218.0745856353591,227.9586923077112M225.48342541436463,246.3598L227.95303867403317,244.2722L230.42265193370167,200.7946035069646L232.89226519337018,195.51483774765882L235.36187845303868,175.5002387096794M240.3011049723757,195.5010042553296L242.7707182320442,247.09660000000002L245.2403314917127,186.690533972808L247.70994475138122,192.45228990827042L250.17955801104972,175.15115L252.64917127071823,190.2752857142594L255.11878453038673,177.8374L257.58839779005524,210.38194654375562M267.46685082872926,232.4834L269.93646408839777,207.34672989844282L272.40607734806633,211.25096270260602L274.8756906077348,179.5833360904168M279.8149171270718,173.49028L282.28453038674036,239.11460000000002M304.5110497237569,235.5366041290382L306.9806629834254,220.1010666666462L309.4502762430939,221.6238804071314L311.91988950276243,213.953472023405L314.38950276243094,186.46902497596903M329.20718232044203,224.2819932245886L331.6767955801105,199.68287368419763L334.14640883977904,224.929528653318L336.6160220994475,214.92356687826302M344.02486187845307,216.94920000000002L346.4944751381215,239.2374L348.9640883977901,223.94197777778462M381.06906077348066,213.0532089271696L383.53867403314916,211.5970981427726L386.00828729281767,201.2551506428236L388.4779005524862,195.53599850323704L390.94751381215474,226.92715223377942L393.4171270718232,206.5483631579012L395.88674033149175,242.6758L398.3563535911602,204.7306M423.0524861878453,225.7857925560946L425.5220994475138,229.371935064955L427.99171270718233,213.9455786341658M432.93093922651934,222.4138L435.40055248618785,301.0058L437.87016574585635,214.6826360418156L440.33977900552486,257.0434L442.80939226519337,200.4148601597894L445.2790055248619,198.96136946308562L447.7486187845304,243.4126L450.2182320441989,195.0203978253078M460.0966850828729,216.13847862407442L462.5662983425414,226.3434L465.03591160221,218.47444693142901L467.5055248618785,214.2271333333538M472.4447513812155,235.3692L474.914364640884,269.6918M482.3232044198895,249.6754L484.792817679558,232.796780195572L487.26243093922653,229.3467424304848L489.73204419889504,254.6310736401594L492.20165745856355,251.4561201565458L494.67127071823205,226.2492234003626M509.4889502762431,260.427926625672L511.9585635359116,235.83106108376322L514.4281767955802,298.7954L516.8977900552486,241.93900000000002L519.367403314917,237.3954L521.8370165745856,262.1898363636252L524.3066298342542,219.60117010382282L526.7762430939226,280.5800666666462L529.2458563535912,233.4044M539.1243093922652,256.3831626961072L541.5939226519338,228.40747390637242M546.5331491712707,254.71020000000001L549.0027624309392,247.58780000000002L551.4723756906078,230.0098571428396M561.3508287292818,255.623525L563.8204419889503,261.9554L566.2900552486187,268.262065052142L568.7596685082873,237.638544L571.2292817679559,264.53420000000006L573.6988950276243,242.3871270976862M578.6381215469613,243.01068020696482L581.1077348066299,285.1646L583.5773480662983,259.9717076922888M588.5165745856353,240.2588727272504L590.9861878453039,219.68751292275323L593.4558011049724,264.1658L595.9254143646409,231.11023967434102L598.3950276243095,227.32096207351262L600.8646408839779,257.289L603.3342541436464,234.1302677748834L605.8038674033149,249.0978879823796L608.2734806629835,225.8037811275824L610.743093922652,255.9382L613.2127071823204,217.4027014100914M620.621546961326,244.63660497817722L623.0911602209944,236.5441962997542L625.560773480663,223.480592689171L628.0303867403316,259.9496666666462M637.9088397790056,291.3046L640.378453038674,306.0269555555692L642.8480662983425,280.5690461538556L645.317679558011,294.5577904335086L647.7872928176796,258.51700000000005L650.256906077348,277.4282L652.7265193370166,240.68644M657.6657458563536,239.9555549738506L660.1353591160221,219.6304938269366L662.6049723756906,282.5858L665.0745856353592,265.737982697653L667.5441988950276,302.4794L670.0138121546961,266.59626017001983L672.4834254143647,285.6558L674.9530386740332,250.3420117195144L677.4226519337017,294.3746L679.8922651933701,266.2865830882064L682.3618784530387,223.8601144172214L684.8314917127072,232.298722009903L687.3011049723757,275.83180000000004M697.1795580110497,233.45524648517141L699.6491712707183,226.5640571233536L702.1187845303867,228.3900666666462L704.5883977900553,215.79236876302502L707.0580110497237,275.9546L709.5276243093923,267.6042L711.9972375690608,288.1118L714.4668508287293,256.4903237625046L716.9364640883978,234.9440134003796L719.4060773480663,229.99031951990042L721.8756906077348,203.17866597050363M726.8149171270718,235.372771745143L729.2845303867404,242.553L731.7541436464088,190.99253872947804M736.6933701657458,231.1231665768204L739.1629834254144,244.2940292087822L741.6325966850828,234.161416583034L744.1022099447514,198.96546315790124M749.0414364640884,207.401481944716L751.511049723757,276.0774L753.9806629834254,205.0751096350926L756.450276243094,224.605500470974L758.9198895027624,210.8929272727496L761.389502762431,211.5979538461444L763.8591160220994,234.2212523587216L766.328729281768,229.3108879595516M798.4337016574585,180.36586368214822L800.9033149171271,168.1259500599724L803.3729281767955,187.24058675844162M815.7209944751381,181.0723362986704L818.1906077348067,167.47230664446622L820.6602209944751,158.0402184895484L823.1298342541437,200.40715180823042L825.5994475138122,205.71300000000002M833.0082872928177,201.6570260768148L835.4779005524862,225.79309175739462L837.9475138121547,221.92260000000002M842.8867403314918,249.51751428574062L845.3563535911602,185.48784L847.8259668508288,226.92594384236062L850.2955801104972,176.48288059847923M855.2348066298342,164.9420827803354L857.7044198895028,247.2194L860.1740331491712,191.9155428571604L862.6436464088398,173.3440531966194L865.1132596685082,184.1195894737036M872.5220994475138,230.45102751319862L874.9917127071824,192.651657786292L877.4613259668508,178.03957132969242L879.9309392265194,174.191990241998L882.4005524861878,155.0286670598866L884.8701657458564,135.7905913357598L887.3397790055249,187.2052857142594L889.8093922651934,188.88940000000002M894.7486187845304,167.84966666664621L897.2182320441989,164.1861333333538L899.6878453038674,177.8374L902.1574585635359,170.28676811664263M907.0966850828729,215.052821115174L909.5662983425415,214.2271333333538L912.0359116022099,162.72875553809843L914.5055248618785,177.3642159049258L916.9751381215469,208.11988L919.4447513812155,167.2823740483864L921.914364640884,225.09493333335382L924.3839779005525,173.3643316623802L926.853591160221,181.6646666666462L929.3232044198895,141.95302483843005M934.2624309392265,157.299500068585L936.7320441988951,160.40999087138562L939.2016574585635,156.59007979567662L941.6712707182321,162.792539393958M956.4889502762431,196.1873463087442L958.9585635359116,188.70308275859742L961.4281767955802,206.36793333335382M966.3674033149172,232.31148000000002L968.8370165745856,167.285403386175M973.7762430939226,164.9964351939636L976.2458563535912,185.5671091355938L978.7154696132596,159.5449230769278L981.1850828729282,157.3379480783426L983.6546961325967,183.57883264985063L986.1243093922652,165.795325M1000.9419889502763,215.0890061384104L1003.4116022099448,193.39206666664623M1018.2292817679559,214.7081L1020.6988950276243,181.6579977528014L1023.1685082872929,264.65700000000004M1033.046961325967,255.447L1035.5165745856352,258.3942M1057.743093922652,269.4462L1060.2127071823206,208.4852614525246L1062.6823204419888,220.0582769639732L1065.1519337016575,182.8116223214198L1067.621546961326,201.41500000000002L1070.0911602209944,181.18611352200642M1075.0303867403316,180.16182857141982L1077.5,192.0335606710052" stroke="#3366cc" stroke-width="1" fill-opacity="1" fill="none"></path></g></g></g><g><circle cx="183.5" cy="232.9746" r="2.5" stroke="none" stroke-width="0" fill="#3366cc"></circle><circle cx="185.9696132596685" cy="189.5852666666462" r="2.5" stroke="none" stroke-width="0" fill="#3366cc"></circle><circle cx="188.439226519337" cy="181.85228227539602" r="2.5" stroke="none" stroke-width="0" fill="#3366cc"></circle><circle cx="200.78729281767954" cy="246.8100666666462" r="2.5" stroke="none" stroke-width="0" fill="#3366cc"></circle><circle cx="203.25690607734808" cy="188.0635981651624" r="2.5" stroke="none" stroke-width="0" fill="#3366cc"></circle><circle cx="205.72651933701658" cy="194.69170000000003" r="2.5" stroke="none" stroke-width="0" fill="#3366cc"></circle><circle cx="208.1961325966851" cy="246.23700000000002" r="2.5" stroke="none" stroke-width="0" fill="#3366cc"></circle><circle cx="210.6657458563536" cy="198.5659044163972" r="2.5" stroke="none" stroke-width="0" fill="#3366cc"></circle><circle cx="213.1353591160221" cy="199.34065442487682" r="2.5" stroke="none" stroke-width="0" fill="#3366cc"></circle><circle cx="215.6049723756906" cy="231.58286666664623" r="2.5" stroke="none" stroke-width="0" fill="#3366cc"></circle><circle cx="218.0745856353591" cy="227.9586923077112" r="2.5" stroke="none" stroke-width="0" fill="#3366cc"></circle><circle cx="225.48342541436463" cy="246.3598" r="2.5" stroke="none" stroke-width="0" fill="#3366cc"></circle><circle cx="227.95303867403317" cy="244.2722" r="2.5" stroke="none" stroke-width="0" fill="#3366cc"></circle><circle cx="230.42265193370167" cy="200.7946035069646" r="2.5" stroke="none" stroke-width="0" fill="#3366cc"></circle><circle cx="232.89226519337018" cy="195.51483774765882" r="2.5" stroke="none" stroke-width="0" fill="#3366cc"></circle><circle cx="235.36187845303868" cy="175.5002387096794" r="2.5" stroke="none" stroke-width="0" fill="#3366cc"></circle><circle cx="240.3011049723757" cy="195.5010042553296" r="2.5" stroke="none" stroke-width="0" fill="#3366cc"></circle><circle cx="242.7707182320442" cy="247.09660000000002" r="2.5" stroke="none" stroke-width="0" fill="#3366cc"></circle><circle cx="245.2403314917127" cy="186.690533972808" r="2.5" stroke="none" stroke-width="0" fill="#3366cc"></circle><circle cx="247.70994475138122" cy="192.45228990827042" r="2.5" stroke="none" stroke-width="0" fill="#3366cc"></circle><circle cx="250.17955801104972" cy="175.15115" r="2.5" stroke="none" stroke-width="0" fill="#3366cc"></circle><circle cx="252.64917127071823" cy="190.2752857142594" r="2.5" stroke="none" stroke-width="0" fill="#3366cc"></circle><circle cx="255.11878453038673" cy="177.8374" r="2.5" stroke="none" stroke-width="0" fill="#3366cc"></circle><circle cx="257.58839779005524" cy="210.38194654375562" r="2.5" stroke="none" stroke-width="0" fill="#3366cc"></circle><circle cx="262.52762430939225" cy="168.0835714285802" r="2.5" stroke="none" stroke-width="0" fill="#3366cc"></circle><circle cx="267.46685082872926" cy="232.4834" r="2.5" stroke="none" stroke-width="0" fill="#3366cc"></circle><circle cx="269.93646408839777" cy="207.34672989844282" r="2.5" stroke="none" stroke-width="0" fill="#3366cc"></circle><circle cx="272.40607734806633" cy="211.25096270260602" r="2.5" stroke="none" stroke-width="0" fill="#3366cc"></circle><circle cx="274.8756906077348" cy="179.5833360904168" r="2.5" stroke="none" stroke-width="0" fill="#3366cc"></circle><circle cx="279.8149171270718" cy="173.49028" r="2.5" stroke="none" stroke-width="0" fill="#3366cc"></circle><circle cx="282.28453038674036" cy="239.11460000000002" r="2.5" stroke="none" stroke-width="0" fill="#3366cc"></circle><circle cx="294.6325966850829" cy="246.6054" r="2.5" stroke="none" stroke-width="0" fill="#3366cc"></circle><circle cx="304.5110497237569" cy="235.5366041290382" r="2.5" stroke="none" stroke-width="0" fill="#3366cc"></circle><circle cx="306.9806629834254" cy="220.1010666666462" r="2.5" stroke="none" stroke-width="0" fill="#3366cc"></circle><circle cx="309.4502762430939" cy="221.6238804071314" r="2.5" stroke="none" stroke-width="0" fill="#3366cc"></circle><circle cx="311.91988950276243" cy="213.953472023405" r="2.5" stroke="none" stroke-width="0" fill="#3366cc"></circle><circle cx="314.38950276243094" cy="186.46902497596903" r="2.5" stroke="none" stroke-width="0" fill="#3366cc"></circle><circle cx="329.20718232044203" cy="224.2819932245886" r="2.5" stroke="none" stroke-width="0" fill="#3366cc"></circle><circle cx="331.6767955801105" cy="199.68287368419763" r="2.5" stroke="none" stroke-width="0" fill="#3366cc"></circle><circle cx="334.14640883977904" cy="224.929528653318" r="2.5" stroke="none" stroke-width="0" fill="#3366cc"></circle><circle cx="336.6160220994475" cy="214.92356687826302" r="2.5" stroke="none" stroke-width="0" fill="#3366cc"></circle><circle cx="344.02486187845307" cy="216.94920000000002" r="2.5" stroke="none" stroke-width="0" fill="#3366cc"></circle><circle cx="346.4944751381215" cy="239.2374" r="2.5" stroke="none" stroke-width="0" fill="#3366cc"></circle><circle cx="348.9640883977901" cy="223.94197777778462" r="2.5" stroke="none" stroke-width="0" fill="#3366cc"></circle><circle cx="358.8425414364641" cy="236.16740000000001" r="2.5" stroke="none" stroke-width="0" fill="#3366cc"></circle><circle cx="371.19060773480663" cy="227.72499020568722" r="2.5" stroke="none" stroke-width="0" fill="#3366cc"></circle><circle cx="376.12983425414365" cy="287.00660000000005" r="2.5" stroke="none" stroke-width="0" fill="#3366cc"></circle><circle cx="381.06906077348066" cy="213.0532089271696" r="2.5" stroke="none" stroke-width="0" fill="#3366cc"></circle><circle cx="383.53867403314916" cy="211.5970981427726" r="2.5" stroke="none" stroke-width="0" fill="#3366cc"></circle><circle cx="386.00828729281767" cy="201.2551506428236" r="2.5" stroke="none" stroke-width="0" fill="#3366cc"></circle><circle cx="388.4779005524862" cy="195.53599850323704" r="2.5" stroke="none" stroke-width="0" fill="#3366cc"></circle><circle cx="390.94751381215474" cy="226.92715223377942" r="2.5" stroke="none" stroke-width="0" fill="#3366cc"></circle><circle cx="393.4171270718232" cy="206.5483631579012" r="2.5" stroke="none" stroke-width="0" fill="#3366cc"></circle><circle cx="395.88674033149175" cy="242.6758" r="2.5" stroke="none" stroke-width="0" fill="#3366cc"></circle><circle cx="398.3563535911602" cy="204.7306" r="2.5" stroke="none" stroke-width="0" fill="#3366cc"></circle><circle cx="403.2955801104972" cy="230.5186" r="2.5" stroke="none" stroke-width="0" fill="#3366cc"></circle><circle cx="423.0524861878453" cy="225.7857925560946" r="2.5" stroke="none" stroke-width="0" fill="#3366cc"></circle><circle cx="425.5220994475138" cy="229.371935064955" r="2.5" stroke="none" stroke-width="0" fill="#3366cc"></circle><circle cx="427.99171270718233" cy="213.9455786341658" r="2.5" stroke="none" stroke-width="0" fill="#3366cc"></circle><circle cx="432.93093922651934" cy="222.4138" r="2.5" stroke="none" stroke-width="0" fill="#3366cc"></circle><circle cx="435.40055248618785" cy="301.0058" r="2.5" stroke="none" stroke-width="0" fill="#3366cc"></circle><circle cx="437.87016574585635" cy="214.6826360418156" r="2.5" stroke="none" stroke-width="0" fill="#3366cc"></circle><circle cx="440.33977900552486" cy="257.0434" r="2.5" stroke="none" stroke-width="0" fill="#3366cc"></circle><circle cx="442.80939226519337" cy="200.4148601597894" r="2.5" stroke="none" stroke-width="0" fill="#3366cc"></circle><circle cx="445.2790055248619" cy="198.96136946308562" r="2.5" stroke="none" stroke-width="0" fill="#3366cc"></circle><circle cx="447.7486187845304" cy="243.4126" r="2.5" stroke="none" stroke-width="0" fill="#3366cc"></circle><circle cx="450.2182320441989" cy="195.0203978253078" r="2.5" stroke="none" stroke-width="0" fill="#3366cc"></circle><circle cx="460.0966850828729" cy="216.13847862407442" r="2.5" stroke="none" stroke-width="0" fill="#3366cc"></circle><circle cx="462.5662983425414" cy="226.3434" r="2.5" stroke="none" stroke-width="0" fill="#3366cc"></circle><circle cx="465.03591160221" cy="218.47444693142901" r="2.5" stroke="none" stroke-width="0" fill="#3366cc"></circle><circle cx="467.5055248618785" cy="214.2271333333538" r="2.5" stroke="none" stroke-width="0" fill="#3366cc"></circle><circle cx="472.4447513812155" cy="235.3692" r="2.5" stroke="none" stroke-width="0" fill="#3366cc"></circle><circle cx="474.914364640884" cy="269.6918" r="2.5" stroke="none" stroke-width="0" fill="#3366cc"></circle><circle cx="482.3232044198895" cy="249.6754" r="2.5" stroke="none" stroke-width="0" fill="#3366cc"></circle><circle cx="484.792817679558" cy="232.796780195572" r="2.5" stroke="none" stroke-width="0" fill="#3366cc"></circle><circle cx="487.26243093922653" cy="229.3467424304848" r="2.5" stroke="none" stroke-width="0" fill="#3366cc"></circle><circle cx="489.73204419889504" cy="254.6310736401594" r="2.5" stroke="none" stroke-width="0" fill="#3366cc"></circle><circle cx="492.20165745856355" cy="251.4561201565458" r="2.5" stroke="none" stroke-width="0" fill="#3366cc"></circle><circle cx="494.67127071823205" cy="226.2492234003626" r="2.5" stroke="none" stroke-width="0" fill="#3366cc"></circle><circle cx="499.61049723756906" cy="243.04420000000002" r="2.5" stroke="none" stroke-width="0" fill="#3366cc"></circle><circle cx="509.4889502762431" cy="260.427926625672" r="2.5" stroke="none" stroke-width="0" fill="#3366cc"></circle><circle cx="511.9585635359116" cy="235.83106108376322" r="2.5" stroke="none" stroke-width="0" fill="#3366cc"></circle><circle cx="514.4281767955802" cy="298.7954" r="2.5" stroke="none" stroke-width="0" fill="#3366cc"></circle><circle cx="516.8977900552486" cy="241.93900000000002" r="2.5" stroke="none" stroke-width="0" fill="#3366cc"></circle><circle cx="519.367403314917" cy="237.3954" r="2.5" stroke="none" stroke-width="0" fill="#3366cc"></circle><circle cx="521.8370165745856" cy="262.1898363636252" r="2.5" stroke="none" stroke-width="0" fill="#3366cc"></circle><circle cx="524.3066298342542" cy="219.60117010382282" r="2.5" stroke="none" stroke-width="0" fill="#3366cc"></circle><circle cx="526.7762430939226" cy="280.5800666666462" r="2.5" stroke="none" stroke-width="0" fill="#3366cc"></circle><circle cx="529.2458563535912" cy="233.4044" r="2.5" stroke="none" stroke-width="0" fill="#3366cc"></circle><circle cx="534.1850828729282" cy="293.14660000000003" r="2.5" stroke="none" stroke-width="0" fill="#3366cc"></circle><circle cx="539.1243093922652" cy="256.3831626961072" r="2.5" stroke="none" stroke-width="0" fill="#3366cc"></circle><circle cx="541.5939226519338" cy="228.40747390637242" r="2.5" stroke="none" stroke-width="0" fill="#3366cc"></circle><circle cx="546.5331491712707" cy="254.71020000000001" r="2.5" stroke="none" stroke-width="0" fill="#3366cc"></circle><circle cx="549.0027624309392" cy="247.58780000000002" r="2.5" stroke="none" stroke-width="0" fill="#3366cc"></circle><circle cx="551.4723756906078" cy="230.0098571428396" r="2.5" stroke="none" stroke-width="0" fill="#3366cc"></circle><circle cx="556.4116022099447" cy="272.1478" r="2.5" stroke="none" stroke-width="0" fill="#3366cc"></circle><circle cx="561.3508287292818" cy="255.623525" r="2.5" stroke="none" stroke-width="0" fill="#3366cc"></circle><circle cx="563.8204419889503" cy="261.9554" r="2.5" stroke="none" stroke-width="0" fill="#3366cc"></circle><circle cx="566.2900552486187" cy="268.262065052142" r="2.5" stroke="none" stroke-width="0" fill="#3366cc"></circle><circle cx="568.7596685082873" cy="237.638544" r="2.5" stroke="none" stroke-width="0" fill="#3366cc"></circle><circle cx="571.2292817679559" cy="264.53420000000006" r="2.5" stroke="none" stroke-width="0" fill="#3366cc"></circle><circle cx="573.6988950276243" cy="242.3871270976862" r="2.5" stroke="none" stroke-width="0" fill="#3366cc"></circle><circle cx="578.6381215469613" cy="243.01068020696482" r="2.5" stroke="none" stroke-width="0" fill="#3366cc"></circle><circle cx="581.1077348066299" cy="285.1646" r="2.5" stroke="none" stroke-width="0" fill="#3366cc"></circle><circle cx="583.5773480662983" cy="259.9717076922888" r="2.5" stroke="none" stroke-width="0" fill="#3366cc"></circle><circle cx="588.5165745856353" cy="240.2588727272504" r="2.5" stroke="none" stroke-width="0" fill="#3366cc"></circle><circle cx="590.9861878453039" cy="219.68751292275323" r="2.5" stroke="none" stroke-width="0" fill="#3366cc"></circle><circle cx="593.4558011049724" cy="264.1658" r="2.5" stroke="none" stroke-width="0" fill="#3366cc"></circle><circle cx="595.9254143646409" cy="231.11023967434102" r="2.5" stroke="none" stroke-width="0" fill="#3366cc"></circle><circle cx="598.3950276243095" cy="227.32096207351262" r="2.5" stroke="none" stroke-width="0" fill="#3366cc"></circle><circle cx="600.8646408839779" cy="257.289" r="2.5" stroke="none" stroke-width="0" fill="#3366cc"></circle><circle cx="603.3342541436464" cy="234.1302677748834" r="2.5" stroke="none" stroke-width="0" fill="#3366cc"></circle><circle cx="605.8038674033149" cy="249.0978879823796" r="2.5" stroke="none" stroke-width="0" fill="#3366cc"></circle><circle cx="608.2734806629835" cy="225.8037811275824" r="2.5" stroke="none" stroke-width="0" fill="#3366cc"></circle><circle cx="610.743093922652" cy="255.9382" r="2.5" stroke="none" stroke-width="0" fill="#3366cc"></circle><circle cx="613.2127071823204" cy="217.4027014100914" r="2.5" stroke="none" stroke-width="0" fill="#3366cc"></circle><circle cx="620.621546961326" cy="244.63660497817722" r="2.5" stroke="none" stroke-width="0" fill="#3366cc"></circle><circle cx="623.0911602209944" cy="236.5441962997542" r="2.5" stroke="none" stroke-width="0" fill="#3366cc"></circle><circle cx="625.560773480663" cy="223.480592689171" r="2.5" stroke="none" stroke-width="0" fill="#3366cc"></circle><circle cx="628.0303867403316" cy="259.9496666666462" r="2.5" stroke="none" stroke-width="0" fill="#3366cc"></circle><circle cx="637.9088397790056" cy="291.3046" r="2.5" stroke="none" stroke-width="0" fill="#3366cc"></circle><circle cx="640.378453038674" cy="306.0269555555692" r="2.5" stroke="none" stroke-width="0" fill="#3366cc"></circle><circle cx="642.8480662983425" cy="280.5690461538556" r="2.5" stroke="none" stroke-width="0" fill="#3366cc"></circle><circle cx="645.317679558011" cy="294.5577904335086" r="2.5" stroke="none" stroke-width="0" fill="#3366cc"></circle><circle cx="647.7872928176796" cy="258.51700000000005" r="2.5" stroke="none" stroke-width="0" fill="#3366cc"></circle><circle cx="650.256906077348" cy="277.4282" r="2.5" stroke="none" stroke-width="0" fill="#3366cc"></circle><circle cx="652.7265193370166" cy="240.68644" r="2.5" stroke="none" stroke-width="0" fill="#3366cc"></circle><circle cx="657.6657458563536" cy="239.9555549738506" r="2.5" stroke="none" stroke-width="0" fill="#3366cc"></circle><circle cx="660.1353591160221" cy="219.6304938269366" r="2.5" stroke="none" stroke-width="0" fill="#3366cc"></circle><circle cx="662.6049723756906" cy="282.5858" r="2.5" stroke="none" stroke-width="0" fill="#3366cc"></circle><circle cx="665.0745856353592" cy="265.737982697653" r="2.5" stroke="none" stroke-width="0" fill="#3366cc"></circle><circle cx="667.5441988950276" cy="302.4794" r="2.5" stroke="none" stroke-width="0" fill="#3366cc"></circle><circle cx="670.0138121546961" cy="266.59626017001983" r="2.5" stroke="none" stroke-width="0" fill="#3366cc"></circle><circle cx="672.4834254143647" cy="285.6558" r="2.5" stroke="none" stroke-width="0" fill="#3366cc"></circle><circle cx="674.9530386740332" cy="250.3420117195144" r="2.5" stroke="none" stroke-width="0" fill="#3366cc"></circle><circle cx="677.4226519337017" cy="294.3746" r="2.5" stroke="none" stroke-width="0" fill="#3366cc"></circle><circle cx="679.8922651933701" cy="266.2865830882064" r="2.5" stroke="none" stroke-width="0" fill="#3366cc"></circle><circle cx="682.3618784530387" cy="223.8601144172214" r="2.5" stroke="none" stroke-width="0" fill="#3366cc"></circle><circle cx="684.8314917127072" cy="232.298722009903" r="2.5" stroke="none" stroke-width="0" fill="#3366cc"></circle><circle cx="687.3011049723757" cy="275.83180000000004" r="2.5" stroke="none" stroke-width="0" fill="#3366cc"></circle><circle cx="692.2403314917127" cy="241.139548877988" r="2.5" stroke="none" stroke-width="0" fill="#3366cc"></circle><circle cx="697.1795580110497" cy="233.45524648517141" r="2.5" stroke="none" stroke-width="0" fill="#3366cc"></circle><circle cx="699.6491712707183" cy="226.5640571233536" r="2.5" stroke="none" stroke-width="0" fill="#3366cc"></circle><circle cx="702.1187845303867" cy="228.3900666666462" r="2.5" stroke="none" stroke-width="0" fill="#3366cc"></circle><circle cx="704.5883977900553" cy="215.79236876302502" r="2.5" stroke="none" stroke-width="0" fill="#3366cc"></circle><circle cx="707.0580110497237" cy="275.9546" r="2.5" stroke="none" stroke-width="0" fill="#3366cc"></circle><circle cx="709.5276243093923" cy="267.6042" r="2.5" stroke="none" stroke-width="0" fill="#3366cc"></circle><circle cx="711.9972375690608" cy="288.1118" r="2.5" stroke="none" stroke-width="0" fill="#3366cc"></circle><circle cx="714.4668508287293" cy="256.4903237625046" r="2.5" stroke="none" stroke-width="0" fill="#3366cc"></circle><circle cx="716.9364640883978" cy="234.9440134003796" r="2.5" stroke="none" stroke-width="0" fill="#3366cc"></circle><circle cx="719.4060773480663" cy="229.99031951990042" r="2.5" stroke="none" stroke-width="0" fill="#3366cc"></circle><circle cx="721.8756906077348" cy="203.17866597050363" r="2.5" stroke="none" stroke-width="0" fill="#3366cc"></circle><circle cx="726.8149171270718" cy="235.372771745143" r="2.5" stroke="none" stroke-width="0" fill="#3366cc"></circle><circle cx="729.2845303867404" cy="242.553" r="2.5" stroke="none" stroke-width="0" fill="#3366cc"></circle><circle cx="731.7541436464088" cy="190.99253872947804" r="2.5" stroke="none" stroke-width="0" fill="#3366cc"></circle><circle cx="736.6933701657458" cy="231.1231665768204" r="2.5" stroke="none" stroke-width="0" fill="#3366cc"></circle><circle cx="739.1629834254144" cy="244.2940292087822" r="2.5" stroke="none" stroke-width="0" fill="#3366cc"></circle><circle cx="741.6325966850828" cy="234.161416583034" r="2.5" stroke="none" stroke-width="0" fill="#3366cc"></circle><circle cx="744.1022099447514" cy="198.96546315790124" r="2.5" stroke="none" stroke-width="0" fill="#3366cc"></circle><circle cx="749.0414364640884" cy="207.401481944716" r="2.5" stroke="none" stroke-width="0" fill="#3366cc"></circle><circle cx="751.511049723757" cy="276.0774" r="2.5" stroke="none" stroke-width="0" fill="#3366cc"></circle><circle cx="753.9806629834254" cy="205.0751096350926" r="2.5" stroke="none" stroke-width="0" fill="#3366cc"></circle><circle cx="756.450276243094" cy="224.605500470974" r="2.5" stroke="none" stroke-width="0" fill="#3366cc"></circle><circle cx="758.9198895027624" cy="210.8929272727496" r="2.5" stroke="none" stroke-width="0" fill="#3366cc"></circle><circle cx="761.389502762431" cy="211.5979538461444" r="2.5" stroke="none" stroke-width="0" fill="#3366cc"></circle><circle cx="763.8591160220994" cy="234.2212523587216" r="2.5" stroke="none" stroke-width="0" fill="#3366cc"></circle><circle cx="766.328729281768" cy="229.3108879595516" r="2.5" stroke="none" stroke-width="0" fill="#3366cc"></circle><circle cx="771.267955801105" cy="214.69354067493882" r="2.5" stroke="none" stroke-width="0" fill="#3366cc"></circle><circle cx="778.6767955801105" cy="220.0806" r="2.5" stroke="none" stroke-width="0" fill="#3366cc"></circle><circle cx="783.6160220994475" cy="271.28819999999996" r="2.5" stroke="none" stroke-width="0" fill="#3366cc"></circle><circle cx="788.5552486187845" cy="215.36303333335383" r="2.5" stroke="none" stroke-width="0" fill="#3366cc"></circle><circle cx="793.4944751381215" cy="298.6726" r="2.5" stroke="none" stroke-width="0" fill="#3366cc"></circle><circle cx="798.4337016574585" cy="180.36586368214822" r="2.5" stroke="none" stroke-width="0" fill="#3366cc"></circle><circle cx="800.9033149171271" cy="168.1259500599724" r="2.5" stroke="none" stroke-width="0" fill="#3366cc"></circle><circle cx="803.3729281767955" cy="187.24058675844162" r="2.5" stroke="none" stroke-width="0" fill="#3366cc"></circle><circle cx="810.7817679558011" cy="188.02866542513482" r="2.5" stroke="none" stroke-width="0" fill="#3366cc"></circle><circle cx="815.7209944751381" cy="181.0723362986704" r="2.5" stroke="none" stroke-width="0" fill="#3366cc"></circle><circle cx="818.1906077348067" cy="167.47230664446622" r="2.5" stroke="none" stroke-width="0" fill="#3366cc"></circle><circle cx="820.6602209944751" cy="158.0402184895484" r="2.5" stroke="none" stroke-width="0" fill="#3366cc"></circle><circle cx="823.1298342541437" cy="200.40715180823042" r="2.5" stroke="none" stroke-width="0" fill="#3366cc"></circle><circle cx="825.5994475138122" cy="205.71300000000002" r="2.5" stroke="none" stroke-width="0" fill="#3366cc"></circle><circle cx="833.0082872928177" cy="201.6570260768148" r="2.5" stroke="none" stroke-width="0" fill="#3366cc"></circle><circle cx="835.4779005524862" cy="225.79309175739462" r="2.5" stroke="none" stroke-width="0" fill="#3366cc"></circle><circle cx="837.9475138121547" cy="221.92260000000002" r="2.5" stroke="none" stroke-width="0" fill="#3366cc"></circle><circle cx="842.8867403314918" cy="249.51751428574062" r="2.5" stroke="none" stroke-width="0" fill="#3366cc"></circle><circle cx="845.3563535911602" cy="185.48784" r="2.5" stroke="none" stroke-width="0" fill="#3366cc"></circle><circle cx="847.8259668508288" cy="226.92594384236062" r="2.5" stroke="none" stroke-width="0" fill="#3366cc"></circle><circle cx="850.2955801104972" cy="176.48288059847923" r="2.5" stroke="none" stroke-width="0" fill="#3366cc"></circle><circle cx="855.2348066298342" cy="164.9420827803354" r="2.5" stroke="none" stroke-width="0" fill="#3366cc"></circle><circle cx="857.7044198895028" cy="247.2194" r="2.5" stroke="none" stroke-width="0" fill="#3366cc"></circle><circle cx="860.1740331491712" cy="191.9155428571604" r="2.5" stroke="none" stroke-width="0" fill="#3366cc"></circle><circle cx="862.6436464088398" cy="173.3440531966194" r="2.5" stroke="none" stroke-width="0" fill="#3366cc"></circle><circle cx="865.1132596685082" cy="184.1195894737036" r="2.5" stroke="none" stroke-width="0" fill="#3366cc"></circle><circle cx="872.5220994475138" cy="230.45102751319862" r="2.5" stroke="none" stroke-width="0" fill="#3366cc"></circle><circle cx="874.9917127071824" cy="192.651657786292" r="2.5" stroke="none" stroke-width="0" fill="#3366cc"></circle><circle cx="877.4613259668508" cy="178.03957132969242" r="2.5" stroke="none" stroke-width="0" fill="#3366cc"></circle><circle cx="879.9309392265194" cy="174.191990241998" r="2.5" stroke="none" stroke-width="0" fill="#3366cc"></circle><circle cx="882.4005524861878" cy="155.0286670598866" r="2.5" stroke="none" stroke-width="0" fill="#3366cc"></circle><circle cx="884.8701657458564" cy="135.7905913357598" r="2.5" stroke="none" stroke-width="0" fill="#3366cc"></circle><circle cx="887.3397790055249" cy="187.2052857142594" r="2.5" stroke="none" stroke-width="0" fill="#3366cc"></circle><circle cx="889.8093922651934" cy="188.88940000000002" r="2.5" stroke="none" stroke-width="0" fill="#3366cc"></circle><circle cx="894.7486187845304" cy="167.84966666664621" r="2.5" stroke="none" stroke-width="0" fill="#3366cc"></circle><circle cx="897.2182320441989" cy="164.1861333333538" r="2.5" stroke="none" stroke-width="0" fill="#3366cc"></circle><circle cx="899.6878453038674" cy="177.8374" r="2.5" stroke="none" stroke-width="0" fill="#3366cc"></circle><circle cx="902.1574585635359" cy="170.28676811664263" r="2.5" stroke="none" stroke-width="0" fill="#3366cc"></circle><circle cx="907.0966850828729" cy="215.052821115174" r="2.5" stroke="none" stroke-width="0" fill="#3366cc"></circle><circle cx="909.5662983425415" cy="214.2271333333538" r="2.5" stroke="none" stroke-width="0" fill="#3366cc"></circle><circle cx="912.0359116022099" cy="162.72875553809843" r="2.5" stroke="none" stroke-width="0" fill="#3366cc"></circle><circle cx="914.5055248618785" cy="177.3642159049258" r="2.5" stroke="none" stroke-width="0" fill="#3366cc"></circle><circle cx="916.9751381215469" cy="208.11988" r="2.5" stroke="none" stroke-width="0" fill="#3366cc"></circle><circle cx="919.4447513812155" cy="167.2823740483864" r="2.5" stroke="none" stroke-width="0" fill="#3366cc"></circle><circle cx="921.914364640884" cy="225.09493333335382" r="2.5" stroke="none" stroke-width="0" fill="#3366cc"></circle><circle cx="924.3839779005525" cy="173.3643316623802" r="2.5" stroke="none" stroke-width="0" fill="#3366cc"></circle><circle cx="926.853591160221" cy="181.6646666666462" r="2.5" stroke="none" stroke-width="0" fill="#3366cc"></circle><circle cx="929.3232044198895" cy="141.95302483843005" r="2.5" stroke="none" stroke-width="0" fill="#3366cc"></circle><circle cx="934.2624309392265" cy="157.299500068585" r="2.5" stroke="none" stroke-width="0" fill="#3366cc"></circle><circle cx="936.7320441988951" cy="160.40999087138562" r="2.5" stroke="none" stroke-width="0" fill="#3366cc"></circle><circle cx="939.2016574585635" cy="156.59007979567662" r="2.5" stroke="none" stroke-width="0" fill="#3366cc"></circle><circle cx="941.6712707182321" cy="162.792539393958" r="2.5" stroke="none" stroke-width="0" fill="#3366cc"></circle><circle cx="951.5497237569061" cy="188.7038464929968" r="2.5" stroke="none" stroke-width="0" fill="#3366cc"></circle><circle cx="956.4889502762431" cy="196.1873463087442" r="2.5" stroke="none" stroke-width="0" fill="#3366cc"></circle><circle cx="958.9585635359116" cy="188.70308275859742" r="2.5" stroke="none" stroke-width="0" fill="#3366cc"></circle><circle cx="961.4281767955802" cy="206.36793333335382" r="2.5" stroke="none" stroke-width="0" fill="#3366cc"></circle><circle cx="966.3674033149172" cy="232.31148000000002" r="2.5" stroke="none" stroke-width="0" fill="#3366cc"></circle><circle cx="968.8370165745856" cy="167.285403386175" r="2.5" stroke="none" stroke-width="0" fill="#3366cc"></circle><circle cx="973.7762430939226" cy="164.9964351939636" r="2.5" stroke="none" stroke-width="0" fill="#3366cc"></circle><circle cx="976.2458563535912" cy="185.5671091355938" r="2.5" stroke="none" stroke-width="0" fill="#3366cc"></circle><circle cx="978.7154696132596" cy="159.5449230769278" r="2.5" stroke="none" stroke-width="0" fill="#3366cc"></circle><circle cx="981.1850828729282" cy="157.3379480783426" r="2.5" stroke="none" stroke-width="0" fill="#3366cc"></circle><circle cx="983.6546961325967" cy="183.57883264985063" r="2.5" stroke="none" stroke-width="0" fill="#3366cc"></circle><circle cx="986.1243093922652" cy="165.795325" r="2.5" stroke="none" stroke-width="0" fill="#3366cc"></circle><circle cx="991.0635359116022" cy="170.28552098581483" r="2.5" stroke="none" stroke-width="0" fill="#3366cc"></circle><circle cx="1000.9419889502763" cy="215.0890061384104" r="2.5" stroke="none" stroke-width="0" fill="#3366cc"></circle><circle cx="1003.4116022099448" cy="193.39206666664623" r="2.5" stroke="none" stroke-width="0" fill="#3366cc"></circle><circle cx="1008.3508287292818" cy="200.41967368419762" r="2.5" stroke="none" stroke-width="0" fill="#3366cc"></circle><circle cx="1018.2292817679559" cy="214.7081" r="2.5" stroke="none" stroke-width="0" fill="#3366cc"></circle><circle cx="1020.6988950276243" cy="181.6579977528014" r="2.5" stroke="none" stroke-width="0" fill="#3366cc"></circle><circle cx="1023.1685082872929" cy="264.65700000000004" r="2.5" stroke="none" stroke-width="0" fill="#3366cc"></circle><circle cx="1028.1077348066299" cy="254.29809588278403" r="2.5" stroke="none" stroke-width="0" fill="#3366cc"></circle><circle cx="1033.046961325967" cy="255.447" r="2.5" stroke="none" stroke-width="0" fill="#3366cc"></circle><circle cx="1035.5165745856352" cy="258.3942" r="2.5" stroke="none" stroke-width="0" fill="#3366cc"></circle><circle cx="1040.4558011049724" cy="221.43140000000002" r="2.5" stroke="none" stroke-width="0" fill="#3366cc"></circle><circle cx="1052.803867403315" cy="209.2742" r="2.5" stroke="none" stroke-width="0" fill="#3366cc"></circle><circle cx="1057.743093922652" cy="269.4462" r="2.5" stroke="none" stroke-width="0" fill="#3366cc"></circle><circle cx="1060.2127071823206" cy="208.4852614525246" r="2.5" stroke="none" stroke-width="0" fill="#3366cc"></circle><circle cx="1062.6823204419888" cy="220.0582769639732" r="2.5" stroke="none" stroke-width="0" fill="#3366cc"></circle><circle cx="1065.1519337016575" cy="182.8116223214198" r="2.5" stroke="none" stroke-width="0" fill="#3366cc"></circle><circle cx="1067.621546961326" cy="201.41500000000002" r="2.5" stroke="none" stroke-width="0" fill="#3366cc"></circle><circle cx="1070.0911602209944" cy="181.18611352200642" r="2.5" stroke="none" stroke-width="0" fill="#3366cc"></circle><circle cx="1075.0303867403316" cy="180.16182857141982" r="2.5" stroke="none" stroke-width="0" fill="#3366cc"></circle><circle cx="1077.5" cy="192.0335606710052" r="2.5" stroke="none" stroke-width="0" fill="#3366cc"></circle></g><g><g><text text-anchor="middle" x="257.79419889502765" y="424.75" font-family="Arial" font-size="15" stroke="none" stroke-width="0" fill="#444444">February 2019</text></g><g><text text-anchor="middle" x="403.6042817679558" y="424.75" font-family="Arial" font-size="15" stroke="none" stroke-width="0" fill="#444444">April 2019</text></g><g><text text-anchor="middle" x="554.2506906077349" y="424.75" font-family="Arial" font-size="15" stroke="none" stroke-width="0" fill="#444444">June 2019</text></g><g><text text-anchor="middle" x="704.8970994475138" y="424.75" font-family="Arial" font-size="15" stroke="none" stroke-width="0" fill="#444444">August 2019</text></g><g><text text-anchor="middle" x="855.5435082872929" y="424.75" font-family="Arial" font-size="15" stroke="none" stroke-width="0" fill="#444444">October 2019</text></g><g><text text-anchor="middle" x="1006.1899171270718" y="424.75" font-family="Arial" font-size="15" stroke="none" stroke-width="0" fill="#444444">December 2019</text></g><g><text text-anchor="end" x="168" y="407.75" font-family="Arial" font-size="15" stroke="none" stroke-width="0" fill="#444444">0</text></g><g><text text-anchor="end" x="168" y="346.35" font-family="Arial" font-size="15" stroke="none" stroke-width="0" fill="#444444">10</text></g><g><text text-anchor="end" x="168" y="284.95" font-family="Arial" font-size="15" stroke="none" stroke-width="0" fill="#444444">20</text></g><g><text text-anchor="end" x="168" y="223.55" font-family="Arial" font-size="15" stroke="none" stroke-width="0" fill="#444444">30</text></g><g><text text-anchor="end" x="168" y="162.15" font-family="Arial" font-size="15" stroke="none" stroke-width="0" fill="#444444">40</text></g><g><text text-anchor="end" x="168" y="100.75" font-family="Arial" font-size="15" stroke="none" stroke-width="0" fill="#444444">50</text></g></g></g><g><g><text text-anchor="middle" x="630.5" y="467.75" font-family="Arial" font-size="15" font-style="italic" stroke="none" stroke-width="0" fill="#222222">Ano</text><rect x="183" y="455" width="895" height="15" stroke="none" stroke-width="0" fill-opacity="0" fill="#ffffff"></rect></g><g><text text-anchor="middle" x="80.75" y="249" font-family="Arial" font-size="15" font-style="italic" transform="rotate(-90 80.75 249)" stroke="none" stroke-width="0" fill="#222222">Temperatura do solo (ºC)</text><path d="M67.99999999999999,403L68.00000000000001,95L83.00000000000001,95L82.99999999999999,403Z" stroke="none" stroke-width="0" fill-opacity="0" fill="#ffffff"></path></g></g><g></g></svg>