<svg width="1261" height="578" aria-label="A chart." style="overflow: hidden;"><defs id="_ABSTRACT_RENDERER_ID_323"><clipPath id="_ABSTRACT_RENDERER_ID_324"><rect x="200" y="111" width="862" height="357"></rect></clipPath></defs><rect x="0" y="0" width="1261" height="578" stroke="none" stroke-width="0" fill="#ffffff"></rect><g><text text-anchor="start" x="200" y="84.75" font-family="Arial" font-size="15" font-weight="bold" stroke="none" stroke-width="0" fill="#000000">Icaraíma</text><rect x="200" y="72" width="862" height="15" stroke="none" stroke-width="0" fill-opacity="0" fill="#ffffff"></rect></g><g><rect x="1077" y="111" width="169" height="15" stroke="none" stroke-width="0" fill-opacity="0" fill="#ffffff"></rect><g column-id="LST_Day_1km"><rect x="1077" y="111" width="169" height="15" stroke="none" stroke-width="0" fill-opacity="0" fill="#ffffff"></rect><g><text text-anchor="start" x="1113" y="123.75" font-family="Arial" font-size="15" stroke="none" stroke-width="0" fill="#222222">LST_Day_1km</text></g><path d="M1077,118.5L1107,118.5" stroke="#3366cc" stroke-width="1" fill-opacity="1" fill="none"></path><circle cx="1092" cy="118.5" r="2.5" stroke="none" stroke-width="0" fill="#3366cc"></circle></g></g><g><rect x="200" y="111" width="862" height="357" stroke="none" stroke-width="0" fill-opacity="0" fill="#ffffff"></rect><g clip-path="url(https://code.earthengine.google.com/#_ABSTRACT_RENDERER_ID_324)"><g><rect x="200" y="111" width="1" height="357" stroke="none" stroke-width="0" fill="#cccccc"></rect><rect x="274" y="111" width="1" height="357" stroke="none" stroke-width="0" fill="#cccccc"></rect><rect x="340" y="111" width="1" height="357" stroke="none" stroke-width="0" fill="#cccccc"></rect><rect x="413" y="111" width="1" height="357" stroke="none" stroke-width="0" fill="#cccccc"></rect><rect x="484" y="111" width="1" height="357" stroke="none" stroke-width="0" fill="#cccccc"></rect><rect x="557" y="111" width="1" height="357" stroke="none" stroke-width="0" fill="#cccccc"></rect><rect x="628" y="111" width="1" height="357" stroke="none" stroke-width="0" fill="#cccccc"></rect><rect x="702" y="111" width="1" height="357" stroke="none" stroke-width="0" fill="#cccccc"></rect><rect x="775" y="111" width="1" height="357" stroke="none" stroke-width="0" fill="#cccccc"></rect><rect x="846" y="111" width="1" height="357" stroke="none" stroke-width="0" fill="#cccccc"></rect><rect x="919" y="111" width="1" height="357" stroke="none" stroke-width="0" fill="#cccccc"></rect><rect x="990" y="111" width="1" height="357" stroke="none" stroke-width="0" fill="#cccccc"></rect><rect x="200" y="467" width="862" height="1" stroke="none" stroke-width="0" fill="#cccccc"></rect><rect x="200" y="396" width="862" height="1" stroke="none" stroke-width="0" fill="#cccccc"></rect><rect x="200" y="325" width="862" height="1" stroke="none" stroke-width="0" fill="#cccccc"></rect><rect x="200" y="253" width="862" height="1" stroke="none" stroke-width="0" fill="#cccccc"></rect><rect x="200" y="182" width="862" height="1" stroke="none" stroke-width="0" fill="#cccccc"></rect><rect x="200" y="111" width="862" height="1" stroke="none" stroke-width="0" fill="#cccccc"></rect><rect x="200" y="431" width="862" height="1" stroke="none" stroke-width="0" fill="#ebebeb"></rect><rect x="200" y="360" width="862" height="1" stroke="none" stroke-width="0" fill="#ebebeb"></rect><rect x="200" y="289" width="862" height="1" stroke="none" stroke-width="0" fill="#ebebeb"></rect><rect x="200" y="218" width="862" height="1" stroke="none" stroke-width="0" fill="#ebebeb"></rect><rect x="200" y="147" width="862" height="1" stroke="none" stroke-width="0" fill="#ebebeb"></rect></g><g><rect x="200" y="467" width="862" height="1" stroke="none" stroke-width="0" fill="#333333"></rect></g><g><g><path d="M214.69230769230768,278.17920000000004L217.05769230769232,211.6007272727208L219.42307692307693,201.95451428574484M226.51923076923077,242.070704477596L228.8846153846154,230.07015589125763L231.25,242.08079999999998L233.6153846153846,226.8115991373248L235.98076923076923,250.90959999999998L238.34615384615384,260.2368M247.80769230769232,252.74575257733278L250.17307692307693,271.344M259.63461538461536,302.1024L262,256.4134230088672M271.46153846153845,258.6704L273.8269230769231,347.528M285.6538461538462,254.392939233052L288.0192307692308,244.28799999999998L290.38461538461536,244.28799999999998L292.75,248.3068444444128L295.11538461538464,235.88639999999998L297.4807692307692,257.3343313893888M306.9423076923077,241.09531214955598L309.3076923076923,226.4907650485112L311.6730769230769,250.49470414747202L314.03846153846155,224.29154955592082L316.4038461538462,251.74620000000002L318.7692307692308,225.3486140992208L321.13461538461536,257.2142591093152L323.5,244.260566042988L325.86538461538464,249.2008M330.59615384615387,260.37919999999997L332.96153846153845,249.6971078053016L335.3269230769231,235.43927204268078L337.69230769230774,225.3488L340.0576923076923,218.46616433706478L342.4230769230769,288.8592L344.78846153846155,266.26506666669036M356.61538461538464,229.999388901676L358.9807692307692,258.01352955465757L361.34615384615387,232.26944000000003L363.71153846153845,231.40420313664558L366.0769230769231,235.91011264166397L368.44230769230774,276.24256L370.8076923076923,284.4448L373.1730769230769,235.5282291195472L375.53846153846155,250.696M385,252.0408980825256L387.36538461538464,264.4605031178848L389.7307692307693,236.75503999999998M394.46153846153845,231.85173333330962L396.8269230769231,253.54399999999998M406.28846153846155,247.43662222220638L408.6538461538462,275.616L411.0192307692308,260.86440255668003L413.38461538461536,293.20204280939356L415.75,257.6903235758296L418.11538461538464,252.416878064332M441.7692307692308,275.1413333333096L444.13461538461536,251.3653568345544L446.5,278.8912M453.59615384615387,298.9696L455.96153846153845,315.9864M463.0576923076923,320.8992L465.42307692307696,276.71443594353036M474.8846153846154,321.4688L477.25,288.4990169179064L479.61538461538464,302.95680000000004L481.9807692307692,283.81663225807597M486.71153846153845,290.9890748267632L489.0769230769231,276.9921997091912M496.17307692307696,283.4029835719464L498.53846153846155,321.36528102515683L500.9038461538462,294.49834449632397M510.36538461538464,311.4625997344192L512.7307692307693,267.5656334727816L515.0961538461538,294.9824M541.1153846153846,267.55352059791517L543.4807692307693,306.3032L545.8461538461538,330.72479999999996M557.6730769230769,353.93600000000004L560.0384615384615,336.84799999999996L562.4038461538462,315.2032L564.7692307692307,285.8030769230824M569.5,312.35519999999997L571.8653846153846,306.5168M578.9615384615386,336.3448808237008L581.3269230769231,350.8032L583.6923076923077,335.2341333333096M590.7884615384615,308.9376L593.1538461538462,312.9248L595.5192307692307,283.32142222220637L597.8846153846155,304.808M604.9807692307693,318.62080000000003L607.3461538461538,297.1492713867816L609.7115384615386,299.60856701530963M614.4423076923077,315.488L616.8076923076924,303.9168810244312L619.1730769230769,347.5992L621.5384615384615,286.5316139190272M626.2692307692307,286.9536407185552L628.6346153846155,294.5995814838264M633.3653846153846,342.7266126245736L635.7307692307693,342.40160000000003L638.0961538461538,312.2128L640.4615384615386,305.6624L642.8269230769231,295.83680000000004L645.1923076923077,296.4832931173968M649.9230769230769,280.3948024844464L652.2884615384615,310.71673592235356L654.6538461538462,275.9065908421736L657.0192307692307,315.41679999999997L659.3846153846155,272.733775683324L661.75,280.0304L664.1153846153846,274.196309030764M668.8461538461538,368.3184L671.2115384615386,315.8677333333096L673.5769230769231,343.5408L675.9423076923077,282.21386666669036L678.3076923076924,264.40708571425523L680.6730769230769,282.9837847094688L683.0384615384615,262.0433220547528L685.4038461538462,269.2465750504904L687.7692307692307,250.1264L690.1346153846155,285.1568L692.5,273.2403301124528L694.8653846153846,308.7477333333096L697.2307692307693,265.271479692928L699.5961538461538,263.11644444441276L701.9615384615386,265.6314325281768M709.0576923076924,288.4421805468096L711.4230769230769,324.1032L713.7884615384615,280.45578959076477L716.1538461538462,275.9145071816352L718.5192307692308,267.8299052631504L720.8846153846155,229.6310170403696L723.25,242.1140266666904L725.6153846153846,255.9931775334456M744.5384615384615,321.6112L746.9038461538462,337.7024L749.2692307692308,324.1744L751.6346153846155,308.8645670153096M756.3653846153846,260.837738096516L758.7307692307693,254.5089473684248L761.0961538461539,255.9788520940864L763.4615384615385,245.2848L765.8269230769231,257.5940222690168L768.1923076923077,226.51544853115362L770.5576923076924,264.758L772.9230769230769,219.592992L775.2884615384615,271.9136L777.6538461538462,259.5014863661976L780.0192307692308,234.1380989354816L782.3846153846155,250.53146528497518L784.75,218.6749747888928L787.1153846153846,272.8036L789.4807692307693,225.8455184111448L791.8461538461539,277.3248L794.2115384615385,268.56887733550957L796.5769230769231,221.5736790387008M801.3076923076924,230.98961857486083L803.6730769230769,251.83260057044959L806.0384615384615,210.6816L808.4038461538462,255.0344334727816L810.7692307692308,225.77599999999998L813.1346153846155,248.8228923076704L815.5,212.5424548789896L817.8653846153846,199.84578291457683L820.2307692307693,222.1604921052744L822.5961538461539,198.57759999999996L824.9615384615385,230.53945992781118L827.3269230769231,183.13672934748M832.0576923076924,270.3472L834.4230769230769,239.9699900043552L836.7884615384615,215.8436L839.1538461538462,177.95333333330962M850.9807692307693,260.90820525435356L853.3461538461539,245.7376259703568L855.7115384615385,327.8768L858.0769230769231,242.1092335146592M869.9038461538462,255.045207899432L872.2692307692308,234.88959999999997L874.6346153846155,217.1955817584928M879.3653846153846,258.04027203578164L881.7307692307693,226.06181648281282L884.0961538461539,264.4138666666904L886.4615384615385,203.41390447415438M898.2884615384615,297.5930666666904L900.6538461538462,334.712L903.0192307692308,250.55360000000002M917.2115384615385,274.6904L919.5769230769231,246.564837146472L921.9423076923077,297.8304L924.3076923076924,218.95662222220642M943.2307692307693,275.616L945.5961538461539,217.26048L947.9615384615385,216.22225454544161L950.3269230769231,228.3761031958144L952.6923076923077,206.89376000000004L955.0576923076924,224.797L957.423076923077,247.8242666666904M962.1538461538462,264.38683408073916L964.5192307692308,265.3632L966.8846153846155,238.4970666666904L969.25,257.2464L971.6153846153846,232.3207375552072L973.9807692307693,214.562M978.7115384615385,277.396L981.0769230769231,308.7952L983.4423076923077,246.6376L985.8076923076924,258.02959999999996M990.5384615384615,271.344L992.9038461538462,266.716L995.2692307692308,217.35985915493762M1007.0961538461539,265.2564L1009.4615384615385,224.8187628335088L1011.8269230769231,269.0656L1014.1923076923077,227.5094259790304L1016.5576923076924,218.0864L1018.923076923077,252.8498L1021.2884615384615,205.75272955465755L1023.6538461538462,221.689722237368L1026.019230769231,210.11081691844322L1028.3846153846155,199.1472" stroke="#3366cc" stroke-width="1" fill-opacity="1" fill="none"></path></g></g></g><g><circle cx="200.5" cy="284.8008" r="2.5" stroke="none" stroke-width="0" fill="#3366cc"></circle><circle cx="205.23076923076923" cy="246.1392" r="2.5" stroke="none" stroke-width="0" fill="#3366cc"></circle><circle cx="214.69230769230768" cy="278.17920000000004" r="2.5" stroke="none" stroke-width="0" fill="#3366cc"></circle><circle cx="217.05769230769232" cy="211.6007272727208" r="2.5" stroke="none" stroke-width="0" fill="#3366cc"></circle><circle cx="219.42307692307693" cy="201.95451428574484" r="2.5" stroke="none" stroke-width="0" fill="#3366cc"></circle><circle cx="226.51923076923077" cy="242.070704477596" r="2.5" stroke="none" stroke-width="0" fill="#3366cc"></circle><circle cx="228.8846153846154" cy="230.07015589125763" r="2.5" stroke="none" stroke-width="0" fill="#3366cc"></circle><circle cx="231.25" cy="242.08079999999998" r="2.5" stroke="none" stroke-width="0" fill="#3366cc"></circle><circle cx="233.6153846153846" cy="226.8115991373248" r="2.5" stroke="none" stroke-width="0" fill="#3366cc"></circle><circle cx="235.98076923076923" cy="250.90959999999998" r="2.5" stroke="none" stroke-width="0" fill="#3366cc"></circle><circle cx="238.34615384615384" cy="260.2368" r="2.5" stroke="none" stroke-width="0" fill="#3366cc"></circle><circle cx="243.0769230769231" cy="250.46816" r="2.5" stroke="none" stroke-width="0" fill="#3366cc"></circle><circle cx="247.80769230769232" cy="252.74575257733278" r="2.5" stroke="none" stroke-width="0" fill="#3366cc"></circle><circle cx="250.17307692307693" cy="271.344" r="2.5" stroke="none" stroke-width="0" fill="#3366cc"></circle><circle cx="254.90384615384616" cy="239.8882065969096" r="2.5" stroke="none" stroke-width="0" fill="#3366cc"></circle><circle cx="259.63461538461536" cy="302.1024" r="2.5" stroke="none" stroke-width="0" fill="#3366cc"></circle><circle cx="262" cy="256.4134230088672" r="2.5" stroke="none" stroke-width="0" fill="#3366cc"></circle><circle cx="266.7307692307692" cy="260.664" r="2.5" stroke="none" stroke-width="0" fill="#3366cc"></circle><circle cx="271.46153846153845" cy="258.6704" r="2.5" stroke="none" stroke-width="0" fill="#3366cc"></circle><circle cx="273.8269230769231" cy="347.528" r="2.5" stroke="none" stroke-width="0" fill="#3366cc"></circle><circle cx="280.9230769230769" cy="218.9609397670664" r="2.5" stroke="none" stroke-width="0" fill="#3366cc"></circle><circle cx="285.6538461538462" cy="254.392939233052" r="2.5" stroke="none" stroke-width="0" fill="#3366cc"></circle><circle cx="288.0192307692308" cy="244.28799999999998" r="2.5" stroke="none" stroke-width="0" fill="#3366cc"></circle><circle cx="290.38461538461536" cy="244.28799999999998" r="2.5" stroke="none" stroke-width="0" fill="#3366cc"></circle><circle cx="292.75" cy="248.3068444444128" r="2.5" stroke="none" stroke-width="0" fill="#3366cc"></circle><circle cx="295.11538461538464" cy="235.88639999999998" r="2.5" stroke="none" stroke-width="0" fill="#3366cc"></circle><circle cx="297.4807692307692" cy="257.3343313893888" r="2.5" stroke="none" stroke-width="0" fill="#3366cc"></circle><circle cx="306.9423076923077" cy="241.09531214955598" r="2.5" stroke="none" stroke-width="0" fill="#3366cc"></circle><circle cx="309.3076923076923" cy="226.4907650485112" r="2.5" stroke="none" stroke-width="0" fill="#3366cc"></circle><circle cx="311.6730769230769" cy="250.49470414747202" r="2.5" stroke="none" stroke-width="0" fill="#3366cc"></circle><circle cx="314.03846153846155" cy="224.29154955592082" r="2.5" stroke="none" stroke-width="0" fill="#3366cc"></circle><circle cx="316.4038461538462" cy="251.74620000000002" r="2.5" stroke="none" stroke-width="0" fill="#3366cc"></circle><circle cx="318.7692307692308" cy="225.3486140992208" r="2.5" stroke="none" stroke-width="0" fill="#3366cc"></circle><circle cx="321.13461538461536" cy="257.2142591093152" r="2.5" stroke="none" stroke-width="0" fill="#3366cc"></circle><circle cx="323.5" cy="244.260566042988" r="2.5" stroke="none" stroke-width="0" fill="#3366cc"></circle><circle cx="325.86538461538464" cy="249.2008" r="2.5" stroke="none" stroke-width="0" fill="#3366cc"></circle><circle cx="330.59615384615387" cy="260.37919999999997" r="2.5" stroke="none" stroke-width="0" fill="#3366cc"></circle><circle cx="332.96153846153845" cy="249.6971078053016" r="2.5" stroke="none" stroke-width="0" fill="#3366cc"></circle><circle cx="335.3269230769231" cy="235.43927204268078" r="2.5" stroke="none" stroke-width="0" fill="#3366cc"></circle><circle cx="337.69230769230774" cy="225.3488" r="2.5" stroke="none" stroke-width="0" fill="#3366cc"></circle><circle cx="340.0576923076923" cy="218.46616433706478" r="2.5" stroke="none" stroke-width="0" fill="#3366cc"></circle><circle cx="342.4230769230769" cy="288.8592" r="2.5" stroke="none" stroke-width="0" fill="#3366cc"></circle><circle cx="344.78846153846155" cy="266.26506666669036" r="2.5" stroke="none" stroke-width="0" fill="#3366cc"></circle><circle cx="356.61538461538464" cy="229.999388901676" r="2.5" stroke="none" stroke-width="0" fill="#3366cc"></circle><circle cx="358.9807692307692" cy="258.01352955465757" r="2.5" stroke="none" stroke-width="0" fill="#3366cc"></circle><circle cx="361.34615384615387" cy="232.26944000000003" r="2.5" stroke="none" stroke-width="0" fill="#3366cc"></circle><circle cx="363.71153846153845" cy="231.40420313664558" r="2.5" stroke="none" stroke-width="0" fill="#3366cc"></circle><circle cx="366.0769230769231" cy="235.91011264166397" r="2.5" stroke="none" stroke-width="0" fill="#3366cc"></circle><circle cx="368.44230769230774" cy="276.24256" r="2.5" stroke="none" stroke-width="0" fill="#3366cc"></circle><circle cx="370.8076923076923" cy="284.4448" r="2.5" stroke="none" stroke-width="0" fill="#3366cc"></circle><circle cx="373.1730769230769" cy="235.5282291195472" r="2.5" stroke="none" stroke-width="0" fill="#3366cc"></circle><circle cx="375.53846153846155" cy="250.696" r="2.5" stroke="none" stroke-width="0" fill="#3366cc"></circle><circle cx="385" cy="252.0408980825256" r="2.5" stroke="none" stroke-width="0" fill="#3366cc"></circle><circle cx="387.36538461538464" cy="264.4605031178848" r="2.5" stroke="none" stroke-width="0" fill="#3366cc"></circle><circle cx="389.7307692307693" cy="236.75503999999998" r="2.5" stroke="none" stroke-width="0" fill="#3366cc"></circle><circle cx="394.46153846153845" cy="231.85173333330962" r="2.5" stroke="none" stroke-width="0" fill="#3366cc"></circle><circle cx="396.8269230769231" cy="253.54399999999998" r="2.5" stroke="none" stroke-width="0" fill="#3366cc"></circle><circle cx="406.28846153846155" cy="247.43662222220638" r="2.5" stroke="none" stroke-width="0" fill="#3366cc"></circle><circle cx="408.6538461538462" cy="275.616" r="2.5" stroke="none" stroke-width="0" fill="#3366cc"></circle><circle cx="411.0192307692308" cy="260.86440255668003" r="2.5" stroke="none" stroke-width="0" fill="#3366cc"></circle><circle cx="413.38461538461536" cy="293.20204280939356" r="2.5" stroke="none" stroke-width="0" fill="#3366cc"></circle><circle cx="415.75" cy="257.6903235758296" r="2.5" stroke="none" stroke-width="0" fill="#3366cc"></circle><circle cx="418.11538461538464" cy="252.416878064332" r="2.5" stroke="none" stroke-width="0" fill="#3366cc"></circle><circle cx="434.6730769230769" cy="312.49760000000003" r="2.5" stroke="none" stroke-width="0" fill="#3366cc"></circle><circle cx="441.7692307692308" cy="275.1413333333096" r="2.5" stroke="none" stroke-width="0" fill="#3366cc"></circle><circle cx="444.13461538461536" cy="251.3653568345544" r="2.5" stroke="none" stroke-width="0" fill="#3366cc"></circle><circle cx="446.5" cy="278.8912" r="2.5" stroke="none" stroke-width="0" fill="#3366cc"></circle><circle cx="453.59615384615387" cy="298.9696" r="2.5" stroke="none" stroke-width="0" fill="#3366cc"></circle><circle cx="455.96153846153845" cy="315.9864" r="2.5" stroke="none" stroke-width="0" fill="#3366cc"></circle><circle cx="463.0576923076923" cy="320.8992" r="2.5" stroke="none" stroke-width="0" fill="#3366cc"></circle><circle cx="465.42307692307696" cy="276.71443594353036" r="2.5" stroke="none" stroke-width="0" fill="#3366cc"></circle><circle cx="470.1538461538462" cy="320.472" r="2.5" stroke="none" stroke-width="0" fill="#3366cc"></circle><circle cx="474.8846153846154" cy="321.4688" r="2.5" stroke="none" stroke-width="0" fill="#3366cc"></circle><circle cx="477.25" cy="288.4990169179064" r="2.5" stroke="none" stroke-width="0" fill="#3366cc"></circle><circle cx="479.61538461538464" cy="302.95680000000004" r="2.5" stroke="none" stroke-width="0" fill="#3366cc"></circle><circle cx="481.9807692307692" cy="283.81663225807597" r="2.5" stroke="none" stroke-width="0" fill="#3366cc"></circle><circle cx="486.71153846153845" cy="290.9890748267632" r="2.5" stroke="none" stroke-width="0" fill="#3366cc"></circle><circle cx="489.0769230769231" cy="276.9921997091912" r="2.5" stroke="none" stroke-width="0" fill="#3366cc"></circle><circle cx="496.17307692307696" cy="283.4029835719464" r="2.5" stroke="none" stroke-width="0" fill="#3366cc"></circle><circle cx="498.53846153846155" cy="321.36528102515683" r="2.5" stroke="none" stroke-width="0" fill="#3366cc"></circle><circle cx="500.9038461538462" cy="294.49834449632397" r="2.5" stroke="none" stroke-width="0" fill="#3366cc"></circle><circle cx="510.36538461538464" cy="311.4625997344192" r="2.5" stroke="none" stroke-width="0" fill="#3366cc"></circle><circle cx="512.7307692307693" cy="267.5656334727816" r="2.5" stroke="none" stroke-width="0" fill="#3366cc"></circle><circle cx="515.0961538461538" cy="294.9824" r="2.5" stroke="none" stroke-width="0" fill="#3366cc"></circle><circle cx="519.8269230769231" cy="309.9344" r="2.5" stroke="none" stroke-width="0" fill="#3366cc"></circle><circle cx="534.0192307692307" cy="324.744" r="2.5" stroke="none" stroke-width="0" fill="#3366cc"></circle><circle cx="541.1153846153846" cy="267.55352059791517" r="2.5" stroke="none" stroke-width="0" fill="#3366cc"></circle><circle cx="543.4807692307693" cy="306.3032" r="2.5" stroke="none" stroke-width="0" fill="#3366cc"></circle><circle cx="545.8461538461538" cy="330.72479999999996" r="2.5" stroke="none" stroke-width="0" fill="#3366cc"></circle><circle cx="552.9423076923077" cy="298.5424" r="2.5" stroke="none" stroke-width="0" fill="#3366cc"></circle><circle cx="557.6730769230769" cy="353.93600000000004" r="2.5" stroke="none" stroke-width="0" fill="#3366cc"></circle><circle cx="560.0384615384615" cy="336.84799999999996" r="2.5" stroke="none" stroke-width="0" fill="#3366cc"></circle><circle cx="562.4038461538462" cy="315.2032" r="2.5" stroke="none" stroke-width="0" fill="#3366cc"></circle><circle cx="564.7692307692307" cy="285.8030769230824" r="2.5" stroke="none" stroke-width="0" fill="#3366cc"></circle><circle cx="569.5" cy="312.35519999999997" r="2.5" stroke="none" stroke-width="0" fill="#3366cc"></circle><circle cx="571.8653846153846" cy="306.5168" r="2.5" stroke="none" stroke-width="0" fill="#3366cc"></circle><circle cx="578.9615384615386" cy="336.3448808237008" r="2.5" stroke="none" stroke-width="0" fill="#3366cc"></circle><circle cx="581.3269230769231" cy="350.8032" r="2.5" stroke="none" stroke-width="0" fill="#3366cc"></circle><circle cx="583.6923076923077" cy="335.2341333333096" r="2.5" stroke="none" stroke-width="0" fill="#3366cc"></circle><circle cx="590.7884615384615" cy="308.9376" r="2.5" stroke="none" stroke-width="0" fill="#3366cc"></circle><circle cx="593.1538461538462" cy="312.9248" r="2.5" stroke="none" stroke-width="0" fill="#3366cc"></circle><circle cx="595.5192307692307" cy="283.32142222220637" r="2.5" stroke="none" stroke-width="0" fill="#3366cc"></circle><circle cx="597.8846153846155" cy="304.808" r="2.5" stroke="none" stroke-width="0" fill="#3366cc"></circle><circle cx="604.9807692307693" cy="318.62080000000003" r="2.5" stroke="none" stroke-width="0" fill="#3366cc"></circle><circle cx="607.3461538461538" cy="297.1492713867816" r="2.5" stroke="none" stroke-width="0" fill="#3366cc"></circle><circle cx="609.7115384615386" cy="299.60856701530963" r="2.5" stroke="none" stroke-width="0" fill="#3366cc"></circle><circle cx="614.4423076923077" cy="315.488" r="2.5" stroke="none" stroke-width="0" fill="#3366cc"></circle><circle cx="616.8076923076924" cy="303.9168810244312" r="2.5" stroke="none" stroke-width="0" fill="#3366cc"></circle><circle cx="619.1730769230769" cy="347.5992" r="2.5" stroke="none" stroke-width="0" fill="#3366cc"></circle><circle cx="621.5384615384615" cy="286.5316139190272" r="2.5" stroke="none" stroke-width="0" fill="#3366cc"></circle><circle cx="626.2692307692307" cy="286.9536407185552" r="2.5" stroke="none" stroke-width="0" fill="#3366cc"></circle><circle cx="628.6346153846155" cy="294.5995814838264" r="2.5" stroke="none" stroke-width="0" fill="#3366cc"></circle><circle cx="633.3653846153846" cy="342.7266126245736" r="2.5" stroke="none" stroke-width="0" fill="#3366cc"></circle><circle cx="635.7307692307693" cy="342.40160000000003" r="2.5" stroke="none" stroke-width="0" fill="#3366cc"></circle><circle cx="638.0961538461538" cy="312.2128" r="2.5" stroke="none" stroke-width="0" fill="#3366cc"></circle><circle cx="640.4615384615386" cy="305.6624" r="2.5" stroke="none" stroke-width="0" fill="#3366cc"></circle><circle cx="642.8269230769231" cy="295.83680000000004" r="2.5" stroke="none" stroke-width="0" fill="#3366cc"></circle><circle cx="645.1923076923077" cy="296.4832931173968" r="2.5" stroke="none" stroke-width="0" fill="#3366cc"></circle><circle cx="649.9230769230769" cy="280.3948024844464" r="2.5" stroke="none" stroke-width="0" fill="#3366cc"></circle><circle cx="652.2884615384615" cy="310.71673592235356" r="2.5" stroke="none" stroke-width="0" fill="#3366cc"></circle><circle cx="654.6538461538462" cy="275.9065908421736" r="2.5" stroke="none" stroke-width="0" fill="#3366cc"></circle><circle cx="657.0192307692307" cy="315.41679999999997" r="2.5" stroke="none" stroke-width="0" fill="#3366cc"></circle><circle cx="659.3846153846155" cy="272.733775683324" r="2.5" stroke="none" stroke-width="0" fill="#3366cc"></circle><circle cx="661.75" cy="280.0304" r="2.5" stroke="none" stroke-width="0" fill="#3366cc"></circle><circle cx="664.1153846153846" cy="274.196309030764" r="2.5" stroke="none" stroke-width="0" fill="#3366cc"></circle><circle cx="668.8461538461538" cy="368.3184" r="2.5" stroke="none" stroke-width="0" fill="#3366cc"></circle><circle cx="671.2115384615386" cy="315.8677333333096" r="2.5" stroke="none" stroke-width="0" fill="#3366cc"></circle><circle cx="673.5769230769231" cy="343.5408" r="2.5" stroke="none" stroke-width="0" fill="#3366cc"></circle><circle cx="675.9423076923077" cy="282.21386666669036" r="2.5" stroke="none" stroke-width="0" fill="#3366cc"></circle><circle cx="678.3076923076924" cy="264.40708571425523" r="2.5" stroke="none" stroke-width="0" fill="#3366cc"></circle><circle cx="680.6730769230769" cy="282.9837847094688" r="2.5" stroke="none" stroke-width="0" fill="#3366cc"></circle><circle cx="683.0384615384615" cy="262.0433220547528" r="2.5" stroke="none" stroke-width="0" fill="#3366cc"></circle><circle cx="685.4038461538462" cy="269.2465750504904" r="2.5" stroke="none" stroke-width="0" fill="#3366cc"></circle><circle cx="687.7692307692307" cy="250.1264" r="2.5" stroke="none" stroke-width="0" fill="#3366cc"></circle><circle cx="690.1346153846155" cy="285.1568" r="2.5" stroke="none" stroke-width="0" fill="#3366cc"></circle><circle cx="692.5" cy="273.2403301124528" r="2.5" stroke="none" stroke-width="0" fill="#3366cc"></circle><circle cx="694.8653846153846" cy="308.7477333333096" r="2.5" stroke="none" stroke-width="0" fill="#3366cc"></circle><circle cx="697.2307692307693" cy="265.271479692928" r="2.5" stroke="none" stroke-width="0" fill="#3366cc"></circle><circle cx="699.5961538461538" cy="263.11644444441276" r="2.5" stroke="none" stroke-width="0" fill="#3366cc"></circle><circle cx="701.9615384615386" cy="265.6314325281768" r="2.5" stroke="none" stroke-width="0" fill="#3366cc"></circle><circle cx="709.0576923076924" cy="288.4421805468096" r="2.5" stroke="none" stroke-width="0" fill="#3366cc"></circle><circle cx="711.4230769230769" cy="324.1032" r="2.5" stroke="none" stroke-width="0" fill="#3366cc"></circle><circle cx="713.7884615384615" cy="280.45578959076477" r="2.5" stroke="none" stroke-width="0" fill="#3366cc"></circle><circle cx="716.1538461538462" cy="275.9145071816352" r="2.5" stroke="none" stroke-width="0" fill="#3366cc"></circle><circle cx="718.5192307692308" cy="267.8299052631504" r="2.5" stroke="none" stroke-width="0" fill="#3366cc"></circle><circle cx="720.8846153846155" cy="229.6310170403696" r="2.5" stroke="none" stroke-width="0" fill="#3366cc"></circle><circle cx="723.25" cy="242.1140266666904" r="2.5" stroke="none" stroke-width="0" fill="#3366cc"></circle><circle cx="725.6153846153846" cy="255.9931775334456" r="2.5" stroke="none" stroke-width="0" fill="#3366cc"></circle><circle cx="732.7115384615385" cy="342.9712" r="2.5" stroke="none" stroke-width="0" fill="#3366cc"></circle><circle cx="739.8076923076924" cy="328.8736" r="2.5" stroke="none" stroke-width="0" fill="#3366cc"></circle><circle cx="744.5384615384615" cy="321.6112" r="2.5" stroke="none" stroke-width="0" fill="#3366cc"></circle><circle cx="746.9038461538462" cy="337.7024" r="2.5" stroke="none" stroke-width="0" fill="#3366cc"></circle><circle cx="749.2692307692308" cy="324.1744" r="2.5" stroke="none" stroke-width="0" fill="#3366cc"></circle><circle cx="751.6346153846155" cy="308.8645670153096" r="2.5" stroke="none" stroke-width="0" fill="#3366cc"></circle><circle cx="756.3653846153846" cy="260.837738096516" r="2.5" stroke="none" stroke-width="0" fill="#3366cc"></circle><circle cx="758.7307692307693" cy="254.5089473684248" r="2.5" stroke="none" stroke-width="0" fill="#3366cc"></circle><circle cx="761.0961538461539" cy="255.9788520940864" r="2.5" stroke="none" stroke-width="0" fill="#3366cc"></circle><circle cx="763.4615384615385" cy="245.2848" r="2.5" stroke="none" stroke-width="0" fill="#3366cc"></circle><circle cx="765.8269230769231" cy="257.5940222690168" r="2.5" stroke="none" stroke-width="0" fill="#3366cc"></circle><circle cx="768.1923076923077" cy="226.51544853115362" r="2.5" stroke="none" stroke-width="0" fill="#3366cc"></circle><circle cx="770.5576923076924" cy="264.758" r="2.5" stroke="none" stroke-width="0" fill="#3366cc"></circle><circle cx="772.9230769230769" cy="219.592992" r="2.5" stroke="none" stroke-width="0" fill="#3366cc"></circle><circle cx="775.2884615384615" cy="271.9136" r="2.5" stroke="none" stroke-width="0" fill="#3366cc"></circle><circle cx="777.6538461538462" cy="259.5014863661976" r="2.5" stroke="none" stroke-width="0" fill="#3366cc"></circle><circle cx="780.0192307692308" cy="234.1380989354816" r="2.5" stroke="none" stroke-width="0" fill="#3366cc"></circle><circle cx="782.3846153846155" cy="250.53146528497518" r="2.5" stroke="none" stroke-width="0" fill="#3366cc"></circle><circle cx="784.75" cy="218.6749747888928" r="2.5" stroke="none" stroke-width="0" fill="#3366cc"></circle><circle cx="787.1153846153846" cy="272.8036" r="2.5" stroke="none" stroke-width="0" fill="#3366cc"></circle><circle cx="789.4807692307693" cy="225.8455184111448" r="2.5" stroke="none" stroke-width="0" fill="#3366cc"></circle><circle cx="791.8461538461539" cy="277.3248" r="2.5" stroke="none" stroke-width="0" fill="#3366cc"></circle><circle cx="794.2115384615385" cy="268.56887733550957" r="2.5" stroke="none" stroke-width="0" fill="#3366cc"></circle><circle cx="796.5769230769231" cy="221.5736790387008" r="2.5" stroke="none" stroke-width="0" fill="#3366cc"></circle><circle cx="801.3076923076924" cy="230.98961857486083" r="2.5" stroke="none" stroke-width="0" fill="#3366cc"></circle><circle cx="803.6730769230769" cy="251.83260057044959" r="2.5" stroke="none" stroke-width="0" fill="#3366cc"></circle><circle cx="806.0384615384615" cy="210.6816" r="2.5" stroke="none" stroke-width="0" fill="#3366cc"></circle><circle cx="808.4038461538462" cy="255.0344334727816" r="2.5" stroke="none" stroke-width="0" fill="#3366cc"></circle><circle cx="810.7692307692308" cy="225.77599999999998" r="2.5" stroke="none" stroke-width="0" fill="#3366cc"></circle><circle cx="813.1346153846155" cy="248.8228923076704" r="2.5" stroke="none" stroke-width="0" fill="#3366cc"></circle><circle cx="815.5" cy="212.5424548789896" r="2.5" stroke="none" stroke-width="0" fill="#3366cc"></circle><circle cx="817.8653846153846" cy="199.84578291457683" r="2.5" stroke="none" stroke-width="0" fill="#3366cc"></circle><circle cx="820.2307692307693" cy="222.1604921052744" r="2.5" stroke="none" stroke-width="0" fill="#3366cc"></circle><circle cx="822.5961538461539" cy="198.57759999999996" r="2.5" stroke="none" stroke-width="0" fill="#3366cc"></circle><circle cx="824.9615384615385" cy="230.53945992781118" r="2.5" stroke="none" stroke-width="0" fill="#3366cc"></circle><circle cx="827.3269230769231" cy="183.13672934748" r="2.5" stroke="none" stroke-width="0" fill="#3366cc"></circle><circle cx="832.0576923076924" cy="270.3472" r="2.5" stroke="none" stroke-width="0" fill="#3366cc"></circle><circle cx="834.4230769230769" cy="239.9699900043552" r="2.5" stroke="none" stroke-width="0" fill="#3366cc"></circle><circle cx="836.7884615384615" cy="215.8436" r="2.5" stroke="none" stroke-width="0" fill="#3366cc"></circle><circle cx="839.1538461538462" cy="177.95333333330962" r="2.5" stroke="none" stroke-width="0" fill="#3366cc"></circle><circle cx="846.25" cy="288.5050229699832" r="2.5" stroke="none" stroke-width="0" fill="#3366cc"></circle><circle cx="850.9807692307693" cy="260.90820525435356" r="2.5" stroke="none" stroke-width="0" fill="#3366cc"></circle><circle cx="853.3461538461539" cy="245.7376259703568" r="2.5" stroke="none" stroke-width="0" fill="#3366cc"></circle><circle cx="855.7115384615385" cy="327.8768" r="2.5" stroke="none" stroke-width="0" fill="#3366cc"></circle><circle cx="858.0769230769231" cy="242.1092335146592" r="2.5" stroke="none" stroke-width="0" fill="#3366cc"></circle><circle cx="865.1730769230769" cy="315.2032" r="2.5" stroke="none" stroke-width="0" fill="#3366cc"></circle><circle cx="869.9038461538462" cy="255.045207899432" r="2.5" stroke="none" stroke-width="0" fill="#3366cc"></circle><circle cx="872.2692307692308" cy="234.88959999999997" r="2.5" stroke="none" stroke-width="0" fill="#3366cc"></circle><circle cx="874.6346153846155" cy="217.1955817584928" r="2.5" stroke="none" stroke-width="0" fill="#3366cc"></circle><circle cx="879.3653846153846" cy="258.04027203578164" r="2.5" stroke="none" stroke-width="0" fill="#3366cc"></circle><circle cx="881.7307692307693" cy="226.06181648281282" r="2.5" stroke="none" stroke-width="0" fill="#3366cc"></circle><circle cx="884.0961538461539" cy="264.4138666666904" r="2.5" stroke="none" stroke-width="0" fill="#3366cc"></circle><circle cx="886.4615384615385" cy="203.41390447415438" r="2.5" stroke="none" stroke-width="0" fill="#3366cc"></circle><circle cx="898.2884615384615" cy="297.5930666666904" r="2.5" stroke="none" stroke-width="0" fill="#3366cc"></circle><circle cx="900.6538461538462" cy="334.712" r="2.5" stroke="none" stroke-width="0" fill="#3366cc"></circle><circle cx="903.0192307692308" cy="250.55360000000002" r="2.5" stroke="none" stroke-width="0" fill="#3366cc"></circle><circle cx="907.75" cy="275.0559330543656" r="2.5" stroke="none" stroke-width="0" fill="#3366cc"></circle><circle cx="912.4807692307693" cy="242.2944" r="2.5" stroke="none" stroke-width="0" fill="#3366cc"></circle><circle cx="917.2115384615385" cy="274.6904" r="2.5" stroke="none" stroke-width="0" fill="#3366cc"></circle><circle cx="919.5769230769231" cy="246.564837146472" r="2.5" stroke="none" stroke-width="0" fill="#3366cc"></circle><circle cx="921.9423076923077" cy="297.8304" r="2.5" stroke="none" stroke-width="0" fill="#3366cc"></circle><circle cx="924.3076923076924" cy="218.95662222220642" r="2.5" stroke="none" stroke-width="0" fill="#3366cc"></circle><circle cx="929.0384615384615" cy="290.1408" r="2.5" stroke="none" stroke-width="0" fill="#3366cc"></circle><circle cx="943.2307692307693" cy="275.616" r="2.5" stroke="none" stroke-width="0" fill="#3366cc"></circle><circle cx="945.5961538461539" cy="217.26048" r="2.5" stroke="none" stroke-width="0" fill="#3366cc"></circle><circle cx="947.9615384615385" cy="216.22225454544161" r="2.5" stroke="none" stroke-width="0" fill="#3366cc"></circle><circle cx="950.3269230769231" cy="228.3761031958144" r="2.5" stroke="none" stroke-width="0" fill="#3366cc"></circle><circle cx="952.6923076923077" cy="206.89376000000004" r="2.5" stroke="none" stroke-width="0" fill="#3366cc"></circle><circle cx="955.0576923076924" cy="224.797" r="2.5" stroke="none" stroke-width="0" fill="#3366cc"></circle><circle cx="957.423076923077" cy="247.8242666666904" r="2.5" stroke="none" stroke-width="0" fill="#3366cc"></circle><circle cx="962.1538461538462" cy="264.38683408073916" r="2.5" stroke="none" stroke-width="0" fill="#3366cc"></circle><circle cx="964.5192307692308" cy="265.3632" r="2.5" stroke="none" stroke-width="0" fill="#3366cc"></circle><circle cx="966.8846153846155" cy="238.4970666666904" r="2.5" stroke="none" stroke-width="0" fill="#3366cc"></circle><circle cx="969.25" cy="257.2464" r="2.5" stroke="none" stroke-width="0" fill="#3366cc"></circle><circle cx="971.6153846153846" cy="232.3207375552072" r="2.5" stroke="none" stroke-width="0" fill="#3366cc"></circle><circle cx="973.9807692307693" cy="214.562" r="2.5" stroke="none" stroke-width="0" fill="#3366cc"></circle><circle cx="978.7115384615385" cy="277.396" r="2.5" stroke="none" stroke-width="0" fill="#3366cc"></circle><circle cx="981.0769230769231" cy="308.7952" r="2.5" stroke="none" stroke-width="0" fill="#3366cc"></circle><circle cx="983.4423076923077" cy="246.6376" r="2.5" stroke="none" stroke-width="0" fill="#3366cc"></circle><circle cx="985.8076923076924" cy="258.02959999999996" r="2.5" stroke="none" stroke-width="0" fill="#3366cc"></circle><circle cx="990.5384615384615" cy="271.344" r="2.5" stroke="none" stroke-width="0" fill="#3366cc"></circle><circle cx="992.9038461538462" cy="266.716" r="2.5" stroke="none" stroke-width="0" fill="#3366cc"></circle><circle cx="995.2692307692308" cy="217.35985915493762" r="2.5" stroke="none" stroke-width="0" fill="#3366cc"></circle><circle cx="1007.0961538461539" cy="265.2564" r="2.5" stroke="none" stroke-width="0" fill="#3366cc"></circle><circle cx="1009.4615384615385" cy="224.8187628335088" r="2.5" stroke="none" stroke-width="0" fill="#3366cc"></circle><circle cx="1011.8269230769231" cy="269.0656" r="2.5" stroke="none" stroke-width="0" fill="#3366cc"></circle><circle cx="1014.1923076923077" cy="227.5094259790304" r="2.5" stroke="none" stroke-width="0" fill="#3366cc"></circle><circle cx="1016.5576923076924" cy="218.0864" r="2.5" stroke="none" stroke-width="0" fill="#3366cc"></circle><circle cx="1018.923076923077" cy="252.8498" r="2.5" stroke="none" stroke-width="0" fill="#3366cc"></circle><circle cx="1021.2884615384615" cy="205.75272955465755" r="2.5" stroke="none" stroke-width="0" fill="#3366cc"></circle><circle cx="1023.6538461538462" cy="221.689722237368" r="2.5" stroke="none" stroke-width="0" fill="#3366cc"></circle><circle cx="1026.019230769231" cy="210.11081691844322" r="2.5" stroke="none" stroke-width="0" fill="#3366cc"></circle><circle cx="1028.3846153846155" cy="199.1472" r="2.5" stroke="none" stroke-width="0" fill="#3366cc"></circle><circle cx="1033.1153846153848" cy="223.43431111110317" r="2.5" stroke="none" stroke-width="0" fill="#3366cc"></circle><circle cx="1061.5" cy="269.6352" r="2.5" stroke="none" stroke-width="0" fill="#3366cc"></circle></g><g><g><text text-anchor="middle" x="200.6971153846154" y="489.75" font-family="Arial" font-size="15" stroke="none" stroke-width="0" fill="#444444">January 2017</text></g><g><text text-anchor="middle" x="340.35336538461536" y="489.75" font-family="Arial" font-size="15" stroke="none" stroke-width="0" fill="#444444">March 2017</text></g><g><text text-anchor="middle" x="484.64182692307696" y="489.75" font-family="Arial" font-size="15" stroke="none" stroke-width="0" fill="#444444">May 2017</text></g><g><text text-anchor="middle" x="628.9302884615386" y="489.75" font-family="Arial" font-size="15" stroke="none" stroke-width="0" fill="#444444">July 2017</text></g><g><text text-anchor="middle" x="775.5841346153846" y="489.75" font-family="Arial" font-size="15" stroke="none" stroke-width="0" fill="#444444">September 2017</text></g><g><text text-anchor="middle" x="919.7740384615385" y="489.75" font-family="Arial" font-size="15" stroke="none" stroke-width="0" fill="#444444">November 2017</text></g><g><text text-anchor="end" x="185" y="472.75" font-family="Arial" font-size="15" stroke="none" stroke-width="0" fill="#444444">0</text></g><g><text text-anchor="end" x="185" y="401.55" font-family="Arial" font-size="15" stroke="none" stroke-width="0" fill="#444444">10</text></g><g><text text-anchor="end" x="185" y="330.35" font-family="Arial" font-size="15" stroke="none" stroke-width="0" fill="#444444">20</text></g><g><text text-anchor="end" x="185" y="259.15" font-family="Arial" font-size="15" stroke="none" stroke-width="0" fill="#444444">30</text></g><g><text text-anchor="end" x="185" y="187.95" font-family="Arial" font-size="15" stroke="none" stroke-width="0" fill="#444444">40</text></g><g><text text-anchor="end" x="185" y="116.75" font-family="Arial" font-size="15" stroke="none" stroke-width="0" fill="#444444">50</text></g></g></g><g><g><text text-anchor="middle" x="631" y="540.25" font-family="Arial" font-size="15" font-style="italic" stroke="none" stroke-width="0" fill="#222222">Ano</text><rect x="200" y="527.5" width="862" height="15" stroke="none" stroke-width="0" fill-opacity="0" fill="#ffffff"></rect></g><g><text text-anchor="middle" x="89.25" y="289.5" font-family="Arial" font-size="15" font-style="italic" transform="rotate(-90 89.25 289.5)" stroke="none" stroke-width="0" fill="#222222">Temperatura do solo (ºC)</text><path d="M76.49999999999999,468L76.50000000000001,111L91.50000000000001,111L91.49999999999999,468Z" stroke="none" stroke-width="0" fill-opacity="0" fill="#ffffff"></path></g></g><g></g></svg>