<svg width="1261" height="498" aria-label="A chart." style="overflow: hidden;"><defs id="_ABSTRACT_RENDERER_ID_333"><clipPath id="_ABSTRACT_RENDERER_ID_334"><rect x="183" y="95" width="895" height="308"></rect></clipPath></defs><rect x="0" y="0" width="1261" height="498" stroke="none" stroke-width="0" fill="#ffffff"></rect><g><text text-anchor="start" x="183" y="68.75" font-family="Arial" font-size="15" font-weight="bold" stroke="none" stroke-width="0" fill="#000000">Icaraíma</text><rect x="183" y="56" width="895" height="15" stroke="none" stroke-width="0" fill-opacity="0" fill="#ffffff"></rect></g><g><rect x="1093" y="95" width="153" height="15" stroke="none" stroke-width="0" fill-opacity="0" fill="#ffffff"></rect><g column-id="LST_Day_1km"><rect x="1093" y="95" width="153" height="15" stroke="none" stroke-width="0" fill-opacity="0" fill="#ffffff"></rect><g><text text-anchor="start" x="1129" y="107.75" font-family="Arial" font-size="15" stroke="none" stroke-width="0" fill="#222222">LST_Day_1km</text></g><path d="M1093,102.5L1123,102.5" stroke="#3366cc" stroke-width="1" fill-opacity="1" fill="none"></path><circle cx="1108" cy="102.5" r="2.5" stroke="none" stroke-width="0" fill="#3366cc"></circle></g></g><g><rect x="183" y="95" width="895" height="308" stroke="none" stroke-width="0" fill-opacity="0" fill="#ffffff"></rect><g clip-path="url(https://code.earthengine.google.com/#_ABSTRACT_RENDERER_ID_334)"><g><rect x="183" y="95" width="1" height="308" stroke="none" stroke-width="0" fill="#cccccc"></rect><rect x="259" y="95" width="1" height="308" stroke="none" stroke-width="0" fill="#cccccc"></rect><rect x="328" y="95" width="1" height="308" stroke="none" stroke-width="0" fill="#cccccc"></rect><rect x="404" y="95" width="1" height="308" stroke="none" stroke-width="0" fill="#cccccc"></rect><rect x="478" y="95" width="1" height="308" stroke="none" stroke-width="0" fill="#cccccc"></rect><rect x="554" y="95" width="1" height="308" stroke="none" stroke-width="0" fill="#cccccc"></rect><rect x="628" y="95" width="1" height="308" stroke="none" stroke-width="0" fill="#cccccc"></rect><rect x="704" y="95" width="1" height="308" stroke="none" stroke-width="0" fill="#cccccc"></rect><rect x="780" y="95" width="1" height="308" stroke="none" stroke-width="0" fill="#cccccc"></rect><rect x="854" y="95" width="1" height="308" stroke="none" stroke-width="0" fill="#cccccc"></rect><rect x="930" y="95" width="1" height="308" stroke="none" stroke-width="0" fill="#cccccc"></rect><rect x="1004" y="95" width="1" height="308" stroke="none" stroke-width="0" fill="#cccccc"></rect><rect x="183" y="402" width="895" height="1" stroke="none" stroke-width="0" fill="#cccccc"></rect><rect x="183" y="341" width="895" height="1" stroke="none" stroke-width="0" fill="#cccccc"></rect><rect x="183" y="279" width="895" height="1" stroke="none" stroke-width="0" fill="#cccccc"></rect><rect x="183" y="218" width="895" height="1" stroke="none" stroke-width="0" fill="#cccccc"></rect><rect x="183" y="156" width="895" height="1" stroke="none" stroke-width="0" fill="#cccccc"></rect><rect x="183" y="95" width="895" height="1" stroke="none" stroke-width="0" fill="#cccccc"></rect><rect x="183" y="371" width="895" height="1" stroke="none" stroke-width="0" fill="#ebebeb"></rect><rect x="183" y="310" width="895" height="1" stroke="none" stroke-width="0" fill="#ebebeb"></rect><rect x="183" y="249" width="895" height="1" stroke="none" stroke-width="0" fill="#ebebeb"></rect><rect x="183" y="187" width="895" height="1" stroke="none" stroke-width="0" fill="#ebebeb"></rect><rect x="183" y="126" width="895" height="1" stroke="none" stroke-width="0" fill="#ebebeb"></rect></g><g><rect x="183" y="402" width="895" height="1" stroke="none" stroke-width="0" fill="#333333"></rect></g><g><g><path d="M188.4120879120879,266.94926666664617L190.86813186813185,196.634533275357L193.32417582417582,223.0278M198.23626373626374,283.1998L200.69230769230768,207.92376371714482M232.62087912087912,191.71380000000002L235.0769230769231,220.449L237.53296703296704,220.3262L239.98901098901098,195.8760351922306M254.72527472527474,259.49940000000004L257.18131868131866,224.9926M262.0934065934066,206.8182L264.54945054945057,201.25982875739103L267.00549450549454,212.67166666664622L269.46153846153845,197.0556L271.9175824175824,226.7118L274.3736263736264,177.2139093308374L276.8296703296703,242.9214L279.2857142857143,218.48420000000002M289.1098901098901,238.00940000000003L291.5659340659341,244.0266L294.02197802197804,277.0598L296.47802197802196,208.5419981670396M308.75824175824175,226.29735L311.2142857142857,222.905L313.6703296703297,198.0805076922888L316.1263736263736,216.670810324373L318.5824175824176,226.83460000000002L321.03846153846155,223.1506M325.9505494505495,243.167L328.4065934065934,268.09540000000004M343.1428571428571,241.5706L345.59890109890114,214.0385327599874L348.05494505494505,207.3543749712846L350.510989010989,271.28819999999996L352.967032967033,205.13187951315982L355.4230769230769,237.2726L357.8791208791209,220.78670000000002L360.33516483516485,273.3758M365.2472527472528,227.203L367.7032967032967,229.90460000000002L370.15934065934067,205.8972L372.61538461538464,233.5203777777846L375.07142857142856,209.309871659924L377.5274725274725,253.4822L379.9835164835165,258.0258L382.4395604395604,225.28285772958043L384.89560439560444,233.8342M409.45604395604397,218.60700000000003L411.91208791208794,236.8632666666462L414.36813186813185,212.8354L416.8241758241758,208.1997L419.2802197802198,220.1643272727496L421.7362637362637,206.2508444885536L424.19230769230774,235.81306106872762L426.64835164835165,213.01490258035162L429.1043956043956,242.4302L431.5604395604396,206.9208448138346L434.0164835164835,214.37040000000002L436.4725274725275,218.87014285716043M443.84065934065933,237.5882094633622L446.2967032967033,257.289L448.75274725274727,223.3962M453.66483516483515,229.4134L456.1208791208791,221.2613922140928L458.5769230769231,227.4486L461.03296703296706,214.7122887142014L463.489010989011,237.76380000000003L465.94505494505495,210.4455230769278L468.4010989010989,259.2538L470.8571428571429,208.56196000000003L473.3131868131868,218.44201679387862L475.7692307692308,207.7655142857406L478.22527472527474,228.7338895397302L480.6813186813187,236.8735L483.1373626373626,208.92115L485.5934065934066,235.92180000000002M492.96153846153845,225.68028L495.4175824175824,256.9046008185368L497.8736263736264,236.81210000000002L500.32967032967036,215.81995934514603M505.24175824175825,271.7754226720608L507.6978021978022,271.1654L510.1538461538462,240.9993621987272L512.6098901098901,232.0195471629262M517.521978021978,251.5710130799572L519.978021978022,243.167M524.8901098901099,290.3222L527.3461538461538,271.977382985733L529.8021978021977,264.043L532.2582417582418,267.2512027491698L534.7142857142858,280.1298L537.1703296703297,300.269L539.6263736263736,250.8300691943256M544.5384615384615,239.898064L546.9945054945056,270.797L549.4505494505495,276.488520327427L551.9065934065934,263.1499154592222M598.5714285714286,278.165L601.0274725274726,303.953L603.4835164835165,272.1478L605.9395604395604,241.5704814671772L608.3956043956043,242.0618M620.6758241758241,297.3218L623.1318681318681,234.79074736839522L625.5879120879122,269.6260437640034L628.0439560439561,232.37514210524702L630.5,257.9922552758632L632.9560439560439,236.87964L635.4120879120879,238.1936L637.8681318681319,257.3811L640.3241758241759,224.9543655677478L642.7802197802198,303.5846L645.2362637362637,268.5866M650.1483516483516,280.007L652.6043956043957,287.2522L655.0604395604396,319.05740000000003L657.5164835164835,243.8321666666462L659.9725274725274,261.7712L662.4285714285714,220.13219945430882L664.8846153846155,252.377L667.3406593406594,219.609773089485L669.7967032967033,219.6482625856262L672.2527472527472,222.753607055818L674.7087912087912,216.16248489210403L677.1648351648352,277.9194L679.6208791208792,268.8322L682.0769230769231,277.551M686.9890109890109,273.6370214489702L689.445054945055,250.26484L691.901098901099,252.99099999999999L694.3571428571429,232.4387295292442L696.8131868131868,254.2738886941222L699.2692307692308,285.5944L701.7252747252747,262.5064193081462M723.8296703296703,287.8662L726.2857142857143,278.2878L728.7417582417582,264.82585L731.1978021978022,241.9683291796704L733.6538461538462,253.7278L736.1098901098901,231.8606564526686M741.021978021978,266.7446L743.478021978022,277.5292390548782L745.934065934066,236.89192L748.3901098901099,221.9820113360304M758.2142857142858,276.8142L760.6703296703297,265.885L763.1263736263736,267.9111429261826L765.5824175824176,262.14879062216L768.0384615384615,241.17984450062661L770.4945054945055,236.16740000000001L772.9505494505495,209.622033104792L775.4065934065934,198.5379714285802L777.8626373626374,214.35901905871L780.3186813186813,217.19480000000001M787.6868131868132,270.5932077436478L790.1428571428571,246.7896L792.5989010989011,230.01972500000002L795.054945054945,226.9355631798896L797.5109890109891,193.4637L799.967032967033,225.004553982271L802.4230769230769,205.8153333333538L804.8791208791209,226.6162888888616L807.3351648351648,219.18347777778462M829.4395604395604,238.9519723589514L831.8956043956044,202.36600725505264L834.3516483516484,200.0547652453614L836.8076923076924,177.9681569387918L839.2637362637363,237.9216857142594L841.7197802197802,222.598M888.3846153846154,245.2546L890.8406593406594,225.8522M895.7527472527472,223.1506L898.2087912087912,266.1306L900.6648351648352,268.675692787947L903.1208791208792,201.9988998223716L905.5769230769231,223.16445850202282M920.3131868131868,203.13420000000002L922.7692307692308,248.44740000000002L925.2252747252747,265.39380000000006M932.5934065934066,227.7078444444308L935.0494505494505,214.6474938533098L937.5054945054945,277.551L939.9615384615385,263.79740000000004L942.4175824175825,289.831L944.8736263736264,207.28529202452822L947.3296703296703,204.34465714283962M954.6978021978022,205.7045901078208L957.1538461538462,246.4714363636252M966.978021978022,260.2362L969.434065934066,213.53126666664622M976.8021978021978,193.20526309186903L979.2582417582418,233.58859999999999L981.7142857142858,188.43792441162321M986.6263736263736,227.817L989.0824175824176,229.2906L991.5384615384615,215.1328738163234L993.9945054945055,195.037292510114M1003.8186813186813,231.5419333333538L1006.2747252747253,207.46290000000002L1008.7307692307693,198.59279107864802L1011.1868131868132,167.3175333333538L1013.6428571428571,181.6442L1016.0989010989011,149.59340000000003L1018.554945054945,239.7286L1021.0109890109891,174.2144055674438L1023.467032967033,193.52510000000004L1025.923076923077,148.8140151777066L1028.3791208791208,166.2123333333538L1030.835164835165,177.10882092047822M1035.7472527472528,181.28701141226742L1038.2032967032967,171.99562857141984M1043.1153846153848,173.24598563219521L1045.5714285714284,199.9414L1048.0274725274726,186.3106L1050.4835164835165,164.8206L1052.9395604395604,180.44690000000003L1055.3956043956046,192.0300614525246" stroke="#3366cc" stroke-width="1" fill-opacity="1" fill="none"></path></g></g></g><g><circle cx="183.5" cy="246.3598" r="2.5" stroke="none" stroke-width="0" fill="#3366cc"></circle><circle cx="188.4120879120879" cy="266.94926666664617" r="2.5" stroke="none" stroke-width="0" fill="#3366cc"></circle><circle cx="190.86813186813185" cy="196.634533275357" r="2.5" stroke="none" stroke-width="0" fill="#3366cc"></circle><circle cx="193.32417582417582" cy="223.0278" r="2.5" stroke="none" stroke-width="0" fill="#3366cc"></circle><circle cx="198.23626373626374" cy="283.1998" r="2.5" stroke="none" stroke-width="0" fill="#3366cc"></circle><circle cx="200.69230769230768" cy="207.92376371714482" r="2.5" stroke="none" stroke-width="0" fill="#3366cc"></circle><circle cx="232.62087912087912" cy="191.71380000000002" r="2.5" stroke="none" stroke-width="0" fill="#3366cc"></circle><circle cx="235.0769230769231" cy="220.449" r="2.5" stroke="none" stroke-width="0" fill="#3366cc"></circle><circle cx="237.53296703296704" cy="220.3262" r="2.5" stroke="none" stroke-width="0" fill="#3366cc"></circle><circle cx="239.98901098901098" cy="195.8760351922306" r="2.5" stroke="none" stroke-width="0" fill="#3366cc"></circle><circle cx="244.90109890109892" cy="225.361" r="2.5" stroke="none" stroke-width="0" fill="#3366cc"></circle><circle cx="254.72527472527474" cy="259.49940000000004" r="2.5" stroke="none" stroke-width="0" fill="#3366cc"></circle><circle cx="257.18131868131866" cy="224.9926" r="2.5" stroke="none" stroke-width="0" fill="#3366cc"></circle><circle cx="262.0934065934066" cy="206.8182" r="2.5" stroke="none" stroke-width="0" fill="#3366cc"></circle><circle cx="264.54945054945057" cy="201.25982875739103" r="2.5" stroke="none" stroke-width="0" fill="#3366cc"></circle><circle cx="267.00549450549454" cy="212.67166666664622" r="2.5" stroke="none" stroke-width="0" fill="#3366cc"></circle><circle cx="269.46153846153845" cy="197.0556" r="2.5" stroke="none" stroke-width="0" fill="#3366cc"></circle><circle cx="271.9175824175824" cy="226.7118" r="2.5" stroke="none" stroke-width="0" fill="#3366cc"></circle><circle cx="274.3736263736264" cy="177.2139093308374" r="2.5" stroke="none" stroke-width="0" fill="#3366cc"></circle><circle cx="276.8296703296703" cy="242.9214" r="2.5" stroke="none" stroke-width="0" fill="#3366cc"></circle><circle cx="279.2857142857143" cy="218.48420000000002" r="2.5" stroke="none" stroke-width="0" fill="#3366cc"></circle><circle cx="289.1098901098901" cy="238.00940000000003" r="2.5" stroke="none" stroke-width="0" fill="#3366cc"></circle><circle cx="291.5659340659341" cy="244.0266" r="2.5" stroke="none" stroke-width="0" fill="#3366cc"></circle><circle cx="294.02197802197804" cy="277.0598" r="2.5" stroke="none" stroke-width="0" fill="#3366cc"></circle><circle cx="296.47802197802196" cy="208.5419981670396" r="2.5" stroke="none" stroke-width="0" fill="#3366cc"></circle><circle cx="308.75824175824175" cy="226.29735" r="2.5" stroke="none" stroke-width="0" fill="#3366cc"></circle><circle cx="311.2142857142857" cy="222.905" r="2.5" stroke="none" stroke-width="0" fill="#3366cc"></circle><circle cx="313.6703296703297" cy="198.0805076922888" r="2.5" stroke="none" stroke-width="0" fill="#3366cc"></circle><circle cx="316.1263736263736" cy="216.670810324373" r="2.5" stroke="none" stroke-width="0" fill="#3366cc"></circle><circle cx="318.5824175824176" cy="226.83460000000002" r="2.5" stroke="none" stroke-width="0" fill="#3366cc"></circle><circle cx="321.03846153846155" cy="223.1506" r="2.5" stroke="none" stroke-width="0" fill="#3366cc"></circle><circle cx="325.9505494505495" cy="243.167" r="2.5" stroke="none" stroke-width="0" fill="#3366cc"></circle><circle cx="328.4065934065934" cy="268.09540000000004" r="2.5" stroke="none" stroke-width="0" fill="#3366cc"></circle><circle cx="335.77472527472526" cy="215.7212" r="2.5" stroke="none" stroke-width="0" fill="#3366cc"></circle><circle cx="343.1428571428571" cy="241.5706" r="2.5" stroke="none" stroke-width="0" fill="#3366cc"></circle><circle cx="345.59890109890114" cy="214.0385327599874" r="2.5" stroke="none" stroke-width="0" fill="#3366cc"></circle><circle cx="348.05494505494505" cy="207.3543749712846" r="2.5" stroke="none" stroke-width="0" fill="#3366cc"></circle><circle cx="350.510989010989" cy="271.28819999999996" r="2.5" stroke="none" stroke-width="0" fill="#3366cc"></circle><circle cx="352.967032967033" cy="205.13187951315982" r="2.5" stroke="none" stroke-width="0" fill="#3366cc"></circle><circle cx="355.4230769230769" cy="237.2726" r="2.5" stroke="none" stroke-width="0" fill="#3366cc"></circle><circle cx="357.8791208791209" cy="220.78670000000002" r="2.5" stroke="none" stroke-width="0" fill="#3366cc"></circle><circle cx="360.33516483516485" cy="273.3758" r="2.5" stroke="none" stroke-width="0" fill="#3366cc"></circle><circle cx="365.2472527472528" cy="227.203" r="2.5" stroke="none" stroke-width="0" fill="#3366cc"></circle><circle cx="367.7032967032967" cy="229.90460000000002" r="2.5" stroke="none" stroke-width="0" fill="#3366cc"></circle><circle cx="370.15934065934067" cy="205.8972" r="2.5" stroke="none" stroke-width="0" fill="#3366cc"></circle><circle cx="372.61538461538464" cy="233.5203777777846" r="2.5" stroke="none" stroke-width="0" fill="#3366cc"></circle><circle cx="375.07142857142856" cy="209.309871659924" r="2.5" stroke="none" stroke-width="0" fill="#3366cc"></circle><circle cx="377.5274725274725" cy="253.4822" r="2.5" stroke="none" stroke-width="0" fill="#3366cc"></circle><circle cx="379.9835164835165" cy="258.0258" r="2.5" stroke="none" stroke-width="0" fill="#3366cc"></circle><circle cx="382.4395604395604" cy="225.28285772958043" r="2.5" stroke="none" stroke-width="0" fill="#3366cc"></circle><circle cx="384.89560439560444" cy="233.8342" r="2.5" stroke="none" stroke-width="0" fill="#3366cc"></circle><circle cx="404.5439560439561" cy="279.8842" r="2.5" stroke="none" stroke-width="0" fill="#3366cc"></circle><circle cx="409.45604395604397" cy="218.60700000000003" r="2.5" stroke="none" stroke-width="0" fill="#3366cc"></circle><circle cx="411.91208791208794" cy="236.8632666666462" r="2.5" stroke="none" stroke-width="0" fill="#3366cc"></circle><circle cx="414.36813186813185" cy="212.8354" r="2.5" stroke="none" stroke-width="0" fill="#3366cc"></circle><circle cx="416.8241758241758" cy="208.1997" r="2.5" stroke="none" stroke-width="0" fill="#3366cc"></circle><circle cx="419.2802197802198" cy="220.1643272727496" r="2.5" stroke="none" stroke-width="0" fill="#3366cc"></circle><circle cx="421.7362637362637" cy="206.2508444885536" r="2.5" stroke="none" stroke-width="0" fill="#3366cc"></circle><circle cx="424.19230769230774" cy="235.81306106872762" r="2.5" stroke="none" stroke-width="0" fill="#3366cc"></circle><circle cx="426.64835164835165" cy="213.01490258035162" r="2.5" stroke="none" stroke-width="0" fill="#3366cc"></circle><circle cx="429.1043956043956" cy="242.4302" r="2.5" stroke="none" stroke-width="0" fill="#3366cc"></circle><circle cx="431.5604395604396" cy="206.9208448138346" r="2.5" stroke="none" stroke-width="0" fill="#3366cc"></circle><circle cx="434.0164835164835" cy="214.37040000000002" r="2.5" stroke="none" stroke-width="0" fill="#3366cc"></circle><circle cx="436.4725274725275" cy="218.87014285716043" r="2.5" stroke="none" stroke-width="0" fill="#3366cc"></circle><circle cx="443.84065934065933" cy="237.5882094633622" r="2.5" stroke="none" stroke-width="0" fill="#3366cc"></circle><circle cx="446.2967032967033" cy="257.289" r="2.5" stroke="none" stroke-width="0" fill="#3366cc"></circle><circle cx="448.75274725274727" cy="223.3962" r="2.5" stroke="none" stroke-width="0" fill="#3366cc"></circle><circle cx="453.66483516483515" cy="229.4134" r="2.5" stroke="none" stroke-width="0" fill="#3366cc"></circle><circle cx="456.1208791208791" cy="221.2613922140928" r="2.5" stroke="none" stroke-width="0" fill="#3366cc"></circle><circle cx="458.5769230769231" cy="227.4486" r="2.5" stroke="none" stroke-width="0" fill="#3366cc"></circle><circle cx="461.03296703296706" cy="214.7122887142014" r="2.5" stroke="none" stroke-width="0" fill="#3366cc"></circle><circle cx="463.489010989011" cy="237.76380000000003" r="2.5" stroke="none" stroke-width="0" fill="#3366cc"></circle><circle cx="465.94505494505495" cy="210.4455230769278" r="2.5" stroke="none" stroke-width="0" fill="#3366cc"></circle><circle cx="468.4010989010989" cy="259.2538" r="2.5" stroke="none" stroke-width="0" fill="#3366cc"></circle><circle cx="470.8571428571429" cy="208.56196000000003" r="2.5" stroke="none" stroke-width="0" fill="#3366cc"></circle><circle cx="473.3131868131868" cy="218.44201679387862" r="2.5" stroke="none" stroke-width="0" fill="#3366cc"></circle><circle cx="475.7692307692308" cy="207.7655142857406" r="2.5" stroke="none" stroke-width="0" fill="#3366cc"></circle><circle cx="478.22527472527474" cy="228.7338895397302" r="2.5" stroke="none" stroke-width="0" fill="#3366cc"></circle><circle cx="480.6813186813187" cy="236.8735" r="2.5" stroke="none" stroke-width="0" fill="#3366cc"></circle><circle cx="483.1373626373626" cy="208.92115" r="2.5" stroke="none" stroke-width="0" fill="#3366cc"></circle><circle cx="485.5934065934066" cy="235.92180000000002" r="2.5" stroke="none" stroke-width="0" fill="#3366cc"></circle><circle cx="492.96153846153845" cy="225.68028" r="2.5" stroke="none" stroke-width="0" fill="#3366cc"></circle><circle cx="495.4175824175824" cy="256.9046008185368" r="2.5" stroke="none" stroke-width="0" fill="#3366cc"></circle><circle cx="497.8736263736264" cy="236.81210000000002" r="2.5" stroke="none" stroke-width="0" fill="#3366cc"></circle><circle cx="500.32967032967036" cy="215.81995934514603" r="2.5" stroke="none" stroke-width="0" fill="#3366cc"></circle><circle cx="505.24175824175825" cy="271.7754226720608" r="2.5" stroke="none" stroke-width="0" fill="#3366cc"></circle><circle cx="507.6978021978022" cy="271.1654" r="2.5" stroke="none" stroke-width="0" fill="#3366cc"></circle><circle cx="510.1538461538462" cy="240.9993621987272" r="2.5" stroke="none" stroke-width="0" fill="#3366cc"></circle><circle cx="512.6098901098901" cy="232.0195471629262" r="2.5" stroke="none" stroke-width="0" fill="#3366cc"></circle><circle cx="517.521978021978" cy="251.5710130799572" r="2.5" stroke="none" stroke-width="0" fill="#3366cc"></circle><circle cx="519.978021978022" cy="243.167" r="2.5" stroke="none" stroke-width="0" fill="#3366cc"></circle><circle cx="524.8901098901099" cy="290.3222" r="2.5" stroke="none" stroke-width="0" fill="#3366cc"></circle><circle cx="527.3461538461538" cy="271.977382985733" r="2.5" stroke="none" stroke-width="0" fill="#3366cc"></circle><circle cx="529.8021978021977" cy="264.043" r="2.5" stroke="none" stroke-width="0" fill="#3366cc"></circle><circle cx="532.2582417582418" cy="267.2512027491698" r="2.5" stroke="none" stroke-width="0" fill="#3366cc"></circle><circle cx="534.7142857142858" cy="280.1298" r="2.5" stroke="none" stroke-width="0" fill="#3366cc"></circle><circle cx="537.1703296703297" cy="300.269" r="2.5" stroke="none" stroke-width="0" fill="#3366cc"></circle><circle cx="539.6263736263736" cy="250.8300691943256" r="2.5" stroke="none" stroke-width="0" fill="#3366cc"></circle><circle cx="544.5384615384615" cy="239.898064" r="2.5" stroke="none" stroke-width="0" fill="#3366cc"></circle><circle cx="546.9945054945056" cy="270.797" r="2.5" stroke="none" stroke-width="0" fill="#3366cc"></circle><circle cx="549.4505494505495" cy="276.488520327427" r="2.5" stroke="none" stroke-width="0" fill="#3366cc"></circle><circle cx="551.9065934065934" cy="263.1499154592222" r="2.5" stroke="none" stroke-width="0" fill="#3366cc"></circle><circle cx="571.554945054945" cy="306.0406" r="2.5" stroke="none" stroke-width="0" fill="#3366cc"></circle><circle cx="588.7472527472528" cy="326.9166" r="2.5" stroke="none" stroke-width="0" fill="#3366cc"></circle><circle cx="593.6593406593406" cy="286.31892" r="2.5" stroke="none" stroke-width="0" fill="#3366cc"></circle><circle cx="598.5714285714286" cy="278.165" r="2.5" stroke="none" stroke-width="0" fill="#3366cc"></circle><circle cx="601.0274725274726" cy="303.953" r="2.5" stroke="none" stroke-width="0" fill="#3366cc"></circle><circle cx="603.4835164835165" cy="272.1478" r="2.5" stroke="none" stroke-width="0" fill="#3366cc"></circle><circle cx="605.9395604395604" cy="241.5704814671772" r="2.5" stroke="none" stroke-width="0" fill="#3366cc"></circle><circle cx="608.3956043956043" cy="242.0618" r="2.5" stroke="none" stroke-width="0" fill="#3366cc"></circle><circle cx="613.3076923076924" cy="240.3396392652296" r="2.5" stroke="none" stroke-width="0" fill="#3366cc"></circle><circle cx="620.6758241758241" cy="297.3218" r="2.5" stroke="none" stroke-width="0" fill="#3366cc"></circle><circle cx="623.1318681318681" cy="234.79074736839522" r="2.5" stroke="none" stroke-width="0" fill="#3366cc"></circle><circle cx="625.5879120879122" cy="269.6260437640034" r="2.5" stroke="none" stroke-width="0" fill="#3366cc"></circle><circle cx="628.0439560439561" cy="232.37514210524702" r="2.5" stroke="none" stroke-width="0" fill="#3366cc"></circle><circle cx="630.5" cy="257.9922552758632" r="2.5" stroke="none" stroke-width="0" fill="#3366cc"></circle><circle cx="632.9560439560439" cy="236.87964" r="2.5" stroke="none" stroke-width="0" fill="#3366cc"></circle><circle cx="635.4120879120879" cy="238.1936" r="2.5" stroke="none" stroke-width="0" fill="#3366cc"></circle><circle cx="637.8681318681319" cy="257.3811" r="2.5" stroke="none" stroke-width="0" fill="#3366cc"></circle><circle cx="640.3241758241759" cy="224.9543655677478" r="2.5" stroke="none" stroke-width="0" fill="#3366cc"></circle><circle cx="642.7802197802198" cy="303.5846" r="2.5" stroke="none" stroke-width="0" fill="#3366cc"></circle><circle cx="645.2362637362637" cy="268.5866" r="2.5" stroke="none" stroke-width="0" fill="#3366cc"></circle><circle cx="650.1483516483516" cy="280.007" r="2.5" stroke="none" stroke-width="0" fill="#3366cc"></circle><circle cx="652.6043956043957" cy="287.2522" r="2.5" stroke="none" stroke-width="0" fill="#3366cc"></circle><circle cx="655.0604395604396" cy="319.05740000000003" r="2.5" stroke="none" stroke-width="0" fill="#3366cc"></circle><circle cx="657.5164835164835" cy="243.8321666666462" r="2.5" stroke="none" stroke-width="0" fill="#3366cc"></circle><circle cx="659.9725274725274" cy="261.7712" r="2.5" stroke="none" stroke-width="0" fill="#3366cc"></circle><circle cx="662.4285714285714" cy="220.13219945430882" r="2.5" stroke="none" stroke-width="0" fill="#3366cc"></circle><circle cx="664.8846153846155" cy="252.377" r="2.5" stroke="none" stroke-width="0" fill="#3366cc"></circle><circle cx="667.3406593406594" cy="219.609773089485" r="2.5" stroke="none" stroke-width="0" fill="#3366cc"></circle><circle cx="669.7967032967033" cy="219.6482625856262" r="2.5" stroke="none" stroke-width="0" fill="#3366cc"></circle><circle cx="672.2527472527472" cy="222.753607055818" r="2.5" stroke="none" stroke-width="0" fill="#3366cc"></circle><circle cx="674.7087912087912" cy="216.16248489210403" r="2.5" stroke="none" stroke-width="0" fill="#3366cc"></circle><circle cx="677.1648351648352" cy="277.9194" r="2.5" stroke="none" stroke-width="0" fill="#3366cc"></circle><circle cx="679.6208791208792" cy="268.8322" r="2.5" stroke="none" stroke-width="0" fill="#3366cc"></circle><circle cx="682.0769230769231" cy="277.551" r="2.5" stroke="none" stroke-width="0" fill="#3366cc"></circle><circle cx="686.9890109890109" cy="273.6370214489702" r="2.5" stroke="none" stroke-width="0" fill="#3366cc"></circle><circle cx="689.445054945055" cy="250.26484" r="2.5" stroke="none" stroke-width="0" fill="#3366cc"></circle><circle cx="691.901098901099" cy="252.99099999999999" r="2.5" stroke="none" stroke-width="0" fill="#3366cc"></circle><circle cx="694.3571428571429" cy="232.4387295292442" r="2.5" stroke="none" stroke-width="0" fill="#3366cc"></circle><circle cx="696.8131868131868" cy="254.2738886941222" r="2.5" stroke="none" stroke-width="0" fill="#3366cc"></circle><circle cx="699.2692307692308" cy="285.5944" r="2.5" stroke="none" stroke-width="0" fill="#3366cc"></circle><circle cx="701.7252747252747" cy="262.5064193081462" r="2.5" stroke="none" stroke-width="0" fill="#3366cc"></circle><circle cx="706.6373626373627" cy="309.8751170040456" r="2.5" stroke="none" stroke-width="0" fill="#3366cc"></circle><circle cx="716.4615384615385" cy="269.4462" r="2.5" stroke="none" stroke-width="0" fill="#3366cc"></circle><circle cx="723.8296703296703" cy="287.8662" r="2.5" stroke="none" stroke-width="0" fill="#3366cc"></circle><circle cx="726.2857142857143" cy="278.2878" r="2.5" stroke="none" stroke-width="0" fill="#3366cc"></circle><circle cx="728.7417582417582" cy="264.82585" r="2.5" stroke="none" stroke-width="0" fill="#3366cc"></circle><circle cx="731.1978021978022" cy="241.9683291796704" r="2.5" stroke="none" stroke-width="0" fill="#3366cc"></circle><circle cx="733.6538461538462" cy="253.7278" r="2.5" stroke="none" stroke-width="0" fill="#3366cc"></circle><circle cx="736.1098901098901" cy="231.8606564526686" r="2.5" stroke="none" stroke-width="0" fill="#3366cc"></circle><circle cx="741.021978021978" cy="266.7446" r="2.5" stroke="none" stroke-width="0" fill="#3366cc"></circle><circle cx="743.478021978022" cy="277.5292390548782" r="2.5" stroke="none" stroke-width="0" fill="#3366cc"></circle><circle cx="745.934065934066" cy="236.89192" r="2.5" stroke="none" stroke-width="0" fill="#3366cc"></circle><circle cx="748.3901098901099" cy="221.9820113360304" r="2.5" stroke="none" stroke-width="0" fill="#3366cc"></circle><circle cx="758.2142857142858" cy="276.8142" r="2.5" stroke="none" stroke-width="0" fill="#3366cc"></circle><circle cx="760.6703296703297" cy="265.885" r="2.5" stroke="none" stroke-width="0" fill="#3366cc"></circle><circle cx="763.1263736263736" cy="267.9111429261826" r="2.5" stroke="none" stroke-width="0" fill="#3366cc"></circle><circle cx="765.5824175824176" cy="262.14879062216" r="2.5" stroke="none" stroke-width="0" fill="#3366cc"></circle><circle cx="768.0384615384615" cy="241.17984450062661" r="2.5" stroke="none" stroke-width="0" fill="#3366cc"></circle><circle cx="770.4945054945055" cy="236.16740000000001" r="2.5" stroke="none" stroke-width="0" fill="#3366cc"></circle><circle cx="772.9505494505495" cy="209.622033104792" r="2.5" stroke="none" stroke-width="0" fill="#3366cc"></circle><circle cx="775.4065934065934" cy="198.5379714285802" r="2.5" stroke="none" stroke-width="0" fill="#3366cc"></circle><circle cx="777.8626373626374" cy="214.35901905871" r="2.5" stroke="none" stroke-width="0" fill="#3366cc"></circle><circle cx="780.3186813186813" cy="217.19480000000001" r="2.5" stroke="none" stroke-width="0" fill="#3366cc"></circle><circle cx="787.6868131868132" cy="270.5932077436478" r="2.5" stroke="none" stroke-width="0" fill="#3366cc"></circle><circle cx="790.1428571428571" cy="246.7896" r="2.5" stroke="none" stroke-width="0" fill="#3366cc"></circle><circle cx="792.5989010989011" cy="230.01972500000002" r="2.5" stroke="none" stroke-width="0" fill="#3366cc"></circle><circle cx="795.054945054945" cy="226.9355631798896" r="2.5" stroke="none" stroke-width="0" fill="#3366cc"></circle><circle cx="797.5109890109891" cy="193.4637" r="2.5" stroke="none" stroke-width="0" fill="#3366cc"></circle><circle cx="799.967032967033" cy="225.004553982271" r="2.5" stroke="none" stroke-width="0" fill="#3366cc"></circle><circle cx="802.4230769230769" cy="205.8153333333538" r="2.5" stroke="none" stroke-width="0" fill="#3366cc"></circle><circle cx="804.8791208791209" cy="226.6162888888616" r="2.5" stroke="none" stroke-width="0" fill="#3366cc"></circle><circle cx="807.3351648351648" cy="219.18347777778462" r="2.5" stroke="none" stroke-width="0" fill="#3366cc"></circle><circle cx="814.7032967032967" cy="223.1539326947424" r="2.5" stroke="none" stroke-width="0" fill="#3366cc"></circle><circle cx="822.0714285714286" cy="254.30086666664621" r="2.5" stroke="none" stroke-width="0" fill="#3366cc"></circle><circle cx="829.4395604395604" cy="238.9519723589514" r="2.5" stroke="none" stroke-width="0" fill="#3366cc"></circle><circle cx="831.8956043956044" cy="202.36600725505264" r="2.5" stroke="none" stroke-width="0" fill="#3366cc"></circle><circle cx="834.3516483516484" cy="200.0547652453614" r="2.5" stroke="none" stroke-width="0" fill="#3366cc"></circle><circle cx="836.8076923076924" cy="177.9681569387918" r="2.5" stroke="none" stroke-width="0" fill="#3366cc"></circle><circle cx="839.2637362637363" cy="237.9216857142594" r="2.5" stroke="none" stroke-width="0" fill="#3366cc"></circle><circle cx="841.7197802197802" cy="222.598" r="2.5" stroke="none" stroke-width="0" fill="#3366cc"></circle><circle cx="846.6318681318681" cy="270.55140000000006" r="2.5" stroke="none" stroke-width="0" fill="#3366cc"></circle><circle cx="854" cy="235.06220000000002" r="2.5" stroke="none" stroke-width="0" fill="#3366cc"></circle><circle cx="858.9120879120879" cy="198.56842777778462" r="2.5" stroke="none" stroke-width="0" fill="#3366cc"></circle><circle cx="863.8241758241759" cy="242.9214" r="2.5" stroke="none" stroke-width="0" fill="#3366cc"></circle><circle cx="868.7362637362637" cy="234.65286666664622" r="2.5" stroke="none" stroke-width="0" fill="#3366cc"></circle><circle cx="881.0164835164835" cy="230.1278727272504" r="2.5" stroke="none" stroke-width="0" fill="#3366cc"></circle><circle cx="888.3846153846154" cy="245.2546" r="2.5" stroke="none" stroke-width="0" fill="#3366cc"></circle><circle cx="890.8406593406594" cy="225.8522" r="2.5" stroke="none" stroke-width="0" fill="#3366cc"></circle><circle cx="895.7527472527472" cy="223.1506" r="2.5" stroke="none" stroke-width="0" fill="#3366cc"></circle><circle cx="898.2087912087912" cy="266.1306" r="2.5" stroke="none" stroke-width="0" fill="#3366cc"></circle><circle cx="900.6648351648352" cy="268.675692787947" r="2.5" stroke="none" stroke-width="0" fill="#3366cc"></circle><circle cx="903.1208791208792" cy="201.9988998223716" r="2.5" stroke="none" stroke-width="0" fill="#3366cc"></circle><circle cx="905.5769230769231" cy="223.16445850202282" r="2.5" stroke="none" stroke-width="0" fill="#3366cc"></circle><circle cx="920.3131868131868" cy="203.13420000000002" r="2.5" stroke="none" stroke-width="0" fill="#3366cc"></circle><circle cx="922.7692307692308" cy="248.44740000000002" r="2.5" stroke="none" stroke-width="0" fill="#3366cc"></circle><circle cx="925.2252747252747" cy="265.39380000000006" r="2.5" stroke="none" stroke-width="0" fill="#3366cc"></circle><circle cx="932.5934065934066" cy="227.7078444444308" r="2.5" stroke="none" stroke-width="0" fill="#3366cc"></circle><circle cx="935.0494505494505" cy="214.6474938533098" r="2.5" stroke="none" stroke-width="0" fill="#3366cc"></circle><circle cx="937.5054945054945" cy="277.551" r="2.5" stroke="none" stroke-width="0" fill="#3366cc"></circle><circle cx="939.9615384615385" cy="263.79740000000004" r="2.5" stroke="none" stroke-width="0" fill="#3366cc"></circle><circle cx="942.4175824175825" cy="289.831" r="2.5" stroke="none" stroke-width="0" fill="#3366cc"></circle><circle cx="944.8736263736264" cy="207.28529202452822" r="2.5" stroke="none" stroke-width="0" fill="#3366cc"></circle><circle cx="947.3296703296703" cy="204.34465714283962" r="2.5" stroke="none" stroke-width="0" fill="#3366cc"></circle><circle cx="954.6978021978022" cy="205.7045901078208" r="2.5" stroke="none" stroke-width="0" fill="#3366cc"></circle><circle cx="957.1538461538462" cy="246.4714363636252" r="2.5" stroke="none" stroke-width="0" fill="#3366cc"></circle><circle cx="966.978021978022" cy="260.2362" r="2.5" stroke="none" stroke-width="0" fill="#3366cc"></circle><circle cx="969.434065934066" cy="213.53126666664622" r="2.5" stroke="none" stroke-width="0" fill="#3366cc"></circle><circle cx="976.8021978021978" cy="193.20526309186903" r="2.5" stroke="none" stroke-width="0" fill="#3366cc"></circle><circle cx="979.2582417582418" cy="233.58859999999999" r="2.5" stroke="none" stroke-width="0" fill="#3366cc"></circle><circle cx="981.7142857142858" cy="188.43792441162321" r="2.5" stroke="none" stroke-width="0" fill="#3366cc"></circle><circle cx="986.6263736263736" cy="227.817" r="2.5" stroke="none" stroke-width="0" fill="#3366cc"></circle><circle cx="989.0824175824176" cy="229.2906" r="2.5" stroke="none" stroke-width="0" fill="#3366cc"></circle><circle cx="991.5384615384615" cy="215.1328738163234" r="2.5" stroke="none" stroke-width="0" fill="#3366cc"></circle><circle cx="993.9945054945055" cy="195.037292510114" r="2.5" stroke="none" stroke-width="0" fill="#3366cc"></circle><circle cx="1003.8186813186813" cy="231.5419333333538" r="2.5" stroke="none" stroke-width="0" fill="#3366cc"></circle><circle cx="1006.2747252747253" cy="207.46290000000002" r="2.5" stroke="none" stroke-width="0" fill="#3366cc"></circle><circle cx="1008.7307692307693" cy="198.59279107864802" r="2.5" stroke="none" stroke-width="0" fill="#3366cc"></circle><circle cx="1011.1868131868132" cy="167.3175333333538" r="2.5" stroke="none" stroke-width="0" fill="#3366cc"></circle><circle cx="1013.6428571428571" cy="181.6442" r="2.5" stroke="none" stroke-width="0" fill="#3366cc"></circle><circle cx="1016.0989010989011" cy="149.59340000000003" r="2.5" stroke="none" stroke-width="0" fill="#3366cc"></circle><circle cx="1018.554945054945" cy="239.7286" r="2.5" stroke="none" stroke-width="0" fill="#3366cc"></circle><circle cx="1021.0109890109891" cy="174.2144055674438" r="2.5" stroke="none" stroke-width="0" fill="#3366cc"></circle><circle cx="1023.467032967033" cy="193.52510000000004" r="2.5" stroke="none" stroke-width="0" fill="#3366cc"></circle><circle cx="1025.923076923077" cy="148.8140151777066" r="2.5" stroke="none" stroke-width="0" fill="#3366cc"></circle><circle cx="1028.3791208791208" cy="166.2123333333538" r="2.5" stroke="none" stroke-width="0" fill="#3366cc"></circle><circle cx="1030.835164835165" cy="177.10882092047822" r="2.5" stroke="none" stroke-width="0" fill="#3366cc"></circle><circle cx="1035.7472527472528" cy="181.28701141226742" r="2.5" stroke="none" stroke-width="0" fill="#3366cc"></circle><circle cx="1038.2032967032967" cy="171.99562857141984" r="2.5" stroke="none" stroke-width="0" fill="#3366cc"></circle><circle cx="1043.1153846153848" cy="173.24598563219521" r="2.5" stroke="none" stroke-width="0" fill="#3366cc"></circle><circle cx="1045.5714285714284" cy="199.9414" r="2.5" stroke="none" stroke-width="0" fill="#3366cc"></circle><circle cx="1048.0274725274726" cy="186.3106" r="2.5" stroke="none" stroke-width="0" fill="#3366cc"></circle><circle cx="1050.4835164835165" cy="164.8206" r="2.5" stroke="none" stroke-width="0" fill="#3366cc"></circle><circle cx="1052.9395604395604" cy="180.44690000000003" r="2.5" stroke="none" stroke-width="0" fill="#3366cc"></circle><circle cx="1055.3956043956046" cy="192.0300614525246" r="2.5" stroke="none" stroke-width="0" fill="#3366cc"></circle><circle cx="1060.3076923076924" cy="214.18619999999999" r="2.5" stroke="none" stroke-width="0" fill="#3366cc"></circle><circle cx="1067.6758241758243" cy="221.8612" r="2.5" stroke="none" stroke-width="0" fill="#3366cc"></circle><circle cx="1072.5879120879122" cy="228.0626" r="2.5" stroke="none" stroke-width="0" fill="#3366cc"></circle><circle cx="1077.5" cy="209.298826784473" r="2.5" stroke="none" stroke-width="0" fill="#3366cc"></circle></g><g><g><text text-anchor="middle" x="183.70467032967034" y="424.75" font-family="Arial" font-size="15" stroke="none" stroke-width="0" fill="#444444">January 2018</text></g><g><text text-anchor="middle" x="328.71359890109886" y="424.75" font-family="Arial" font-size="15" stroke="none" stroke-width="0" fill="#444444">March 2018</text></g><g><text text-anchor="middle" x="478.5322802197802" y="424.75" font-family="Arial" font-size="15" stroke="none" stroke-width="0" fill="#444444">May 2018</text></g><g><text text-anchor="middle" x="628.3509615384615" y="424.75" font-family="Arial" font-size="15" stroke="none" stroke-width="0" fill="#444444">July 2018</text></g><g><text text-anchor="middle" x="780.6256868131868" y="424.75" font-family="Arial" font-size="15" stroke="none" stroke-width="0" fill="#444444">September 2018</text></g><g><text text-anchor="middle" x="930.4443681318681" y="424.75" font-family="Arial" font-size="15" stroke="none" stroke-width="0" fill="#444444">November 2018</text></g><g><text text-anchor="end" x="168" y="407.75" font-family="Arial" font-size="15" stroke="none" stroke-width="0" fill="#444444">0</text></g><g><text text-anchor="end" x="168" y="346.35" font-family="Arial" font-size="15" stroke="none" stroke-width="0" fill="#444444">10</text></g><g><text text-anchor="end" x="168" y="284.95" font-family="Arial" font-size="15" stroke="none" stroke-width="0" fill="#444444">20</text></g><g><text text-anchor="end" x="168" y="223.55" font-family="Arial" font-size="15" stroke="none" stroke-width="0" fill="#444444">30</text></g><g><text text-anchor="end" x="168" y="162.15" font-family="Arial" font-size="15" stroke="none" stroke-width="0" fill="#444444">40</text></g><g><text text-anchor="end" x="168" y="100.75" font-family="Arial" font-size="15" stroke="none" stroke-width="0" fill="#444444">50</text></g></g></g><g><g><text text-anchor="middle" x="630.5" y="467.75" font-family="Arial" font-size="15" font-style="italic" stroke="none" stroke-width="0" fill="#222222">Ano</text><rect x="183" y="455" width="895" height="15" stroke="none" stroke-width="0" fill-opacity="0" fill="#ffffff"></rect></g><g><text text-anchor="middle" x="80.75" y="249" font-family="Arial" font-size="15" font-style="italic" transform="rotate(-90 80.75 249)" stroke="none" stroke-width="0" fill="#222222">Temperatura do solo (ºC)</text><path d="M67.99999999999999,403L68.00000000000001,95L83.00000000000001,95L82.99999999999999,403Z" stroke="none" stroke-width="0" fill-opacity="0" fill="#ffffff"></path></g></g><g></g></svg>