<svg width="1261" height="498" aria-label="A chart." style="overflow: hidden;"><defs id="_ABSTRACT_RENDERER_ID_351"><clipPath id="_ABSTRACT_RENDERER_ID_352"><rect x="183" y="95" width="895" height="308"></rect></clipPath></defs><rect x="0" y="0" width="1261" height="498" stroke="none" stroke-width="0" fill="#ffffff"></rect><g><text text-anchor="start" x="183" y="68.75" font-family="Arial" font-size="15" font-weight="bold" stroke="none" stroke-width="0" fill="#000000">Icaraíma</text><rect x="183" y="56" width="895" height="15" stroke="none" stroke-width="0" fill-opacity="0" fill="#ffffff"></rect></g><g><rect x="1093" y="95" width="153" height="15" stroke="none" stroke-width="0" fill-opacity="0" fill="#ffffff"></rect><g column-id="LST_Day_1km"><rect x="1093" y="95" width="153" height="15" stroke="none" stroke-width="0" fill-opacity="0" fill="#ffffff"></rect><g><text text-anchor="start" x="1129" y="107.75" font-family="Arial" font-size="15" stroke="none" stroke-width="0" fill="#222222">LST_Day_1km</text></g><path d="M1093,102.5L1123,102.5" stroke="#3366cc" stroke-width="1" fill-opacity="1" fill="none"></path><circle cx="1108" cy="102.5" r="2.5" stroke="none" stroke-width="0" fill="#3366cc"></circle></g></g><g><rect x="183" y="95" width="895" height="308" stroke="none" stroke-width="0" fill-opacity="0" fill="#ffffff"></rect><g clip-path="url(https://code.earthengine.google.com/#_ABSTRACT_RENDERER_ID_352)"><g><rect x="183" y="95" width="1" height="308" stroke="none" stroke-width="0" fill="#cccccc"></rect><rect x="202" y="95" width="1" height="308" stroke="none" stroke-width="0" fill="#ebebeb"></rect><rect x="228" y="95" width="1" height="308" stroke="none" stroke-width="0" fill="#ebebeb"></rect><rect x="253" y="95" width="1" height="308" stroke="none" stroke-width="0" fill="#ebebeb"></rect><rect x="279" y="95" width="1" height="308" stroke="none" stroke-width="0" fill="#ebebeb"></rect><rect x="298" y="95" width="1" height="308" stroke="none" stroke-width="0" fill="#cccccc"></rect><rect x="305" y="95" width="1" height="308" stroke="none" stroke-width="0" fill="#ebebeb"></rect><rect x="331" y="95" width="1" height="308" stroke="none" stroke-width="0" fill="#ebebeb"></rect><rect x="356" y="95" width="1" height="308" stroke="none" stroke-width="0" fill="#ebebeb"></rect><rect x="382" y="95" width="1" height="308" stroke="none" stroke-width="0" fill="#ebebeb"></rect><rect x="404" y="95" width="1" height="308" stroke="none" stroke-width="0" fill="#cccccc"></rect><rect x="408" y="95" width="1" height="308" stroke="none" stroke-width="0" fill="#ebebeb"></rect><rect x="434" y="95" width="1" height="308" stroke="none" stroke-width="0" fill="#ebebeb"></rect><rect x="459" y="95" width="1" height="308" stroke="none" stroke-width="0" fill="#ebebeb"></rect><rect x="485" y="95" width="1" height="308" stroke="none" stroke-width="0" fill="#ebebeb"></rect><rect x="511" y="95" width="1" height="308" stroke="none" stroke-width="0" fill="#ebebeb"></rect><rect x="518" y="95" width="1" height="308" stroke="none" stroke-width="0" fill="#cccccc"></rect><rect x="537" y="95" width="1" height="308" stroke="none" stroke-width="0" fill="#ebebeb"></rect><rect x="562" y="95" width="1" height="308" stroke="none" stroke-width="0" fill="#ebebeb"></rect><rect x="588" y="95" width="1" height="308" stroke="none" stroke-width="0" fill="#ebebeb"></rect><rect x="614" y="95" width="1" height="308" stroke="none" stroke-width="0" fill="#ebebeb"></rect><rect x="629" y="95" width="1" height="308" stroke="none" stroke-width="0" fill="#cccccc"></rect><rect x="640" y="95" width="1" height="308" stroke="none" stroke-width="0" fill="#ebebeb"></rect><rect x="665" y="95" width="1" height="308" stroke="none" stroke-width="0" fill="#ebebeb"></rect><rect x="691" y="95" width="1" height="308" stroke="none" stroke-width="0" fill="#ebebeb"></rect><rect x="717" y="95" width="1" height="308" stroke="none" stroke-width="0" fill="#ebebeb"></rect><rect x="743" y="95" width="1" height="308" stroke="none" stroke-width="0" fill="#ebebeb"></rect><rect x="743" y="95" width="1" height="308" stroke="none" stroke-width="0" fill="#cccccc"></rect><rect x="768" y="95" width="1" height="308" stroke="none" stroke-width="0" fill="#ebebeb"></rect><rect x="794" y="95" width="1" height="308" stroke="none" stroke-width="0" fill="#ebebeb"></rect><rect x="820" y="95" width="1" height="308" stroke="none" stroke-width="0" fill="#ebebeb"></rect><rect x="846" y="95" width="1" height="308" stroke="none" stroke-width="0" fill="#ebebeb"></rect><rect x="853" y="95" width="1" height="308" stroke="none" stroke-width="0" fill="#cccccc"></rect><rect x="871" y="95" width="1" height="308" stroke="none" stroke-width="0" fill="#ebebeb"></rect><rect x="897" y="95" width="1" height="308" stroke="none" stroke-width="0" fill="#ebebeb"></rect><rect x="923" y="95" width="1" height="308" stroke="none" stroke-width="0" fill="#ebebeb"></rect><rect x="949" y="95" width="1" height="308" stroke="none" stroke-width="0" fill="#ebebeb"></rect><rect x="967" y="95" width="1" height="308" stroke="none" stroke-width="0" fill="#cccccc"></rect><rect x="974" y="95" width="1" height="308" stroke="none" stroke-width="0" fill="#ebebeb"></rect><rect x="1000" y="95" width="1" height="308" stroke="none" stroke-width="0" fill="#ebebeb"></rect><rect x="1026" y="95" width="1" height="308" stroke="none" stroke-width="0" fill="#ebebeb"></rect><rect x="1052" y="95" width="1" height="308" stroke="none" stroke-width="0" fill="#ebebeb"></rect><rect x="183" y="402" width="895" height="1" stroke="none" stroke-width="0" fill="#cccccc"></rect><rect x="183" y="325" width="895" height="1" stroke="none" stroke-width="0" fill="#cccccc"></rect><rect x="183" y="249" width="895" height="1" stroke="none" stroke-width="0" fill="#cccccc"></rect><rect x="183" y="172" width="895" height="1" stroke="none" stroke-width="0" fill="#cccccc"></rect><rect x="183" y="95" width="895" height="1" stroke="none" stroke-width="0" fill="#cccccc"></rect><rect x="183" y="364" width="895" height="1" stroke="none" stroke-width="0" fill="#ebebeb"></rect><rect x="183" y="287" width="895" height="1" stroke="none" stroke-width="0" fill="#ebebeb"></rect><rect x="183" y="210" width="895" height="1" stroke="none" stroke-width="0" fill="#ebebeb"></rect><rect x="183" y="133" width="895" height="1" stroke="none" stroke-width="0" fill="#ebebeb"></rect></g><g><rect x="183" y="402" width="895" height="1" stroke="none" stroke-width="0" fill="#333333"></rect></g><g><g><path d="M198.21604938271605,142.70125000000002L201.89506172839506,163.92651885844603M242.3641975308642,183.59378524232625L246.04320987654322,219.91175L249.72222222222223,141.4050277777693M282.83333333333337,127.77427207794602L286.51234567901236,228.2775M315.94444444444446,173.09425L319.62345679012344,179.23425L323.3024691358025,195.07545000000002L326.9814814814815,194.047L330.6604938271605,267.95725M338.01851851851853,227.89375L341.6975308641976,165.31857484568377M349.05555555555554,206.86425000000003L352.7345679012346,148.4977520380635L356.4135802469136,142.85475000000002L360.0925925925926,164.80525M382.1666666666667,211.46925L385.8456790123457,224.36325M393.2037037037037,168.609487122555L396.88271604938274,219.45125L400.5617283950618,160.53514523334076L404.24074074074076,178.84574557519477L407.91975308641975,177.850780422159L411.5987654320988,177.937264959903L415.2777777777778,175.70375L418.9567901234568,143.82433598094474L422.6358024691358,195.90435000000002L426.31481481481484,150.36537957200326L429.9938271604939,181.728625L433.67283950617286,144.63535000000002L437.35185185185185,144.72814772726576L441.0308641975309,152.38828692439773L444.7098765432099,139.38283608144047M459.4259259259259,124.60413694553273L463.10493827160496,178.92725000000002L466.78395061728395,147.5737569475218L470.462962962963,160.96775000000002M477.820987654321,139.9242451980943L481.5,195.0601L485.17901234567904,145.6006944444615L488.858024691358,167.72175000000001L492.53703703703707,151.97175424399597L496.21604938271605,160.02760004893975L499.8950617283951,158.0683055555385M507.2530864197531,218.95237500000002L510.9320987654321,167.7614117357005M525.6481481481482,203.27235000000002L529.3271604938273,159.99558333330776M544.0432098765432,171.06726527430675L547.7222222222222,183.55243600560377L551.4012345679013,181.59248869704126L555.0802469135803,168.241908554473L558.7592592592594,185.58915L562.4382716049383,174.32225M569.7962962962963,213.61825000000002L573.4753086419753,232.03825L577.1543209876543,182.1062669327585M584.5123456790124,192.07898779982574L588.1913580246915,172.85120833330777L591.8703703703704,182.91825L595.5493827160494,158.59886927643828L599.2283950617284,214.33458333330773L602.9074074074074,169.118886954742L606.5864197530864,187.03079693874577L610.2654320987655,156.64604164140874L613.9444444444445,175.39675L617.6234567901236,186.09789285717576L621.3024691358025,160.94059378918575L624.9814814814815,181.75197391562324L628.6604938271605,163.42375M636.0185185185185,175.38638197090276L639.6975308641976,207.04588171206373M650.7345679012346,228.70626861377525L654.4135802469136,202.24472549352802L658.0925925925926,235.41525000000001L661.7716049382716,168.12085L665.4506172839506,199.29092486750451M676.4876543209878,294.66625L680.1666666666667,235.41525000000001L683.8456790123457,237.62272983065924L687.5246913580247,192.60649302071525L691.2037037037037,229.12175L694.8827160493827,201.64525L698.5617283950618,187.67675000000003L702.2407407407408,218.195711383769M716.9567901234568,270.4527347007735L720.6358024691358,233.50746428572526L724.3148148148149,225.78860714282428L727.9938271604939,224.45873962575874L731.6728395061729,210.24125L735.3518518518518,231.06121638448326L739.030864197531,200.83292306290275M757.425925925926,254.40539285717574L761.104938271605,266.42224999999996L764.783950617284,237.87125L768.462962962963,241.09475L772.141975308642,195.0376418523215M779.5,214.28341666669223L783.1790123456791,226.15146399042723L786.8580246913581,218.0937615784235L790.5370370370371,212.93062774293927L794.216049382716,227.49720833330775L797.8950617283951,198.26825000000002L801.5740740740741,227.43325000000002L805.2530864197531,189.22994312109026L808.9320987654321,230.96375L812.6111111111112,184.98498293907252L816.2901234567902,192.00033333330776L819.9691358024692,190.76532755646775L823.6481481481482,183.122041886847L827.3271604938273,255.21675L831.0061728395062,233.77791666669228L834.6851851851852,263.96625M845.7222222222223,275.32525L849.4012345679013,215.76725000000002L853.0802469135803,272.56225L856.7592592592594,255.5848338015125L860.4382716049383,268.26425L864.1172839506173,232.80575000000002M882.5123456790124,281.38152272726575L886.1913580246915,306.42435L889.8703703703704,201.33617567567774L893.5493827160494,227.27975L897.2283950617284,198.48575818396776L900.9074074074075,198.394453974862L904.5864197530865,212.98257641192774L908.2654320987655,241.09475L911.9444444444445,199.342242333134L915.6234567901236,178.73000438444276L919.3024691358025,228.04725L922.9814814814815,181.081221659924L926.6604938271605,230.81025L930.3395061728395,178.36794688686174L934.0185185185186,177.80158333330775L937.6975308641976,184.44692090864575M959.7716049382716,230.34975L963.4506172839507,212.9030542916485L967.1296296296297,190.24097811061074L970.8086419753087,197.471560778314L974.4876543209876,183.59128846152075L978.1666666666667,225.31495L981.8456790123457,183.9774L985.5246913580247,230.34975L989.2037037037037,175.4926875L992.8827160493828,172.94075L996.5617283950618,181.575125L1000.2407407407408,158.61408333330775L1003.9197530864197,190.7561740374835L1007.5987654320988,254.44925M1040.70987654321,276.02217210606L1044.388888888889,280.85125L1048.067901234568,228.7188125M1055.425925925926,206.40375L1059.104938271605,190.76129519389727L1062.783950617284,200.6620693774385L1066.462962962963,153.30152452364675L1070.141975308642,174.44636925314052L1073.820987654321,131.47194947732248L1077.5,167.41475000000003" stroke="#3366cc" stroke-width="1" fill-opacity="1" fill="none"></path></g></g></g><g><circle cx="183.5" cy="155.69758333330776" r="2.5" stroke="none" stroke-width="0" fill="#3366cc"></circle><circle cx="198.21604938271605" cy="142.70125000000002" r="2.5" stroke="none" stroke-width="0" fill="#3366cc"></circle><circle cx="201.89506172839506" cy="163.92651885844603" r="2.5" stroke="none" stroke-width="0" fill="#3366cc"></circle><circle cx="216.61111111111111" cy="165.87975000000003" r="2.5" stroke="none" stroke-width="0" fill="#3366cc"></circle><circle cx="223.96913580246914" cy="188.44425" r="2.5" stroke="none" stroke-width="0" fill="#3366cc"></circle><circle cx="235.00617283950618" cy="171.06522054678" r="2.5" stroke="none" stroke-width="0" fill="#3366cc"></circle><circle cx="242.3641975308642" cy="183.59378524232625" r="2.5" stroke="none" stroke-width="0" fill="#3366cc"></circle><circle cx="246.04320987654322" cy="219.91175" r="2.5" stroke="none" stroke-width="0" fill="#3366cc"></circle><circle cx="249.72222222222223" cy="141.4050277777693" r="2.5" stroke="none" stroke-width="0" fill="#3366cc"></circle><circle cx="257.08024691358025" cy="198.01241666669227" r="2.5" stroke="none" stroke-width="0" fill="#3366cc"></circle><circle cx="268.1172839506173" cy="166.28184555426526" r="2.5" stroke="none" stroke-width="0" fill="#3366cc"></circle><circle cx="275.4753086419753" cy="126.94896888940877" r="2.5" stroke="none" stroke-width="0" fill="#3366cc"></circle><circle cx="282.83333333333337" cy="127.77427207794602" r="2.5" stroke="none" stroke-width="0" fill="#3366cc"></circle><circle cx="286.51234567901236" cy="228.2775" r="2.5" stroke="none" stroke-width="0" fill="#3366cc"></circle><circle cx="315.94444444444446" cy="173.09425" r="2.5" stroke="none" stroke-width="0" fill="#3366cc"></circle><circle cx="319.62345679012344" cy="179.23425" r="2.5" stroke="none" stroke-width="0" fill="#3366cc"></circle><circle cx="323.3024691358025" cy="195.07545000000002" r="2.5" stroke="none" stroke-width="0" fill="#3366cc"></circle><circle cx="326.9814814814815" cy="194.047" r="2.5" stroke="none" stroke-width="0" fill="#3366cc"></circle><circle cx="330.6604938271605" cy="267.95725" r="2.5" stroke="none" stroke-width="0" fill="#3366cc"></circle><circle cx="338.01851851851853" cy="227.89375" r="2.5" stroke="none" stroke-width="0" fill="#3366cc"></circle><circle cx="341.6975308641976" cy="165.31857484568377" r="2.5" stroke="none" stroke-width="0" fill="#3366cc"></circle><circle cx="349.05555555555554" cy="206.86425000000003" r="2.5" stroke="none" stroke-width="0" fill="#3366cc"></circle><circle cx="352.7345679012346" cy="148.4977520380635" r="2.5" stroke="none" stroke-width="0" fill="#3366cc"></circle><circle cx="356.4135802469136" cy="142.85475000000002" r="2.5" stroke="none" stroke-width="0" fill="#3366cc"></circle><circle cx="360.0925925925926" cy="164.80525" r="2.5" stroke="none" stroke-width="0" fill="#3366cc"></circle><circle cx="374.80864197530866" cy="160.442605078461" r="2.5" stroke="none" stroke-width="0" fill="#3366cc"></circle><circle cx="382.1666666666667" cy="211.46925" r="2.5" stroke="none" stroke-width="0" fill="#3366cc"></circle><circle cx="385.8456790123457" cy="224.36325" r="2.5" stroke="none" stroke-width="0" fill="#3366cc"></circle><circle cx="393.2037037037037" cy="168.609487122555" r="2.5" stroke="none" stroke-width="0" fill="#3366cc"></circle><circle cx="396.88271604938274" cy="219.45125" r="2.5" stroke="none" stroke-width="0" fill="#3366cc"></circle><circle cx="400.5617283950618" cy="160.53514523334076" r="2.5" stroke="none" stroke-width="0" fill="#3366cc"></circle><circle cx="404.24074074074076" cy="178.84574557519477" r="2.5" stroke="none" stroke-width="0" fill="#3366cc"></circle><circle cx="407.91975308641975" cy="177.850780422159" r="2.5" stroke="none" stroke-width="0" fill="#3366cc"></circle><circle cx="411.5987654320988" cy="177.937264959903" r="2.5" stroke="none" stroke-width="0" fill="#3366cc"></circle><circle cx="415.2777777777778" cy="175.70375" r="2.5" stroke="none" stroke-width="0" fill="#3366cc"></circle><circle cx="418.9567901234568" cy="143.82433598094474" r="2.5" stroke="none" stroke-width="0" fill="#3366cc"></circle><circle cx="422.6358024691358" cy="195.90435000000002" r="2.5" stroke="none" stroke-width="0" fill="#3366cc"></circle><circle cx="426.31481481481484" cy="150.36537957200326" r="2.5" stroke="none" stroke-width="0" fill="#3366cc"></circle><circle cx="429.9938271604939" cy="181.728625" r="2.5" stroke="none" stroke-width="0" fill="#3366cc"></circle><circle cx="433.67283950617286" cy="144.63535000000002" r="2.5" stroke="none" stroke-width="0" fill="#3366cc"></circle><circle cx="437.35185185185185" cy="144.72814772726576" r="2.5" stroke="none" stroke-width="0" fill="#3366cc"></circle><circle cx="441.0308641975309" cy="152.38828692439773" r="2.5" stroke="none" stroke-width="0" fill="#3366cc"></circle><circle cx="444.7098765432099" cy="139.38283608144047" r="2.5" stroke="none" stroke-width="0" fill="#3366cc"></circle><circle cx="452.0679012345679" cy="123.51375000000002" r="2.5" stroke="none" stroke-width="0" fill="#3366cc"></circle><circle cx="459.4259259259259" cy="124.60413694553273" r="2.5" stroke="none" stroke-width="0" fill="#3366cc"></circle><circle cx="463.10493827160496" cy="178.92725000000002" r="2.5" stroke="none" stroke-width="0" fill="#3366cc"></circle><circle cx="466.78395061728395" cy="147.5737569475218" r="2.5" stroke="none" stroke-width="0" fill="#3366cc"></circle><circle cx="470.462962962963" cy="160.96775000000002" r="2.5" stroke="none" stroke-width="0" fill="#3366cc"></circle><circle cx="477.820987654321" cy="139.9242451980943" r="2.5" stroke="none" stroke-width="0" fill="#3366cc"></circle><circle cx="481.5" cy="195.0601" r="2.5" stroke="none" stroke-width="0" fill="#3366cc"></circle><circle cx="485.17901234567904" cy="145.6006944444615" r="2.5" stroke="none" stroke-width="0" fill="#3366cc"></circle><circle cx="488.858024691358" cy="167.72175000000001" r="2.5" stroke="none" stroke-width="0" fill="#3366cc"></circle><circle cx="492.53703703703707" cy="151.97175424399597" r="2.5" stroke="none" stroke-width="0" fill="#3366cc"></circle><circle cx="496.21604938271605" cy="160.02760004893975" r="2.5" stroke="none" stroke-width="0" fill="#3366cc"></circle><circle cx="499.8950617283951" cy="158.0683055555385" r="2.5" stroke="none" stroke-width="0" fill="#3366cc"></circle><circle cx="507.2530864197531" cy="218.95237500000002" r="2.5" stroke="none" stroke-width="0" fill="#3366cc"></circle><circle cx="510.9320987654321" cy="167.7614117357005" r="2.5" stroke="none" stroke-width="0" fill="#3366cc"></circle><circle cx="518.2901234567901" cy="142.2474512278513" r="2.5" stroke="none" stroke-width="0" fill="#3366cc"></circle><circle cx="525.6481481481482" cy="203.27235000000002" r="2.5" stroke="none" stroke-width="0" fill="#3366cc"></circle><circle cx="529.3271604938273" cy="159.99558333330776" r="2.5" stroke="none" stroke-width="0" fill="#3366cc"></circle><circle cx="536.6851851851852" cy="152.35228979535376" r="2.5" stroke="none" stroke-width="0" fill="#3366cc"></circle><circle cx="544.0432098765432" cy="171.06726527430675" r="2.5" stroke="none" stroke-width="0" fill="#3366cc"></circle><circle cx="547.7222222222222" cy="183.55243600560377" r="2.5" stroke="none" stroke-width="0" fill="#3366cc"></circle><circle cx="551.4012345679013" cy="181.59248869704126" r="2.5" stroke="none" stroke-width="0" fill="#3366cc"></circle><circle cx="555.0802469135803" cy="168.241908554473" r="2.5" stroke="none" stroke-width="0" fill="#3366cc"></circle><circle cx="558.7592592592594" cy="185.58915" r="2.5" stroke="none" stroke-width="0" fill="#3366cc"></circle><circle cx="562.4382716049383" cy="174.32225" r="2.5" stroke="none" stroke-width="0" fill="#3366cc"></circle><circle cx="569.7962962962963" cy="213.61825000000002" r="2.5" stroke="none" stroke-width="0" fill="#3366cc"></circle><circle cx="573.4753086419753" cy="232.03825" r="2.5" stroke="none" stroke-width="0" fill="#3366cc"></circle><circle cx="577.1543209876543" cy="182.1062669327585" r="2.5" stroke="none" stroke-width="0" fill="#3366cc"></circle><circle cx="584.5123456790124" cy="192.07898779982574" r="2.5" stroke="none" stroke-width="0" fill="#3366cc"></circle><circle cx="588.1913580246915" cy="172.85120833330777" r="2.5" stroke="none" stroke-width="0" fill="#3366cc"></circle><circle cx="591.8703703703704" cy="182.91825" r="2.5" stroke="none" stroke-width="0" fill="#3366cc"></circle><circle cx="595.5493827160494" cy="158.59886927643828" r="2.5" stroke="none" stroke-width="0" fill="#3366cc"></circle><circle cx="599.2283950617284" cy="214.33458333330773" r="2.5" stroke="none" stroke-width="0" fill="#3366cc"></circle><circle cx="602.9074074074074" cy="169.118886954742" r="2.5" stroke="none" stroke-width="0" fill="#3366cc"></circle><circle cx="606.5864197530864" cy="187.03079693874577" r="2.5" stroke="none" stroke-width="0" fill="#3366cc"></circle><circle cx="610.2654320987655" cy="156.64604164140874" r="2.5" stroke="none" stroke-width="0" fill="#3366cc"></circle><circle cx="613.9444444444445" cy="175.39675" r="2.5" stroke="none" stroke-width="0" fill="#3366cc"></circle><circle cx="617.6234567901236" cy="186.09789285717576" r="2.5" stroke="none" stroke-width="0" fill="#3366cc"></circle><circle cx="621.3024691358025" cy="160.94059378918575" r="2.5" stroke="none" stroke-width="0" fill="#3366cc"></circle><circle cx="624.9814814814815" cy="181.75197391562324" r="2.5" stroke="none" stroke-width="0" fill="#3366cc"></circle><circle cx="628.6604938271605" cy="163.42375" r="2.5" stroke="none" stroke-width="0" fill="#3366cc"></circle><circle cx="636.0185185185185" cy="175.38638197090276" r="2.5" stroke="none" stroke-width="0" fill="#3366cc"></circle><circle cx="639.6975308641976" cy="207.04588171206373" r="2.5" stroke="none" stroke-width="0" fill="#3366cc"></circle><circle cx="650.7345679012346" cy="228.70626861377525" r="2.5" stroke="none" stroke-width="0" fill="#3366cc"></circle><circle cx="654.4135802469136" cy="202.24472549352802" r="2.5" stroke="none" stroke-width="0" fill="#3366cc"></circle><circle cx="658.0925925925926" cy="235.41525000000001" r="2.5" stroke="none" stroke-width="0" fill="#3366cc"></circle><circle cx="661.7716049382716" cy="168.12085" r="2.5" stroke="none" stroke-width="0" fill="#3366cc"></circle><circle cx="665.4506172839506" cy="199.29092486750451" r="2.5" stroke="none" stroke-width="0" fill="#3366cc"></circle><circle cx="676.4876543209878" cy="294.66625" r="2.5" stroke="none" stroke-width="0" fill="#3366cc"></circle><circle cx="680.1666666666667" cy="235.41525000000001" r="2.5" stroke="none" stroke-width="0" fill="#3366cc"></circle><circle cx="683.8456790123457" cy="237.62272983065924" r="2.5" stroke="none" stroke-width="0" fill="#3366cc"></circle><circle cx="687.5246913580247" cy="192.60649302071525" r="2.5" stroke="none" stroke-width="0" fill="#3366cc"></circle><circle cx="691.2037037037037" cy="229.12175" r="2.5" stroke="none" stroke-width="0" fill="#3366cc"></circle><circle cx="694.8827160493827" cy="201.64525" r="2.5" stroke="none" stroke-width="0" fill="#3366cc"></circle><circle cx="698.5617283950618" cy="187.67675000000003" r="2.5" stroke="none" stroke-width="0" fill="#3366cc"></circle><circle cx="702.2407407407408" cy="218.195711383769" r="2.5" stroke="none" stroke-width="0" fill="#3366cc"></circle><circle cx="716.9567901234568" cy="270.4527347007735" r="2.5" stroke="none" stroke-width="0" fill="#3366cc"></circle><circle cx="720.6358024691358" cy="233.50746428572526" r="2.5" stroke="none" stroke-width="0" fill="#3366cc"></circle><circle cx="724.3148148148149" cy="225.78860714282428" r="2.5" stroke="none" stroke-width="0" fill="#3366cc"></circle><circle cx="727.9938271604939" cy="224.45873962575874" r="2.5" stroke="none" stroke-width="0" fill="#3366cc"></circle><circle cx="731.6728395061729" cy="210.24125" r="2.5" stroke="none" stroke-width="0" fill="#3366cc"></circle><circle cx="735.3518518518518" cy="231.06121638448326" r="2.5" stroke="none" stroke-width="0" fill="#3366cc"></circle><circle cx="739.030864197531" cy="200.83292306290275" r="2.5" stroke="none" stroke-width="0" fill="#3366cc"></circle><circle cx="757.425925925926" cy="254.40539285717574" r="2.5" stroke="none" stroke-width="0" fill="#3366cc"></circle><circle cx="761.104938271605" cy="266.42224999999996" r="2.5" stroke="none" stroke-width="0" fill="#3366cc"></circle><circle cx="764.783950617284" cy="237.87125" r="2.5" stroke="none" stroke-width="0" fill="#3366cc"></circle><circle cx="768.462962962963" cy="241.09475" r="2.5" stroke="none" stroke-width="0" fill="#3366cc"></circle><circle cx="772.141975308642" cy="195.0376418523215" r="2.5" stroke="none" stroke-width="0" fill="#3366cc"></circle><circle cx="779.5" cy="214.28341666669223" r="2.5" stroke="none" stroke-width="0" fill="#3366cc"></circle><circle cx="783.1790123456791" cy="226.15146399042723" r="2.5" stroke="none" stroke-width="0" fill="#3366cc"></circle><circle cx="786.8580246913581" cy="218.0937615784235" r="2.5" stroke="none" stroke-width="0" fill="#3366cc"></circle><circle cx="790.5370370370371" cy="212.93062774293927" r="2.5" stroke="none" stroke-width="0" fill="#3366cc"></circle><circle cx="794.216049382716" cy="227.49720833330775" r="2.5" stroke="none" stroke-width="0" fill="#3366cc"></circle><circle cx="797.8950617283951" cy="198.26825000000002" r="2.5" stroke="none" stroke-width="0" fill="#3366cc"></circle><circle cx="801.5740740740741" cy="227.43325000000002" r="2.5" stroke="none" stroke-width="0" fill="#3366cc"></circle><circle cx="805.2530864197531" cy="189.22994312109026" r="2.5" stroke="none" stroke-width="0" fill="#3366cc"></circle><circle cx="808.9320987654321" cy="230.96375" r="2.5" stroke="none" stroke-width="0" fill="#3366cc"></circle><circle cx="812.6111111111112" cy="184.98498293907252" r="2.5" stroke="none" stroke-width="0" fill="#3366cc"></circle><circle cx="816.2901234567902" cy="192.00033333330776" r="2.5" stroke="none" stroke-width="0" fill="#3366cc"></circle><circle cx="819.9691358024692" cy="190.76532755646775" r="2.5" stroke="none" stroke-width="0" fill="#3366cc"></circle><circle cx="823.6481481481482" cy="183.122041886847" r="2.5" stroke="none" stroke-width="0" fill="#3366cc"></circle><circle cx="827.3271604938273" cy="255.21675" r="2.5" stroke="none" stroke-width="0" fill="#3366cc"></circle><circle cx="831.0061728395062" cy="233.77791666669228" r="2.5" stroke="none" stroke-width="0" fill="#3366cc"></circle><circle cx="834.6851851851852" cy="263.96625" r="2.5" stroke="none" stroke-width="0" fill="#3366cc"></circle><circle cx="845.7222222222223" cy="275.32525" r="2.5" stroke="none" stroke-width="0" fill="#3366cc"></circle><circle cx="849.4012345679013" cy="215.76725000000002" r="2.5" stroke="none" stroke-width="0" fill="#3366cc"></circle><circle cx="853.0802469135803" cy="272.56225" r="2.5" stroke="none" stroke-width="0" fill="#3366cc"></circle><circle cx="856.7592592592594" cy="255.5848338015125" r="2.5" stroke="none" stroke-width="0" fill="#3366cc"></circle><circle cx="860.4382716049383" cy="268.26425" r="2.5" stroke="none" stroke-width="0" fill="#3366cc"></circle><circle cx="864.1172839506173" cy="232.80575000000002" r="2.5" stroke="none" stroke-width="0" fill="#3366cc"></circle><circle cx="871.4753086419754" cy="233.41975" r="2.5" stroke="none" stroke-width="0" fill="#3366cc"></circle><circle cx="882.5123456790124" cy="281.38152272726575" r="2.5" stroke="none" stroke-width="0" fill="#3366cc"></circle><circle cx="886.1913580246915" cy="306.42435" r="2.5" stroke="none" stroke-width="0" fill="#3366cc"></circle><circle cx="889.8703703703704" cy="201.33617567567774" r="2.5" stroke="none" stroke-width="0" fill="#3366cc"></circle><circle cx="893.5493827160494" cy="227.27975" r="2.5" stroke="none" stroke-width="0" fill="#3366cc"></circle><circle cx="897.2283950617284" cy="198.48575818396776" r="2.5" stroke="none" stroke-width="0" fill="#3366cc"></circle><circle cx="900.9074074074075" cy="198.394453974862" r="2.5" stroke="none" stroke-width="0" fill="#3366cc"></circle><circle cx="904.5864197530865" cy="212.98257641192774" r="2.5" stroke="none" stroke-width="0" fill="#3366cc"></circle><circle cx="908.2654320987655" cy="241.09475" r="2.5" stroke="none" stroke-width="0" fill="#3366cc"></circle><circle cx="911.9444444444445" cy="199.342242333134" r="2.5" stroke="none" stroke-width="0" fill="#3366cc"></circle><circle cx="915.6234567901236" cy="178.73000438444276" r="2.5" stroke="none" stroke-width="0" fill="#3366cc"></circle><circle cx="919.3024691358025" cy="228.04725" r="2.5" stroke="none" stroke-width="0" fill="#3366cc"></circle><circle cx="922.9814814814815" cy="181.081221659924" r="2.5" stroke="none" stroke-width="0" fill="#3366cc"></circle><circle cx="926.6604938271605" cy="230.81025" r="2.5" stroke="none" stroke-width="0" fill="#3366cc"></circle><circle cx="930.3395061728395" cy="178.36794688686174" r="2.5" stroke="none" stroke-width="0" fill="#3366cc"></circle><circle cx="934.0185185185186" cy="177.80158333330775" r="2.5" stroke="none" stroke-width="0" fill="#3366cc"></circle><circle cx="937.6975308641976" cy="184.44692090864575" r="2.5" stroke="none" stroke-width="0" fill="#3366cc"></circle><circle cx="952.4135802469136" cy="232.51289085448175" r="2.5" stroke="none" stroke-width="0" fill="#3366cc"></circle><circle cx="959.7716049382716" cy="230.34975" r="2.5" stroke="none" stroke-width="0" fill="#3366cc"></circle><circle cx="963.4506172839507" cy="212.9030542916485" r="2.5" stroke="none" stroke-width="0" fill="#3366cc"></circle><circle cx="967.1296296296297" cy="190.24097811061074" r="2.5" stroke="none" stroke-width="0" fill="#3366cc"></circle><circle cx="970.8086419753087" cy="197.471560778314" r="2.5" stroke="none" stroke-width="0" fill="#3366cc"></circle><circle cx="974.4876543209876" cy="183.59128846152075" r="2.5" stroke="none" stroke-width="0" fill="#3366cc"></circle><circle cx="978.1666666666667" cy="225.31495" r="2.5" stroke="none" stroke-width="0" fill="#3366cc"></circle><circle cx="981.8456790123457" cy="183.9774" r="2.5" stroke="none" stroke-width="0" fill="#3366cc"></circle><circle cx="985.5246913580247" cy="230.34975" r="2.5" stroke="none" stroke-width="0" fill="#3366cc"></circle><circle cx="989.2037037037037" cy="175.4926875" r="2.5" stroke="none" stroke-width="0" fill="#3366cc"></circle><circle cx="992.8827160493828" cy="172.94075" r="2.5" stroke="none" stroke-width="0" fill="#3366cc"></circle><circle cx="996.5617283950618" cy="181.575125" r="2.5" stroke="none" stroke-width="0" fill="#3366cc"></circle><circle cx="1000.2407407407408" cy="158.61408333330775" r="2.5" stroke="none" stroke-width="0" fill="#3366cc"></circle><circle cx="1003.9197530864197" cy="190.7561740374835" r="2.5" stroke="none" stroke-width="0" fill="#3366cc"></circle><circle cx="1007.5987654320988" cy="254.44925" r="2.5" stroke="none" stroke-width="0" fill="#3366cc"></circle><circle cx="1014.9567901234568" cy="204.6695483978755" r="2.5" stroke="none" stroke-width="0" fill="#3366cc"></circle><circle cx="1040.70987654321" cy="276.02217210606" r="2.5" stroke="none" stroke-width="0" fill="#3366cc"></circle><circle cx="1044.388888888889" cy="280.85125" r="2.5" stroke="none" stroke-width="0" fill="#3366cc"></circle><circle cx="1048.067901234568" cy="228.7188125" r="2.5" stroke="none" stroke-width="0" fill="#3366cc"></circle><circle cx="1055.425925925926" cy="206.40375" r="2.5" stroke="none" stroke-width="0" fill="#3366cc"></circle><circle cx="1059.104938271605" cy="190.76129519389727" r="2.5" stroke="none" stroke-width="0" fill="#3366cc"></circle><circle cx="1062.783950617284" cy="200.6620693774385" r="2.5" stroke="none" stroke-width="0" fill="#3366cc"></circle><circle cx="1066.462962962963" cy="153.30152452364675" r="2.5" stroke="none" stroke-width="0" fill="#3366cc"></circle><circle cx="1070.141975308642" cy="174.44636925314052" r="2.5" stroke="none" stroke-width="0" fill="#3366cc"></circle><circle cx="1073.820987654321" cy="131.47194947732248" r="2.5" stroke="none" stroke-width="0" fill="#3366cc"></circle><circle cx="1077.5" cy="167.41475000000003" r="2.5" stroke="none" stroke-width="0" fill="#3366cc"></circle></g><g><g><text text-anchor="middle" x="183.95987654320987" y="424.75" font-family="Arial" font-size="15" stroke="none" stroke-width="0" fill="#444444">January 2020</text></g><g><text text-anchor="middle" x="298.00925925925924" y="424.75" font-family="Arial" font-size="15" stroke="none" stroke-width="0" fill="#444444">February 2020</text></g><g><text text-anchor="middle" x="404.70061728395063" y="424.75" font-family="Arial" font-size="15" stroke="none" stroke-width="0" fill="#444444">March 2020</text></g><g><text text-anchor="middle" x="518.75" y="424.75" font-family="Arial" font-size="15" stroke="none" stroke-width="0" fill="#444444">April 2020</text></g><g><text text-anchor="middle" x="629.1203703703704" y="424.75" font-family="Arial" font-size="15" stroke="none" stroke-width="0" fill="#444444">May 2020</text></g><g><text text-anchor="middle" x="743.1697530864197" y="424.75" font-family="Arial" font-size="15" stroke="none" stroke-width="0" fill="#444444">June 2020</text></g><g><text text-anchor="middle" x="853.5401234567902" y="424.75" font-family="Arial" font-size="15" stroke="none" stroke-width="0" fill="#444444">July 2020</text></g><g><text text-anchor="middle" x="967.5895061728396" y="424.75" font-family="Arial" font-size="15" stroke="none" stroke-width="0" fill="#444444">August 2020</text></g><g><text text-anchor="middle" x="691.6635802469136" y="424.75" font-family="Arial" font-size="15" stroke="none" stroke-width="0" fill="#444444">18</text></g><g><text text-anchor="middle" x="794.675925925926" y="424.75" font-family="Arial" font-size="15" stroke="none" stroke-width="0" fill="#444444">15</text></g><g><text text-anchor="middle" x="1026.4537037037037" y="424.75" font-family="Arial" font-size="15" stroke="none" stroke-width="0" fill="#444444">17</text></g><g><text text-anchor="middle" x="1052.2067901234568" y="424.75" font-family="Arial" font-size="15" stroke="none" stroke-width="0" fill="#444444">24</text></g><g><text text-anchor="end" x="168" y="407.75" font-family="Arial" font-size="15" stroke="none" stroke-width="0" fill="#444444">0</text></g><g><text text-anchor="end" x="168" y="331" font-family="Arial" font-size="15" stroke="none" stroke-width="0" fill="#444444">10</text></g><g><text text-anchor="end" x="168" y="254.25" font-family="Arial" font-size="15" stroke="none" stroke-width="0" fill="#444444">20</text></g><g><text text-anchor="end" x="168" y="177.5" font-family="Arial" font-size="15" stroke="none" stroke-width="0" fill="#444444">30</text></g><g><text text-anchor="end" x="168" y="100.75" font-family="Arial" font-size="15" stroke="none" stroke-width="0" fill="#444444">40</text></g></g></g><g><g><text text-anchor="middle" x="630.5" y="467.75" font-family="Arial" font-size="15" font-style="italic" stroke="none" stroke-width="0" fill="#222222">Ano</text><rect x="183" y="455" width="895" height="15" stroke="none" stroke-width="0" fill-opacity="0" fill="#ffffff"></rect></g><g><text text-anchor="middle" x="80.75" y="249" font-family="Arial" font-size="15" font-style="italic" transform="rotate(-90 80.75 249)" stroke="none" stroke-width="0" fill="#222222">Temperatura do solo (ºC)</text><path d="M67.99999999999999,403L68.00000000000001,95L83.00000000000001,95L82.99999999999999,403Z" stroke="none" stroke-width="0" fill-opacity="0" fill="#ffffff"></path></g></g><g></g></svg>