<svg width="1261" height="498" aria-label="A chart." style="overflow: hidden;"><defs id="_ABSTRACT_RENDERER_ID_343"><clipPath id="_ABSTRACT_RENDERER_ID_344"><rect x="183" y="95" width="895" height="308"></rect></clipPath></defs><rect x="0" y="0" width="1261" height="498" stroke="none" stroke-width="0" fill="#ffffff"></rect><g><text text-anchor="start" x="183" y="68.75" font-family="Arial" font-size="15" font-weight="bold" stroke="none" stroke-width="0" fill="#000000">Icaraíma</text><rect x="183" y="56" width="895" height="15" stroke="none" stroke-width="0" fill-opacity="0" fill="#ffffff"></rect></g><g><rect x="1093" y="95" width="153" height="15" stroke="none" stroke-width="0" fill-opacity="0" fill="#ffffff"></rect><g column-id="LST_Day_1km"><rect x="1093" y="95" width="153" height="15" stroke="none" stroke-width="0" fill-opacity="0" fill="#ffffff"></rect><g><text text-anchor="start" x="1129" y="107.75" font-family="Arial" font-size="15" stroke="none" stroke-width="0" fill="#222222">LST_Day_1km</text></g><path d="M1093,102.5L1123,102.5" stroke="#3366cc" stroke-width="1" fill-opacity="1" fill="none"></path><circle cx="1108" cy="102.5" r="2.5" stroke="none" stroke-width="0" fill="#3366cc"></circle></g></g><g><rect x="183" y="95" width="895" height="308" stroke="none" stroke-width="0" fill-opacity="0" fill="#ffffff"></rect><g clip-path="url(https://code.earthengine.google.com/#_ABSTRACT_RENDERER_ID_344)"><g><rect x="183" y="95" width="1" height="308" stroke="none" stroke-width="0" fill="#cccccc"></rect><rect x="260" y="95" width="1" height="308" stroke="none" stroke-width="0" fill="#cccccc"></rect><rect x="329" y="95" width="1" height="308" stroke="none" stroke-width="0" fill="#cccccc"></rect><rect x="405" y="95" width="1" height="308" stroke="none" stroke-width="0" fill="#cccccc"></rect><rect x="479" y="95" width="1" height="308" stroke="none" stroke-width="0" fill="#cccccc"></rect><rect x="555" y="95" width="1" height="308" stroke="none" stroke-width="0" fill="#cccccc"></rect><rect x="629" y="95" width="1" height="308" stroke="none" stroke-width="0" fill="#cccccc"></rect><rect x="705" y="95" width="1" height="308" stroke="none" stroke-width="0" fill="#cccccc"></rect><rect x="782" y="95" width="1" height="308" stroke="none" stroke-width="0" fill="#cccccc"></rect><rect x="856" y="95" width="1" height="308" stroke="none" stroke-width="0" fill="#cccccc"></rect><rect x="932" y="95" width="1" height="308" stroke="none" stroke-width="0" fill="#cccccc"></rect><rect x="1006" y="95" width="1" height="308" stroke="none" stroke-width="0" fill="#cccccc"></rect><rect x="183" y="402" width="895" height="1" stroke="none" stroke-width="0" fill="#cccccc"></rect><rect x="183" y="341" width="895" height="1" stroke="none" stroke-width="0" fill="#cccccc"></rect><rect x="183" y="279" width="895" height="1" stroke="none" stroke-width="0" fill="#cccccc"></rect><rect x="183" y="218" width="895" height="1" stroke="none" stroke-width="0" fill="#cccccc"></rect><rect x="183" y="156" width="895" height="1" stroke="none" stroke-width="0" fill="#cccccc"></rect><rect x="183" y="95" width="895" height="1" stroke="none" stroke-width="0" fill="#cccccc"></rect><rect x="183" y="371" width="895" height="1" stroke="none" stroke-width="0" fill="#ebebeb"></rect><rect x="183" y="310" width="895" height="1" stroke="none" stroke-width="0" fill="#ebebeb"></rect><rect x="183" y="249" width="895" height="1" stroke="none" stroke-width="0" fill="#ebebeb"></rect><rect x="183" y="187" width="895" height="1" stroke="none" stroke-width="0" fill="#ebebeb"></rect><rect x="183" y="126" width="895" height="1" stroke="none" stroke-width="0" fill="#ebebeb"></rect></g><g><rect x="183" y="402" width="895" height="1" stroke="none" stroke-width="0" fill="#333333"></rect></g><g><g><path d="M188.42561983471074,209.15140000000002L190.88842975206612,183.6292456810466M208.12809917355372,233.7697216802386L210.5909090909091,211.91440000000003L213.05371900826447,260.8502L215.51652892561984,201.32904M220.44214876033058,198.84821736874522L222.90495867768595,206.08140000000003M230.29338842975207,227.0356249110128L232.75619834710744,217.3483L235.21900826446281,205.10812416697522L237.6818181818182,176.6298666666462M242.60743801652893,205.0952787878546L245.0702479338843,206.57260000000002L247.53305785123968,202.39400656303582L249.99586776859505,208.1315878136456L252.45867768595042,193.5558L254.9214876033058,186.64771728274738L257.38429752066116,194.661L259.84710743801656,189.64509230771122M264.77272727272725,192.512L267.23553719008265,220.6946M272.1611570247934,201.3026291865826L274.62396694214874,211.23493432433762L277.08677685950414,187.45651958227063L279.54958677685954,252.1314M294.3264462809917,226.2206L296.7892561983471,241.6934M306.6404958677686,224.6066571428396L309.103305785124,247.465L311.56611570247935,201.1867162052618L314.0289256198347,232.729L316.4917355371901,195.50013333335383L318.9545454545455,224.8698M326.3429752066116,235.4306L328.805785123967,222.3138485954054L331.2685950413223,209.6499595230546L333.7314049586777,184.70412458849L336.1942148760331,225.48380000000003L338.6570247933885,225.48380000000003M343.58264462809916,219.71220000000002L346.04545454545456,216.7088964856334M378.0619834710744,238.3778L380.52479338842977,239.6365L382.9876033057851,217.0389446822464L385.4504132231405,206.94047689029722L387.9132231404959,209.2677194536188L390.37603305785126,200.0410807639554L392.8388429752066,229.90460000000002L395.301652892562,208.50850588237103L397.7644628099174,248.9079L400.22727272727275,205.85531667282942M424.85537190082647,233.38618813562343L427.31818181818187,231.0696574549224L429.7809917355372,213.0478580518812L432.24380165289256,251.2718L434.70661157024796,241.632M444.55785123966945,209.6224436387614L447.0206611570248,206.1573227544844L449.4834710743802,225.7908L451.94628099173553,245.13180000000003M461.797520661157,212.673774255846L464.2603305785124,208.78300000000002L466.72314049586777,223.8976333333538L469.18595041322317,231.9493700838882M474.1115702479339,241.9662888888616L476.57438016528926,274.3582M483.9628099173554,273.25300000000004L486.42561983471074,239.2746426229478L488.88842975206614,227.203L491.3512396694215,304.8126M511.05371900826447,280.007L513.5165289256199,256.4514283801898L515.9793388429753,313.4086L518.4421487603306,246.78401818181263L520.904958677686,246.04525964909482L523.3677685950413,263.09145123151563L525.8305785123966,234.6938M540.6074380165289,266.1306L543.0702479338843,242.7217021194508M547.9958677685951,254.833L550.4586776859504,274.481L552.9214876033059,242.7679M562.7727272727273,260.4818L565.2355371900826,271.0426L567.698347107438,273.4986L570.1611570247934,238.7462L572.6239669421489,281.60339999999997L575.0867768595042,244.7097869200428L577.5495867768595,259.49940000000004L580.0123966942149,251.94051560046123L582.4752066115702,235.30780000000001L584.9380165289256,273.7886309746526L587.400826446281,289.9538L589.8636363636364,295.1114L592.3264462809918,226.9731972209606L594.7892561983472,262.3238L597.2520661157025,253.4003333333538L599.7148760330579,246.02648571425942M604.6404958677685,233.14345L607.103305785124,254.833L609.5661157024794,228.8814470258306L612.0289256198348,264.4585596385446L614.4917355371902,226.95004047694542M621.8801652892562,258.4499464667968L624.3429752066115,242.35763503683262L626.805785123967,228.8261244604586L629.2685950413223,296.4622M639.1198347107438,290.3222L641.5826446280992,305.9178L644.0454545454545,279.5788483221732L646.50826446281,298.1814L648.9710743801653,259.43549780564865L651.4338842975208,277.1826L653.8966942148761,238.85170252763263L656.3595041322315,236.8540732706798L658.8223140495868,241.5706L661.2851239669421,221.93205471012982M666.2107438016529,278.7297934194916L668.6735537190083,308.251M680.9876033057851,267.6042L683.4504132231405,220.024784462317L685.9132231404959,251.43732032742702M693.3016528925621,261.8326L695.7644628099174,245.862993113789L698.2272727272727,241.11704305176661L700.6900826446281,229.65981577746922L703.1528925619835,231.11895555556922L705.6157024793389,214.26760978114143M710.5413223140496,264.24621218273796L713.004132231405,294.6202L715.4669421487604,259.4247605659946L717.9297520661157,236.59117520764443L720.3925619834711,228.459761213338L722.8553719008265,202.74950821824902L725.3181818181819,261.3414L727.7809917355372,276.2002L730.2438016528926,273.7442L732.706611570248,184.13870989825602L735.1694214876034,251.39460000000003L737.6322314049587,232.3175590775078L740.095041322314,246.3988647645914L742.5578512396695,229.60455252388323L745.0206611570248,197.342305100038M749.9462809917355,224.2288516351086L752.409090909091,267.23580000000004L754.8719008264463,208.2060908091146L757.3347107438017,224.6537013636904L759.797520661157,215.8072410561048L762.2603305785125,211.9894444444308L764.7231404958678,239.3217664122428L767.1859504132232,258.07492M772.111570247934,203.86544268827183L774.5743801652893,205.4250318590434M794.2768595041323,243.43536188264142L796.7396694214876,256.92060000000004L799.202479338843,185.41221304707662L801.6652892561984,177.0563082447512L804.1280991735538,217.36876666664622L806.5909090909091,230.887M811.5165289256199,200.04373333335383L813.9793388429753,200.7626218166556L816.4421487603306,192.7980961281454L818.904958677686,180.53900000000002L821.3677685950414,184.68070909093703M833.6818181818182,195.8546298713652L836.1446280991736,218.8064433354288L838.6074380165289,227.08020000000002M843.5330578512397,253.5231333333538L845.9958677685951,178.589516148031L848.4586776859504,228.7225103391302L850.9214876033058,169.555958136152L853.3842975206612,182.037198535561L855.8471074380166,161.76004615385563M873.0867768595042,217.37900000000002L875.5495867768595,157.04736000000003L878.0123966942149,159.72960781709523L880.4752066115702,149.79226777778462L882.9380165289257,143.5226418478074L885.400826446281,128.24353887045783M895.2520661157025,162.11900000000003L897.7148760330579,150.3916M907.5661157024794,235.44822152468242L910.0289256198347,210.7478L912.4917355371902,163.4013292488204L914.9545454545455,168.9958L917.4173553719008,178.73142121214542L919.8801652892562,168.2477843839816L922.3429752066116,213.935988463049L924.805785123967,179.75411092908644L927.2685950413223,181.2933428571604L929.7314049586777,148.0182623870072M939.5826446280992,189.35901228718043L942.0454545454546,174.05788888886164M966.6735537190083,213.63295546958682L969.1363636363636,171.16292546125283L971.5991735537191,187.38948571425942L974.0619834710744,168.9940635439598L976.5247933884298,195.4877380281448L978.9876033057851,174.01525L981.4504132231406,166.6482655351854L983.9132231404959,199.995433232912L986.3760330578513,155.0477666666462M998.6900826446281,233.77280000000002L1001.1528925619835,219.663131380748L1003.6157024793389,200.39166666664624M1018.3925619834711,206.9819333333538L1020.8553719008265,192.7126371104548L1023.3181818181819,264.65700000000004M1038.095041322314,259.2538L1040.5578512396696,221.92260000000002M1057.797520661157,227.32580000000002L1060.2603305785124,203.8606142553296L1062.723140495868,212.0363702702404L1065.185950413223,189.3537719067794L1067.6487603305786,224.0102L1070.111570247934,178.0160181818126L1072.5743801652893,261.587L1075.0371900826447,195.6434L1077.5,179.68686371111824" stroke="#3366cc" stroke-width="1" fill-opacity="1" fill="none"></path></g></g></g><g><circle cx="183.5" cy="239.36020000000002" r="2.5" stroke="none" stroke-width="0" fill="#3366cc"></circle><circle cx="188.42561983471074" cy="209.15140000000002" r="2.5" stroke="none" stroke-width="0" fill="#3366cc"></circle><circle cx="190.88842975206612" cy="183.6292456810466" r="2.5" stroke="none" stroke-width="0" fill="#3366cc"></circle><circle cx="203.20247933884298" cy="266.1306" r="2.5" stroke="none" stroke-width="0" fill="#3366cc"></circle><circle cx="208.12809917355372" cy="233.7697216802386" r="2.5" stroke="none" stroke-width="0" fill="#3366cc"></circle><circle cx="210.5909090909091" cy="211.91440000000003" r="2.5" stroke="none" stroke-width="0" fill="#3366cc"></circle><circle cx="213.05371900826447" cy="260.8502" r="2.5" stroke="none" stroke-width="0" fill="#3366cc"></circle><circle cx="215.51652892561984" cy="201.32904" r="2.5" stroke="none" stroke-width="0" fill="#3366cc"></circle><circle cx="220.44214876033058" cy="198.84821736874522" r="2.5" stroke="none" stroke-width="0" fill="#3366cc"></circle><circle cx="222.90495867768595" cy="206.08140000000003" r="2.5" stroke="none" stroke-width="0" fill="#3366cc"></circle><circle cx="230.29338842975207" cy="227.0356249110128" r="2.5" stroke="none" stroke-width="0" fill="#3366cc"></circle><circle cx="232.75619834710744" cy="217.3483" r="2.5" stroke="none" stroke-width="0" fill="#3366cc"></circle><circle cx="235.21900826446281" cy="205.10812416697522" r="2.5" stroke="none" stroke-width="0" fill="#3366cc"></circle><circle cx="237.6818181818182" cy="176.6298666666462" r="2.5" stroke="none" stroke-width="0" fill="#3366cc"></circle><circle cx="242.60743801652893" cy="205.0952787878546" r="2.5" stroke="none" stroke-width="0" fill="#3366cc"></circle><circle cx="245.0702479338843" cy="206.57260000000002" r="2.5" stroke="none" stroke-width="0" fill="#3366cc"></circle><circle cx="247.53305785123968" cy="202.39400656303582" r="2.5" stroke="none" stroke-width="0" fill="#3366cc"></circle><circle cx="249.99586776859505" cy="208.1315878136456" r="2.5" stroke="none" stroke-width="0" fill="#3366cc"></circle><circle cx="252.45867768595042" cy="193.5558" r="2.5" stroke="none" stroke-width="0" fill="#3366cc"></circle><circle cx="254.9214876033058" cy="186.64771728274738" r="2.5" stroke="none" stroke-width="0" fill="#3366cc"></circle><circle cx="257.38429752066116" cy="194.661" r="2.5" stroke="none" stroke-width="0" fill="#3366cc"></circle><circle cx="259.84710743801656" cy="189.64509230771122" r="2.5" stroke="none" stroke-width="0" fill="#3366cc"></circle><circle cx="264.77272727272725" cy="192.512" r="2.5" stroke="none" stroke-width="0" fill="#3366cc"></circle><circle cx="267.23553719008265" cy="220.6946" r="2.5" stroke="none" stroke-width="0" fill="#3366cc"></circle><circle cx="272.1611570247934" cy="201.3026291865826" r="2.5" stroke="none" stroke-width="0" fill="#3366cc"></circle><circle cx="274.62396694214874" cy="211.23493432433762" r="2.5" stroke="none" stroke-width="0" fill="#3366cc"></circle><circle cx="277.08677685950414" cy="187.45651958227063" r="2.5" stroke="none" stroke-width="0" fill="#3366cc"></circle><circle cx="279.54958677685954" cy="252.1314" r="2.5" stroke="none" stroke-width="0" fill="#3366cc"></circle><circle cx="284.47520661157023" cy="232.3680115976226" r="2.5" stroke="none" stroke-width="0" fill="#3366cc"></circle><circle cx="294.3264462809917" cy="226.2206" r="2.5" stroke="none" stroke-width="0" fill="#3366cc"></circle><circle cx="296.7892561983471" cy="241.6934" r="2.5" stroke="none" stroke-width="0" fill="#3366cc"></circle><circle cx="301.71487603305786" cy="246.6054" r="2.5" stroke="none" stroke-width="0" fill="#3366cc"></circle><circle cx="306.6404958677686" cy="224.6066571428396" r="2.5" stroke="none" stroke-width="0" fill="#3366cc"></circle><circle cx="309.103305785124" cy="247.465" r="2.5" stroke="none" stroke-width="0" fill="#3366cc"></circle><circle cx="311.56611570247935" cy="201.1867162052618" r="2.5" stroke="none" stroke-width="0" fill="#3366cc"></circle><circle cx="314.0289256198347" cy="232.729" r="2.5" stroke="none" stroke-width="0" fill="#3366cc"></circle><circle cx="316.4917355371901" cy="195.50013333335383" r="2.5" stroke="none" stroke-width="0" fill="#3366cc"></circle><circle cx="318.9545454545455" cy="224.8698" r="2.5" stroke="none" stroke-width="0" fill="#3366cc"></circle><circle cx="326.3429752066116" cy="235.4306" r="2.5" stroke="none" stroke-width="0" fill="#3366cc"></circle><circle cx="328.805785123967" cy="222.3138485954054" r="2.5" stroke="none" stroke-width="0" fill="#3366cc"></circle><circle cx="331.2685950413223" cy="209.6499595230546" r="2.5" stroke="none" stroke-width="0" fill="#3366cc"></circle><circle cx="333.7314049586777" cy="184.70412458849" r="2.5" stroke="none" stroke-width="0" fill="#3366cc"></circle><circle cx="336.1942148760331" cy="225.48380000000003" r="2.5" stroke="none" stroke-width="0" fill="#3366cc"></circle><circle cx="338.6570247933885" cy="225.48380000000003" r="2.5" stroke="none" stroke-width="0" fill="#3366cc"></circle><circle cx="343.58264462809916" cy="219.71220000000002" r="2.5" stroke="none" stroke-width="0" fill="#3366cc"></circle><circle cx="346.04545454545456" cy="216.7088964856334" r="2.5" stroke="none" stroke-width="0" fill="#3366cc"></circle><circle cx="350.9710743801653" cy="223.5716285714198" r="2.5" stroke="none" stroke-width="0" fill="#3366cc"></circle><circle cx="360.8223140495868" cy="242.7986" r="2.5" stroke="none" stroke-width="0" fill="#3366cc"></circle><circle cx="378.0619834710744" cy="238.3778" r="2.5" stroke="none" stroke-width="0" fill="#3366cc"></circle><circle cx="380.52479338842977" cy="239.6365" r="2.5" stroke="none" stroke-width="0" fill="#3366cc"></circle><circle cx="382.9876033057851" cy="217.0389446822464" r="2.5" stroke="none" stroke-width="0" fill="#3366cc"></circle><circle cx="385.4504132231405" cy="206.94047689029722" r="2.5" stroke="none" stroke-width="0" fill="#3366cc"></circle><circle cx="387.9132231404959" cy="209.2677194536188" r="2.5" stroke="none" stroke-width="0" fill="#3366cc"></circle><circle cx="390.37603305785126" cy="200.0410807639554" r="2.5" stroke="none" stroke-width="0" fill="#3366cc"></circle><circle cx="392.8388429752066" cy="229.90460000000002" r="2.5" stroke="none" stroke-width="0" fill="#3366cc"></circle><circle cx="395.301652892562" cy="208.50850588237103" r="2.5" stroke="none" stroke-width="0" fill="#3366cc"></circle><circle cx="397.7644628099174" cy="248.9079" r="2.5" stroke="none" stroke-width="0" fill="#3366cc"></circle><circle cx="400.22727272727275" cy="205.85531667282942" r="2.5" stroke="none" stroke-width="0" fill="#3366cc"></circle><circle cx="412.5413223140496" cy="229.6441172889366" r="2.5" stroke="none" stroke-width="0" fill="#3366cc"></circle><circle cx="424.85537190082647" cy="233.38618813562343" r="2.5" stroke="none" stroke-width="0" fill="#3366cc"></circle><circle cx="427.31818181818187" cy="231.0696574549224" r="2.5" stroke="none" stroke-width="0" fill="#3366cc"></circle><circle cx="429.7809917355372" cy="213.0478580518812" r="2.5" stroke="none" stroke-width="0" fill="#3366cc"></circle><circle cx="432.24380165289256" cy="251.2718" r="2.5" stroke="none" stroke-width="0" fill="#3366cc"></circle><circle cx="434.70661157024796" cy="241.632" r="2.5" stroke="none" stroke-width="0" fill="#3366cc"></circle><circle cx="439.6322314049587" cy="209.6835333333538" r="2.5" stroke="none" stroke-width="0" fill="#3366cc"></circle><circle cx="444.55785123966945" cy="209.6224436387614" r="2.5" stroke="none" stroke-width="0" fill="#3366cc"></circle><circle cx="447.0206611570248" cy="206.1573227544844" r="2.5" stroke="none" stroke-width="0" fill="#3366cc"></circle><circle cx="449.4834710743802" cy="225.7908" r="2.5" stroke="none" stroke-width="0" fill="#3366cc"></circle><circle cx="451.94628099173553" cy="245.13180000000003" r="2.5" stroke="none" stroke-width="0" fill="#3366cc"></circle><circle cx="461.797520661157" cy="212.673774255846" r="2.5" stroke="none" stroke-width="0" fill="#3366cc"></circle><circle cx="464.2603305785124" cy="208.78300000000002" r="2.5" stroke="none" stroke-width="0" fill="#3366cc"></circle><circle cx="466.72314049586777" cy="223.8976333333538" r="2.5" stroke="none" stroke-width="0" fill="#3366cc"></circle><circle cx="469.18595041322317" cy="231.9493700838882" r="2.5" stroke="none" stroke-width="0" fill="#3366cc"></circle><circle cx="474.1115702479339" cy="241.9662888888616" r="2.5" stroke="none" stroke-width="0" fill="#3366cc"></circle><circle cx="476.57438016528926" cy="274.3582" r="2.5" stroke="none" stroke-width="0" fill="#3366cc"></circle><circle cx="483.9628099173554" cy="273.25300000000004" r="2.5" stroke="none" stroke-width="0" fill="#3366cc"></circle><circle cx="486.42561983471074" cy="239.2746426229478" r="2.5" stroke="none" stroke-width="0" fill="#3366cc"></circle><circle cx="488.88842975206614" cy="227.203" r="2.5" stroke="none" stroke-width="0" fill="#3366cc"></circle><circle cx="491.3512396694215" cy="304.8126" r="2.5" stroke="none" stroke-width="0" fill="#3366cc"></circle><circle cx="496.27685950413223" cy="229.33240774364782" r="2.5" stroke="none" stroke-width="0" fill="#3366cc"></circle><circle cx="501.202479338843" cy="222.57168571425942" r="2.5" stroke="none" stroke-width="0" fill="#3366cc"></circle><circle cx="511.05371900826447" cy="280.007" r="2.5" stroke="none" stroke-width="0" fill="#3366cc"></circle><circle cx="513.5165289256199" cy="256.4514283801898" r="2.5" stroke="none" stroke-width="0" fill="#3366cc"></circle><circle cx="515.9793388429753" cy="313.4086" r="2.5" stroke="none" stroke-width="0" fill="#3366cc"></circle><circle cx="518.4421487603306" cy="246.78401818181263" r="2.5" stroke="none" stroke-width="0" fill="#3366cc"></circle><circle cx="520.904958677686" cy="246.04525964909482" r="2.5" stroke="none" stroke-width="0" fill="#3366cc"></circle><circle cx="523.3677685950413" cy="263.09145123151563" r="2.5" stroke="none" stroke-width="0" fill="#3366cc"></circle><circle cx="525.8305785123966" cy="234.6938" r="2.5" stroke="none" stroke-width="0" fill="#3366cc"></circle><circle cx="535.6818181818182" cy="284.9707444230244" r="2.5" stroke="none" stroke-width="0" fill="#3366cc"></circle><circle cx="540.6074380165289" cy="266.1306" r="2.5" stroke="none" stroke-width="0" fill="#3366cc"></circle><circle cx="543.0702479338843" cy="242.7217021194508" r="2.5" stroke="none" stroke-width="0" fill="#3366cc"></circle><circle cx="547.9958677685951" cy="254.833" r="2.5" stroke="none" stroke-width="0" fill="#3366cc"></circle><circle cx="550.4586776859504" cy="274.481" r="2.5" stroke="none" stroke-width="0" fill="#3366cc"></circle><circle cx="552.9214876033059" cy="242.7679" r="2.5" stroke="none" stroke-width="0" fill="#3366cc"></circle><circle cx="557.8471074380166" cy="270.3058" r="2.5" stroke="none" stroke-width="0" fill="#3366cc"></circle><circle cx="562.7727272727273" cy="260.4818" r="2.5" stroke="none" stroke-width="0" fill="#3366cc"></circle><circle cx="565.2355371900826" cy="271.0426" r="2.5" stroke="none" stroke-width="0" fill="#3366cc"></circle><circle cx="567.698347107438" cy="273.4986" r="2.5" stroke="none" stroke-width="0" fill="#3366cc"></circle><circle cx="570.1611570247934" cy="238.7462" r="2.5" stroke="none" stroke-width="0" fill="#3366cc"></circle><circle cx="572.6239669421489" cy="281.60339999999997" r="2.5" stroke="none" stroke-width="0" fill="#3366cc"></circle><circle cx="575.0867768595042" cy="244.7097869200428" r="2.5" stroke="none" stroke-width="0" fill="#3366cc"></circle><circle cx="577.5495867768595" cy="259.49940000000004" r="2.5" stroke="none" stroke-width="0" fill="#3366cc"></circle><circle cx="580.0123966942149" cy="251.94051560046123" r="2.5" stroke="none" stroke-width="0" fill="#3366cc"></circle><circle cx="582.4752066115702" cy="235.30780000000001" r="2.5" stroke="none" stroke-width="0" fill="#3366cc"></circle><circle cx="584.9380165289256" cy="273.7886309746526" r="2.5" stroke="none" stroke-width="0" fill="#3366cc"></circle><circle cx="587.400826446281" cy="289.9538" r="2.5" stroke="none" stroke-width="0" fill="#3366cc"></circle><circle cx="589.8636363636364" cy="295.1114" r="2.5" stroke="none" stroke-width="0" fill="#3366cc"></circle><circle cx="592.3264462809918" cy="226.9731972209606" r="2.5" stroke="none" stroke-width="0" fill="#3366cc"></circle><circle cx="594.7892561983472" cy="262.3238" r="2.5" stroke="none" stroke-width="0" fill="#3366cc"></circle><circle cx="597.2520661157025" cy="253.4003333333538" r="2.5" stroke="none" stroke-width="0" fill="#3366cc"></circle><circle cx="599.7148760330579" cy="246.02648571425942" r="2.5" stroke="none" stroke-width="0" fill="#3366cc"></circle><circle cx="604.6404958677685" cy="233.14345" r="2.5" stroke="none" stroke-width="0" fill="#3366cc"></circle><circle cx="607.103305785124" cy="254.833" r="2.5" stroke="none" stroke-width="0" fill="#3366cc"></circle><circle cx="609.5661157024794" cy="228.8814470258306" r="2.5" stroke="none" stroke-width="0" fill="#3366cc"></circle><circle cx="612.0289256198348" cy="264.4585596385446" r="2.5" stroke="none" stroke-width="0" fill="#3366cc"></circle><circle cx="614.4917355371902" cy="226.95004047694542" r="2.5" stroke="none" stroke-width="0" fill="#3366cc"></circle><circle cx="621.8801652892562" cy="258.4499464667968" r="2.5" stroke="none" stroke-width="0" fill="#3366cc"></circle><circle cx="624.3429752066115" cy="242.35763503683262" r="2.5" stroke="none" stroke-width="0" fill="#3366cc"></circle><circle cx="626.805785123967" cy="228.8261244604586" r="2.5" stroke="none" stroke-width="0" fill="#3366cc"></circle><circle cx="629.2685950413223" cy="296.4622" r="2.5" stroke="none" stroke-width="0" fill="#3366cc"></circle><circle cx="639.1198347107438" cy="290.3222" r="2.5" stroke="none" stroke-width="0" fill="#3366cc"></circle><circle cx="641.5826446280992" cy="305.9178" r="2.5" stroke="none" stroke-width="0" fill="#3366cc"></circle><circle cx="644.0454545454545" cy="279.5788483221732" r="2.5" stroke="none" stroke-width="0" fill="#3366cc"></circle><circle cx="646.50826446281" cy="298.1814" r="2.5" stroke="none" stroke-width="0" fill="#3366cc"></circle><circle cx="648.9710743801653" cy="259.43549780564865" r="2.5" stroke="none" stroke-width="0" fill="#3366cc"></circle><circle cx="651.4338842975208" cy="277.1826" r="2.5" stroke="none" stroke-width="0" fill="#3366cc"></circle><circle cx="653.8966942148761" cy="238.85170252763263" r="2.5" stroke="none" stroke-width="0" fill="#3366cc"></circle><circle cx="656.3595041322315" cy="236.8540732706798" r="2.5" stroke="none" stroke-width="0" fill="#3366cc"></circle><circle cx="658.8223140495868" cy="241.5706" r="2.5" stroke="none" stroke-width="0" fill="#3366cc"></circle><circle cx="661.2851239669421" cy="221.93205471012982" r="2.5" stroke="none" stroke-width="0" fill="#3366cc"></circle><circle cx="666.2107438016529" cy="278.7297934194916" r="2.5" stroke="none" stroke-width="0" fill="#3366cc"></circle><circle cx="668.6735537190083" cy="308.251" r="2.5" stroke="none" stroke-width="0" fill="#3366cc"></circle><circle cx="676.0619834710744" cy="241.132041638752" r="2.5" stroke="none" stroke-width="0" fill="#3366cc"></circle><circle cx="680.9876033057851" cy="267.6042" r="2.5" stroke="none" stroke-width="0" fill="#3366cc"></circle><circle cx="683.4504132231405" cy="220.024784462317" r="2.5" stroke="none" stroke-width="0" fill="#3366cc"></circle><circle cx="685.9132231404959" cy="251.43732032742702" r="2.5" stroke="none" stroke-width="0" fill="#3366cc"></circle><circle cx="693.3016528925621" cy="261.8326" r="2.5" stroke="none" stroke-width="0" fill="#3366cc"></circle><circle cx="695.7644628099174" cy="245.862993113789" r="2.5" stroke="none" stroke-width="0" fill="#3366cc"></circle><circle cx="698.2272727272727" cy="241.11704305176661" r="2.5" stroke="none" stroke-width="0" fill="#3366cc"></circle><circle cx="700.6900826446281" cy="229.65981577746922" r="2.5" stroke="none" stroke-width="0" fill="#3366cc"></circle><circle cx="703.1528925619835" cy="231.11895555556922" r="2.5" stroke="none" stroke-width="0" fill="#3366cc"></circle><circle cx="705.6157024793389" cy="214.26760978114143" r="2.5" stroke="none" stroke-width="0" fill="#3366cc"></circle><circle cx="710.5413223140496" cy="264.24621218273796" r="2.5" stroke="none" stroke-width="0" fill="#3366cc"></circle><circle cx="713.004132231405" cy="294.6202" r="2.5" stroke="none" stroke-width="0" fill="#3366cc"></circle><circle cx="715.4669421487604" cy="259.4247605659946" r="2.5" stroke="none" stroke-width="0" fill="#3366cc"></circle><circle cx="717.9297520661157" cy="236.59117520764443" r="2.5" stroke="none" stroke-width="0" fill="#3366cc"></circle><circle cx="720.3925619834711" cy="228.459761213338" r="2.5" stroke="none" stroke-width="0" fill="#3366cc"></circle><circle cx="722.8553719008265" cy="202.74950821824902" r="2.5" stroke="none" stroke-width="0" fill="#3366cc"></circle><circle cx="725.3181818181819" cy="261.3414" r="2.5" stroke="none" stroke-width="0" fill="#3366cc"></circle><circle cx="727.7809917355372" cy="276.2002" r="2.5" stroke="none" stroke-width="0" fill="#3366cc"></circle><circle cx="730.2438016528926" cy="273.7442" r="2.5" stroke="none" stroke-width="0" fill="#3366cc"></circle><circle cx="732.706611570248" cy="184.13870989825602" r="2.5" stroke="none" stroke-width="0" fill="#3366cc"></circle><circle cx="735.1694214876034" cy="251.39460000000003" r="2.5" stroke="none" stroke-width="0" fill="#3366cc"></circle><circle cx="737.6322314049587" cy="232.3175590775078" r="2.5" stroke="none" stroke-width="0" fill="#3366cc"></circle><circle cx="740.095041322314" cy="246.3988647645914" r="2.5" stroke="none" stroke-width="0" fill="#3366cc"></circle><circle cx="742.5578512396695" cy="229.60455252388323" r="2.5" stroke="none" stroke-width="0" fill="#3366cc"></circle><circle cx="745.0206611570248" cy="197.342305100038" r="2.5" stroke="none" stroke-width="0" fill="#3366cc"></circle><circle cx="749.9462809917355" cy="224.2288516351086" r="2.5" stroke="none" stroke-width="0" fill="#3366cc"></circle><circle cx="752.409090909091" cy="267.23580000000004" r="2.5" stroke="none" stroke-width="0" fill="#3366cc"></circle><circle cx="754.8719008264463" cy="208.2060908091146" r="2.5" stroke="none" stroke-width="0" fill="#3366cc"></circle><circle cx="757.3347107438017" cy="224.6537013636904" r="2.5" stroke="none" stroke-width="0" fill="#3366cc"></circle><circle cx="759.797520661157" cy="215.8072410561048" r="2.5" stroke="none" stroke-width="0" fill="#3366cc"></circle><circle cx="762.2603305785125" cy="211.9894444444308" r="2.5" stroke="none" stroke-width="0" fill="#3366cc"></circle><circle cx="764.7231404958678" cy="239.3217664122428" r="2.5" stroke="none" stroke-width="0" fill="#3366cc"></circle><circle cx="767.1859504132232" cy="258.07492" r="2.5" stroke="none" stroke-width="0" fill="#3366cc"></circle><circle cx="772.111570247934" cy="203.86544268827183" r="2.5" stroke="none" stroke-width="0" fill="#3366cc"></circle><circle cx="774.5743801652893" cy="205.4250318590434" r="2.5" stroke="none" stroke-width="0" fill="#3366cc"></circle><circle cx="784.4256198347108" cy="255.712870935542" r="2.5" stroke="none" stroke-width="0" fill="#3366cc"></circle><circle cx="789.3512396694215" cy="220.449" r="2.5" stroke="none" stroke-width="0" fill="#3366cc"></circle><circle cx="794.2768595041323" cy="243.43536188264142" r="2.5" stroke="none" stroke-width="0" fill="#3366cc"></circle><circle cx="796.7396694214876" cy="256.92060000000004" r="2.5" stroke="none" stroke-width="0" fill="#3366cc"></circle><circle cx="799.202479338843" cy="185.41221304707662" r="2.5" stroke="none" stroke-width="0" fill="#3366cc"></circle><circle cx="801.6652892561984" cy="177.0563082447512" r="2.5" stroke="none" stroke-width="0" fill="#3366cc"></circle><circle cx="804.1280991735538" cy="217.36876666664622" r="2.5" stroke="none" stroke-width="0" fill="#3366cc"></circle><circle cx="806.5909090909091" cy="230.887" r="2.5" stroke="none" stroke-width="0" fill="#3366cc"></circle><circle cx="811.5165289256199" cy="200.04373333335383" r="2.5" stroke="none" stroke-width="0" fill="#3366cc"></circle><circle cx="813.9793388429753" cy="200.7626218166556" r="2.5" stroke="none" stroke-width="0" fill="#3366cc"></circle><circle cx="816.4421487603306" cy="192.7980961281454" r="2.5" stroke="none" stroke-width="0" fill="#3366cc"></circle><circle cx="818.904958677686" cy="180.53900000000002" r="2.5" stroke="none" stroke-width="0" fill="#3366cc"></circle><circle cx="821.3677685950414" cy="184.68070909093703" r="2.5" stroke="none" stroke-width="0" fill="#3366cc"></circle><circle cx="828.7561983471074" cy="243.5354" r="2.5" stroke="none" stroke-width="0" fill="#3366cc"></circle><circle cx="833.6818181818182" cy="195.8546298713652" r="2.5" stroke="none" stroke-width="0" fill="#3366cc"></circle><circle cx="836.1446280991736" cy="218.8064433354288" r="2.5" stroke="none" stroke-width="0" fill="#3366cc"></circle><circle cx="838.6074380165289" cy="227.08020000000002" r="2.5" stroke="none" stroke-width="0" fill="#3366cc"></circle><circle cx="843.5330578512397" cy="253.5231333333538" r="2.5" stroke="none" stroke-width="0" fill="#3366cc"></circle><circle cx="845.9958677685951" cy="178.589516148031" r="2.5" stroke="none" stroke-width="0" fill="#3366cc"></circle><circle cx="848.4586776859504" cy="228.7225103391302" r="2.5" stroke="none" stroke-width="0" fill="#3366cc"></circle><circle cx="850.9214876033058" cy="169.555958136152" r="2.5" stroke="none" stroke-width="0" fill="#3366cc"></circle><circle cx="853.3842975206612" cy="182.037198535561" r="2.5" stroke="none" stroke-width="0" fill="#3366cc"></circle><circle cx="855.8471074380166" cy="161.76004615385563" r="2.5" stroke="none" stroke-width="0" fill="#3366cc"></circle><circle cx="863.2355371900827" cy="169.38873430962602" r="2.5" stroke="none" stroke-width="0" fill="#3366cc"></circle><circle cx="873.0867768595042" cy="217.37900000000002" r="2.5" stroke="none" stroke-width="0" fill="#3366cc"></circle><circle cx="875.5495867768595" cy="157.04736000000003" r="2.5" stroke="none" stroke-width="0" fill="#3366cc"></circle><circle cx="878.0123966942149" cy="159.72960781709523" r="2.5" stroke="none" stroke-width="0" fill="#3366cc"></circle><circle cx="880.4752066115702" cy="149.79226777778462" r="2.5" stroke="none" stroke-width="0" fill="#3366cc"></circle><circle cx="882.9380165289257" cy="143.5226418478074" r="2.5" stroke="none" stroke-width="0" fill="#3366cc"></circle><circle cx="885.400826446281" cy="128.24353887045783" r="2.5" stroke="none" stroke-width="0" fill="#3366cc"></circle><circle cx="895.2520661157025" cy="162.11900000000003" r="2.5" stroke="none" stroke-width="0" fill="#3366cc"></circle><circle cx="897.7148760330579" cy="150.3916" r="2.5" stroke="none" stroke-width="0" fill="#3366cc"></circle><circle cx="902.6404958677687" cy="184.22300000000004" r="2.5" stroke="none" stroke-width="0" fill="#3366cc"></circle><circle cx="907.5661157024794" cy="235.44822152468242" r="2.5" stroke="none" stroke-width="0" fill="#3366cc"></circle><circle cx="910.0289256198347" cy="210.7478" r="2.5" stroke="none" stroke-width="0" fill="#3366cc"></circle><circle cx="912.4917355371902" cy="163.4013292488204" r="2.5" stroke="none" stroke-width="0" fill="#3366cc"></circle><circle cx="914.9545454545455" cy="168.9958" r="2.5" stroke="none" stroke-width="0" fill="#3366cc"></circle><circle cx="917.4173553719008" cy="178.73142121214542" r="2.5" stroke="none" stroke-width="0" fill="#3366cc"></circle><circle cx="919.8801652892562" cy="168.2477843839816" r="2.5" stroke="none" stroke-width="0" fill="#3366cc"></circle><circle cx="922.3429752066116" cy="213.935988463049" r="2.5" stroke="none" stroke-width="0" fill="#3366cc"></circle><circle cx="924.805785123967" cy="179.75411092908644" r="2.5" stroke="none" stroke-width="0" fill="#3366cc"></circle><circle cx="927.2685950413223" cy="181.2933428571604" r="2.5" stroke="none" stroke-width="0" fill="#3366cc"></circle><circle cx="929.7314049586777" cy="148.0182623870072" r="2.5" stroke="none" stroke-width="0" fill="#3366cc"></circle><circle cx="934.6570247933885" cy="185.11369015088863" r="2.5" stroke="none" stroke-width="0" fill="#3366cc"></circle><circle cx="939.5826446280992" cy="189.35901228718043" r="2.5" stroke="none" stroke-width="0" fill="#3366cc"></circle><circle cx="942.0454545454546" cy="174.05788888886164" r="2.5" stroke="none" stroke-width="0" fill="#3366cc"></circle><circle cx="951.8966942148761" cy="200.12324588310761" r="2.5" stroke="none" stroke-width="0" fill="#3366cc"></circle><circle cx="959.2851239669421" cy="195.06605886207942" r="2.5" stroke="none" stroke-width="0" fill="#3366cc"></circle><circle cx="966.6735537190083" cy="213.63295546958682" r="2.5" stroke="none" stroke-width="0" fill="#3366cc"></circle><circle cx="969.1363636363636" cy="171.16292546125283" r="2.5" stroke="none" stroke-width="0" fill="#3366cc"></circle><circle cx="971.5991735537191" cy="187.38948571425942" r="2.5" stroke="none" stroke-width="0" fill="#3366cc"></circle><circle cx="974.0619834710744" cy="168.9940635439598" r="2.5" stroke="none" stroke-width="0" fill="#3366cc"></circle><circle cx="976.5247933884298" cy="195.4877380281448" r="2.5" stroke="none" stroke-width="0" fill="#3366cc"></circle><circle cx="978.9876033057851" cy="174.01525" r="2.5" stroke="none" stroke-width="0" fill="#3366cc"></circle><circle cx="981.4504132231406" cy="166.6482655351854" r="2.5" stroke="none" stroke-width="0" fill="#3366cc"></circle><circle cx="983.9132231404959" cy="199.995433232912" r="2.5" stroke="none" stroke-width="0" fill="#3366cc"></circle><circle cx="986.3760330578513" cy="155.0477666666462" r="2.5" stroke="none" stroke-width="0" fill="#3366cc"></circle><circle cx="991.3016528925621" cy="196.63075880214998" r="2.5" stroke="none" stroke-width="0" fill="#3366cc"></circle><circle cx="998.6900826446281" cy="233.77280000000002" r="2.5" stroke="none" stroke-width="0" fill="#3366cc"></circle><circle cx="1001.1528925619835" cy="219.663131380748" r="2.5" stroke="none" stroke-width="0" fill="#3366cc"></circle><circle cx="1003.6157024793389" cy="200.39166666664624" r="2.5" stroke="none" stroke-width="0" fill="#3366cc"></circle><circle cx="1008.5413223140496" cy="182.381" r="2.5" stroke="none" stroke-width="0" fill="#3366cc"></circle><circle cx="1018.3925619834711" cy="206.9819333333538" r="2.5" stroke="none" stroke-width="0" fill="#3366cc"></circle><circle cx="1020.8553719008265" cy="192.7126371104548" r="2.5" stroke="none" stroke-width="0" fill="#3366cc"></circle><circle cx="1023.3181818181819" cy="264.65700000000004" r="2.5" stroke="none" stroke-width="0" fill="#3366cc"></circle><circle cx="1033.1694214876034" cy="249.4298" r="2.5" stroke="none" stroke-width="0" fill="#3366cc"></circle><circle cx="1038.095041322314" cy="259.2538" r="2.5" stroke="none" stroke-width="0" fill="#3366cc"></circle><circle cx="1040.5578512396696" cy="221.92260000000002" r="2.5" stroke="none" stroke-width="0" fill="#3366cc"></circle><circle cx="1052.8719008264463" cy="206.23933492285963" r="2.5" stroke="none" stroke-width="0" fill="#3366cc"></circle><circle cx="1057.797520661157" cy="227.32580000000002" r="2.5" stroke="none" stroke-width="0" fill="#3366cc"></circle><circle cx="1060.2603305785124" cy="203.8606142553296" r="2.5" stroke="none" stroke-width="0" fill="#3366cc"></circle><circle cx="1062.723140495868" cy="212.0363702702404" r="2.5" stroke="none" stroke-width="0" fill="#3366cc"></circle><circle cx="1065.185950413223" cy="189.3537719067794" r="2.5" stroke="none" stroke-width="0" fill="#3366cc"></circle><circle cx="1067.6487603305786" cy="224.0102" r="2.5" stroke="none" stroke-width="0" fill="#3366cc"></circle><circle cx="1070.111570247934" cy="178.0160181818126" r="2.5" stroke="none" stroke-width="0" fill="#3366cc"></circle><circle cx="1072.5743801652893" cy="261.587" r="2.5" stroke="none" stroke-width="0" fill="#3366cc"></circle><circle cx="1075.0371900826447" cy="195.6434" r="2.5" stroke="none" stroke-width="0" fill="#3366cc"></circle><circle cx="1077.5" cy="179.68686371111824" r="2.5" stroke="none" stroke-width="0" fill="#3366cc"></circle></g><g><g><text text-anchor="middle" x="183.70523415977962" y="424.75" font-family="Arial" font-size="15" stroke="none" stroke-width="0" fill="#444444">January 2019</text></g><g><text text-anchor="middle" x="329.1136363636364" y="424.75" font-family="Arial" font-size="15" stroke="none" stroke-width="0" fill="#444444">March 2019</text></g><g><text text-anchor="middle" x="479.34504132231405" y="424.75" font-family="Arial" font-size="15" stroke="none" stroke-width="0" fill="#444444">May 2019</text></g><g><text text-anchor="middle" x="629.5764462809918" y="424.75" font-family="Arial" font-size="15" stroke="none" stroke-width="0" fill="#444444">July 2019</text></g><g><text text-anchor="middle" x="782.2706611570248" y="424.75" font-family="Arial" font-size="15" stroke="none" stroke-width="0" fill="#444444">September 2019</text></g><g><text text-anchor="middle" x="932.5020661157025" y="424.75" font-family="Arial" font-size="15" stroke="none" stroke-width="0" fill="#444444">November 2019</text></g><g><text text-anchor="end" x="168" y="407.75" font-family="Arial" font-size="15" stroke="none" stroke-width="0" fill="#444444">0</text></g><g><text text-anchor="end" x="168" y="346.35" font-family="Arial" font-size="15" stroke="none" stroke-width="0" fill="#444444">10</text></g><g><text text-anchor="end" x="168" y="284.95" font-family="Arial" font-size="15" stroke="none" stroke-width="0" fill="#444444">20</text></g><g><text text-anchor="end" x="168" y="223.55" font-family="Arial" font-size="15" stroke="none" stroke-width="0" fill="#444444">30</text></g><g><text text-anchor="end" x="168" y="162.15" font-family="Arial" font-size="15" stroke="none" stroke-width="0" fill="#444444">40</text></g><g><text text-anchor="end" x="168" y="100.75" font-family="Arial" font-size="15" stroke="none" stroke-width="0" fill="#444444">50</text></g></g></g><g><g><text text-anchor="middle" x="630.5" y="467.75" font-family="Arial" font-size="15" font-style="italic" stroke="none" stroke-width="0" fill="#222222">Ano</text><rect x="183" y="455" width="895" height="15" stroke="none" stroke-width="0" fill-opacity="0" fill="#ffffff"></rect></g><g><text text-anchor="middle" x="80.75" y="249" font-family="Arial" font-size="15" font-style="italic" transform="rotate(-90 80.75 249)" stroke="none" stroke-width="0" fill="#222222">Temperatura do solo (ºC)</text><path d="M67.99999999999999,403L68.00000000000001,95L83.00000000000001,95L82.99999999999999,403Z" stroke="none" stroke-width="0" fill-opacity="0" fill="#ffffff"></path></g></g><g></g></svg>