<svg width="1261" height="578" aria-label="A chart." style="overflow: hidden;"><defs id="_ABSTRACT_RENDERER_ID_205"><clipPath id="_ABSTRACT_RENDERER_ID_206"><rect x="200" y="111" width="862" height="357"></rect></clipPath></defs><rect x="0" y="0" width="1261" height="578" stroke="none" stroke-width="0" fill="#ffffff"></rect><g><text text-anchor="start" x="200" y="84.75" font-family="Arial" font-size="15" font-weight="bold" stroke="none" stroke-width="0" fill="#000000">Maringá</text><rect x="200" y="72" width="862" height="15" stroke="none" stroke-width="0" fill-opacity="0" fill="#ffffff"></rect></g><g><rect x="1077" y="111" width="169" height="15" stroke="none" stroke-width="0" fill-opacity="0" fill="#ffffff"></rect><g column-id="LST_Day_1km"><rect x="1077" y="111" width="169" height="15" stroke="none" stroke-width="0" fill-opacity="0" fill="#ffffff"></rect><g><text text-anchor="start" x="1113" y="123.75" font-family="Arial" font-size="15" stroke="none" stroke-width="0" fill="#222222">LST_Day_1km</text></g><path d="M1077,118.5L1107,118.5" stroke="#3366cc" stroke-width="1" fill-opacity="1" fill="none"></path><circle cx="1092" cy="118.5" r="2.5" stroke="none" stroke-width="0" fill="#3366cc"></circle></g></g><g><rect x="200" y="111" width="862" height="357" stroke="none" stroke-width="0" fill-opacity="0" fill="#ffffff"></rect><g clip-path="url(https://code.earthengine.google.com/#_ABSTRACT_RENDERER_ID_206)"><g><rect x="200" y="111" width="1" height="357" stroke="none" stroke-width="0" fill="#cccccc"></rect><rect x="218" y="111" width="1" height="357" stroke="none" stroke-width="0" fill="#ebebeb"></rect><rect x="243" y="111" width="1" height="357" stroke="none" stroke-width="0" fill="#ebebeb"></rect><rect x="268" y="111" width="1" height="357" stroke="none" stroke-width="0" fill="#ebebeb"></rect><rect x="293" y="111" width="1" height="357" stroke="none" stroke-width="0" fill="#ebebeb"></rect><rect x="310" y="111" width="1" height="357" stroke="none" stroke-width="0" fill="#cccccc"></rect><rect x="317" y="111" width="1" height="357" stroke="none" stroke-width="0" fill="#ebebeb"></rect><rect x="342" y="111" width="1" height="357" stroke="none" stroke-width="0" fill="#ebebeb"></rect><rect x="367" y="111" width="1" height="357" stroke="none" stroke-width="0" fill="#ebebeb"></rect><rect x="392" y="111" width="1" height="357" stroke="none" stroke-width="0" fill="#ebebeb"></rect><rect x="413" y="111" width="1" height="357" stroke="none" stroke-width="0" fill="#cccccc"></rect><rect x="417" y="111" width="1" height="357" stroke="none" stroke-width="0" fill="#ebebeb"></rect><rect x="441" y="111" width="1" height="357" stroke="none" stroke-width="0" fill="#ebebeb"></rect><rect x="466" y="111" width="1" height="357" stroke="none" stroke-width="0" fill="#ebebeb"></rect><rect x="491" y="111" width="1" height="357" stroke="none" stroke-width="0" fill="#ebebeb"></rect><rect x="516" y="111" width="1" height="357" stroke="none" stroke-width="0" fill="#ebebeb"></rect><rect x="523" y="111" width="1" height="357" stroke="none" stroke-width="0" fill="#cccccc"></rect><rect x="541" y="111" width="1" height="357" stroke="none" stroke-width="0" fill="#ebebeb"></rect><rect x="565" y="111" width="1" height="357" stroke="none" stroke-width="0" fill="#ebebeb"></rect><rect x="590" y="111" width="1" height="357" stroke="none" stroke-width="0" fill="#ebebeb"></rect><rect x="615" y="111" width="1" height="357" stroke="none" stroke-width="0" fill="#ebebeb"></rect><rect x="629" y="111" width="1" height="357" stroke="none" stroke-width="0" fill="#cccccc"></rect><rect x="640" y="111" width="1" height="357" stroke="none" stroke-width="0" fill="#ebebeb"></rect><rect x="665" y="111" width="1" height="357" stroke="none" stroke-width="0" fill="#ebebeb"></rect><rect x="689" y="111" width="1" height="357" stroke="none" stroke-width="0" fill="#ebebeb"></rect><rect x="714" y="111" width="1" height="357" stroke="none" stroke-width="0" fill="#ebebeb"></rect><rect x="739" y="111" width="1" height="357" stroke="none" stroke-width="0" fill="#ebebeb"></rect><rect x="739" y="111" width="1" height="357" stroke="none" stroke-width="0" fill="#cccccc"></rect><rect x="764" y="111" width="1" height="357" stroke="none" stroke-width="0" fill="#ebebeb"></rect><rect x="789" y="111" width="1" height="357" stroke="none" stroke-width="0" fill="#ebebeb"></rect><rect x="813" y="111" width="1" height="357" stroke="none" stroke-width="0" fill="#ebebeb"></rect><rect x="838" y="111" width="1" height="357" stroke="none" stroke-width="0" fill="#ebebeb"></rect><rect x="845" y="111" width="1" height="357" stroke="none" stroke-width="0" fill="#cccccc"></rect><rect x="863" y="111" width="1" height="357" stroke="none" stroke-width="0" fill="#ebebeb"></rect><rect x="888" y="111" width="1" height="357" stroke="none" stroke-width="0" fill="#ebebeb"></rect><rect x="913" y="111" width="1" height="357" stroke="none" stroke-width="0" fill="#ebebeb"></rect><rect x="937" y="111" width="1" height="357" stroke="none" stroke-width="0" fill="#ebebeb"></rect><rect x="955" y="111" width="1" height="357" stroke="none" stroke-width="0" fill="#cccccc"></rect><rect x="962" y="111" width="1" height="357" stroke="none" stroke-width="0" fill="#ebebeb"></rect><rect x="987" y="111" width="1" height="357" stroke="none" stroke-width="0" fill="#ebebeb"></rect><rect x="1012" y="111" width="1" height="357" stroke="none" stroke-width="0" fill="#ebebeb"></rect><rect x="1037" y="111" width="1" height="357" stroke="none" stroke-width="0" fill="#ebebeb"></rect><rect x="200" y="467" width="862" height="1" stroke="none" stroke-width="0" fill="#cccccc"></rect><rect x="200" y="396" width="862" height="1" stroke="none" stroke-width="0" fill="#cccccc"></rect><rect x="200" y="325" width="862" height="1" stroke="none" stroke-width="0" fill="#cccccc"></rect><rect x="200" y="253" width="862" height="1" stroke="none" stroke-width="0" fill="#cccccc"></rect><rect x="200" y="182" width="862" height="1" stroke="none" stroke-width="0" fill="#cccccc"></rect><rect x="200" y="111" width="862" height="1" stroke="none" stroke-width="0" fill="#cccccc"></rect><rect x="200" y="431" width="862" height="1" stroke="none" stroke-width="0" fill="#ebebeb"></rect><rect x="200" y="360" width="862" height="1" stroke="none" stroke-width="0" fill="#ebebeb"></rect><rect x="200" y="289" width="862" height="1" stroke="none" stroke-width="0" fill="#ebebeb"></rect><rect x="200" y="218" width="862" height="1" stroke="none" stroke-width="0" fill="#ebebeb"></rect><rect x="200" y="147" width="862" height="1" stroke="none" stroke-width="0" fill="#ebebeb"></rect></g><g><rect x="200" y="467" width="862" height="1" stroke="none" stroke-width="0" fill="#333333"></rect></g><g><g><path d="M200.5,247.2206258448744L204.04320987654322,284.30240000000003L207.58641975308643,288.0048L211.12962962962962,300.0356613204048L214.67283950617283,278.660413793128L218.21604938271605,279.8405333333096M225.30246913580248,300.1088L228.84567901234567,311.6432L232.38888888888889,291.5648L235.9320987654321,294.2704L239.47530864197532,262.0882599528376M246.56172839506172,300.4612040403688L250.10493827160494,260.6210382715856L253.64814814814815,270.6794666666904M260.7345679012346,294.60807943778957L264.27777777777777,257.6741573904816L267.820987654321,323.7472L271.3641975308642,258.7874909008288M281.9938271604938,276.8335189780664L285.53703703703707,267.0590084105472L289.08024691358025,238.3407362834504L292.62345679012344,256.0597333333096L296.1666666666667,223.9348634690184M328.05555555555554,262.5745333333096L331.5987654320988,273.3376L335.141975308642,273.3376L338.6851851851852,278.712847524756L342.2283950617284,282.024L345.7716049382716,281.0272L349.31481481481484,275.48926005730004L352.858024691358,228.545394829048M359.94444444444446,225.831400888032L363.48765432098764,214.31279999999998L367.0308641975309,227.5099224574848L370.5740740740741,225.0303002525992M384.74691358024694,235.683404255304L388.2901234567901,274.0672788456528L391.83333333333337,255.4358857142552M402.462962962963,260.80596389423283L406.0061728395062,263.04519267012245L409.5493827160494,217.07326578122797L413.0925925925926,218.95504L416.6358024691358,231.2863998120344L420.17901234567904,240.7483428571632L423.72222222222223,231.88276923075279L427.2654320987655,210.711140619408L430.80864197530866,235.038399718016L434.35185185185185,214.316659060292L437.8950617283951,262.6356923076704L441.4382716049383,203.5774801790776L444.9814814814815,204.73245823891438L448.5246913580247,199.03525157655844L452.0679012345679,194.43857701186317L455.61111111111114,202.57576177606484L459.15432098765433,182.3072623651184L462.6975308641976,214.9746962962752L466.24074074074076,200.27994239382082M473.3271604938272,277.6808L476.8703703703704,257.9584M483.9567901234568,255.46041473376638L487.5,260.664L491.04320987654324,228.3013538307448L494.58641975308643,270.0624L498.1296296296297,230.5290875516832L501.67283950617286,234.08312634243438L505.21604938271605,244.2775794911056L508.7592592592593,233.854219105912M515.8456790123457,261.64412487847596L519.3888888888889,271.919787685128L522.9320987654321,239.01921962514078L526.4753086419753,307.5136L530.0185185185185,263.4953014279728L533.5617283950618,259.038726410644L537.104938271605,255.4645793635256L540.6481481481482,255.5318825596152L544.1913580246915,309.08L547.7345679012346,260.37445443569925L551.2777777777778,298.310110254184L554.820987654321,257.68143689806163L558.3641975308642,264.80064172129596L561.9074074074074,267.0837183258336L565.4506172839506,263.07401598092963M572.5370370370371,304.800585390064L576.0802469135803,310.0768L579.6234567901236,274.2121566028048M586.7098765432099,272.3288009718688L590.2530864197531,276.81152962012L593.7962962962963,268.7752834561824L597.3395061728395,256.83289600508635L600.8827160493827,288.4235205984072L604.425925925926,262.0989959116232L607.9691358024692,283.385252462432L611.5123456790124,245.69473280683042L615.0555555555557,272.4832L618.5987654320988,269.35040000000004L622.141975308642,257.715387391784L625.6851851851852,264.758L629.2283950617284,249.0774093983584L632.7716049382716,319.1904L636.3148148148148,273.2741957169784L639.8580246913581,320.4514779106496L643.4012345679013,311.58624M650.4876543209878,304.778071075372L654.030864197531,290.1197560916168L657.5740740740741,304.9504L661.1172839506173,265.2268235229192L664.6604938271605,312.48922352939917L668.2037037037037,288.254M675.2901234567902,375.9368L678.8333333333334,307.1836816574056L682.3765432098766,298.20677545893125L685.9197530864199,279.0355653799512L689.462962962963,295.9740649417952L693.0061728395062,280.3747638912272L696.5493827160494,279.8133660914976L700.0925925925926,283.0036025698008M714.2654320987655,354.3632L717.8086419753087,323.249899613868L721.3518518518518,347.67040000000003L724.8950617283951,307.950010382516L728.4382716049383,292.8424185640672L731.9814814814815,301.2453747486304L735.5246913580247,288.4381326305112L739.0679012345679,302.672M756.783950617284,343.9499089704272L760.3271604938273,325.456L763.8703703703704,311.0321242718336L767.4135802469136,285.7341886360672L770.9567901234568,310.36159999999995L774.5,276.33124140783923M781.5864197530865,280.3810649938256L785.1296296296297,308.29679999999996L788.6728395061729,308.5104L792.216049382716,293.2052822919136L795.7592592592594,305.155158302476L799.3024691358025,353.6512L802.8456790123457,308.9376L806.3888888888889,280.36750828164236L809.9320987654321,276.47040000000004L813.4753086419754,278.176468137168L817.0185185185186,295.52996944872405L820.5617283950618,338.25739056605516L824.104938271605,307.5136M841.820987654321,312.3946327632128L845.3641975308642,359.2820590648912L848.9074074074075,348.1734242209888L852.4506172839507,347.67040000000003L855.9938271604939,315.4851555694696M863.0802469135803,323.0331091190128L866.6234567901236,290.8528M873.7098765432099,382.1312L877.2530864197531,327.0224L880.7962962962963,286.1626749524264L884.3395061728396,294.2704L887.8827160493828,270.6322840262696L891.425925925926,307.94079999999997L894.9691358024692,302.2554445887512L898.5123456790124,307.51981389690957L902.0555555555557,291.57957370480483L905.5987654320988,269.6997920046824L909.141975308642,292.0735313963984L912.6851851851852,273.78264760602883L916.2283950617284,324.8864L919.7716049382717,265.1943957892928L923.3148148148149,259.5835802400328L926.8580246913581,271.904277403436L930.4012345679013,309.83461971828876L933.9444444444445,321.4213333333096L937.4876543209878,311.4864190099024L941.030864197531,284.95744M948.1172839506173,347.9552L951.6604938271605,302.2604229003696L955.2037037037038,277.6096L958.746913580247,287.3628423133472L962.2901234567902,268.3619854848768L965.8333333333334,287.646780198044L969.3765432098766,267.9314802438168L972.9197530864199,288.0705001569256L976.462962962963,260.3843861377968L980.0061728395062,264.4169290322328L983.5493827160494,259.51711451507515L987.0925925925926,244.3058474666904L990.6358024691359,253.269380925024L994.1790123456791,272.76800000000003M1026.0679012345681,357.21119999999996L1029.6111111111113,345.45084089894397L1033.1543209876545,300.4026021238688L1036.6975308641977,279.86703132296077L1040.2407407407409,279.052538107436L1043.783950617284,263.0855840175896L1047.3271604938273,251.9183764440608L1050.8703703703704,226.512675635192L1054.4135802469136,250.1264L1057.9567901234568,209.1782428059616L1061.5,267.9189042731856" stroke="#3366cc" stroke-width="1" fill-opacity="1" fill="none"></path></g></g></g><g><circle cx="200.5" cy="247.2206258448744" r="2.5" stroke="none" stroke-width="0" fill="#3366cc"></circle><circle cx="204.04320987654322" cy="284.30240000000003" r="2.5" stroke="none" stroke-width="0" fill="#3366cc"></circle><circle cx="207.58641975308643" cy="288.0048" r="2.5" stroke="none" stroke-width="0" fill="#3366cc"></circle><circle cx="211.12962962962962" cy="300.0356613204048" r="2.5" stroke="none" stroke-width="0" fill="#3366cc"></circle><circle cx="214.67283950617283" cy="278.660413793128" r="2.5" stroke="none" stroke-width="0" fill="#3366cc"></circle><circle cx="218.21604938271605" cy="279.8405333333096" r="2.5" stroke="none" stroke-width="0" fill="#3366cc"></circle><circle cx="225.30246913580248" cy="300.1088" r="2.5" stroke="none" stroke-width="0" fill="#3366cc"></circle><circle cx="228.84567901234567" cy="311.6432" r="2.5" stroke="none" stroke-width="0" fill="#3366cc"></circle><circle cx="232.38888888888889" cy="291.5648" r="2.5" stroke="none" stroke-width="0" fill="#3366cc"></circle><circle cx="235.9320987654321" cy="294.2704" r="2.5" stroke="none" stroke-width="0" fill="#3366cc"></circle><circle cx="239.47530864197532" cy="262.0882599528376" r="2.5" stroke="none" stroke-width="0" fill="#3366cc"></circle><circle cx="246.56172839506172" cy="300.4612040403688" r="2.5" stroke="none" stroke-width="0" fill="#3366cc"></circle><circle cx="250.10493827160494" cy="260.6210382715856" r="2.5" stroke="none" stroke-width="0" fill="#3366cc"></circle><circle cx="253.64814814814815" cy="270.6794666666904" r="2.5" stroke="none" stroke-width="0" fill="#3366cc"></circle><circle cx="260.7345679012346" cy="294.60807943778957" r="2.5" stroke="none" stroke-width="0" fill="#3366cc"></circle><circle cx="264.27777777777777" cy="257.6741573904816" r="2.5" stroke="none" stroke-width="0" fill="#3366cc"></circle><circle cx="267.820987654321" cy="323.7472" r="2.5" stroke="none" stroke-width="0" fill="#3366cc"></circle><circle cx="271.3641975308642" cy="258.7874909008288" r="2.5" stroke="none" stroke-width="0" fill="#3366cc"></circle><circle cx="281.9938271604938" cy="276.8335189780664" r="2.5" stroke="none" stroke-width="0" fill="#3366cc"></circle><circle cx="285.53703703703707" cy="267.0590084105472" r="2.5" stroke="none" stroke-width="0" fill="#3366cc"></circle><circle cx="289.08024691358025" cy="238.3407362834504" r="2.5" stroke="none" stroke-width="0" fill="#3366cc"></circle><circle cx="292.62345679012344" cy="256.0597333333096" r="2.5" stroke="none" stroke-width="0" fill="#3366cc"></circle><circle cx="296.1666666666667" cy="223.9348634690184" r="2.5" stroke="none" stroke-width="0" fill="#3366cc"></circle><circle cx="328.05555555555554" cy="262.5745333333096" r="2.5" stroke="none" stroke-width="0" fill="#3366cc"></circle><circle cx="331.5987654320988" cy="273.3376" r="2.5" stroke="none" stroke-width="0" fill="#3366cc"></circle><circle cx="335.141975308642" cy="273.3376" r="2.5" stroke="none" stroke-width="0" fill="#3366cc"></circle><circle cx="338.6851851851852" cy="278.712847524756" r="2.5" stroke="none" stroke-width="0" fill="#3366cc"></circle><circle cx="342.2283950617284" cy="282.024" r="2.5" stroke="none" stroke-width="0" fill="#3366cc"></circle><circle cx="345.7716049382716" cy="281.0272" r="2.5" stroke="none" stroke-width="0" fill="#3366cc"></circle><circle cx="349.31481481481484" cy="275.48926005730004" r="2.5" stroke="none" stroke-width="0" fill="#3366cc"></circle><circle cx="352.858024691358" cy="228.545394829048" r="2.5" stroke="none" stroke-width="0" fill="#3366cc"></circle><circle cx="359.94444444444446" cy="225.831400888032" r="2.5" stroke="none" stroke-width="0" fill="#3366cc"></circle><circle cx="363.48765432098764" cy="214.31279999999998" r="2.5" stroke="none" stroke-width="0" fill="#3366cc"></circle><circle cx="367.0308641975309" cy="227.5099224574848" r="2.5" stroke="none" stroke-width="0" fill="#3366cc"></circle><circle cx="370.5740740740741" cy="225.0303002525992" r="2.5" stroke="none" stroke-width="0" fill="#3366cc"></circle><circle cx="377.6604938271605" cy="242.7891678378032" r="2.5" stroke="none" stroke-width="0" fill="#3366cc"></circle><circle cx="384.74691358024694" cy="235.683404255304" r="2.5" stroke="none" stroke-width="0" fill="#3366cc"></circle><circle cx="388.2901234567901" cy="274.0672788456528" r="2.5" stroke="none" stroke-width="0" fill="#3366cc"></circle><circle cx="391.83333333333337" cy="255.4358857142552" r="2.5" stroke="none" stroke-width="0" fill="#3366cc"></circle><circle cx="402.462962962963" cy="260.80596389423283" r="2.5" stroke="none" stroke-width="0" fill="#3366cc"></circle><circle cx="406.0061728395062" cy="263.04519267012245" r="2.5" stroke="none" stroke-width="0" fill="#3366cc"></circle><circle cx="409.5493827160494" cy="217.07326578122797" r="2.5" stroke="none" stroke-width="0" fill="#3366cc"></circle><circle cx="413.0925925925926" cy="218.95504" r="2.5" stroke="none" stroke-width="0" fill="#3366cc"></circle><circle cx="416.6358024691358" cy="231.2863998120344" r="2.5" stroke="none" stroke-width="0" fill="#3366cc"></circle><circle cx="420.17901234567904" cy="240.7483428571632" r="2.5" stroke="none" stroke-width="0" fill="#3366cc"></circle><circle cx="423.72222222222223" cy="231.88276923075279" r="2.5" stroke="none" stroke-width="0" fill="#3366cc"></circle><circle cx="427.2654320987655" cy="210.711140619408" r="2.5" stroke="none" stroke-width="0" fill="#3366cc"></circle><circle cx="430.80864197530866" cy="235.038399718016" r="2.5" stroke="none" stroke-width="0" fill="#3366cc"></circle><circle cx="434.35185185185185" cy="214.316659060292" r="2.5" stroke="none" stroke-width="0" fill="#3366cc"></circle><circle cx="437.8950617283951" cy="262.6356923076704" r="2.5" stroke="none" stroke-width="0" fill="#3366cc"></circle><circle cx="441.4382716049383" cy="203.5774801790776" r="2.5" stroke="none" stroke-width="0" fill="#3366cc"></circle><circle cx="444.9814814814815" cy="204.73245823891438" r="2.5" stroke="none" stroke-width="0" fill="#3366cc"></circle><circle cx="448.5246913580247" cy="199.03525157655844" r="2.5" stroke="none" stroke-width="0" fill="#3366cc"></circle><circle cx="452.0679012345679" cy="194.43857701186317" r="2.5" stroke="none" stroke-width="0" fill="#3366cc"></circle><circle cx="455.61111111111114" cy="202.57576177606484" r="2.5" stroke="none" stroke-width="0" fill="#3366cc"></circle><circle cx="459.15432098765433" cy="182.3072623651184" r="2.5" stroke="none" stroke-width="0" fill="#3366cc"></circle><circle cx="462.6975308641976" cy="214.9746962962752" r="2.5" stroke="none" stroke-width="0" fill="#3366cc"></circle><circle cx="466.24074074074076" cy="200.27994239382082" r="2.5" stroke="none" stroke-width="0" fill="#3366cc"></circle><circle cx="473.3271604938272" cy="277.6808" r="2.5" stroke="none" stroke-width="0" fill="#3366cc"></circle><circle cx="476.8703703703704" cy="257.9584" r="2.5" stroke="none" stroke-width="0" fill="#3366cc"></circle><circle cx="483.9567901234568" cy="255.46041473376638" r="2.5" stroke="none" stroke-width="0" fill="#3366cc"></circle><circle cx="487.5" cy="260.664" r="2.5" stroke="none" stroke-width="0" fill="#3366cc"></circle><circle cx="491.04320987654324" cy="228.3013538307448" r="2.5" stroke="none" stroke-width="0" fill="#3366cc"></circle><circle cx="494.58641975308643" cy="270.0624" r="2.5" stroke="none" stroke-width="0" fill="#3366cc"></circle><circle cx="498.1296296296297" cy="230.5290875516832" r="2.5" stroke="none" stroke-width="0" fill="#3366cc"></circle><circle cx="501.67283950617286" cy="234.08312634243438" r="2.5" stroke="none" stroke-width="0" fill="#3366cc"></circle><circle cx="505.21604938271605" cy="244.2775794911056" r="2.5" stroke="none" stroke-width="0" fill="#3366cc"></circle><circle cx="508.7592592592593" cy="233.854219105912" r="2.5" stroke="none" stroke-width="0" fill="#3366cc"></circle><circle cx="515.8456790123457" cy="261.64412487847596" r="2.5" stroke="none" stroke-width="0" fill="#3366cc"></circle><circle cx="519.3888888888889" cy="271.919787685128" r="2.5" stroke="none" stroke-width="0" fill="#3366cc"></circle><circle cx="522.9320987654321" cy="239.01921962514078" r="2.5" stroke="none" stroke-width="0" fill="#3366cc"></circle><circle cx="526.4753086419753" cy="307.5136" r="2.5" stroke="none" stroke-width="0" fill="#3366cc"></circle><circle cx="530.0185185185185" cy="263.4953014279728" r="2.5" stroke="none" stroke-width="0" fill="#3366cc"></circle><circle cx="533.5617283950618" cy="259.038726410644" r="2.5" stroke="none" stroke-width="0" fill="#3366cc"></circle><circle cx="537.104938271605" cy="255.4645793635256" r="2.5" stroke="none" stroke-width="0" fill="#3366cc"></circle><circle cx="540.6481481481482" cy="255.5318825596152" r="2.5" stroke="none" stroke-width="0" fill="#3366cc"></circle><circle cx="544.1913580246915" cy="309.08" r="2.5" stroke="none" stroke-width="0" fill="#3366cc"></circle><circle cx="547.7345679012346" cy="260.37445443569925" r="2.5" stroke="none" stroke-width="0" fill="#3366cc"></circle><circle cx="551.2777777777778" cy="298.310110254184" r="2.5" stroke="none" stroke-width="0" fill="#3366cc"></circle><circle cx="554.820987654321" cy="257.68143689806163" r="2.5" stroke="none" stroke-width="0" fill="#3366cc"></circle><circle cx="558.3641975308642" cy="264.80064172129596" r="2.5" stroke="none" stroke-width="0" fill="#3366cc"></circle><circle cx="561.9074074074074" cy="267.0837183258336" r="2.5" stroke="none" stroke-width="0" fill="#3366cc"></circle><circle cx="565.4506172839506" cy="263.07401598092963" r="2.5" stroke="none" stroke-width="0" fill="#3366cc"></circle><circle cx="572.5370370370371" cy="304.800585390064" r="2.5" stroke="none" stroke-width="0" fill="#3366cc"></circle><circle cx="576.0802469135803" cy="310.0768" r="2.5" stroke="none" stroke-width="0" fill="#3366cc"></circle><circle cx="579.6234567901236" cy="274.2121566028048" r="2.5" stroke="none" stroke-width="0" fill="#3366cc"></circle><circle cx="586.7098765432099" cy="272.3288009718688" r="2.5" stroke="none" stroke-width="0" fill="#3366cc"></circle><circle cx="590.2530864197531" cy="276.81152962012" r="2.5" stroke="none" stroke-width="0" fill="#3366cc"></circle><circle cx="593.7962962962963" cy="268.7752834561824" r="2.5" stroke="none" stroke-width="0" fill="#3366cc"></circle><circle cx="597.3395061728395" cy="256.83289600508635" r="2.5" stroke="none" stroke-width="0" fill="#3366cc"></circle><circle cx="600.8827160493827" cy="288.4235205984072" r="2.5" stroke="none" stroke-width="0" fill="#3366cc"></circle><circle cx="604.425925925926" cy="262.0989959116232" r="2.5" stroke="none" stroke-width="0" fill="#3366cc"></circle><circle cx="607.9691358024692" cy="283.385252462432" r="2.5" stroke="none" stroke-width="0" fill="#3366cc"></circle><circle cx="611.5123456790124" cy="245.69473280683042" r="2.5" stroke="none" stroke-width="0" fill="#3366cc"></circle><circle cx="615.0555555555557" cy="272.4832" r="2.5" stroke="none" stroke-width="0" fill="#3366cc"></circle><circle cx="618.5987654320988" cy="269.35040000000004" r="2.5" stroke="none" stroke-width="0" fill="#3366cc"></circle><circle cx="622.141975308642" cy="257.715387391784" r="2.5" stroke="none" stroke-width="0" fill="#3366cc"></circle><circle cx="625.6851851851852" cy="264.758" r="2.5" stroke="none" stroke-width="0" fill="#3366cc"></circle><circle cx="629.2283950617284" cy="249.0774093983584" r="2.5" stroke="none" stroke-width="0" fill="#3366cc"></circle><circle cx="632.7716049382716" cy="319.1904" r="2.5" stroke="none" stroke-width="0" fill="#3366cc"></circle><circle cx="636.3148148148148" cy="273.2741957169784" r="2.5" stroke="none" stroke-width="0" fill="#3366cc"></circle><circle cx="639.8580246913581" cy="320.4514779106496" r="2.5" stroke="none" stroke-width="0" fill="#3366cc"></circle><circle cx="643.4012345679013" cy="311.58624" r="2.5" stroke="none" stroke-width="0" fill="#3366cc"></circle><circle cx="650.4876543209878" cy="304.778071075372" r="2.5" stroke="none" stroke-width="0" fill="#3366cc"></circle><circle cx="654.030864197531" cy="290.1197560916168" r="2.5" stroke="none" stroke-width="0" fill="#3366cc"></circle><circle cx="657.5740740740741" cy="304.9504" r="2.5" stroke="none" stroke-width="0" fill="#3366cc"></circle><circle cx="661.1172839506173" cy="265.2268235229192" r="2.5" stroke="none" stroke-width="0" fill="#3366cc"></circle><circle cx="664.6604938271605" cy="312.48922352939917" r="2.5" stroke="none" stroke-width="0" fill="#3366cc"></circle><circle cx="668.2037037037037" cy="288.254" r="2.5" stroke="none" stroke-width="0" fill="#3366cc"></circle><circle cx="675.2901234567902" cy="375.9368" r="2.5" stroke="none" stroke-width="0" fill="#3366cc"></circle><circle cx="678.8333333333334" cy="307.1836816574056" r="2.5" stroke="none" stroke-width="0" fill="#3366cc"></circle><circle cx="682.3765432098766" cy="298.20677545893125" r="2.5" stroke="none" stroke-width="0" fill="#3366cc"></circle><circle cx="685.9197530864199" cy="279.0355653799512" r="2.5" stroke="none" stroke-width="0" fill="#3366cc"></circle><circle cx="689.462962962963" cy="295.9740649417952" r="2.5" stroke="none" stroke-width="0" fill="#3366cc"></circle><circle cx="693.0061728395062" cy="280.3747638912272" r="2.5" stroke="none" stroke-width="0" fill="#3366cc"></circle><circle cx="696.5493827160494" cy="279.8133660914976" r="2.5" stroke="none" stroke-width="0" fill="#3366cc"></circle><circle cx="700.0925925925926" cy="283.0036025698008" r="2.5" stroke="none" stroke-width="0" fill="#3366cc"></circle><circle cx="707.179012345679" cy="359.3472" r="2.5" stroke="none" stroke-width="0" fill="#3366cc"></circle><circle cx="714.2654320987655" cy="354.3632" r="2.5" stroke="none" stroke-width="0" fill="#3366cc"></circle><circle cx="717.8086419753087" cy="323.249899613868" r="2.5" stroke="none" stroke-width="0" fill="#3366cc"></circle><circle cx="721.3518518518518" cy="347.67040000000003" r="2.5" stroke="none" stroke-width="0" fill="#3366cc"></circle><circle cx="724.8950617283951" cy="307.950010382516" r="2.5" stroke="none" stroke-width="0" fill="#3366cc"></circle><circle cx="728.4382716049383" cy="292.8424185640672" r="2.5" stroke="none" stroke-width="0" fill="#3366cc"></circle><circle cx="731.9814814814815" cy="301.2453747486304" r="2.5" stroke="none" stroke-width="0" fill="#3366cc"></circle><circle cx="735.5246913580247" cy="288.4381326305112" r="2.5" stroke="none" stroke-width="0" fill="#3366cc"></circle><circle cx="739.0679012345679" cy="302.672" r="2.5" stroke="none" stroke-width="0" fill="#3366cc"></circle><circle cx="756.783950617284" cy="343.9499089704272" r="2.5" stroke="none" stroke-width="0" fill="#3366cc"></circle><circle cx="760.3271604938273" cy="325.456" r="2.5" stroke="none" stroke-width="0" fill="#3366cc"></circle><circle cx="763.8703703703704" cy="311.0321242718336" r="2.5" stroke="none" stroke-width="0" fill="#3366cc"></circle><circle cx="767.4135802469136" cy="285.7341886360672" r="2.5" stroke="none" stroke-width="0" fill="#3366cc"></circle><circle cx="770.9567901234568" cy="310.36159999999995" r="2.5" stroke="none" stroke-width="0" fill="#3366cc"></circle><circle cx="774.5" cy="276.33124140783923" r="2.5" stroke="none" stroke-width="0" fill="#3366cc"></circle><circle cx="781.5864197530865" cy="280.3810649938256" r="2.5" stroke="none" stroke-width="0" fill="#3366cc"></circle><circle cx="785.1296296296297" cy="308.29679999999996" r="2.5" stroke="none" stroke-width="0" fill="#3366cc"></circle><circle cx="788.6728395061729" cy="308.5104" r="2.5" stroke="none" stroke-width="0" fill="#3366cc"></circle><circle cx="792.216049382716" cy="293.2052822919136" r="2.5" stroke="none" stroke-width="0" fill="#3366cc"></circle><circle cx="795.7592592592594" cy="305.155158302476" r="2.5" stroke="none" stroke-width="0" fill="#3366cc"></circle><circle cx="799.3024691358025" cy="353.6512" r="2.5" stroke="none" stroke-width="0" fill="#3366cc"></circle><circle cx="802.8456790123457" cy="308.9376" r="2.5" stroke="none" stroke-width="0" fill="#3366cc"></circle><circle cx="806.3888888888889" cy="280.36750828164236" r="2.5" stroke="none" stroke-width="0" fill="#3366cc"></circle><circle cx="809.9320987654321" cy="276.47040000000004" r="2.5" stroke="none" stroke-width="0" fill="#3366cc"></circle><circle cx="813.4753086419754" cy="278.176468137168" r="2.5" stroke="none" stroke-width="0" fill="#3366cc"></circle><circle cx="817.0185185185186" cy="295.52996944872405" r="2.5" stroke="none" stroke-width="0" fill="#3366cc"></circle><circle cx="820.5617283950618" cy="338.25739056605516" r="2.5" stroke="none" stroke-width="0" fill="#3366cc"></circle><circle cx="824.104938271605" cy="307.5136" r="2.5" stroke="none" stroke-width="0" fill="#3366cc"></circle><circle cx="841.820987654321" cy="312.3946327632128" r="2.5" stroke="none" stroke-width="0" fill="#3366cc"></circle><circle cx="845.3641975308642" cy="359.2820590648912" r="2.5" stroke="none" stroke-width="0" fill="#3366cc"></circle><circle cx="848.9074074074075" cy="348.1734242209888" r="2.5" stroke="none" stroke-width="0" fill="#3366cc"></circle><circle cx="852.4506172839507" cy="347.67040000000003" r="2.5" stroke="none" stroke-width="0" fill="#3366cc"></circle><circle cx="855.9938271604939" cy="315.4851555694696" r="2.5" stroke="none" stroke-width="0" fill="#3366cc"></circle><circle cx="863.0802469135803" cy="323.0331091190128" r="2.5" stroke="none" stroke-width="0" fill="#3366cc"></circle><circle cx="866.6234567901236" cy="290.8528" r="2.5" stroke="none" stroke-width="0" fill="#3366cc"></circle><circle cx="873.7098765432099" cy="382.1312" r="2.5" stroke="none" stroke-width="0" fill="#3366cc"></circle><circle cx="877.2530864197531" cy="327.0224" r="2.5" stroke="none" stroke-width="0" fill="#3366cc"></circle><circle cx="880.7962962962963" cy="286.1626749524264" r="2.5" stroke="none" stroke-width="0" fill="#3366cc"></circle><circle cx="884.3395061728396" cy="294.2704" r="2.5" stroke="none" stroke-width="0" fill="#3366cc"></circle><circle cx="887.8827160493828" cy="270.6322840262696" r="2.5" stroke="none" stroke-width="0" fill="#3366cc"></circle><circle cx="891.425925925926" cy="307.94079999999997" r="2.5" stroke="none" stroke-width="0" fill="#3366cc"></circle><circle cx="894.9691358024692" cy="302.2554445887512" r="2.5" stroke="none" stroke-width="0" fill="#3366cc"></circle><circle cx="898.5123456790124" cy="307.51981389690957" r="2.5" stroke="none" stroke-width="0" fill="#3366cc"></circle><circle cx="902.0555555555557" cy="291.57957370480483" r="2.5" stroke="none" stroke-width="0" fill="#3366cc"></circle><circle cx="905.5987654320988" cy="269.6997920046824" r="2.5" stroke="none" stroke-width="0" fill="#3366cc"></circle><circle cx="909.141975308642" cy="292.0735313963984" r="2.5" stroke="none" stroke-width="0" fill="#3366cc"></circle><circle cx="912.6851851851852" cy="273.78264760602883" r="2.5" stroke="none" stroke-width="0" fill="#3366cc"></circle><circle cx="916.2283950617284" cy="324.8864" r="2.5" stroke="none" stroke-width="0" fill="#3366cc"></circle><circle cx="919.7716049382717" cy="265.1943957892928" r="2.5" stroke="none" stroke-width="0" fill="#3366cc"></circle><circle cx="923.3148148148149" cy="259.5835802400328" r="2.5" stroke="none" stroke-width="0" fill="#3366cc"></circle><circle cx="926.8580246913581" cy="271.904277403436" r="2.5" stroke="none" stroke-width="0" fill="#3366cc"></circle><circle cx="930.4012345679013" cy="309.83461971828876" r="2.5" stroke="none" stroke-width="0" fill="#3366cc"></circle><circle cx="933.9444444444445" cy="321.4213333333096" r="2.5" stroke="none" stroke-width="0" fill="#3366cc"></circle><circle cx="937.4876543209878" cy="311.4864190099024" r="2.5" stroke="none" stroke-width="0" fill="#3366cc"></circle><circle cx="941.030864197531" cy="284.95744" r="2.5" stroke="none" stroke-width="0" fill="#3366cc"></circle><circle cx="948.1172839506173" cy="347.9552" r="2.5" stroke="none" stroke-width="0" fill="#3366cc"></circle><circle cx="951.6604938271605" cy="302.2604229003696" r="2.5" stroke="none" stroke-width="0" fill="#3366cc"></circle><circle cx="955.2037037037038" cy="277.6096" r="2.5" stroke="none" stroke-width="0" fill="#3366cc"></circle><circle cx="958.746913580247" cy="287.3628423133472" r="2.5" stroke="none" stroke-width="0" fill="#3366cc"></circle><circle cx="962.2901234567902" cy="268.3619854848768" r="2.5" stroke="none" stroke-width="0" fill="#3366cc"></circle><circle cx="965.8333333333334" cy="287.646780198044" r="2.5" stroke="none" stroke-width="0" fill="#3366cc"></circle><circle cx="969.3765432098766" cy="267.9314802438168" r="2.5" stroke="none" stroke-width="0" fill="#3366cc"></circle><circle cx="972.9197530864199" cy="288.0705001569256" r="2.5" stroke="none" stroke-width="0" fill="#3366cc"></circle><circle cx="976.462962962963" cy="260.3843861377968" r="2.5" stroke="none" stroke-width="0" fill="#3366cc"></circle><circle cx="980.0061728395062" cy="264.4169290322328" r="2.5" stroke="none" stroke-width="0" fill="#3366cc"></circle><circle cx="983.5493827160494" cy="259.51711451507515" r="2.5" stroke="none" stroke-width="0" fill="#3366cc"></circle><circle cx="987.0925925925926" cy="244.3058474666904" r="2.5" stroke="none" stroke-width="0" fill="#3366cc"></circle><circle cx="990.6358024691359" cy="253.269380925024" r="2.5" stroke="none" stroke-width="0" fill="#3366cc"></circle><circle cx="994.1790123456791" cy="272.76800000000003" r="2.5" stroke="none" stroke-width="0" fill="#3366cc"></circle><circle cx="1001.2654320987655" cy="269.7206226593824" r="2.5" stroke="none" stroke-width="0" fill="#3366cc"></circle><circle cx="1026.0679012345681" cy="357.21119999999996" r="2.5" stroke="none" stroke-width="0" fill="#3366cc"></circle><circle cx="1029.6111111111113" cy="345.45084089894397" r="2.5" stroke="none" stroke-width="0" fill="#3366cc"></circle><circle cx="1033.1543209876545" cy="300.4026021238688" r="2.5" stroke="none" stroke-width="0" fill="#3366cc"></circle><circle cx="1036.6975308641977" cy="279.86703132296077" r="2.5" stroke="none" stroke-width="0" fill="#3366cc"></circle><circle cx="1040.2407407407409" cy="279.052538107436" r="2.5" stroke="none" stroke-width="0" fill="#3366cc"></circle><circle cx="1043.783950617284" cy="263.0855840175896" r="2.5" stroke="none" stroke-width="0" fill="#3366cc"></circle><circle cx="1047.3271604938273" cy="251.9183764440608" r="2.5" stroke="none" stroke-width="0" fill="#3366cc"></circle><circle cx="1050.8703703703704" cy="226.512675635192" r="2.5" stroke="none" stroke-width="0" fill="#3366cc"></circle><circle cx="1054.4135802469136" cy="250.1264" r="2.5" stroke="none" stroke-width="0" fill="#3366cc"></circle><circle cx="1057.9567901234568" cy="209.1782428059616" r="2.5" stroke="none" stroke-width="0" fill="#3366cc"></circle><circle cx="1061.5" cy="267.9189042731856" r="2.5" stroke="none" stroke-width="0" fill="#3366cc"></circle></g><g><g><text text-anchor="middle" x="200.9429012345679" y="489.75" font-family="Arial" font-size="15" stroke="none" stroke-width="0" fill="#444444">January 2020</text></g><g><text text-anchor="middle" x="310.7824074074074" y="489.75" font-family="Arial" font-size="15" stroke="none" stroke-width="0" fill="#444444">February 2020</text></g><g><text text-anchor="middle" x="413.5354938271605" y="489.75" font-family="Arial" font-size="15" stroke="none" stroke-width="0" fill="#444444">March 2020</text></g><g><text text-anchor="middle" x="523.375" y="489.75" font-family="Arial" font-size="15" stroke="none" stroke-width="0" fill="#444444">April 2020</text></g><g><text text-anchor="middle" x="629.6712962962963" y="489.75" font-family="Arial" font-size="15" stroke="none" stroke-width="0" fill="#444444">May 2020</text></g><g><text text-anchor="middle" x="739.5108024691358" y="489.75" font-family="Arial" font-size="15" stroke="none" stroke-width="0" fill="#444444">June 2020</text></g><g><text text-anchor="middle" x="845.8070987654321" y="489.75" font-family="Arial" font-size="15" stroke="none" stroke-width="0" fill="#444444">July 2020</text></g><g><text text-anchor="middle" x="955.6466049382717" y="489.75" font-family="Arial" font-size="15" stroke="none" stroke-width="0" fill="#444444">August 2020</text></g><g><text text-anchor="middle" x="1037.1404320987654" y="489.75" font-family="Arial" font-size="15" stroke="none" stroke-width="0" fill="#444444">24</text></g><g><text text-anchor="end" x="185" y="472.75" font-family="Arial" font-size="15" stroke="none" stroke-width="0" fill="#444444">0</text></g><g><text text-anchor="end" x="185" y="401.55" font-family="Arial" font-size="15" stroke="none" stroke-width="0" fill="#444444">10</text></g><g><text text-anchor="end" x="185" y="330.35" font-family="Arial" font-size="15" stroke="none" stroke-width="0" fill="#444444">20</text></g><g><text text-anchor="end" x="185" y="259.15" font-family="Arial" font-size="15" stroke="none" stroke-width="0" fill="#444444">30</text></g><g><text text-anchor="end" x="185" y="187.95" font-family="Arial" font-size="15" stroke="none" stroke-width="0" fill="#444444">40</text></g><g><text text-anchor="end" x="185" y="116.75" font-family="Arial" font-size="15" stroke="none" stroke-width="0" fill="#444444">50</text></g></g></g><g><g><text text-anchor="middle" x="631" y="540.25" font-family="Arial" font-size="15" font-style="italic" stroke="none" stroke-width="0" fill="#222222">Ano</text><rect x="200" y="527.5" width="862" height="15" stroke="none" stroke-width="0" fill-opacity="0" fill="#ffffff"></rect></g><g><text text-anchor="middle" x="89.25" y="289.5" font-family="Arial" font-size="15" font-style="italic" transform="rotate(-90 89.25 289.5)" stroke="none" stroke-width="0" fill="#222222">Temperatura do solo (ºC)</text><path d="M76.49999999999999,468L76.50000000000001,111L91.50000000000001,111L91.49999999999999,468Z" stroke="none" stroke-width="0" fill-opacity="0" fill="#ffffff"></path></g></g><g></g></svg>