<svg width="1261" height="498" aria-label="A chart." style="overflow: hidden;"><defs id="_ABSTRACT_RENDERER_ID_174"><clipPath id="_ABSTRACT_RENDERER_ID_175"><rect x="183" y="95" width="895" height="308"></rect></clipPath></defs><rect x="0" y="0" width="1261" height="498" stroke="none" stroke-width="0" fill="#ffffff"></rect><g><text text-anchor="start" x="183" y="68.75" font-family="Arial" font-size="15" font-weight="bold" stroke="none" stroke-width="0" fill="#000000">Maringá</text><rect x="183" y="56" width="895" height="15" stroke="none" stroke-width="0" fill-opacity="0" fill="#ffffff"></rect></g><g><rect x="1093" y="95" width="153" height="15" stroke="none" stroke-width="0" fill-opacity="0" fill="#ffffff"></rect><g column-id="LST_Day_1km"><rect x="1093" y="95" width="153" height="15" stroke="none" stroke-width="0" fill-opacity="0" fill="#ffffff"></rect><g><text text-anchor="start" x="1129" y="107.75" font-family="Arial" font-size="15" stroke="none" stroke-width="0" fill="#222222">LST_Day_1km</text></g><path d="M1093,102.5L1123,102.5" stroke="#3366cc" stroke-width="1" fill-opacity="1" fill="none"></path><circle cx="1108" cy="102.5" r="2.5" stroke="none" stroke-width="0" fill="#3366cc"></circle></g></g><g><rect x="183" y="95" width="895" height="308" stroke="none" stroke-width="0" fill-opacity="0" fill="#ffffff"></rect><g clip-path="url(https://code.earthengine.google.com/#_ABSTRACT_RENDERER_ID_175)"><g><rect x="183" y="95" width="1" height="308" stroke="none" stroke-width="0" fill="#cccccc"></rect><rect x="259" y="95" width="1" height="308" stroke="none" stroke-width="0" fill="#cccccc"></rect><rect x="328" y="95" width="1" height="308" stroke="none" stroke-width="0" fill="#cccccc"></rect><rect x="404" y="95" width="1" height="308" stroke="none" stroke-width="0" fill="#cccccc"></rect><rect x="478" y="95" width="1" height="308" stroke="none" stroke-width="0" fill="#cccccc"></rect><rect x="554" y="95" width="1" height="308" stroke="none" stroke-width="0" fill="#cccccc"></rect><rect x="628" y="95" width="1" height="308" stroke="none" stroke-width="0" fill="#cccccc"></rect><rect x="704" y="95" width="1" height="308" stroke="none" stroke-width="0" fill="#cccccc"></rect><rect x="780" y="95" width="1" height="308" stroke="none" stroke-width="0" fill="#cccccc"></rect><rect x="854" y="95" width="1" height="308" stroke="none" stroke-width="0" fill="#cccccc"></rect><rect x="930" y="95" width="1" height="308" stroke="none" stroke-width="0" fill="#cccccc"></rect><rect x="1004" y="95" width="1" height="308" stroke="none" stroke-width="0" fill="#cccccc"></rect><rect x="183" y="402" width="895" height="1" stroke="none" stroke-width="0" fill="#cccccc"></rect><rect x="183" y="341" width="895" height="1" stroke="none" stroke-width="0" fill="#cccccc"></rect><rect x="183" y="279" width="895" height="1" stroke="none" stroke-width="0" fill="#cccccc"></rect><rect x="183" y="218" width="895" height="1" stroke="none" stroke-width="0" fill="#cccccc"></rect><rect x="183" y="156" width="895" height="1" stroke="none" stroke-width="0" fill="#cccccc"></rect><rect x="183" y="95" width="895" height="1" stroke="none" stroke-width="0" fill="#cccccc"></rect><rect x="183" y="371" width="895" height="1" stroke="none" stroke-width="0" fill="#ebebeb"></rect><rect x="183" y="310" width="895" height="1" stroke="none" stroke-width="0" fill="#ebebeb"></rect><rect x="183" y="249" width="895" height="1" stroke="none" stroke-width="0" fill="#ebebeb"></rect><rect x="183" y="187" width="895" height="1" stroke="none" stroke-width="0" fill="#ebebeb"></rect><rect x="183" y="126" width="895" height="1" stroke="none" stroke-width="0" fill="#ebebeb"></rect></g><g><rect x="183" y="402" width="895" height="1" stroke="none" stroke-width="0" fill="#333333"></rect></g><g><g><path d="M183.5,255.8154L185.95604395604397,257.1662L188.4120879120879,243.04420000000002L190.86813186813185,201.245855852555M208.06043956043956,204.91576311880362L210.5164835164835,235.6762L212.97252747252747,219.469675772828L215.42857142857144,210.2645412458728L217.8846153846154,216.3966L220.34065934065933,215.58688750000002L222.7967032967033,224.0102L225.25274725274727,206.3116398411858M230.16483516483515,223.21200000000002L232.62087912087912,225.37117096611962L235.0769230769231,197.354274576292L237.53296703296704,190.472904509208M247.35714285714286,208.7785422874866L249.8131868131868,218.6877937547572L252.26923076923077,177.83243649583804L254.72527472527474,181.10322500475502M259.6373626373626,204.09966206896343L262.0934065934066,215.7826L264.54945054945057,184.91627693277982M269.46153846153845,229.90460000000002L271.9175824175824,200.1949247083968L274.3736263736264,203.8486727272504L276.8296703296703,175.6651989098962L279.2857142857143,198.14699931092778L281.74175824175825,197.1549271629518M296.47802197802196,224.8698L298.9340659340659,202.6066000342134L301.3901098901099,254.9558L303.84615384615387,250.4122L306.30219780219784,239.97420000000002L308.75824175824175,204.02611578944462L311.2142857142857,204.317021356258L313.6703296703297,195.65495924695142L316.1263736263736,180.26065333335382L318.5824175824176,274.788M330.8626373626374,205.4616589027832L333.31868131868134,206.16601752154202L335.77472527472526,205.79705325216503L338.2307692307692,204.9088099215466M348.05494505494505,240.43031428574062L350.510989010989,222.8249948901134M377.5274725274725,246.4212300832984L379.9835164835165,248.5097415618776L382.4395604395604,210.8779871195916L384.89560439560444,210.45224792156762L387.35164835164835,200.0664611019096L389.8076923076923,197.76817465720023L392.2637362637363,217.36556344761883L394.7197802197802,209.30144539371562L397.1758241758242,235.30780000000001L399.63186813186815,204.7634729460614M421.7362637362637,234.1917243336162L424.19230769230774,251.23086666664622L426.64835164835165,235.43734928730441L429.1043956043956,223.513870010966L431.5604395604396,268.0135027632762L434.0164835164835,244.2158081566366L436.4725274725275,249.7982L438.92857142857144,212.01276118419761M443.84065934065933,209.44959607264542L446.2967032967033,210.4250444952432L448.75274725274727,218.85594367772882L451.20879120879124,223.3183599497132M461.03296703296706,217.751724434849L463.489010989011,218.1069819335762L465.94505494505495,223.5287180378448L468.4010989010989,226.5818555170602M473.3131868131868,245.4000311568838L475.7692307692308,255.01906060604202M480.6813186813187,273.3758L483.1373626373626,285.9014L485.5934065934066,220.43954463939863L488.04945054945057,225.91551875000002L490.50549450549454,220.0795980148122L492.96153846153845,248.8944784964518L495.4175824175824,234.993297023459M510.1538461538462,276.525052619178L512.6098901098901,255.2598811604144L515.065934065934,277.2163086855302L517.521978021978,251.1743692530438L519.978021978022,255.2589735557454L522.434065934066,246.4708039215826L524.8901098901099,239.67545360486483L527.3461538461538,259.131L529.8021978021977,265.70848018934385M534.7142857142858,293.2284666666462L537.1703296703297,296.8306L539.6263736263736,267.54531075817783L542.0824175824175,249.30700000000002L544.5384615384615,263.79740000000004L546.9945054945056,259.6117711029184L549.4505494505495,257.9954853556714L551.9065934065934,243.3874034095892M561.7307692307693,267.90687826975966L564.1868131868132,275.9546L566.6428571428571,272.1478L569.098901098901,251.2034241555986L571.554945054945,263.3062L574.0109890109891,258.32330278142217L576.467032967033,281.235L578.9230769230769,252.74540000000002L581.3791208791208,281.0460484235868L583.8351648351648,261.462989098979L586.2912087912089,263.5518L588.7472527472528,250.7795704522908L591.2032967032967,234.9761295233484L593.6593406593406,260.6046L596.1153846153846,247.25866481352782L598.5714285714286,239.11460000000002L601.0274725274726,257.6676333333538L603.4835164835165,247.15205806448841L605.9395604395604,255.64192406014402L608.3956043956043,237.9591029075382L610.8516483516484,255.2626329535636L613.3076923076924,234.5716345607724M618.2197802197802,279.39300000000003L620.6758241758241,246.0487066666462L623.1318681318681,244.6816026462788L625.5879120879122,236.2253160959688L628.0439560439561,271.4418630696198M637.8681318681319,295.1114L640.3241758241759,317.7758564189484L642.7802197802198,289.0234830273236L645.2362637362637,294.5716150880446L647.6923076923076,260.7929678850496L650.1483516483516,273.25300000000004L652.6043956043957,245.38292517324902L655.0604395604396,325.1974L657.5164835164835,247.69493964418302L659.9725274725274,230.45010244747482L662.4285714285714,297.9358L664.8846153846155,268.64200258019423L667.3406593406594,305.7255069065854L669.7967032967033,267.2456973283622M674.7087912087912,258.3435367975126L677.1648351648352,283.5682L679.6208791208792,247.1870115556898L682.0769230769231,234.1374194283608L684.532967032967,234.1258834260986L686.9890109890109,260.95954318862744M691.901098901099,241.9490836895194L694.3571428571429,269.3234L696.8131868131868,241.2022L699.2692307692308,246.49204615385563L701.7252747252747,229.2938199712806L704.1813186813187,220.0785427240478L706.6373626373627,230.4879L709.0934065934066,270.6711102907842L711.5494505494505,294.743L714.0054945054945,259.5553540524604L716.4615384615385,234.58104498977482L718.9175824175825,226.2886644617922L721.3736263736264,221.55287532705083L723.8296703296703,221.4987769911662L726.2857142857143,225.3811940284808L728.7417582417582,221.67700000000002L731.1978021978022,193.9243042308594M736.1098901098901,233.8152027509086L738.5659340659341,241.5824537960752L741.021978021978,218.8528920115846L743.478021978022,207.06380000000001L745.934065934066,234.8751395682082L748.3901098901099,221.1598761569208L750.8461538461538,263.79740000000004L753.3021978021978,211.2442922408058L755.7582417582418,220.13945235313201L758.2142857142858,212.33287907813101L760.6703296703297,215.76628110910522L763.1263736263736,234.1919925073876L765.5824175824176,230.208696554254M770.4945054945055,199.7054484882842L772.9505494505495,219.95780000000002M797.5109890109891,178.9288073562312L799.967032967033,174.64460000000003L802.4230769230769,195.91356000000002L804.8791208791209,185.68636666664622L807.3351648351648,200.40627916355479L809.7912087912088,181.2764675256956L812.2472527472528,213.4349848589624L814.7032967032967,188.7783397308392L817.1593406593407,173.57520885496984L819.6153846153846,156.70000026704258L822.0714285714286,212.58980000000003M831.8956043956044,199.707299424256L834.3516483516484,213.51911547782902L836.8076923076924,213.9397842009794M841.7197802197802,224.9888939262088L844.1758241758242,184.1833914944462L846.6318681318681,207.39174945239023L849.0879120879121,151.90024576999824L851.5439560439561,203.07280000000003L854,144.80140237445238L856.4560439560439,178.94260000000003L858.9120879120879,156.5316L861.3681318681319,156.734868411323L863.8241758241759,155.98660707962702M871.1923076923077,206.941L873.6483516483516,160.3476800379976L876.1043956043956,151.66841171545062L878.5604395604396,164.35842257441104L881.0164835164835,135.20439148995723L883.4725274725275,133.47491530652582M888.3846153846154,160.54716000000002L890.8406593406594,196.6258L893.2967032967033,155.8920833979468L895.7527472527472,142.45088180101038L898.2087912087912,173.46162122175562M905.5769230769231,225.3643405417852L908.032967032967,201.6913L910.489010989011,138.83045830102662L912.945054945055,159.7495625431898L915.4010989010989,137.3233687070288L917.8571428571429,160.17584998703282L920.3131868131868,206.53910909093702L922.7692307692308,193.18207044475642L925.2252747252747,182.36124683929899L927.6813186813187,131.26955906742603M937.5054945054945,147.306211953797L939.9615384615385,155.7129333333538L942.4175824175825,232.4834L944.8736263736264,176.5275333333538M957.1538461538462,187.78361575972042L959.6098901098901,196.44491975352582M964.521978021978,220.4386317079112L966.978021978022,171.68534744340602L969.434065934066,212.69111L971.8901098901099,158.02184536593103L974.3461538461538,186.336114353708L976.8021978021978,148.8318388510826L979.2582417582418,168.7785869754874L981.7142857142858,185.83930420642022L984.1703296703297,167.30932440515522M998.9065934065934,221.01440088923323L1001.3626373626374,208.7335516370366L1003.8186813186813,246.48260000000002L1006.2747252747253,211.0136781695058M1016.0989010989011,216.6002969331592L1018.554945054945,225.82713978764662L1021.0109890109891,249.9373733333538M1028.3791208791208,234.92405L1030.835164835165,257.289L1033.2912087912086,217.979349368414M1055.3956043956046,245.40808193765503L1057.8516483516482,231.750022306446L1060.3076923076924,235.02988522684822L1062.7637362637363,209.62258389140442L1065.2197802197802,222.5017596652532L1067.6758241758243,208.7252539314376M1072.5879120879122,190.8946268511394L1075.043956043956,231.50495594532782L1077.5,223.3374953581374" stroke="#3366cc" stroke-width="1" fill-opacity="1" fill="none"></path></g></g></g><g><circle cx="183.5" cy="255.8154" r="2.5" stroke="none" stroke-width="0" fill="#3366cc"></circle><circle cx="185.95604395604397" cy="257.1662" r="2.5" stroke="none" stroke-width="0" fill="#3366cc"></circle><circle cx="188.4120879120879" cy="243.04420000000002" r="2.5" stroke="none" stroke-width="0" fill="#3366cc"></circle><circle cx="190.86813186813185" cy="201.245855852555" r="2.5" stroke="none" stroke-width="0" fill="#3366cc"></circle><circle cx="203.14835164835165" cy="244.783873570585" r="2.5" stroke="none" stroke-width="0" fill="#3366cc"></circle><circle cx="208.06043956043956" cy="204.91576311880362" r="2.5" stroke="none" stroke-width="0" fill="#3366cc"></circle><circle cx="210.5164835164835" cy="235.6762" r="2.5" stroke="none" stroke-width="0" fill="#3366cc"></circle><circle cx="212.97252747252747" cy="219.469675772828" r="2.5" stroke="none" stroke-width="0" fill="#3366cc"></circle><circle cx="215.42857142857144" cy="210.2645412458728" r="2.5" stroke="none" stroke-width="0" fill="#3366cc"></circle><circle cx="217.8846153846154" cy="216.3966" r="2.5" stroke="none" stroke-width="0" fill="#3366cc"></circle><circle cx="220.34065934065933" cy="215.58688750000002" r="2.5" stroke="none" stroke-width="0" fill="#3366cc"></circle><circle cx="222.7967032967033" cy="224.0102" r="2.5" stroke="none" stroke-width="0" fill="#3366cc"></circle><circle cx="225.25274725274727" cy="206.3116398411858" r="2.5" stroke="none" stroke-width="0" fill="#3366cc"></circle><circle cx="230.16483516483515" cy="223.21200000000002" r="2.5" stroke="none" stroke-width="0" fill="#3366cc"></circle><circle cx="232.62087912087912" cy="225.37117096611962" r="2.5" stroke="none" stroke-width="0" fill="#3366cc"></circle><circle cx="235.0769230769231" cy="197.354274576292" r="2.5" stroke="none" stroke-width="0" fill="#3366cc"></circle><circle cx="237.53296703296704" cy="190.472904509208" r="2.5" stroke="none" stroke-width="0" fill="#3366cc"></circle><circle cx="242.44505494505495" cy="230.3651" r="2.5" stroke="none" stroke-width="0" fill="#3366cc"></circle><circle cx="247.35714285714286" cy="208.7785422874866" r="2.5" stroke="none" stroke-width="0" fill="#3366cc"></circle><circle cx="249.8131868131868" cy="218.6877937547572" r="2.5" stroke="none" stroke-width="0" fill="#3366cc"></circle><circle cx="252.26923076923077" cy="177.83243649583804" r="2.5" stroke="none" stroke-width="0" fill="#3366cc"></circle><circle cx="254.72527472527474" cy="181.10322500475502" r="2.5" stroke="none" stroke-width="0" fill="#3366cc"></circle><circle cx="259.6373626373626" cy="204.09966206896343" r="2.5" stroke="none" stroke-width="0" fill="#3366cc"></circle><circle cx="262.0934065934066" cy="215.7826" r="2.5" stroke="none" stroke-width="0" fill="#3366cc"></circle><circle cx="264.54945054945057" cy="184.91627693277982" r="2.5" stroke="none" stroke-width="0" fill="#3366cc"></circle><circle cx="269.46153846153845" cy="229.90460000000002" r="2.5" stroke="none" stroke-width="0" fill="#3366cc"></circle><circle cx="271.9175824175824" cy="200.1949247083968" r="2.5" stroke="none" stroke-width="0" fill="#3366cc"></circle><circle cx="274.3736263736264" cy="203.8486727272504" r="2.5" stroke="none" stroke-width="0" fill="#3366cc"></circle><circle cx="276.8296703296703" cy="175.6651989098962" r="2.5" stroke="none" stroke-width="0" fill="#3366cc"></circle><circle cx="279.2857142857143" cy="198.14699931092778" r="2.5" stroke="none" stroke-width="0" fill="#3366cc"></circle><circle cx="281.74175824175825" cy="197.1549271629518" r="2.5" stroke="none" stroke-width="0" fill="#3366cc"></circle><circle cx="291.5659340659341" cy="224.2148666666462" r="2.5" stroke="none" stroke-width="0" fill="#3366cc"></circle><circle cx="296.47802197802196" cy="224.8698" r="2.5" stroke="none" stroke-width="0" fill="#3366cc"></circle><circle cx="298.9340659340659" cy="202.6066000342134" r="2.5" stroke="none" stroke-width="0" fill="#3366cc"></circle><circle cx="301.3901098901099" cy="254.9558" r="2.5" stroke="none" stroke-width="0" fill="#3366cc"></circle><circle cx="303.84615384615387" cy="250.4122" r="2.5" stroke="none" stroke-width="0" fill="#3366cc"></circle><circle cx="306.30219780219784" cy="239.97420000000002" r="2.5" stroke="none" stroke-width="0" fill="#3366cc"></circle><circle cx="308.75824175824175" cy="204.02611578944462" r="2.5" stroke="none" stroke-width="0" fill="#3366cc"></circle><circle cx="311.2142857142857" cy="204.317021356258" r="2.5" stroke="none" stroke-width="0" fill="#3366cc"></circle><circle cx="313.6703296703297" cy="195.65495924695142" r="2.5" stroke="none" stroke-width="0" fill="#3366cc"></circle><circle cx="316.1263736263736" cy="180.26065333335382" r="2.5" stroke="none" stroke-width="0" fill="#3366cc"></circle><circle cx="318.5824175824176" cy="274.788" r="2.5" stroke="none" stroke-width="0" fill="#3366cc"></circle><circle cx="330.8626373626374" cy="205.4616589027832" r="2.5" stroke="none" stroke-width="0" fill="#3366cc"></circle><circle cx="333.31868131868134" cy="206.16601752154202" r="2.5" stroke="none" stroke-width="0" fill="#3366cc"></circle><circle cx="335.77472527472526" cy="205.79705325216503" r="2.5" stroke="none" stroke-width="0" fill="#3366cc"></circle><circle cx="338.2307692307692" cy="204.9088099215466" r="2.5" stroke="none" stroke-width="0" fill="#3366cc"></circle><circle cx="348.05494505494505" cy="240.43031428574062" r="2.5" stroke="none" stroke-width="0" fill="#3366cc"></circle><circle cx="350.510989010989" cy="222.8249948901134" r="2.5" stroke="none" stroke-width="0" fill="#3366cc"></circle><circle cx="355.4230769230769" cy="213.93506393445242" r="2.5" stroke="none" stroke-width="0" fill="#3366cc"></circle><circle cx="360.33516483516485" cy="233.5067333333538" r="2.5" stroke="none" stroke-width="0" fill="#3366cc"></circle><circle cx="377.5274725274725" cy="246.4212300832984" r="2.5" stroke="none" stroke-width="0" fill="#3366cc"></circle><circle cx="379.9835164835165" cy="248.5097415618776" r="2.5" stroke="none" stroke-width="0" fill="#3366cc"></circle><circle cx="382.4395604395604" cy="210.8779871195916" r="2.5" stroke="none" stroke-width="0" fill="#3366cc"></circle><circle cx="384.89560439560444" cy="210.45224792156762" r="2.5" stroke="none" stroke-width="0" fill="#3366cc"></circle><circle cx="387.35164835164835" cy="200.0664611019096" r="2.5" stroke="none" stroke-width="0" fill="#3366cc"></circle><circle cx="389.8076923076923" cy="197.76817465720023" r="2.5" stroke="none" stroke-width="0" fill="#3366cc"></circle><circle cx="392.2637362637363" cy="217.36556344761883" r="2.5" stroke="none" stroke-width="0" fill="#3366cc"></circle><circle cx="394.7197802197802" cy="209.30144539371562" r="2.5" stroke="none" stroke-width="0" fill="#3366cc"></circle><circle cx="397.1758241758242" cy="235.30780000000001" r="2.5" stroke="none" stroke-width="0" fill="#3366cc"></circle><circle cx="399.63186813186815" cy="204.7634729460614" r="2.5" stroke="none" stroke-width="0" fill="#3366cc"></circle><circle cx="404.5439560439561" cy="266.6218" r="2.5" stroke="none" stroke-width="0" fill="#3366cc"></circle><circle cx="411.91208791208794" cy="222.710323947964" r="2.5" stroke="none" stroke-width="0" fill="#3366cc"></circle><circle cx="421.7362637362637" cy="234.1917243336162" r="2.5" stroke="none" stroke-width="0" fill="#3366cc"></circle><circle cx="424.19230769230774" cy="251.23086666664622" r="2.5" stroke="none" stroke-width="0" fill="#3366cc"></circle><circle cx="426.64835164835165" cy="235.43734928730441" r="2.5" stroke="none" stroke-width="0" fill="#3366cc"></circle><circle cx="429.1043956043956" cy="223.513870010966" r="2.5" stroke="none" stroke-width="0" fill="#3366cc"></circle><circle cx="431.5604395604396" cy="268.0135027632762" r="2.5" stroke="none" stroke-width="0" fill="#3366cc"></circle><circle cx="434.0164835164835" cy="244.2158081566366" r="2.5" stroke="none" stroke-width="0" fill="#3366cc"></circle><circle cx="436.4725274725275" cy="249.7982" r="2.5" stroke="none" stroke-width="0" fill="#3366cc"></circle><circle cx="438.92857142857144" cy="212.01276118419761" r="2.5" stroke="none" stroke-width="0" fill="#3366cc"></circle><circle cx="443.84065934065933" cy="209.44959607264542" r="2.5" stroke="none" stroke-width="0" fill="#3366cc"></circle><circle cx="446.2967032967033" cy="210.4250444952432" r="2.5" stroke="none" stroke-width="0" fill="#3366cc"></circle><circle cx="448.75274725274727" cy="218.85594367772882" r="2.5" stroke="none" stroke-width="0" fill="#3366cc"></circle><circle cx="451.20879120879124" cy="223.3183599497132" r="2.5" stroke="none" stroke-width="0" fill="#3366cc"></circle><circle cx="461.03296703296706" cy="217.751724434849" r="2.5" stroke="none" stroke-width="0" fill="#3366cc"></circle><circle cx="463.489010989011" cy="218.1069819335762" r="2.5" stroke="none" stroke-width="0" fill="#3366cc"></circle><circle cx="465.94505494505495" cy="223.5287180378448" r="2.5" stroke="none" stroke-width="0" fill="#3366cc"></circle><circle cx="468.4010989010989" cy="226.5818555170602" r="2.5" stroke="none" stroke-width="0" fill="#3366cc"></circle><circle cx="473.3131868131868" cy="245.4000311568838" r="2.5" stroke="none" stroke-width="0" fill="#3366cc"></circle><circle cx="475.7692307692308" cy="255.01906060604202" r="2.5" stroke="none" stroke-width="0" fill="#3366cc"></circle><circle cx="480.6813186813187" cy="273.3758" r="2.5" stroke="none" stroke-width="0" fill="#3366cc"></circle><circle cx="483.1373626373626" cy="285.9014" r="2.5" stroke="none" stroke-width="0" fill="#3366cc"></circle><circle cx="485.5934065934066" cy="220.43954463939863" r="2.5" stroke="none" stroke-width="0" fill="#3366cc"></circle><circle cx="488.04945054945057" cy="225.91551875000002" r="2.5" stroke="none" stroke-width="0" fill="#3366cc"></circle><circle cx="490.50549450549454" cy="220.0795980148122" r="2.5" stroke="none" stroke-width="0" fill="#3366cc"></circle><circle cx="492.96153846153845" cy="248.8944784964518" r="2.5" stroke="none" stroke-width="0" fill="#3366cc"></circle><circle cx="495.4175824175824" cy="234.993297023459" r="2.5" stroke="none" stroke-width="0" fill="#3366cc"></circle><circle cx="505.24175824175825" cy="268.2796" r="2.5" stroke="none" stroke-width="0" fill="#3366cc"></circle><circle cx="510.1538461538462" cy="276.525052619178" r="2.5" stroke="none" stroke-width="0" fill="#3366cc"></circle><circle cx="512.6098901098901" cy="255.2598811604144" r="2.5" stroke="none" stroke-width="0" fill="#3366cc"></circle><circle cx="515.065934065934" cy="277.2163086855302" r="2.5" stroke="none" stroke-width="0" fill="#3366cc"></circle><circle cx="517.521978021978" cy="251.1743692530438" r="2.5" stroke="none" stroke-width="0" fill="#3366cc"></circle><circle cx="519.978021978022" cy="255.2589735557454" r="2.5" stroke="none" stroke-width="0" fill="#3366cc"></circle><circle cx="522.434065934066" cy="246.4708039215826" r="2.5" stroke="none" stroke-width="0" fill="#3366cc"></circle><circle cx="524.8901098901099" cy="239.67545360486483" r="2.5" stroke="none" stroke-width="0" fill="#3366cc"></circle><circle cx="527.3461538461538" cy="259.131" r="2.5" stroke="none" stroke-width="0" fill="#3366cc"></circle><circle cx="529.8021978021977" cy="265.70848018934385" r="2.5" stroke="none" stroke-width="0" fill="#3366cc"></circle><circle cx="534.7142857142858" cy="293.2284666666462" r="2.5" stroke="none" stroke-width="0" fill="#3366cc"></circle><circle cx="537.1703296703297" cy="296.8306" r="2.5" stroke="none" stroke-width="0" fill="#3366cc"></circle><circle cx="539.6263736263736" cy="267.54531075817783" r="2.5" stroke="none" stroke-width="0" fill="#3366cc"></circle><circle cx="542.0824175824175" cy="249.30700000000002" r="2.5" stroke="none" stroke-width="0" fill="#3366cc"></circle><circle cx="544.5384615384615" cy="263.79740000000004" r="2.5" stroke="none" stroke-width="0" fill="#3366cc"></circle><circle cx="546.9945054945056" cy="259.6117711029184" r="2.5" stroke="none" stroke-width="0" fill="#3366cc"></circle><circle cx="549.4505494505495" cy="257.9954853556714" r="2.5" stroke="none" stroke-width="0" fill="#3366cc"></circle><circle cx="551.9065934065934" cy="243.3874034095892" r="2.5" stroke="none" stroke-width="0" fill="#3366cc"></circle><circle cx="561.7307692307693" cy="267.90687826975966" r="2.5" stroke="none" stroke-width="0" fill="#3366cc"></circle><circle cx="564.1868131868132" cy="275.9546" r="2.5" stroke="none" stroke-width="0" fill="#3366cc"></circle><circle cx="566.6428571428571" cy="272.1478" r="2.5" stroke="none" stroke-width="0" fill="#3366cc"></circle><circle cx="569.098901098901" cy="251.2034241555986" r="2.5" stroke="none" stroke-width="0" fill="#3366cc"></circle><circle cx="571.554945054945" cy="263.3062" r="2.5" stroke="none" stroke-width="0" fill="#3366cc"></circle><circle cx="574.0109890109891" cy="258.32330278142217" r="2.5" stroke="none" stroke-width="0" fill="#3366cc"></circle><circle cx="576.467032967033" cy="281.235" r="2.5" stroke="none" stroke-width="0" fill="#3366cc"></circle><circle cx="578.9230769230769" cy="252.74540000000002" r="2.5" stroke="none" stroke-width="0" fill="#3366cc"></circle><circle cx="581.3791208791208" cy="281.0460484235868" r="2.5" stroke="none" stroke-width="0" fill="#3366cc"></circle><circle cx="583.8351648351648" cy="261.462989098979" r="2.5" stroke="none" stroke-width="0" fill="#3366cc"></circle><circle cx="586.2912087912089" cy="263.5518" r="2.5" stroke="none" stroke-width="0" fill="#3366cc"></circle><circle cx="588.7472527472528" cy="250.7795704522908" r="2.5" stroke="none" stroke-width="0" fill="#3366cc"></circle><circle cx="591.2032967032967" cy="234.9761295233484" r="2.5" stroke="none" stroke-width="0" fill="#3366cc"></circle><circle cx="593.6593406593406" cy="260.6046" r="2.5" stroke="none" stroke-width="0" fill="#3366cc"></circle><circle cx="596.1153846153846" cy="247.25866481352782" r="2.5" stroke="none" stroke-width="0" fill="#3366cc"></circle><circle cx="598.5714285714286" cy="239.11460000000002" r="2.5" stroke="none" stroke-width="0" fill="#3366cc"></circle><circle cx="601.0274725274726" cy="257.6676333333538" r="2.5" stroke="none" stroke-width="0" fill="#3366cc"></circle><circle cx="603.4835164835165" cy="247.15205806448841" r="2.5" stroke="none" stroke-width="0" fill="#3366cc"></circle><circle cx="605.9395604395604" cy="255.64192406014402" r="2.5" stroke="none" stroke-width="0" fill="#3366cc"></circle><circle cx="608.3956043956043" cy="237.9591029075382" r="2.5" stroke="none" stroke-width="0" fill="#3366cc"></circle><circle cx="610.8516483516484" cy="255.2626329535636" r="2.5" stroke="none" stroke-width="0" fill="#3366cc"></circle><circle cx="613.3076923076924" cy="234.5716345607724" r="2.5" stroke="none" stroke-width="0" fill="#3366cc"></circle><circle cx="618.2197802197802" cy="279.39300000000003" r="2.5" stroke="none" stroke-width="0" fill="#3366cc"></circle><circle cx="620.6758241758241" cy="246.0487066666462" r="2.5" stroke="none" stroke-width="0" fill="#3366cc"></circle><circle cx="623.1318681318681" cy="244.6816026462788" r="2.5" stroke="none" stroke-width="0" fill="#3366cc"></circle><circle cx="625.5879120879122" cy="236.2253160959688" r="2.5" stroke="none" stroke-width="0" fill="#3366cc"></circle><circle cx="628.0439560439561" cy="271.4418630696198" r="2.5" stroke="none" stroke-width="0" fill="#3366cc"></circle><circle cx="637.8681318681319" cy="295.1114" r="2.5" stroke="none" stroke-width="0" fill="#3366cc"></circle><circle cx="640.3241758241759" cy="317.7758564189484" r="2.5" stroke="none" stroke-width="0" fill="#3366cc"></circle><circle cx="642.7802197802198" cy="289.0234830273236" r="2.5" stroke="none" stroke-width="0" fill="#3366cc"></circle><circle cx="645.2362637362637" cy="294.5716150880446" r="2.5" stroke="none" stroke-width="0" fill="#3366cc"></circle><circle cx="647.6923076923076" cy="260.7929678850496" r="2.5" stroke="none" stroke-width="0" fill="#3366cc"></circle><circle cx="650.1483516483516" cy="273.25300000000004" r="2.5" stroke="none" stroke-width="0" fill="#3366cc"></circle><circle cx="652.6043956043957" cy="245.38292517324902" r="2.5" stroke="none" stroke-width="0" fill="#3366cc"></circle><circle cx="655.0604395604396" cy="325.1974" r="2.5" stroke="none" stroke-width="0" fill="#3366cc"></circle><circle cx="657.5164835164835" cy="247.69493964418302" r="2.5" stroke="none" stroke-width="0" fill="#3366cc"></circle><circle cx="659.9725274725274" cy="230.45010244747482" r="2.5" stroke="none" stroke-width="0" fill="#3366cc"></circle><circle cx="662.4285714285714" cy="297.9358" r="2.5" stroke="none" stroke-width="0" fill="#3366cc"></circle><circle cx="664.8846153846155" cy="268.64200258019423" r="2.5" stroke="none" stroke-width="0" fill="#3366cc"></circle><circle cx="667.3406593406594" cy="305.7255069065854" r="2.5" stroke="none" stroke-width="0" fill="#3366cc"></circle><circle cx="669.7967032967033" cy="267.2456973283622" r="2.5" stroke="none" stroke-width="0" fill="#3366cc"></circle><circle cx="674.7087912087912" cy="258.3435367975126" r="2.5" stroke="none" stroke-width="0" fill="#3366cc"></circle><circle cx="677.1648351648352" cy="283.5682" r="2.5" stroke="none" stroke-width="0" fill="#3366cc"></circle><circle cx="679.6208791208792" cy="247.1870115556898" r="2.5" stroke="none" stroke-width="0" fill="#3366cc"></circle><circle cx="682.0769230769231" cy="234.1374194283608" r="2.5" stroke="none" stroke-width="0" fill="#3366cc"></circle><circle cx="684.532967032967" cy="234.1258834260986" r="2.5" stroke="none" stroke-width="0" fill="#3366cc"></circle><circle cx="686.9890109890109" cy="260.95954318862744" r="2.5" stroke="none" stroke-width="0" fill="#3366cc"></circle><circle cx="691.901098901099" cy="241.9490836895194" r="2.5" stroke="none" stroke-width="0" fill="#3366cc"></circle><circle cx="694.3571428571429" cy="269.3234" r="2.5" stroke="none" stroke-width="0" fill="#3366cc"></circle><circle cx="696.8131868131868" cy="241.2022" r="2.5" stroke="none" stroke-width="0" fill="#3366cc"></circle><circle cx="699.2692307692308" cy="246.49204615385563" r="2.5" stroke="none" stroke-width="0" fill="#3366cc"></circle><circle cx="701.7252747252747" cy="229.2938199712806" r="2.5" stroke="none" stroke-width="0" fill="#3366cc"></circle><circle cx="704.1813186813187" cy="220.0785427240478" r="2.5" stroke="none" stroke-width="0" fill="#3366cc"></circle><circle cx="706.6373626373627" cy="230.4879" r="2.5" stroke="none" stroke-width="0" fill="#3366cc"></circle><circle cx="709.0934065934066" cy="270.6711102907842" r="2.5" stroke="none" stroke-width="0" fill="#3366cc"></circle><circle cx="711.5494505494505" cy="294.743" r="2.5" stroke="none" stroke-width="0" fill="#3366cc"></circle><circle cx="714.0054945054945" cy="259.5553540524604" r="2.5" stroke="none" stroke-width="0" fill="#3366cc"></circle><circle cx="716.4615384615385" cy="234.58104498977482" r="2.5" stroke="none" stroke-width="0" fill="#3366cc"></circle><circle cx="718.9175824175825" cy="226.2886644617922" r="2.5" stroke="none" stroke-width="0" fill="#3366cc"></circle><circle cx="721.3736263736264" cy="221.55287532705083" r="2.5" stroke="none" stroke-width="0" fill="#3366cc"></circle><circle cx="723.8296703296703" cy="221.4987769911662" r="2.5" stroke="none" stroke-width="0" fill="#3366cc"></circle><circle cx="726.2857142857143" cy="225.3811940284808" r="2.5" stroke="none" stroke-width="0" fill="#3366cc"></circle><circle cx="728.7417582417582" cy="221.67700000000002" r="2.5" stroke="none" stroke-width="0" fill="#3366cc"></circle><circle cx="731.1978021978022" cy="193.9243042308594" r="2.5" stroke="none" stroke-width="0" fill="#3366cc"></circle><circle cx="736.1098901098901" cy="233.8152027509086" r="2.5" stroke="none" stroke-width="0" fill="#3366cc"></circle><circle cx="738.5659340659341" cy="241.5824537960752" r="2.5" stroke="none" stroke-width="0" fill="#3366cc"></circle><circle cx="741.021978021978" cy="218.8528920115846" r="2.5" stroke="none" stroke-width="0" fill="#3366cc"></circle><circle cx="743.478021978022" cy="207.06380000000001" r="2.5" stroke="none" stroke-width="0" fill="#3366cc"></circle><circle cx="745.934065934066" cy="234.8751395682082" r="2.5" stroke="none" stroke-width="0" fill="#3366cc"></circle><circle cx="748.3901098901099" cy="221.1598761569208" r="2.5" stroke="none" stroke-width="0" fill="#3366cc"></circle><circle cx="750.8461538461538" cy="263.79740000000004" r="2.5" stroke="none" stroke-width="0" fill="#3366cc"></circle><circle cx="753.3021978021978" cy="211.2442922408058" r="2.5" stroke="none" stroke-width="0" fill="#3366cc"></circle><circle cx="755.7582417582418" cy="220.13945235313201" r="2.5" stroke="none" stroke-width="0" fill="#3366cc"></circle><circle cx="758.2142857142858" cy="212.33287907813101" r="2.5" stroke="none" stroke-width="0" fill="#3366cc"></circle><circle cx="760.6703296703297" cy="215.76628110910522" r="2.5" stroke="none" stroke-width="0" fill="#3366cc"></circle><circle cx="763.1263736263736" cy="234.1919925073876" r="2.5" stroke="none" stroke-width="0" fill="#3366cc"></circle><circle cx="765.5824175824176" cy="230.208696554254" r="2.5" stroke="none" stroke-width="0" fill="#3366cc"></circle><circle cx="770.4945054945055" cy="199.7054484882842" r="2.5" stroke="none" stroke-width="0" fill="#3366cc"></circle><circle cx="772.9505494505495" cy="219.95780000000002" r="2.5" stroke="none" stroke-width="0" fill="#3366cc"></circle><circle cx="777.8626373626374" cy="206.9819333333538" r="2.5" stroke="none" stroke-width="0" fill="#3366cc"></circle><circle cx="782.7747252747253" cy="259.8678" r="2.5" stroke="none" stroke-width="0" fill="#3366cc"></circle><circle cx="787.6868131868132" cy="216.1087815749" r="2.5" stroke="none" stroke-width="0" fill="#3366cc"></circle><circle cx="792.5989010989011" cy="251.0033541828832" r="2.5" stroke="none" stroke-width="0" fill="#3366cc"></circle><circle cx="797.5109890109891" cy="178.9288073562312" r="2.5" stroke="none" stroke-width="0" fill="#3366cc"></circle><circle cx="799.967032967033" cy="174.64460000000003" r="2.5" stroke="none" stroke-width="0" fill="#3366cc"></circle><circle cx="802.4230769230769" cy="195.91356000000002" r="2.5" stroke="none" stroke-width="0" fill="#3366cc"></circle><circle cx="804.8791208791209" cy="185.68636666664622" r="2.5" stroke="none" stroke-width="0" fill="#3366cc"></circle><circle cx="807.3351648351648" cy="200.40627916355479" r="2.5" stroke="none" stroke-width="0" fill="#3366cc"></circle><circle cx="809.7912087912088" cy="181.2764675256956" r="2.5" stroke="none" stroke-width="0" fill="#3366cc"></circle><circle cx="812.2472527472528" cy="213.4349848589624" r="2.5" stroke="none" stroke-width="0" fill="#3366cc"></circle><circle cx="814.7032967032967" cy="188.7783397308392" r="2.5" stroke="none" stroke-width="0" fill="#3366cc"></circle><circle cx="817.1593406593407" cy="173.57520885496984" r="2.5" stroke="none" stroke-width="0" fill="#3366cc"></circle><circle cx="819.6153846153846" cy="156.70000026704258" r="2.5" stroke="none" stroke-width="0" fill="#3366cc"></circle><circle cx="822.0714285714286" cy="212.58980000000003" r="2.5" stroke="none" stroke-width="0" fill="#3366cc"></circle><circle cx="831.8956043956044" cy="199.707299424256" r="2.5" stroke="none" stroke-width="0" fill="#3366cc"></circle><circle cx="834.3516483516484" cy="213.51911547782902" r="2.5" stroke="none" stroke-width="0" fill="#3366cc"></circle><circle cx="836.8076923076924" cy="213.9397842009794" r="2.5" stroke="none" stroke-width="0" fill="#3366cc"></circle><circle cx="841.7197802197802" cy="224.9888939262088" r="2.5" stroke="none" stroke-width="0" fill="#3366cc"></circle><circle cx="844.1758241758242" cy="184.1833914944462" r="2.5" stroke="none" stroke-width="0" fill="#3366cc"></circle><circle cx="846.6318681318681" cy="207.39174945239023" r="2.5" stroke="none" stroke-width="0" fill="#3366cc"></circle><circle cx="849.0879120879121" cy="151.90024576999824" r="2.5" stroke="none" stroke-width="0" fill="#3366cc"></circle><circle cx="851.5439560439561" cy="203.07280000000003" r="2.5" stroke="none" stroke-width="0" fill="#3366cc"></circle><circle cx="854" cy="144.80140237445238" r="2.5" stroke="none" stroke-width="0" fill="#3366cc"></circle><circle cx="856.4560439560439" cy="178.94260000000003" r="2.5" stroke="none" stroke-width="0" fill="#3366cc"></circle><circle cx="858.9120879120879" cy="156.5316" r="2.5" stroke="none" stroke-width="0" fill="#3366cc"></circle><circle cx="861.3681318681319" cy="156.734868411323" r="2.5" stroke="none" stroke-width="0" fill="#3366cc"></circle><circle cx="863.8241758241759" cy="155.98660707962702" r="2.5" stroke="none" stroke-width="0" fill="#3366cc"></circle><circle cx="871.1923076923077" cy="206.941" r="2.5" stroke="none" stroke-width="0" fill="#3366cc"></circle><circle cx="873.6483516483516" cy="160.3476800379976" r="2.5" stroke="none" stroke-width="0" fill="#3366cc"></circle><circle cx="876.1043956043956" cy="151.66841171545062" r="2.5" stroke="none" stroke-width="0" fill="#3366cc"></circle><circle cx="878.5604395604396" cy="164.35842257441104" r="2.5" stroke="none" stroke-width="0" fill="#3366cc"></circle><circle cx="881.0164835164835" cy="135.20439148995723" r="2.5" stroke="none" stroke-width="0" fill="#3366cc"></circle><circle cx="883.4725274725275" cy="133.47491530652582" r="2.5" stroke="none" stroke-width="0" fill="#3366cc"></circle><circle cx="888.3846153846154" cy="160.54716000000002" r="2.5" stroke="none" stroke-width="0" fill="#3366cc"></circle><circle cx="890.8406593406594" cy="196.6258" r="2.5" stroke="none" stroke-width="0" fill="#3366cc"></circle><circle cx="893.2967032967033" cy="155.8920833979468" r="2.5" stroke="none" stroke-width="0" fill="#3366cc"></circle><circle cx="895.7527472527472" cy="142.45088180101038" r="2.5" stroke="none" stroke-width="0" fill="#3366cc"></circle><circle cx="898.2087912087912" cy="173.46162122175562" r="2.5" stroke="none" stroke-width="0" fill="#3366cc"></circle><circle cx="905.5769230769231" cy="225.3643405417852" r="2.5" stroke="none" stroke-width="0" fill="#3366cc"></circle><circle cx="908.032967032967" cy="201.6913" r="2.5" stroke="none" stroke-width="0" fill="#3366cc"></circle><circle cx="910.489010989011" cy="138.83045830102662" r="2.5" stroke="none" stroke-width="0" fill="#3366cc"></circle><circle cx="912.945054945055" cy="159.7495625431898" r="2.5" stroke="none" stroke-width="0" fill="#3366cc"></circle><circle cx="915.4010989010989" cy="137.3233687070288" r="2.5" stroke="none" stroke-width="0" fill="#3366cc"></circle><circle cx="917.8571428571429" cy="160.17584998703282" r="2.5" stroke="none" stroke-width="0" fill="#3366cc"></circle><circle cx="920.3131868131868" cy="206.53910909093702" r="2.5" stroke="none" stroke-width="0" fill="#3366cc"></circle><circle cx="922.7692307692308" cy="193.18207044475642" r="2.5" stroke="none" stroke-width="0" fill="#3366cc"></circle><circle cx="925.2252747252747" cy="182.36124683929899" r="2.5" stroke="none" stroke-width="0" fill="#3366cc"></circle><circle cx="927.6813186813187" cy="131.26955906742603" r="2.5" stroke="none" stroke-width="0" fill="#3366cc"></circle><circle cx="932.5934065934066" cy="142.47886429227037" r="2.5" stroke="none" stroke-width="0" fill="#3366cc"></circle><circle cx="937.5054945054945" cy="147.306211953797" r="2.5" stroke="none" stroke-width="0" fill="#3366cc"></circle><circle cx="939.9615384615385" cy="155.7129333333538" r="2.5" stroke="none" stroke-width="0" fill="#3366cc"></circle><circle cx="942.4175824175825" cy="232.4834" r="2.5" stroke="none" stroke-width="0" fill="#3366cc"></circle><circle cx="944.8736263736264" cy="176.5275333333538" r="2.5" stroke="none" stroke-width="0" fill="#3366cc"></circle><circle cx="949.7857142857143" cy="190.28999515820678" r="2.5" stroke="none" stroke-width="0" fill="#3366cc"></circle><circle cx="957.1538461538462" cy="187.78361575972042" r="2.5" stroke="none" stroke-width="0" fill="#3366cc"></circle><circle cx="959.6098901098901" cy="196.44491975352582" r="2.5" stroke="none" stroke-width="0" fill="#3366cc"></circle><circle cx="964.521978021978" cy="220.4386317079112" r="2.5" stroke="none" stroke-width="0" fill="#3366cc"></circle><circle cx="966.978021978022" cy="171.68534744340602" r="2.5" stroke="none" stroke-width="0" fill="#3366cc"></circle><circle cx="969.434065934066" cy="212.69111" r="2.5" stroke="none" stroke-width="0" fill="#3366cc"></circle><circle cx="971.8901098901099" cy="158.02184536593103" r="2.5" stroke="none" stroke-width="0" fill="#3366cc"></circle><circle cx="974.3461538461538" cy="186.336114353708" r="2.5" stroke="none" stroke-width="0" fill="#3366cc"></circle><circle cx="976.8021978021978" cy="148.8318388510826" r="2.5" stroke="none" stroke-width="0" fill="#3366cc"></circle><circle cx="979.2582417582418" cy="168.7785869754874" r="2.5" stroke="none" stroke-width="0" fill="#3366cc"></circle><circle cx="981.7142857142858" cy="185.83930420642022" r="2.5" stroke="none" stroke-width="0" fill="#3366cc"></circle><circle cx="984.1703296703297" cy="167.30932440515522" r="2.5" stroke="none" stroke-width="0" fill="#3366cc"></circle><circle cx="989.0824175824176" cy="172.7929559489096" r="2.5" stroke="none" stroke-width="0" fill="#3366cc"></circle><circle cx="998.9065934065934" cy="221.01440088923323" r="2.5" stroke="none" stroke-width="0" fill="#3366cc"></circle><circle cx="1001.3626373626374" cy="208.7335516370366" r="2.5" stroke="none" stroke-width="0" fill="#3366cc"></circle><circle cx="1003.8186813186813" cy="246.48260000000002" r="2.5" stroke="none" stroke-width="0" fill="#3366cc"></circle><circle cx="1006.2747252747253" cy="211.0136781695058" r="2.5" stroke="none" stroke-width="0" fill="#3366cc"></circle><circle cx="1011.1868131868132" cy="256.98199999999997" r="2.5" stroke="none" stroke-width="0" fill="#3366cc"></circle><circle cx="1016.0989010989011" cy="216.6002969331592" r="2.5" stroke="none" stroke-width="0" fill="#3366cc"></circle><circle cx="1018.554945054945" cy="225.82713978764662" r="2.5" stroke="none" stroke-width="0" fill="#3366cc"></circle><circle cx="1021.0109890109891" cy="249.9373733333538" r="2.5" stroke="none" stroke-width="0" fill="#3366cc"></circle><circle cx="1028.3791208791208" cy="234.92405" r="2.5" stroke="none" stroke-width="0" fill="#3366cc"></circle><circle cx="1030.835164835165" cy="257.289" r="2.5" stroke="none" stroke-width="0" fill="#3366cc"></circle><circle cx="1033.2912087912086" cy="217.979349368414" r="2.5" stroke="none" stroke-width="0" fill="#3366cc"></circle><circle cx="1038.2032967032967" cy="243.7991693877338" r="2.5" stroke="none" stroke-width="0" fill="#3366cc"></circle><circle cx="1048.0274725274726" cy="267.2884285714198" r="2.5" stroke="none" stroke-width="0" fill="#3366cc"></circle><circle cx="1055.3956043956046" cy="245.40808193765503" r="2.5" stroke="none" stroke-width="0" fill="#3366cc"></circle><circle cx="1057.8516483516482" cy="231.750022306446" r="2.5" stroke="none" stroke-width="0" fill="#3366cc"></circle><circle cx="1060.3076923076924" cy="235.02988522684822" r="2.5" stroke="none" stroke-width="0" fill="#3366cc"></circle><circle cx="1062.7637362637363" cy="209.62258389140442" r="2.5" stroke="none" stroke-width="0" fill="#3366cc"></circle><circle cx="1065.2197802197802" cy="222.5017596652532" r="2.5" stroke="none" stroke-width="0" fill="#3366cc"></circle><circle cx="1067.6758241758243" cy="208.7252539314376" r="2.5" stroke="none" stroke-width="0" fill="#3366cc"></circle><circle cx="1072.5879120879122" cy="190.8946268511394" r="2.5" stroke="none" stroke-width="0" fill="#3366cc"></circle><circle cx="1075.043956043956" cy="231.50495594532782" r="2.5" stroke="none" stroke-width="0" fill="#3366cc"></circle><circle cx="1077.5" cy="223.3374953581374" r="2.5" stroke="none" stroke-width="0" fill="#3366cc"></circle></g><g><g><text text-anchor="middle" x="183.70467032967034" y="424.75" font-family="Arial" font-size="15" stroke="none" stroke-width="0" fill="#444444">January 2019</text></g><g><text text-anchor="middle" x="328.71359890109886" y="424.75" font-family="Arial" font-size="15" stroke="none" stroke-width="0" fill="#444444">March 2019</text></g><g><text text-anchor="middle" x="478.5322802197802" y="424.75" font-family="Arial" font-size="15" stroke="none" stroke-width="0" fill="#444444">May 2019</text></g><g><text text-anchor="middle" x="628.3509615384615" y="424.75" font-family="Arial" font-size="15" stroke="none" stroke-width="0" fill="#444444">July 2019</text></g><g><text text-anchor="middle" x="780.6256868131868" y="424.75" font-family="Arial" font-size="15" stroke="none" stroke-width="0" fill="#444444">September 2019</text></g><g><text text-anchor="middle" x="930.4443681318681" y="424.75" font-family="Arial" font-size="15" stroke="none" stroke-width="0" fill="#444444">November 2019</text></g><g><text text-anchor="end" x="168" y="407.75" font-family="Arial" font-size="15" stroke="none" stroke-width="0" fill="#444444">0</text></g><g><text text-anchor="end" x="168" y="346.35" font-family="Arial" font-size="15" stroke="none" stroke-width="0" fill="#444444">10</text></g><g><text text-anchor="end" x="168" y="284.95" font-family="Arial" font-size="15" stroke="none" stroke-width="0" fill="#444444">20</text></g><g><text text-anchor="end" x="168" y="223.55" font-family="Arial" font-size="15" stroke="none" stroke-width="0" fill="#444444">30</text></g><g><text text-anchor="end" x="168" y="162.15" font-family="Arial" font-size="15" stroke="none" stroke-width="0" fill="#444444">40</text></g><g><text text-anchor="end" x="168" y="100.75" font-family="Arial" font-size="15" stroke="none" stroke-width="0" fill="#444444">50</text></g></g></g><g><g><text text-anchor="middle" x="630.5" y="467.75" font-family="Arial" font-size="15" font-style="italic" stroke="none" stroke-width="0" fill="#222222">Ano</text><rect x="183" y="455" width="895" height="15" stroke="none" stroke-width="0" fill-opacity="0" fill="#ffffff"></rect></g><g><text text-anchor="middle" x="80.75" y="249" font-family="Arial" font-size="15" font-style="italic" transform="rotate(-90 80.75 249)" stroke="none" stroke-width="0" fill="#222222">Temperatura do solo (ºC)</text><path d="M67.99999999999999,403L68.00000000000001,95L83.00000000000001,95L82.99999999999999,403Z" stroke="none" stroke-width="0" fill-opacity="0" fill="#ffffff"></path></g></g><g></g></svg>