<svg width="1261" height="498" aria-label="A chart." style="overflow: hidden;"><defs id="_ABSTRACT_RENDERER_ID_189"><clipPath id="_ABSTRACT_RENDERER_ID_190"><rect x="183" y="95" width="895" height="308"></rect></clipPath></defs><rect x="0" y="0" width="1261" height="498" stroke="none" stroke-width="0" fill="#ffffff"></rect><g><text text-anchor="start" x="183" y="68.75" font-family="Arial" font-size="15" font-weight="bold" stroke="none" stroke-width="0" fill="#000000">Maringá</text><rect x="183" y="56" width="895" height="15" stroke="none" stroke-width="0" fill-opacity="0" fill="#ffffff"></rect></g><g><rect x="1093" y="95" width="153" height="15" stroke="none" stroke-width="0" fill-opacity="0" fill="#ffffff"></rect><g column-id="LST_Day_1km"><rect x="1093" y="95" width="153" height="15" stroke="none" stroke-width="0" fill-opacity="0" fill="#ffffff"></rect><g><text text-anchor="start" x="1129" y="107.75" font-family="Arial" font-size="15" stroke="none" stroke-width="0" fill="#222222">LST_Day_1km</text></g><path d="M1093,102.5L1123,102.5" stroke="#3366cc" stroke-width="1" fill-opacity="1" fill="none"></path><circle cx="1108" cy="102.5" r="2.5" stroke="none" stroke-width="0" fill="#3366cc"></circle></g></g><g><rect x="183" y="95" width="895" height="308" stroke="none" stroke-width="0" fill-opacity="0" fill="#ffffff"></rect><g clip-path="url(https://code.earthengine.google.com/#_ABSTRACT_RENDERER_ID_190)"><g><rect x="183" y="95" width="1" height="308" stroke="none" stroke-width="0" fill="#cccccc"></rect><rect x="259" y="95" width="1" height="308" stroke="none" stroke-width="0" fill="#cccccc"></rect><rect x="328" y="95" width="1" height="308" stroke="none" stroke-width="0" fill="#cccccc"></rect><rect x="404" y="95" width="1" height="308" stroke="none" stroke-width="0" fill="#cccccc"></rect><rect x="478" y="95" width="1" height="308" stroke="none" stroke-width="0" fill="#cccccc"></rect><rect x="554" y="95" width="1" height="308" stroke="none" stroke-width="0" fill="#cccccc"></rect><rect x="628" y="95" width="1" height="308" stroke="none" stroke-width="0" fill="#cccccc"></rect><rect x="704" y="95" width="1" height="308" stroke="none" stroke-width="0" fill="#cccccc"></rect><rect x="780" y="95" width="1" height="308" stroke="none" stroke-width="0" fill="#cccccc"></rect><rect x="854" y="95" width="1" height="308" stroke="none" stroke-width="0" fill="#cccccc"></rect><rect x="930" y="95" width="1" height="308" stroke="none" stroke-width="0" fill="#cccccc"></rect><rect x="1004" y="95" width="1" height="308" stroke="none" stroke-width="0" fill="#cccccc"></rect><rect x="183" y="402" width="895" height="1" stroke="none" stroke-width="0" fill="#cccccc"></rect><rect x="183" y="341" width="895" height="1" stroke="none" stroke-width="0" fill="#cccccc"></rect><rect x="183" y="279" width="895" height="1" stroke="none" stroke-width="0" fill="#cccccc"></rect><rect x="183" y="218" width="895" height="1" stroke="none" stroke-width="0" fill="#cccccc"></rect><rect x="183" y="156" width="895" height="1" stroke="none" stroke-width="0" fill="#cccccc"></rect><rect x="183" y="95" width="895" height="1" stroke="none" stroke-width="0" fill="#cccccc"></rect><rect x="183" y="371" width="895" height="1" stroke="none" stroke-width="0" fill="#ebebeb"></rect><rect x="183" y="310" width="895" height="1" stroke="none" stroke-width="0" fill="#ebebeb"></rect><rect x="183" y="249" width="895" height="1" stroke="none" stroke-width="0" fill="#ebebeb"></rect><rect x="183" y="187" width="895" height="1" stroke="none" stroke-width="0" fill="#ebebeb"></rect><rect x="183" y="126" width="895" height="1" stroke="none" stroke-width="0" fill="#ebebeb"></rect></g><g><rect x="183" y="402" width="895" height="1" stroke="none" stroke-width="0" fill="#333333"></rect></g><g><g><path d="M198.23626373626374,219.28240000000002L200.69230769230768,209.4222088178524M208.06043956043956,252.15596L210.5164835164835,234.0067851907764L212.97252747252747,241.1574351163062L215.42857142857144,222.5262181182492L217.8846153846154,238.5006L220.34065934065933,226.4662L222.7967032967033,237.989752M227.7087912087912,240.67416L230.16483516483515,268.7094L232.62087912087912,224.1337166879388L235.0769230769231,251.8858L237.53296703296704,230.3958L239.98901098901098,237.01981577050702M267.00549450549454,211.76907408007602L269.46153846153845,230.93612000000002L271.9175824175824,213.2695190526478L274.3736263736264,214.16350293119862L276.8296703296703,216.1348644949412L279.2857142857143,210.25871116077641L281.74175824175825,242.18460000000002L284.1978021978022,213.20380000000003M294.02197802197804,200.0394953258816L296.47802197802196,206.5512756460252L298.9340659340659,201.0453146488388L301.3901098901099,183.39881948251042L303.84615384615387,204.7586675231376L306.30219780219784,186.48230167246783L308.75824175824175,228.85056666664622L311.2142857142857,173.47232957037642L313.6703296703297,191.8475885381266M323.49450549450546,198.83133310775563L325.9505494505495,203.03596000000002L328.4065934065934,184.1773859405526M345.59890109890114,192.0427020556456L348.05494505494505,232.115L350.510989010989,186.7404L352.967032967033,207.1847135332604L355.4230769230769,196.97105243847759L357.8791208791209,211.0894072727496L360.33516483516485,221.1898294068666L362.79120879120876,197.3723983961386M375.07142857142856,221.57611668253782L377.5274725274725,230.36137100202762L379.9835164835165,204.9329772869666L382.4395604395604,229.55448936167602L384.89560439560444,206.4137235654266L387.35164835164835,216.72425603585083L389.8076923076923,221.198845688086M394.7197802197802,253.0029765548758L397.1758241758242,214.3135598529484L399.63186813186815,230.7679662448088L402.08791208791206,210.43593419901782L404.5439560439561,270.3194444444308L407,216.40935850536582L409.45604395604397,222.70513351726123L411.91208791208794,226.94205M424.19230769230774,244.71428L426.64835164835165,244.56692L429.1043956043956,236.8428M434.0164835164835,244.63343494732342L436.4725274725275,226.5926611021594L438.92857142857144,239.23056683771682M443.84065934065933,264.9026L446.2967032967033,269.569L448.75274725274727,277.965979310366L451.20879120879124,273.0074M456.1208791208791,258.3358350702768L458.5769230769231,239.6630243437366M468.4010989010989,280.7438L470.8571428571429,258.0789631446254L473.3131868131868,265.8228028698336L475.7692307692308,253.8700560871162L478.22527472527474,267.786419354809L480.6813186813187,253.4172418253008L483.1373626373626,262.1333162880196M490.50549450549454,251.94971635313001L492.96153846153845,276.38849333335384L495.4175824175824,256.6067751506014L497.8736263736264,262.11913333335383M502.7857142857143,252.2718422543662L505.24175824175825,277.5687115384332L507.6978021978022,239.97121569923422L510.1538461538462,256.3743686220404L512.6098901098901,275.3179658852326L515.065934065934,262.19516980076105M529.8021978021977,259.44737713264203L532.2582417582418,281.881034782582L534.7142857142858,261.0954379846176L537.1703296703297,238.9228568366064L539.6263736263736,256.7978M546.9945054945056,266.12150370371285L549.4505494505495,285.257633840275L551.9065934065934,267.727L554.3626373626373,305.68755L556.8186813186813,297.0762L559.2747252747253,271.53380000000004L561.7307692307693,264.9026M576.467032967033,303.3955594028582L578.9230769230769,301.314640936859L581.3791208791208,290.2735345216048M586.2912087912089,272.30311193334103L588.7472527472528,267.3064629683678L591.2032967032967,268.6394459692332L593.6593406593406,250.4677653288762L596.1153846153846,253.7278L598.5714285714286,299.5322M603.4835164835165,275.030035519705L605.9395604395604,262.140279219694L608.3956043956043,262.93780000000004L610.8516483516484,250.467950642795L613.3076923076924,271.782959218008L615.7637362637363,256.9236618425188L618.2197802197802,273.867L620.6758241758241,250.6578M625.5879120879122,249.8576703693674L628.0439560439561,249.1873676653574L630.5,306.409L632.9560439560439,285.3017759045342L635.4120879120879,298.9756230647752L637.8681318681319,269.4462L640.3241758241759,292.4098L642.7802197802198,261.7791488035988L645.2362637362637,271.39983636362524L647.6923076923076,284.8500264316948L650.1483516483516,245.8140972754878L652.6043956043957,256.37142925532964L655.0604395604396,241.5621238568524L657.5164835164835,269.81460000000004L659.9725274725274,244.2128896977924L662.4285714285714,246.6054L664.8846153846155,244.640042654701L667.3406593406594,279.2156269780138L669.7967032967033,309.7246L672.2527472527472,283.320127084914L674.7087912087912,285.9547913043238L677.1648351648352,242.311994814047L679.6208791208792,264.1787263158024L682.0769230769231,243.414853989702L684.532967032967,238.18862347682762L686.9890109890109,234.56249808567603L689.445054945055,224.9995526017998L691.901098901099,247.7704942779146L694.3571428571429,238.8646135894646L696.8131868131868,255.9382L699.2692307692308,233.8321653456498M704.1813186813187,237.3427714285802L706.6373626373627,229.9967919161684L709.0934065934066,294.0062L711.5494505494505,251.52926106767723L714.0054945054945,272.5162L716.4615384615385,245.0094041966912L718.9175824175825,255.6926L721.3736263736264,231.7058203178744L723.8296703296703,198.66449116098562L726.2857142857143,207.3505912874022L728.7417582417582,222.7266278681266L731.1978021978022,229.04500000000002L733.6538461538462,223.3923366292328L736.1098901098901,278.165M748.3901098901099,302.60220000000004L750.8461538461538,273.36352L753.3021978021978,278.2878L755.7582417582418,256.47122263376184L758.2142857142858,271.28819999999996L760.6703296703297,221.56766030282222L763.1263736263736,215.04034269781982L765.5824175824176,211.9477419123232L768.0384615384615,200.07340477000943L770.4945054945055,211.25386998640462L772.9505494505495,187.03450103016118L775.4065934065934,201.24125844982262L777.8626373626374,178.56451119266902L780.3186813186813,231.1593705612364L782.7747252747253,210.0238511628164L785.2307692307693,204.74030770465458L787.6868131868132,204.2897340753396L790.1428571428571,179.3223629694486L792.5989010989011,211.98937361019802L795.054945054945,178.7791405053658L797.5109890109891,207.3948260869672L799.967032967033,209.47277254202461L802.4230769230769,198.58379260870902L804.8791208791209,204.95457714200458L807.3351648351648,168.05155584516422L809.7912087912088,198.1559669044032L812.2472527472528,174.0419242146282L814.7032967032967,195.7662L817.1593406593407,168.0667219214642L819.6153846153846,175.9033L822.0714285714286,171.70558517775763L824.5274725274726,165.70196572904143L826.9835164835165,173.16470894979858L829.4395604395604,171.6916465858818L831.8956043956044,179.7215890113072L834.3516483516484,153.4668166873076L836.8076923076924,196.50300000000001L839.2637362637363,191.0781294117936M844.1758241758242,163.3836569234358L846.6318681318681,179.67940000000002M861.3681318681319,206.93472157345442L863.8241758241759,185.89562068963403L866.2802197802198,167.6274571428396M878.5604395604396,164.37668952140302L881.0164835164835,171.71184705884522L883.4725274725275,163.36270051178542L885.9285714285714,226.2423039224506L888.3846153846154,193.86436194913543L890.8406593406594,171.301041497106L893.2967032967033,192.85737500000002L895.7527472527472,141.7283626760278M910.489010989011,227.3766754649276L912.945054945055,209.2742M920.3131868131868,239.97420000000002L922.7692307692308,212.9582M927.6813186813187,245.02946666664621L930.1373626373627,195.91565426355783L932.5934065934066,213.50958040621262L935.0494505494505,179.6492471980894M949.7857142857143,235.5534L952.2417582417582,208.78300000000002L954.6978021978022,228.890698992485L957.1538461538462,160.35411993739461L959.6098901098901,168.2738848484588L962.0659340659341,155.8484785026396L964.521978021978,146.55774282030941L966.978021978022,165.16692571778418L969.434065934066,196.419981008424M979.2582417582418,174.03302767710102L981.7142857142858,234.20260000000002L984.1703296703297,199.32739999999998L986.6263736263736,164.25732828704002M996.4505494505495,224.615992896855L998.9065934065934,221.9289166596502M1003.8186813186813,222.2296L1006.2747252747253,216.1505394820098L1008.7307692307693,193.40659400740364L1011.1868131868132,210.202875L1013.6428571428571,197.16791221620463M1021.0109890109891,239.6737804515492L1023.467032967033,206.910117334386L1025.923076923077,236.8305508155548L1028.3791208791208,202.0283129196324L1030.835164835165,202.77446574868083L1033.2912087912086,240.83380000000002L1035.7472527472528,188.9459061800488L1038.2032967032967,212.51653769646362L1040.6593406593406,193.32975387625604L1043.1153846153848,221.7638845981014L1045.5714285714284,198.0994L1048.0274725274726,208.85597596469782M1075.043956043956,246.1142L1077.5,247.142047776827" stroke="#3366cc" stroke-width="1" fill-opacity="1" fill="none"></path></g></g></g><g><circle cx="183.5" cy="235.8038916383478" r="2.5" stroke="none" stroke-width="0" fill="#3366cc"></circle><circle cx="188.4120879120879" cy="225.00816963701" r="2.5" stroke="none" stroke-width="0" fill="#3366cc"></circle><circle cx="193.32417582417582" cy="218.8799814327836" r="2.5" stroke="none" stroke-width="0" fill="#3366cc"></circle><circle cx="198.23626373626374" cy="219.28240000000002" r="2.5" stroke="none" stroke-width="0" fill="#3366cc"></circle><circle cx="200.69230769230768" cy="209.4222088178524" r="2.5" stroke="none" stroke-width="0" fill="#3366cc"></circle><circle cx="208.06043956043956" cy="252.15596" r="2.5" stroke="none" stroke-width="0" fill="#3366cc"></circle><circle cx="210.5164835164835" cy="234.0067851907764" r="2.5" stroke="none" stroke-width="0" fill="#3366cc"></circle><circle cx="212.97252747252747" cy="241.1574351163062" r="2.5" stroke="none" stroke-width="0" fill="#3366cc"></circle><circle cx="215.42857142857144" cy="222.5262181182492" r="2.5" stroke="none" stroke-width="0" fill="#3366cc"></circle><circle cx="217.8846153846154" cy="238.5006" r="2.5" stroke="none" stroke-width="0" fill="#3366cc"></circle><circle cx="220.34065934065933" cy="226.4662" r="2.5" stroke="none" stroke-width="0" fill="#3366cc"></circle><circle cx="222.7967032967033" cy="237.989752" r="2.5" stroke="none" stroke-width="0" fill="#3366cc"></circle><circle cx="227.7087912087912" cy="240.67416" r="2.5" stroke="none" stroke-width="0" fill="#3366cc"></circle><circle cx="230.16483516483515" cy="268.7094" r="2.5" stroke="none" stroke-width="0" fill="#3366cc"></circle><circle cx="232.62087912087912" cy="224.1337166879388" r="2.5" stroke="none" stroke-width="0" fill="#3366cc"></circle><circle cx="235.0769230769231" cy="251.8858" r="2.5" stroke="none" stroke-width="0" fill="#3366cc"></circle><circle cx="237.53296703296704" cy="230.3958" r="2.5" stroke="none" stroke-width="0" fill="#3366cc"></circle><circle cx="239.98901098901098" cy="237.01981577050702" r="2.5" stroke="none" stroke-width="0" fill="#3366cc"></circle><circle cx="247.35714285714286" cy="245.4432913221366" r="2.5" stroke="none" stroke-width="0" fill="#3366cc"></circle><circle cx="262.0934065934066" cy="277.7966" r="2.5" stroke="none" stroke-width="0" fill="#3366cc"></circle><circle cx="267.00549450549454" cy="211.76907408007602" r="2.5" stroke="none" stroke-width="0" fill="#3366cc"></circle><circle cx="269.46153846153845" cy="230.93612000000002" r="2.5" stroke="none" stroke-width="0" fill="#3366cc"></circle><circle cx="271.9175824175824" cy="213.2695190526478" r="2.5" stroke="none" stroke-width="0" fill="#3366cc"></circle><circle cx="274.3736263736264" cy="214.16350293119862" r="2.5" stroke="none" stroke-width="0" fill="#3366cc"></circle><circle cx="276.8296703296703" cy="216.1348644949412" r="2.5" stroke="none" stroke-width="0" fill="#3366cc"></circle><circle cx="279.2857142857143" cy="210.25871116077641" r="2.5" stroke="none" stroke-width="0" fill="#3366cc"></circle><circle cx="281.74175824175825" cy="242.18460000000002" r="2.5" stroke="none" stroke-width="0" fill="#3366cc"></circle><circle cx="284.1978021978022" cy="213.20380000000003" r="2.5" stroke="none" stroke-width="0" fill="#3366cc"></circle><circle cx="294.02197802197804" cy="200.0394953258816" r="2.5" stroke="none" stroke-width="0" fill="#3366cc"></circle><circle cx="296.47802197802196" cy="206.5512756460252" r="2.5" stroke="none" stroke-width="0" fill="#3366cc"></circle><circle cx="298.9340659340659" cy="201.0453146488388" r="2.5" stroke="none" stroke-width="0" fill="#3366cc"></circle><circle cx="301.3901098901099" cy="183.39881948251042" r="2.5" stroke="none" stroke-width="0" fill="#3366cc"></circle><circle cx="303.84615384615387" cy="204.7586675231376" r="2.5" stroke="none" stroke-width="0" fill="#3366cc"></circle><circle cx="306.30219780219784" cy="186.48230167246783" r="2.5" stroke="none" stroke-width="0" fill="#3366cc"></circle><circle cx="308.75824175824175" cy="228.85056666664622" r="2.5" stroke="none" stroke-width="0" fill="#3366cc"></circle><circle cx="311.2142857142857" cy="173.47232957037642" r="2.5" stroke="none" stroke-width="0" fill="#3366cc"></circle><circle cx="313.6703296703297" cy="191.8475885381266" r="2.5" stroke="none" stroke-width="0" fill="#3366cc"></circle><circle cx="318.5824175824176" cy="218.1158" r="2.5" stroke="none" stroke-width="0" fill="#3366cc"></circle><circle cx="323.49450549450546" cy="198.83133310775563" r="2.5" stroke="none" stroke-width="0" fill="#3366cc"></circle><circle cx="325.9505494505495" cy="203.03596000000002" r="2.5" stroke="none" stroke-width="0" fill="#3366cc"></circle><circle cx="328.4065934065934" cy="184.1773859405526" r="2.5" stroke="none" stroke-width="0" fill="#3366cc"></circle><circle cx="333.31868131868134" cy="226.282" r="2.5" stroke="none" stroke-width="0" fill="#3366cc"></circle><circle cx="345.59890109890114" cy="192.0427020556456" r="2.5" stroke="none" stroke-width="0" fill="#3366cc"></circle><circle cx="348.05494505494505" cy="232.115" r="2.5" stroke="none" stroke-width="0" fill="#3366cc"></circle><circle cx="350.510989010989" cy="186.7404" r="2.5" stroke="none" stroke-width="0" fill="#3366cc"></circle><circle cx="352.967032967033" cy="207.1847135332604" r="2.5" stroke="none" stroke-width="0" fill="#3366cc"></circle><circle cx="355.4230769230769" cy="196.97105243847759" r="2.5" stroke="none" stroke-width="0" fill="#3366cc"></circle><circle cx="357.8791208791209" cy="211.0894072727496" r="2.5" stroke="none" stroke-width="0" fill="#3366cc"></circle><circle cx="360.33516483516485" cy="221.1898294068666" r="2.5" stroke="none" stroke-width="0" fill="#3366cc"></circle><circle cx="362.79120879120876" cy="197.3723983961386" r="2.5" stroke="none" stroke-width="0" fill="#3366cc"></circle><circle cx="375.07142857142856" cy="221.57611668253782" r="2.5" stroke="none" stroke-width="0" fill="#3366cc"></circle><circle cx="377.5274725274725" cy="230.36137100202762" r="2.5" stroke="none" stroke-width="0" fill="#3366cc"></circle><circle cx="379.9835164835165" cy="204.9329772869666" r="2.5" stroke="none" stroke-width="0" fill="#3366cc"></circle><circle cx="382.4395604395604" cy="229.55448936167602" r="2.5" stroke="none" stroke-width="0" fill="#3366cc"></circle><circle cx="384.89560439560444" cy="206.4137235654266" r="2.5" stroke="none" stroke-width="0" fill="#3366cc"></circle><circle cx="387.35164835164835" cy="216.72425603585083" r="2.5" stroke="none" stroke-width="0" fill="#3366cc"></circle><circle cx="389.8076923076923" cy="221.198845688086" r="2.5" stroke="none" stroke-width="0" fill="#3366cc"></circle><circle cx="394.7197802197802" cy="253.0029765548758" r="2.5" stroke="none" stroke-width="0" fill="#3366cc"></circle><circle cx="397.1758241758242" cy="214.3135598529484" r="2.5" stroke="none" stroke-width="0" fill="#3366cc"></circle><circle cx="399.63186813186815" cy="230.7679662448088" r="2.5" stroke="none" stroke-width="0" fill="#3366cc"></circle><circle cx="402.08791208791206" cy="210.43593419901782" r="2.5" stroke="none" stroke-width="0" fill="#3366cc"></circle><circle cx="404.5439560439561" cy="270.3194444444308" r="2.5" stroke="none" stroke-width="0" fill="#3366cc"></circle><circle cx="407" cy="216.40935850536582" r="2.5" stroke="none" stroke-width="0" fill="#3366cc"></circle><circle cx="409.45604395604397" cy="222.70513351726123" r="2.5" stroke="none" stroke-width="0" fill="#3366cc"></circle><circle cx="411.91208791208794" cy="226.94205" r="2.5" stroke="none" stroke-width="0" fill="#3366cc"></circle><circle cx="419.2802197802198" cy="251.1408133333538" r="2.5" stroke="none" stroke-width="0" fill="#3366cc"></circle><circle cx="424.19230769230774" cy="244.71428" r="2.5" stroke="none" stroke-width="0" fill="#3366cc"></circle><circle cx="426.64835164835165" cy="244.56692" r="2.5" stroke="none" stroke-width="0" fill="#3366cc"></circle><circle cx="429.1043956043956" cy="236.8428" r="2.5" stroke="none" stroke-width="0" fill="#3366cc"></circle><circle cx="434.0164835164835" cy="244.63343494732342" r="2.5" stroke="none" stroke-width="0" fill="#3366cc"></circle><circle cx="436.4725274725275" cy="226.5926611021594" r="2.5" stroke="none" stroke-width="0" fill="#3366cc"></circle><circle cx="438.92857142857144" cy="239.23056683771682" r="2.5" stroke="none" stroke-width="0" fill="#3366cc"></circle><circle cx="443.84065934065933" cy="264.9026" r="2.5" stroke="none" stroke-width="0" fill="#3366cc"></circle><circle cx="446.2967032967033" cy="269.569" r="2.5" stroke="none" stroke-width="0" fill="#3366cc"></circle><circle cx="448.75274725274727" cy="277.965979310366" r="2.5" stroke="none" stroke-width="0" fill="#3366cc"></circle><circle cx="451.20879120879124" cy="273.0074" r="2.5" stroke="none" stroke-width="0" fill="#3366cc"></circle><circle cx="456.1208791208791" cy="258.3358350702768" r="2.5" stroke="none" stroke-width="0" fill="#3366cc"></circle><circle cx="458.5769230769231" cy="239.6630243437366" r="2.5" stroke="none" stroke-width="0" fill="#3366cc"></circle><circle cx="463.489010989011" cy="258.2714" r="2.5" stroke="none" stroke-width="0" fill="#3366cc"></circle><circle cx="468.4010989010989" cy="280.7438" r="2.5" stroke="none" stroke-width="0" fill="#3366cc"></circle><circle cx="470.8571428571429" cy="258.0789631446254" r="2.5" stroke="none" stroke-width="0" fill="#3366cc"></circle><circle cx="473.3131868131868" cy="265.8228028698336" r="2.5" stroke="none" stroke-width="0" fill="#3366cc"></circle><circle cx="475.7692307692308" cy="253.8700560871162" r="2.5" stroke="none" stroke-width="0" fill="#3366cc"></circle><circle cx="478.22527472527474" cy="267.786419354809" r="2.5" stroke="none" stroke-width="0" fill="#3366cc"></circle><circle cx="480.6813186813187" cy="253.4172418253008" r="2.5" stroke="none" stroke-width="0" fill="#3366cc"></circle><circle cx="483.1373626373626" cy="262.1333162880196" r="2.5" stroke="none" stroke-width="0" fill="#3366cc"></circle><circle cx="490.50549450549454" cy="251.94971635313001" r="2.5" stroke="none" stroke-width="0" fill="#3366cc"></circle><circle cx="492.96153846153845" cy="276.38849333335384" r="2.5" stroke="none" stroke-width="0" fill="#3366cc"></circle><circle cx="495.4175824175824" cy="256.6067751506014" r="2.5" stroke="none" stroke-width="0" fill="#3366cc"></circle><circle cx="497.8736263736264" cy="262.11913333335383" r="2.5" stroke="none" stroke-width="0" fill="#3366cc"></circle><circle cx="502.7857142857143" cy="252.2718422543662" r="2.5" stroke="none" stroke-width="0" fill="#3366cc"></circle><circle cx="505.24175824175825" cy="277.5687115384332" r="2.5" stroke="none" stroke-width="0" fill="#3366cc"></circle><circle cx="507.6978021978022" cy="239.97121569923422" r="2.5" stroke="none" stroke-width="0" fill="#3366cc"></circle><circle cx="510.1538461538462" cy="256.3743686220404" r="2.5" stroke="none" stroke-width="0" fill="#3366cc"></circle><circle cx="512.6098901098901" cy="275.3179658852326" r="2.5" stroke="none" stroke-width="0" fill="#3366cc"></circle><circle cx="515.065934065934" cy="262.19516980076105" r="2.5" stroke="none" stroke-width="0" fill="#3366cc"></circle><circle cx="529.8021978021977" cy="259.44737713264203" r="2.5" stroke="none" stroke-width="0" fill="#3366cc"></circle><circle cx="532.2582417582418" cy="281.881034782582" r="2.5" stroke="none" stroke-width="0" fill="#3366cc"></circle><circle cx="534.7142857142858" cy="261.0954379846176" r="2.5" stroke="none" stroke-width="0" fill="#3366cc"></circle><circle cx="537.1703296703297" cy="238.9228568366064" r="2.5" stroke="none" stroke-width="0" fill="#3366cc"></circle><circle cx="539.6263736263736" cy="256.7978" r="2.5" stroke="none" stroke-width="0" fill="#3366cc"></circle><circle cx="546.9945054945056" cy="266.12150370371285" r="2.5" stroke="none" stroke-width="0" fill="#3366cc"></circle><circle cx="549.4505494505495" cy="285.257633840275" r="2.5" stroke="none" stroke-width="0" fill="#3366cc"></circle><circle cx="551.9065934065934" cy="267.727" r="2.5" stroke="none" stroke-width="0" fill="#3366cc"></circle><circle cx="554.3626373626373" cy="305.68755" r="2.5" stroke="none" stroke-width="0" fill="#3366cc"></circle><circle cx="556.8186813186813" cy="297.0762" r="2.5" stroke="none" stroke-width="0" fill="#3366cc"></circle><circle cx="559.2747252747253" cy="271.53380000000004" r="2.5" stroke="none" stroke-width="0" fill="#3366cc"></circle><circle cx="561.7307692307693" cy="264.9026" r="2.5" stroke="none" stroke-width="0" fill="#3366cc"></circle><circle cx="569.098901098901" cy="254.5826719659432" r="2.5" stroke="none" stroke-width="0" fill="#3366cc"></circle><circle cx="576.467032967033" cy="303.3955594028582" r="2.5" stroke="none" stroke-width="0" fill="#3366cc"></circle><circle cx="578.9230769230769" cy="301.314640936859" r="2.5" stroke="none" stroke-width="0" fill="#3366cc"></circle><circle cx="581.3791208791208" cy="290.2735345216048" r="2.5" stroke="none" stroke-width="0" fill="#3366cc"></circle><circle cx="586.2912087912089" cy="272.30311193334103" r="2.5" stroke="none" stroke-width="0" fill="#3366cc"></circle><circle cx="588.7472527472528" cy="267.3064629683678" r="2.5" stroke="none" stroke-width="0" fill="#3366cc"></circle><circle cx="591.2032967032967" cy="268.6394459692332" r="2.5" stroke="none" stroke-width="0" fill="#3366cc"></circle><circle cx="593.6593406593406" cy="250.4677653288762" r="2.5" stroke="none" stroke-width="0" fill="#3366cc"></circle><circle cx="596.1153846153846" cy="253.7278" r="2.5" stroke="none" stroke-width="0" fill="#3366cc"></circle><circle cx="598.5714285714286" cy="299.5322" r="2.5" stroke="none" stroke-width="0" fill="#3366cc"></circle><circle cx="603.4835164835165" cy="275.030035519705" r="2.5" stroke="none" stroke-width="0" fill="#3366cc"></circle><circle cx="605.9395604395604" cy="262.140279219694" r="2.5" stroke="none" stroke-width="0" fill="#3366cc"></circle><circle cx="608.3956043956043" cy="262.93780000000004" r="2.5" stroke="none" stroke-width="0" fill="#3366cc"></circle><circle cx="610.8516483516484" cy="250.467950642795" r="2.5" stroke="none" stroke-width="0" fill="#3366cc"></circle><circle cx="613.3076923076924" cy="271.782959218008" r="2.5" stroke="none" stroke-width="0" fill="#3366cc"></circle><circle cx="615.7637362637363" cy="256.9236618425188" r="2.5" stroke="none" stroke-width="0" fill="#3366cc"></circle><circle cx="618.2197802197802" cy="273.867" r="2.5" stroke="none" stroke-width="0" fill="#3366cc"></circle><circle cx="620.6758241758241" cy="250.6578" r="2.5" stroke="none" stroke-width="0" fill="#3366cc"></circle><circle cx="625.5879120879122" cy="249.8576703693674" r="2.5" stroke="none" stroke-width="0" fill="#3366cc"></circle><circle cx="628.0439560439561" cy="249.1873676653574" r="2.5" stroke="none" stroke-width="0" fill="#3366cc"></circle><circle cx="630.5" cy="306.409" r="2.5" stroke="none" stroke-width="0" fill="#3366cc"></circle><circle cx="632.9560439560439" cy="285.3017759045342" r="2.5" stroke="none" stroke-width="0" fill="#3366cc"></circle><circle cx="635.4120879120879" cy="298.9756230647752" r="2.5" stroke="none" stroke-width="0" fill="#3366cc"></circle><circle cx="637.8681318681319" cy="269.4462" r="2.5" stroke="none" stroke-width="0" fill="#3366cc"></circle><circle cx="640.3241758241759" cy="292.4098" r="2.5" stroke="none" stroke-width="0" fill="#3366cc"></circle><circle cx="642.7802197802198" cy="261.7791488035988" r="2.5" stroke="none" stroke-width="0" fill="#3366cc"></circle><circle cx="645.2362637362637" cy="271.39983636362524" r="2.5" stroke="none" stroke-width="0" fill="#3366cc"></circle><circle cx="647.6923076923076" cy="284.8500264316948" r="2.5" stroke="none" stroke-width="0" fill="#3366cc"></circle><circle cx="650.1483516483516" cy="245.8140972754878" r="2.5" stroke="none" stroke-width="0" fill="#3366cc"></circle><circle cx="652.6043956043957" cy="256.37142925532964" r="2.5" stroke="none" stroke-width="0" fill="#3366cc"></circle><circle cx="655.0604395604396" cy="241.5621238568524" r="2.5" stroke="none" stroke-width="0" fill="#3366cc"></circle><circle cx="657.5164835164835" cy="269.81460000000004" r="2.5" stroke="none" stroke-width="0" fill="#3366cc"></circle><circle cx="659.9725274725274" cy="244.2128896977924" r="2.5" stroke="none" stroke-width="0" fill="#3366cc"></circle><circle cx="662.4285714285714" cy="246.6054" r="2.5" stroke="none" stroke-width="0" fill="#3366cc"></circle><circle cx="664.8846153846155" cy="244.640042654701" r="2.5" stroke="none" stroke-width="0" fill="#3366cc"></circle><circle cx="667.3406593406594" cy="279.2156269780138" r="2.5" stroke="none" stroke-width="0" fill="#3366cc"></circle><circle cx="669.7967032967033" cy="309.7246" r="2.5" stroke="none" stroke-width="0" fill="#3366cc"></circle><circle cx="672.2527472527472" cy="283.320127084914" r="2.5" stroke="none" stroke-width="0" fill="#3366cc"></circle><circle cx="674.7087912087912" cy="285.9547913043238" r="2.5" stroke="none" stroke-width="0" fill="#3366cc"></circle><circle cx="677.1648351648352" cy="242.311994814047" r="2.5" stroke="none" stroke-width="0" fill="#3366cc"></circle><circle cx="679.6208791208792" cy="264.1787263158024" r="2.5" stroke="none" stroke-width="0" fill="#3366cc"></circle><circle cx="682.0769230769231" cy="243.414853989702" r="2.5" stroke="none" stroke-width="0" fill="#3366cc"></circle><circle cx="684.532967032967" cy="238.18862347682762" r="2.5" stroke="none" stroke-width="0" fill="#3366cc"></circle><circle cx="686.9890109890109" cy="234.56249808567603" r="2.5" stroke="none" stroke-width="0" fill="#3366cc"></circle><circle cx="689.445054945055" cy="224.9995526017998" r="2.5" stroke="none" stroke-width="0" fill="#3366cc"></circle><circle cx="691.901098901099" cy="247.7704942779146" r="2.5" stroke="none" stroke-width="0" fill="#3366cc"></circle><circle cx="694.3571428571429" cy="238.8646135894646" r="2.5" stroke="none" stroke-width="0" fill="#3366cc"></circle><circle cx="696.8131868131868" cy="255.9382" r="2.5" stroke="none" stroke-width="0" fill="#3366cc"></circle><circle cx="699.2692307692308" cy="233.8321653456498" r="2.5" stroke="none" stroke-width="0" fill="#3366cc"></circle><circle cx="704.1813186813187" cy="237.3427714285802" r="2.5" stroke="none" stroke-width="0" fill="#3366cc"></circle><circle cx="706.6373626373627" cy="229.9967919161684" r="2.5" stroke="none" stroke-width="0" fill="#3366cc"></circle><circle cx="709.0934065934066" cy="294.0062" r="2.5" stroke="none" stroke-width="0" fill="#3366cc"></circle><circle cx="711.5494505494505" cy="251.52926106767723" r="2.5" stroke="none" stroke-width="0" fill="#3366cc"></circle><circle cx="714.0054945054945" cy="272.5162" r="2.5" stroke="none" stroke-width="0" fill="#3366cc"></circle><circle cx="716.4615384615385" cy="245.0094041966912" r="2.5" stroke="none" stroke-width="0" fill="#3366cc"></circle><circle cx="718.9175824175825" cy="255.6926" r="2.5" stroke="none" stroke-width="0" fill="#3366cc"></circle><circle cx="721.3736263736264" cy="231.7058203178744" r="2.5" stroke="none" stroke-width="0" fill="#3366cc"></circle><circle cx="723.8296703296703" cy="198.66449116098562" r="2.5" stroke="none" stroke-width="0" fill="#3366cc"></circle><circle cx="726.2857142857143" cy="207.3505912874022" r="2.5" stroke="none" stroke-width="0" fill="#3366cc"></circle><circle cx="728.7417582417582" cy="222.7266278681266" r="2.5" stroke="none" stroke-width="0" fill="#3366cc"></circle><circle cx="731.1978021978022" cy="229.04500000000002" r="2.5" stroke="none" stroke-width="0" fill="#3366cc"></circle><circle cx="733.6538461538462" cy="223.3923366292328" r="2.5" stroke="none" stroke-width="0" fill="#3366cc"></circle><circle cx="736.1098901098901" cy="278.165" r="2.5" stroke="none" stroke-width="0" fill="#3366cc"></circle><circle cx="748.3901098901099" cy="302.60220000000004" r="2.5" stroke="none" stroke-width="0" fill="#3366cc"></circle><circle cx="750.8461538461538" cy="273.36352" r="2.5" stroke="none" stroke-width="0" fill="#3366cc"></circle><circle cx="753.3021978021978" cy="278.2878" r="2.5" stroke="none" stroke-width="0" fill="#3366cc"></circle><circle cx="755.7582417582418" cy="256.47122263376184" r="2.5" stroke="none" stroke-width="0" fill="#3366cc"></circle><circle cx="758.2142857142858" cy="271.28819999999996" r="2.5" stroke="none" stroke-width="0" fill="#3366cc"></circle><circle cx="760.6703296703297" cy="221.56766030282222" r="2.5" stroke="none" stroke-width="0" fill="#3366cc"></circle><circle cx="763.1263736263736" cy="215.04034269781982" r="2.5" stroke="none" stroke-width="0" fill="#3366cc"></circle><circle cx="765.5824175824176" cy="211.9477419123232" r="2.5" stroke="none" stroke-width="0" fill="#3366cc"></circle><circle cx="768.0384615384615" cy="200.07340477000943" r="2.5" stroke="none" stroke-width="0" fill="#3366cc"></circle><circle cx="770.4945054945055" cy="211.25386998640462" r="2.5" stroke="none" stroke-width="0" fill="#3366cc"></circle><circle cx="772.9505494505495" cy="187.03450103016118" r="2.5" stroke="none" stroke-width="0" fill="#3366cc"></circle><circle cx="775.4065934065934" cy="201.24125844982262" r="2.5" stroke="none" stroke-width="0" fill="#3366cc"></circle><circle cx="777.8626373626374" cy="178.56451119266902" r="2.5" stroke="none" stroke-width="0" fill="#3366cc"></circle><circle cx="780.3186813186813" cy="231.1593705612364" r="2.5" stroke="none" stroke-width="0" fill="#3366cc"></circle><circle cx="782.7747252747253" cy="210.0238511628164" r="2.5" stroke="none" stroke-width="0" fill="#3366cc"></circle><circle cx="785.2307692307693" cy="204.74030770465458" r="2.5" stroke="none" stroke-width="0" fill="#3366cc"></circle><circle cx="787.6868131868132" cy="204.2897340753396" r="2.5" stroke="none" stroke-width="0" fill="#3366cc"></circle><circle cx="790.1428571428571" cy="179.3223629694486" r="2.5" stroke="none" stroke-width="0" fill="#3366cc"></circle><circle cx="792.5989010989011" cy="211.98937361019802" r="2.5" stroke="none" stroke-width="0" fill="#3366cc"></circle><circle cx="795.054945054945" cy="178.7791405053658" r="2.5" stroke="none" stroke-width="0" fill="#3366cc"></circle><circle cx="797.5109890109891" cy="207.3948260869672" r="2.5" stroke="none" stroke-width="0" fill="#3366cc"></circle><circle cx="799.967032967033" cy="209.47277254202461" r="2.5" stroke="none" stroke-width="0" fill="#3366cc"></circle><circle cx="802.4230769230769" cy="198.58379260870902" r="2.5" stroke="none" stroke-width="0" fill="#3366cc"></circle><circle cx="804.8791208791209" cy="204.95457714200458" r="2.5" stroke="none" stroke-width="0" fill="#3366cc"></circle><circle cx="807.3351648351648" cy="168.05155584516422" r="2.5" stroke="none" stroke-width="0" fill="#3366cc"></circle><circle cx="809.7912087912088" cy="198.1559669044032" r="2.5" stroke="none" stroke-width="0" fill="#3366cc"></circle><circle cx="812.2472527472528" cy="174.0419242146282" r="2.5" stroke="none" stroke-width="0" fill="#3366cc"></circle><circle cx="814.7032967032967" cy="195.7662" r="2.5" stroke="none" stroke-width="0" fill="#3366cc"></circle><circle cx="817.1593406593407" cy="168.0667219214642" r="2.5" stroke="none" stroke-width="0" fill="#3366cc"></circle><circle cx="819.6153846153846" cy="175.9033" r="2.5" stroke="none" stroke-width="0" fill="#3366cc"></circle><circle cx="822.0714285714286" cy="171.70558517775763" r="2.5" stroke="none" stroke-width="0" fill="#3366cc"></circle><circle cx="824.5274725274726" cy="165.70196572904143" r="2.5" stroke="none" stroke-width="0" fill="#3366cc"></circle><circle cx="826.9835164835165" cy="173.16470894979858" r="2.5" stroke="none" stroke-width="0" fill="#3366cc"></circle><circle cx="829.4395604395604" cy="171.6916465858818" r="2.5" stroke="none" stroke-width="0" fill="#3366cc"></circle><circle cx="831.8956043956044" cy="179.7215890113072" r="2.5" stroke="none" stroke-width="0" fill="#3366cc"></circle><circle cx="834.3516483516484" cy="153.4668166873076" r="2.5" stroke="none" stroke-width="0" fill="#3366cc"></circle><circle cx="836.8076923076924" cy="196.50300000000001" r="2.5" stroke="none" stroke-width="0" fill="#3366cc"></circle><circle cx="839.2637362637363" cy="191.0781294117936" r="2.5" stroke="none" stroke-width="0" fill="#3366cc"></circle><circle cx="844.1758241758242" cy="163.3836569234358" r="2.5" stroke="none" stroke-width="0" fill="#3366cc"></circle><circle cx="846.6318681318681" cy="179.67940000000002" r="2.5" stroke="none" stroke-width="0" fill="#3366cc"></circle><circle cx="854" cy="229.71320416210023" r="2.5" stroke="none" stroke-width="0" fill="#3366cc"></circle><circle cx="861.3681318681319" cy="206.93472157345442" r="2.5" stroke="none" stroke-width="0" fill="#3366cc"></circle><circle cx="863.8241758241759" cy="185.89562068963403" r="2.5" stroke="none" stroke-width="0" fill="#3366cc"></circle><circle cx="866.2802197802198" cy="167.6274571428396" r="2.5" stroke="none" stroke-width="0" fill="#3366cc"></circle><circle cx="878.5604395604396" cy="164.37668952140302" r="2.5" stroke="none" stroke-width="0" fill="#3366cc"></circle><circle cx="881.0164835164835" cy="171.71184705884522" r="2.5" stroke="none" stroke-width="0" fill="#3366cc"></circle><circle cx="883.4725274725275" cy="163.36270051178542" r="2.5" stroke="none" stroke-width="0" fill="#3366cc"></circle><circle cx="885.9285714285714" cy="226.2423039224506" r="2.5" stroke="none" stroke-width="0" fill="#3366cc"></circle><circle cx="888.3846153846154" cy="193.86436194913543" r="2.5" stroke="none" stroke-width="0" fill="#3366cc"></circle><circle cx="890.8406593406594" cy="171.301041497106" r="2.5" stroke="none" stroke-width="0" fill="#3366cc"></circle><circle cx="893.2967032967033" cy="192.85737500000002" r="2.5" stroke="none" stroke-width="0" fill="#3366cc"></circle><circle cx="895.7527472527472" cy="141.7283626760278" r="2.5" stroke="none" stroke-width="0" fill="#3366cc"></circle><circle cx="910.489010989011" cy="227.3766754649276" r="2.5" stroke="none" stroke-width="0" fill="#3366cc"></circle><circle cx="912.945054945055" cy="209.2742" r="2.5" stroke="none" stroke-width="0" fill="#3366cc"></circle><circle cx="920.3131868131868" cy="239.97420000000002" r="2.5" stroke="none" stroke-width="0" fill="#3366cc"></circle><circle cx="922.7692307692308" cy="212.9582" r="2.5" stroke="none" stroke-width="0" fill="#3366cc"></circle><circle cx="927.6813186813187" cy="245.02946666664621" r="2.5" stroke="none" stroke-width="0" fill="#3366cc"></circle><circle cx="930.1373626373627" cy="195.91565426355783" r="2.5" stroke="none" stroke-width="0" fill="#3366cc"></circle><circle cx="932.5934065934066" cy="213.50958040621262" r="2.5" stroke="none" stroke-width="0" fill="#3366cc"></circle><circle cx="935.0494505494505" cy="179.6492471980894" r="2.5" stroke="none" stroke-width="0" fill="#3366cc"></circle><circle cx="939.9615384615385" cy="233.34300000000002" r="2.5" stroke="none" stroke-width="0" fill="#3366cc"></circle><circle cx="944.8736263736264" cy="261.4867631242102" r="2.5" stroke="none" stroke-width="0" fill="#3366cc"></circle><circle cx="949.7857142857143" cy="235.5534" r="2.5" stroke="none" stroke-width="0" fill="#3366cc"></circle><circle cx="952.2417582417582" cy="208.78300000000002" r="2.5" stroke="none" stroke-width="0" fill="#3366cc"></circle><circle cx="954.6978021978022" cy="228.890698992485" r="2.5" stroke="none" stroke-width="0" fill="#3366cc"></circle><circle cx="957.1538461538462" cy="160.35411993739461" r="2.5" stroke="none" stroke-width="0" fill="#3366cc"></circle><circle cx="959.6098901098901" cy="168.2738848484588" r="2.5" stroke="none" stroke-width="0" fill="#3366cc"></circle><circle cx="962.0659340659341" cy="155.8484785026396" r="2.5" stroke="none" stroke-width="0" fill="#3366cc"></circle><circle cx="964.521978021978" cy="146.55774282030941" r="2.5" stroke="none" stroke-width="0" fill="#3366cc"></circle><circle cx="966.978021978022" cy="165.16692571778418" r="2.5" stroke="none" stroke-width="0" fill="#3366cc"></circle><circle cx="969.434065934066" cy="196.419981008424" r="2.5" stroke="none" stroke-width="0" fill="#3366cc"></circle><circle cx="974.3461538461538" cy="216.6331050246724" r="2.5" stroke="none" stroke-width="0" fill="#3366cc"></circle><circle cx="979.2582417582418" cy="174.03302767710102" r="2.5" stroke="none" stroke-width="0" fill="#3366cc"></circle><circle cx="981.7142857142858" cy="234.20260000000002" r="2.5" stroke="none" stroke-width="0" fill="#3366cc"></circle><circle cx="984.1703296703297" cy="199.32739999999998" r="2.5" stroke="none" stroke-width="0" fill="#3366cc"></circle><circle cx="986.6263736263736" cy="164.25732828704002" r="2.5" stroke="none" stroke-width="0" fill="#3366cc"></circle><circle cx="996.4505494505495" cy="224.615992896855" r="2.5" stroke="none" stroke-width="0" fill="#3366cc"></circle><circle cx="998.9065934065934" cy="221.9289166596502" r="2.5" stroke="none" stroke-width="0" fill="#3366cc"></circle><circle cx="1003.8186813186813" cy="222.2296" r="2.5" stroke="none" stroke-width="0" fill="#3366cc"></circle><circle cx="1006.2747252747253" cy="216.1505394820098" r="2.5" stroke="none" stroke-width="0" fill="#3366cc"></circle><circle cx="1008.7307692307693" cy="193.40659400740364" r="2.5" stroke="none" stroke-width="0" fill="#3366cc"></circle><circle cx="1011.1868131868132" cy="210.202875" r="2.5" stroke="none" stroke-width="0" fill="#3366cc"></circle><circle cx="1013.6428571428571" cy="197.16791221620463" r="2.5" stroke="none" stroke-width="0" fill="#3366cc"></circle><circle cx="1021.0109890109891" cy="239.6737804515492" r="2.5" stroke="none" stroke-width="0" fill="#3366cc"></circle><circle cx="1023.467032967033" cy="206.910117334386" r="2.5" stroke="none" stroke-width="0" fill="#3366cc"></circle><circle cx="1025.923076923077" cy="236.8305508155548" r="2.5" stroke="none" stroke-width="0" fill="#3366cc"></circle><circle cx="1028.3791208791208" cy="202.0283129196324" r="2.5" stroke="none" stroke-width="0" fill="#3366cc"></circle><circle cx="1030.835164835165" cy="202.77446574868083" r="2.5" stroke="none" stroke-width="0" fill="#3366cc"></circle><circle cx="1033.2912087912086" cy="240.83380000000002" r="2.5" stroke="none" stroke-width="0" fill="#3366cc"></circle><circle cx="1035.7472527472528" cy="188.9459061800488" r="2.5" stroke="none" stroke-width="0" fill="#3366cc"></circle><circle cx="1038.2032967032967" cy="212.51653769646362" r="2.5" stroke="none" stroke-width="0" fill="#3366cc"></circle><circle cx="1040.6593406593406" cy="193.32975387625604" r="2.5" stroke="none" stroke-width="0" fill="#3366cc"></circle><circle cx="1043.1153846153848" cy="221.7638845981014" r="2.5" stroke="none" stroke-width="0" fill="#3366cc"></circle><circle cx="1045.5714285714284" cy="198.0994" r="2.5" stroke="none" stroke-width="0" fill="#3366cc"></circle><circle cx="1048.0274725274726" cy="208.85597596469782" r="2.5" stroke="none" stroke-width="0" fill="#3366cc"></circle><circle cx="1075.043956043956" cy="246.1142" r="2.5" stroke="none" stroke-width="0" fill="#3366cc"></circle><circle cx="1077.5" cy="247.142047776827" r="2.5" stroke="none" stroke-width="0" fill="#3366cc"></circle></g><g><g><text text-anchor="middle" x="183.70467032967034" y="424.75" font-family="Arial" font-size="15" stroke="none" stroke-width="0" fill="#444444">January 2017</text></g><g><text text-anchor="middle" x="328.71359890109886" y="424.75" font-family="Arial" font-size="15" stroke="none" stroke-width="0" fill="#444444">March 2017</text></g><g><text text-anchor="middle" x="478.5322802197802" y="424.75" font-family="Arial" font-size="15" stroke="none" stroke-width="0" fill="#444444">May 2017</text></g><g><text text-anchor="middle" x="628.3509615384615" y="424.75" font-family="Arial" font-size="15" stroke="none" stroke-width="0" fill="#444444">July 2017</text></g><g><text text-anchor="middle" x="780.6256868131868" y="424.75" font-family="Arial" font-size="15" stroke="none" stroke-width="0" fill="#444444">September 2017</text></g><g><text text-anchor="middle" x="930.342032967033" y="424.75" font-family="Arial" font-size="15" stroke="none" stroke-width="0" fill="#444444">November 2017</text></g><g><text text-anchor="end" x="168" y="407.75" font-family="Arial" font-size="15" stroke="none" stroke-width="0" fill="#444444">0</text></g><g><text text-anchor="end" x="168" y="346.35" font-family="Arial" font-size="15" stroke="none" stroke-width="0" fill="#444444">10</text></g><g><text text-anchor="end" x="168" y="284.95" font-family="Arial" font-size="15" stroke="none" stroke-width="0" fill="#444444">20</text></g><g><text text-anchor="end" x="168" y="223.55" font-family="Arial" font-size="15" stroke="none" stroke-width="0" fill="#444444">30</text></g><g><text text-anchor="end" x="168" y="162.15" font-family="Arial" font-size="15" stroke="none" stroke-width="0" fill="#444444">40</text></g><g><text text-anchor="end" x="168" y="100.75" font-family="Arial" font-size="15" stroke="none" stroke-width="0" fill="#444444">50</text></g></g></g><g><g><text text-anchor="middle" x="630.5" y="467.75" font-family="Arial" font-size="15" font-style="italic" stroke="none" stroke-width="0" fill="#222222">Ano</text><rect x="183" y="455" width="895" height="15" stroke="none" stroke-width="0" fill-opacity="0" fill="#ffffff"></rect></g><g><text text-anchor="middle" x="80.75" y="249" font-family="Arial" font-size="15" font-style="italic" transform="rotate(-90 80.75 249)" stroke="none" stroke-width="0" fill="#222222">Temperatura do solo (ºC)</text><path d="M67.99999999999999,403L68.00000000000001,95L83.00000000000001,95L82.99999999999999,403Z" stroke="none" stroke-width="0" fill-opacity="0" fill="#ffffff"></path></g></g><g></g></svg>