<svg width="1261" height="498" aria-label="A chart." style="overflow: hidden;"><defs id="_ABSTRACT_RENDERER_ID_197"><clipPath id="_ABSTRACT_RENDERER_ID_198"><rect x="183" y="95" width="895" height="308"></rect></clipPath></defs><rect x="0" y="0" width="1261" height="498" stroke="none" stroke-width="0" fill="#ffffff"></rect><g><text text-anchor="start" x="183" y="68.75" font-family="Arial" font-size="15" font-weight="bold" stroke="none" stroke-width="0" fill="#000000">Maringá</text><rect x="183" y="56" width="895" height="15" stroke="none" stroke-width="0" fill-opacity="0" fill="#ffffff"></rect></g><g><rect x="1093" y="95" width="153" height="15" stroke="none" stroke-width="0" fill-opacity="0" fill="#ffffff"></rect><g column-id="LST_Day_1km"><rect x="1093" y="95" width="153" height="15" stroke="none" stroke-width="0" fill-opacity="0" fill="#ffffff"></rect><g><text text-anchor="start" x="1129" y="107.75" font-family="Arial" font-size="15" stroke="none" stroke-width="0" fill="#222222">LST_Day_1km</text></g><path d="M1093,102.5L1123,102.5" stroke="#3366cc" stroke-width="1" fill-opacity="1" fill="none"></path><circle cx="1108" cy="102.5" r="2.5" stroke="none" stroke-width="0" fill="#3366cc"></circle></g></g><g><rect x="183" y="95" width="895" height="308" stroke="none" stroke-width="0" fill-opacity="0" fill="#ffffff"></rect><g clip-path="url(https://code.earthengine.google.com/#_ABSTRACT_RENDERER_ID_198)"><g><rect x="183" y="95" width="1" height="308" stroke="none" stroke-width="0" fill="#cccccc"></rect><rect x="259" y="95" width="1" height="308" stroke="none" stroke-width="0" fill="#cccccc"></rect><rect x="328" y="95" width="1" height="308" stroke="none" stroke-width="0" fill="#cccccc"></rect><rect x="404" y="95" width="1" height="308" stroke="none" stroke-width="0" fill="#cccccc"></rect><rect x="478" y="95" width="1" height="308" stroke="none" stroke-width="0" fill="#cccccc"></rect><rect x="554" y="95" width="1" height="308" stroke="none" stroke-width="0" fill="#cccccc"></rect><rect x="628" y="95" width="1" height="308" stroke="none" stroke-width="0" fill="#cccccc"></rect><rect x="704" y="95" width="1" height="308" stroke="none" stroke-width="0" fill="#cccccc"></rect><rect x="780" y="95" width="1" height="308" stroke="none" stroke-width="0" fill="#cccccc"></rect><rect x="854" y="95" width="1" height="308" stroke="none" stroke-width="0" fill="#cccccc"></rect><rect x="930" y="95" width="1" height="308" stroke="none" stroke-width="0" fill="#cccccc"></rect><rect x="1004" y="95" width="1" height="308" stroke="none" stroke-width="0" fill="#cccccc"></rect><rect x="183" y="402" width="895" height="1" stroke="none" stroke-width="0" fill="#cccccc"></rect><rect x="183" y="341" width="895" height="1" stroke="none" stroke-width="0" fill="#cccccc"></rect><rect x="183" y="279" width="895" height="1" stroke="none" stroke-width="0" fill="#cccccc"></rect><rect x="183" y="218" width="895" height="1" stroke="none" stroke-width="0" fill="#cccccc"></rect><rect x="183" y="156" width="895" height="1" stroke="none" stroke-width="0" fill="#cccccc"></rect><rect x="183" y="95" width="895" height="1" stroke="none" stroke-width="0" fill="#cccccc"></rect><rect x="183" y="371" width="895" height="1" stroke="none" stroke-width="0" fill="#ebebeb"></rect><rect x="183" y="310" width="895" height="1" stroke="none" stroke-width="0" fill="#ebebeb"></rect><rect x="183" y="249" width="895" height="1" stroke="none" stroke-width="0" fill="#ebebeb"></rect><rect x="183" y="187" width="895" height="1" stroke="none" stroke-width="0" fill="#ebebeb"></rect><rect x="183" y="126" width="895" height="1" stroke="none" stroke-width="0" fill="#ebebeb"></rect></g><g><rect x="183" y="402" width="895" height="1" stroke="none" stroke-width="0" fill="#333333"></rect></g><g><g><path d="M188.4120879120879,267.6735327262544L190.86813186813185,231.9292617894554L193.32417582417582,235.8127211020852L195.7802197802198,238.6529128259038M227.7087912087912,218.06523529410322L230.16483516483515,228.0760589746174L232.62087912087912,241.7313971179366M237.53296703296704,225.6987L239.98901098901098,219.485390786311L242.44505494505495,266.1306L244.90109890109892,243.3958276379316L247.35714285714286,262.201L249.8131868131868,245.5957111111384M257.18131868131866,232.533830069389L259.6373626373626,270.1133139351656L262.0934065934066,219.46660000000003L264.54945054945057,222.2979646966788L267.00549450549454,223.5149623057298L269.46153846153845,215.4333950861542L271.9175824175824,228.07480163094343L274.3736263736264,196.62634600527159L276.8296703296703,208.59029444926102L279.2857142857143,197.9766M289.1098901098901,265.0254L291.5659340659341,228.6306948589324L294.02197802197804,247.34220000000002L296.47802197802196,222.54203763840042M308.75824175824175,224.94348000000002L311.2142857142857,220.14200000000002L313.6703296703297,188.97357574424402L316.1263736263736,202.04581332685902L318.5824175824176,188.96615L321.03846153846155,202.543586109057M335.77472527472526,198.16885038689023L338.2307692307692,189.50340000000003L340.6868131868132,220.6946L343.1428571428571,240.83380000000002L345.59890109890114,190.4858L348.05494505494505,196.54393333335383L350.510989010989,240.6291333333538L352.967032967033,198.77064760082862L355.4230769230769,239.36020000000002L357.8791208791209,190.31871233460524L360.33516483516485,238.51902M365.2472527472528,224.6453096621208L367.7032967032967,216.0549298335726L370.15934065934067,188.9170761677038L372.61538461538464,219.71220000000002L375.07142857142856,194.6494159514396M397.1758241758242,235.799L399.63186813186815,241.75480000000002M409.45604395604397,220.07989686119922L411.91208791208794,240.6480256410036L414.36813186813185,212.7153875838846L416.8241758241758,215.7653167240494L419.2802197802198,216.154595735351L421.7362637362637,208.16886513643502L424.19230769230774,230.3945479408398L426.64835164835165,226.9777529221638L429.1043956043956,239.483L431.5604395604396,208.8933864763672L434.0164835164835,237.3954L436.4725274725275,218.846394041357M441.3846153846154,286.5154L443.84065934065933,236.9099555769946L446.2967032967033,244.3429507754026L448.75274725274727,222.270307929533L451.20879120879124,254.7409L453.66483516483515,217.7723946902644L456.1208791208791,219.6436594781584L458.5769230769231,225.012865101007L461.03296703296706,218.85583317823642L463.489010989011,231.5005502014674L465.94505494505495,211.59694771424623L468.4010989010989,240.2650677990594L470.8571428571429,211.9814972527048L473.3131868131868,225.30201202562702L475.7692307692308,211.2739905020162L478.22527472527474,210.46033649305642L480.6813186813187,228.0635474051928L483.1373626373626,215.0488667165736L485.5934065934066,228.85405037026783L488.04945054945057,234.908549615129M492.96153846153845,228.41219843891L495.4175824175824,236.5957024390184L497.8736263736264,240.96167879696822L500.32967032967036,227.203M505.24175824175825,250.33342369654102L507.6978021978022,263.4813159457676L510.1538461538462,236.413L512.6098901098901,238.03123362503862L515.065934065934,301.497L517.521978021978,246.1181551416632L519.978021978022,247.7219701448368L522.434065934066,308.7422L524.8901098901099,298.2428L527.3461538461538,277.9632343083024L529.8021978021977,302.4466533333538L532.2582417582418,261.13376574143143L534.7142857142858,272.8846L537.1703296703297,269.876L539.6263736263736,251.1208772432644L542.0824175824175,257.6939202163972L544.5384615384615,243.7154746170742L546.9945054945056,271.411L549.4505494505495,245.0076895851746L551.9065934065934,266.462385321115L554.3626373626373,257.41179999999997M571.554945054945,287.18756842104943L574.0109890109891,300.3918L576.467032967033,282.9542L578.9230769230769,233.4524416776044M593.6593406593406,274.4679332966588L596.1153846153846,314.5138L598.5714285714286,277.6738L601.0274725274726,271.84941578535177L603.4835164835165,264.8129950529788L605.9395604395604,246.4776840933022L608.3956043956043,271.9022L610.8516483516484,236.17465636362522L613.3076923076924,236.8341990851756L615.7637362637363,259.2538L618.2197802197802,274.5117L620.6758241758241,257.9520661234648L623.1318681318681,256.8875293301588L625.5879120879122,272.8846L628.0439560439561,244.6318398457492L630.5,253.9287454545622L632.9560439560439,235.0342148297966L635.4120879120879,264.52531844382725L637.8681318681319,244.33726271532163L640.3241758241759,229.3608391677618L642.7802197802198,248.693L645.2362637362637,259.125973535971M650.1483516483516,289.0953370818272L652.6043956043957,300.25876666664624L655.0604395604396,297.1951625L657.5164835164835,248.06618003550602L659.9725274725274,246.9738L662.4285714285714,223.5291819825076L664.8846153846155,246.7691333333538L667.3406593406594,226.2267379988512L669.7967032967033,223.3962L672.2527472527472,228.4322895517194L674.7087912087912,217.8122071095776L677.1648351648352,276.17471037851897L679.6208791208792,267.5428L682.0769230769231,244.1494L684.532967032967,254.9660333333538M689.445054945055,231.9289063759852L691.901098901099,229.6790960475274L694.3571428571429,245.58791428574062L696.8131868131868,221.5586926829448L699.2692307692308,237.92422194631482L701.7252747252747,262.1819646013694M728.7417582417582,267.5942600994566L731.1978021978022,237.6262360165816L733.6538461538462,251.9022743253632L736.1098901098901,220.0848612250226M741.021978021978,255.4968116779996L743.478021978022,270.96582262929223L745.934065934066,231.9291436092528L748.3901098901099,225.3396555304642L750.8461538461538,210.86012248731942L753.3021978021978,260.973M758.2142857142858,248.4570986477248L760.6703296703297,272.8846L763.1263736263736,259.98712897523285L765.5824175824176,285.3833646392912L768.0384615384615,238.5040338635224L770.4945054945055,233.086747274683L772.9505494505495,209.2727075579364L775.4065934065934,196.99474227559L777.8626373626374,205.46635457375962L780.3186813186813,190.84915217595483M787.6868131868132,246.5139277507142L790.1428571428571,243.0731107602832L792.5989010989011,223.1729554993734L795.054945054945,204.71507208938624L797.5109890109891,177.13009410191242L799.967032967033,208.5297865515352L802.4230769230769,191.2247083392008L804.8791208791209,230.06577500000003L807.3351648351648,206.600083121069M814.7032967032967,231.2554L817.1593406593407,250.7396666666462M829.4395604395604,222.72572263362042L831.8956043956044,190.83764611773583L834.3516483516484,179.76209258236062L836.8076923076924,152.5726018287722L839.2637362637363,198.7109065989882M846.6318681318681,211.6238348702758L849.0879120879121,239.36020000000002M898.2087912087912,243.0553636363748L900.6648351648352,253.8455055218402L903.1208791208792,178.7569980450812L905.5769230769231,198.71340000000004M920.3131868131868,187.7649301703978L922.7692307692308,234.22879322458863L925.2252747252747,181.84198573012821M932.5934065934066,222.3045861504112L935.0494505494505,190.1094200202442M939.9615384615385,227.1257474564114L942.4175824175825,214.1353617640414M954.6978021978022,204.1891331233378L957.1538461538462,194.60454201434624L959.6098901098901,169.55675962442902M964.521978021978,206.36661027227743L966.978021978022,222.6583895602778L969.434065934066,185.7129733333538M976.8021978021978,199.67115367945922L979.2582417582418,221.9049564514446L981.7142857142858,181.2890016005534M986.6263736263736,235.0057681358096L989.0824175824176,226.975916982221L991.5384615384615,226.22268910153701L993.9945054945055,203.5076182151232L996.4505494505495,237.2584853839026M1001.3626373626374,239.1888624505924L1003.8186813186813,226.4238551724392M1008.7307692307693,196.43186168277902L1011.1868131868132,213.9046771209322L1013.6428571428571,187.0221176470516L1016.0989010989011,175.67946226092383L1018.554945054945,201.8588267733892L1021.0109890109891,216.38304969386502L1023.467032967033,211.6046249202254L1025.923076923077,165.9103586988754L1028.3791208791208,200.05317372027582L1030.835164835165,174.99202403128302L1033.2912087912086,184.1277164813468L1035.7472527472528,194.6552753641232L1038.2032967032967,183.7318M1043.1153846153848,183.265789743574L1045.5714285714284,236.9042L1048.0274725274726,193.19710519179822L1050.4835164835165,201.85285684574043L1052.9395604395604,193.97526298402744L1055.3956043956046,231.82846666664622M1065.2197802197802,217.0113251522358L1067.6758241758243,238.1630360413398L1070.131868131868,226.61398956133823L1072.5879120879122,250.0438" stroke="#3366cc" stroke-width="1" fill-opacity="1" fill="none"></path></g></g></g><g><circle cx="183.5" cy="259.45846666664625" r="2.5" stroke="none" stroke-width="0" fill="#3366cc"></circle><circle cx="188.4120879120879" cy="267.6735327262544" r="2.5" stroke="none" stroke-width="0" fill="#3366cc"></circle><circle cx="190.86813186813185" cy="231.9292617894554" r="2.5" stroke="none" stroke-width="0" fill="#3366cc"></circle><circle cx="193.32417582417582" cy="235.8127211020852" r="2.5" stroke="none" stroke-width="0" fill="#3366cc"></circle><circle cx="195.7802197802198" cy="238.6529128259038" r="2.5" stroke="none" stroke-width="0" fill="#3366cc"></circle><circle cx="200.69230769230768" cy="263.50268" r="2.5" stroke="none" stroke-width="0" fill="#3366cc"></circle><circle cx="212.97252747252747" cy="261.8326" r="2.5" stroke="none" stroke-width="0" fill="#3366cc"></circle><circle cx="217.8846153846154" cy="247.58780000000002" r="2.5" stroke="none" stroke-width="0" fill="#3366cc"></circle><circle cx="227.7087912087912" cy="218.06523529410322" r="2.5" stroke="none" stroke-width="0" fill="#3366cc"></circle><circle cx="230.16483516483515" cy="228.0760589746174" r="2.5" stroke="none" stroke-width="0" fill="#3366cc"></circle><circle cx="232.62087912087912" cy="241.7313971179366" r="2.5" stroke="none" stroke-width="0" fill="#3366cc"></circle><circle cx="237.53296703296704" cy="225.6987" r="2.5" stroke="none" stroke-width="0" fill="#3366cc"></circle><circle cx="239.98901098901098" cy="219.485390786311" r="2.5" stroke="none" stroke-width="0" fill="#3366cc"></circle><circle cx="242.44505494505495" cy="266.1306" r="2.5" stroke="none" stroke-width="0" fill="#3366cc"></circle><circle cx="244.90109890109892" cy="243.3958276379316" r="2.5" stroke="none" stroke-width="0" fill="#3366cc"></circle><circle cx="247.35714285714286" cy="262.201" r="2.5" stroke="none" stroke-width="0" fill="#3366cc"></circle><circle cx="249.8131868131868" cy="245.5957111111384" r="2.5" stroke="none" stroke-width="0" fill="#3366cc"></circle><circle cx="257.18131868131866" cy="232.533830069389" r="2.5" stroke="none" stroke-width="0" fill="#3366cc"></circle><circle cx="259.6373626373626" cy="270.1133139351656" r="2.5" stroke="none" stroke-width="0" fill="#3366cc"></circle><circle cx="262.0934065934066" cy="219.46660000000003" r="2.5" stroke="none" stroke-width="0" fill="#3366cc"></circle><circle cx="264.54945054945057" cy="222.2979646966788" r="2.5" stroke="none" stroke-width="0" fill="#3366cc"></circle><circle cx="267.00549450549454" cy="223.5149623057298" r="2.5" stroke="none" stroke-width="0" fill="#3366cc"></circle><circle cx="269.46153846153845" cy="215.4333950861542" r="2.5" stroke="none" stroke-width="0" fill="#3366cc"></circle><circle cx="271.9175824175824" cy="228.07480163094343" r="2.5" stroke="none" stroke-width="0" fill="#3366cc"></circle><circle cx="274.3736263736264" cy="196.62634600527159" r="2.5" stroke="none" stroke-width="0" fill="#3366cc"></circle><circle cx="276.8296703296703" cy="208.59029444926102" r="2.5" stroke="none" stroke-width="0" fill="#3366cc"></circle><circle cx="279.2857142857143" cy="197.9766" r="2.5" stroke="none" stroke-width="0" fill="#3366cc"></circle><circle cx="289.1098901098901" cy="265.0254" r="2.5" stroke="none" stroke-width="0" fill="#3366cc"></circle><circle cx="291.5659340659341" cy="228.6306948589324" r="2.5" stroke="none" stroke-width="0" fill="#3366cc"></circle><circle cx="294.02197802197804" cy="247.34220000000002" r="2.5" stroke="none" stroke-width="0" fill="#3366cc"></circle><circle cx="296.47802197802196" cy="222.54203763840042" r="2.5" stroke="none" stroke-width="0" fill="#3366cc"></circle><circle cx="308.75824175824175" cy="224.94348000000002" r="2.5" stroke="none" stroke-width="0" fill="#3366cc"></circle><circle cx="311.2142857142857" cy="220.14200000000002" r="2.5" stroke="none" stroke-width="0" fill="#3366cc"></circle><circle cx="313.6703296703297" cy="188.97357574424402" r="2.5" stroke="none" stroke-width="0" fill="#3366cc"></circle><circle cx="316.1263736263736" cy="202.04581332685902" r="2.5" stroke="none" stroke-width="0" fill="#3366cc"></circle><circle cx="318.5824175824176" cy="188.96615" r="2.5" stroke="none" stroke-width="0" fill="#3366cc"></circle><circle cx="321.03846153846155" cy="202.543586109057" r="2.5" stroke="none" stroke-width="0" fill="#3366cc"></circle><circle cx="328.4065934065934" cy="227.5714" r="2.5" stroke="none" stroke-width="0" fill="#3366cc"></circle><circle cx="335.77472527472526" cy="198.16885038689023" r="2.5" stroke="none" stroke-width="0" fill="#3366cc"></circle><circle cx="338.2307692307692" cy="189.50340000000003" r="2.5" stroke="none" stroke-width="0" fill="#3366cc"></circle><circle cx="340.6868131868132" cy="220.6946" r="2.5" stroke="none" stroke-width="0" fill="#3366cc"></circle><circle cx="343.1428571428571" cy="240.83380000000002" r="2.5" stroke="none" stroke-width="0" fill="#3366cc"></circle><circle cx="345.59890109890114" cy="190.4858" r="2.5" stroke="none" stroke-width="0" fill="#3366cc"></circle><circle cx="348.05494505494505" cy="196.54393333335383" r="2.5" stroke="none" stroke-width="0" fill="#3366cc"></circle><circle cx="350.510989010989" cy="240.6291333333538" r="2.5" stroke="none" stroke-width="0" fill="#3366cc"></circle><circle cx="352.967032967033" cy="198.77064760082862" r="2.5" stroke="none" stroke-width="0" fill="#3366cc"></circle><circle cx="355.4230769230769" cy="239.36020000000002" r="2.5" stroke="none" stroke-width="0" fill="#3366cc"></circle><circle cx="357.8791208791209" cy="190.31871233460524" r="2.5" stroke="none" stroke-width="0" fill="#3366cc"></circle><circle cx="360.33516483516485" cy="238.51902" r="2.5" stroke="none" stroke-width="0" fill="#3366cc"></circle><circle cx="365.2472527472528" cy="224.6453096621208" r="2.5" stroke="none" stroke-width="0" fill="#3366cc"></circle><circle cx="367.7032967032967" cy="216.0549298335726" r="2.5" stroke="none" stroke-width="0" fill="#3366cc"></circle><circle cx="370.15934065934067" cy="188.9170761677038" r="2.5" stroke="none" stroke-width="0" fill="#3366cc"></circle><circle cx="372.61538461538464" cy="219.71220000000002" r="2.5" stroke="none" stroke-width="0" fill="#3366cc"></circle><circle cx="375.07142857142856" cy="194.6494159514396" r="2.5" stroke="none" stroke-width="0" fill="#3366cc"></circle><circle cx="379.9835164835165" cy="233.34300000000002" r="2.5" stroke="none" stroke-width="0" fill="#3366cc"></circle><circle cx="384.89560439560444" cy="223.9381459201376" r="2.5" stroke="none" stroke-width="0" fill="#3366cc"></circle><circle cx="397.1758241758242" cy="235.799" r="2.5" stroke="none" stroke-width="0" fill="#3366cc"></circle><circle cx="399.63186813186815" cy="241.75480000000002" r="2.5" stroke="none" stroke-width="0" fill="#3366cc"></circle><circle cx="409.45604395604397" cy="220.07989686119922" r="2.5" stroke="none" stroke-width="0" fill="#3366cc"></circle><circle cx="411.91208791208794" cy="240.6480256410036" r="2.5" stroke="none" stroke-width="0" fill="#3366cc"></circle><circle cx="414.36813186813185" cy="212.7153875838846" r="2.5" stroke="none" stroke-width="0" fill="#3366cc"></circle><circle cx="416.8241758241758" cy="215.7653167240494" r="2.5" stroke="none" stroke-width="0" fill="#3366cc"></circle><circle cx="419.2802197802198" cy="216.154595735351" r="2.5" stroke="none" stroke-width="0" fill="#3366cc"></circle><circle cx="421.7362637362637" cy="208.16886513643502" r="2.5" stroke="none" stroke-width="0" fill="#3366cc"></circle><circle cx="424.19230769230774" cy="230.3945479408398" r="2.5" stroke="none" stroke-width="0" fill="#3366cc"></circle><circle cx="426.64835164835165" cy="226.9777529221638" r="2.5" stroke="none" stroke-width="0" fill="#3366cc"></circle><circle cx="429.1043956043956" cy="239.483" r="2.5" stroke="none" stroke-width="0" fill="#3366cc"></circle><circle cx="431.5604395604396" cy="208.8933864763672" r="2.5" stroke="none" stroke-width="0" fill="#3366cc"></circle><circle cx="434.0164835164835" cy="237.3954" r="2.5" stroke="none" stroke-width="0" fill="#3366cc"></circle><circle cx="436.4725274725275" cy="218.846394041357" r="2.5" stroke="none" stroke-width="0" fill="#3366cc"></circle><circle cx="441.3846153846154" cy="286.5154" r="2.5" stroke="none" stroke-width="0" fill="#3366cc"></circle><circle cx="443.84065934065933" cy="236.9099555769946" r="2.5" stroke="none" stroke-width="0" fill="#3366cc"></circle><circle cx="446.2967032967033" cy="244.3429507754026" r="2.5" stroke="none" stroke-width="0" fill="#3366cc"></circle><circle cx="448.75274725274727" cy="222.270307929533" r="2.5" stroke="none" stroke-width="0" fill="#3366cc"></circle><circle cx="451.20879120879124" cy="254.7409" r="2.5" stroke="none" stroke-width="0" fill="#3366cc"></circle><circle cx="453.66483516483515" cy="217.7723946902644" r="2.5" stroke="none" stroke-width="0" fill="#3366cc"></circle><circle cx="456.1208791208791" cy="219.6436594781584" r="2.5" stroke="none" stroke-width="0" fill="#3366cc"></circle><circle cx="458.5769230769231" cy="225.012865101007" r="2.5" stroke="none" stroke-width="0" fill="#3366cc"></circle><circle cx="461.03296703296706" cy="218.85583317823642" r="2.5" stroke="none" stroke-width="0" fill="#3366cc"></circle><circle cx="463.489010989011" cy="231.5005502014674" r="2.5" stroke="none" stroke-width="0" fill="#3366cc"></circle><circle cx="465.94505494505495" cy="211.59694771424623" r="2.5" stroke="none" stroke-width="0" fill="#3366cc"></circle><circle cx="468.4010989010989" cy="240.2650677990594" r="2.5" stroke="none" stroke-width="0" fill="#3366cc"></circle><circle cx="470.8571428571429" cy="211.9814972527048" r="2.5" stroke="none" stroke-width="0" fill="#3366cc"></circle><circle cx="473.3131868131868" cy="225.30201202562702" r="2.5" stroke="none" stroke-width="0" fill="#3366cc"></circle><circle cx="475.7692307692308" cy="211.2739905020162" r="2.5" stroke="none" stroke-width="0" fill="#3366cc"></circle><circle cx="478.22527472527474" cy="210.46033649305642" r="2.5" stroke="none" stroke-width="0" fill="#3366cc"></circle><circle cx="480.6813186813187" cy="228.0635474051928" r="2.5" stroke="none" stroke-width="0" fill="#3366cc"></circle><circle cx="483.1373626373626" cy="215.0488667165736" r="2.5" stroke="none" stroke-width="0" fill="#3366cc"></circle><circle cx="485.5934065934066" cy="228.85405037026783" r="2.5" stroke="none" stroke-width="0" fill="#3366cc"></circle><circle cx="488.04945054945057" cy="234.908549615129" r="2.5" stroke="none" stroke-width="0" fill="#3366cc"></circle><circle cx="492.96153846153845" cy="228.41219843891" r="2.5" stroke="none" stroke-width="0" fill="#3366cc"></circle><circle cx="495.4175824175824" cy="236.5957024390184" r="2.5" stroke="none" stroke-width="0" fill="#3366cc"></circle><circle cx="497.8736263736264" cy="240.96167879696822" r="2.5" stroke="none" stroke-width="0" fill="#3366cc"></circle><circle cx="500.32967032967036" cy="227.203" r="2.5" stroke="none" stroke-width="0" fill="#3366cc"></circle><circle cx="505.24175824175825" cy="250.33342369654102" r="2.5" stroke="none" stroke-width="0" fill="#3366cc"></circle><circle cx="507.6978021978022" cy="263.4813159457676" r="2.5" stroke="none" stroke-width="0" fill="#3366cc"></circle><circle cx="510.1538461538462" cy="236.413" r="2.5" stroke="none" stroke-width="0" fill="#3366cc"></circle><circle cx="512.6098901098901" cy="238.03123362503862" r="2.5" stroke="none" stroke-width="0" fill="#3366cc"></circle><circle cx="515.065934065934" cy="301.497" r="2.5" stroke="none" stroke-width="0" fill="#3366cc"></circle><circle cx="517.521978021978" cy="246.1181551416632" r="2.5" stroke="none" stroke-width="0" fill="#3366cc"></circle><circle cx="519.978021978022" cy="247.7219701448368" r="2.5" stroke="none" stroke-width="0" fill="#3366cc"></circle><circle cx="522.434065934066" cy="308.7422" r="2.5" stroke="none" stroke-width="0" fill="#3366cc"></circle><circle cx="524.8901098901099" cy="298.2428" r="2.5" stroke="none" stroke-width="0" fill="#3366cc"></circle><circle cx="527.3461538461538" cy="277.9632343083024" r="2.5" stroke="none" stroke-width="0" fill="#3366cc"></circle><circle cx="529.8021978021977" cy="302.4466533333538" r="2.5" stroke="none" stroke-width="0" fill="#3366cc"></circle><circle cx="532.2582417582418" cy="261.13376574143143" r="2.5" stroke="none" stroke-width="0" fill="#3366cc"></circle><circle cx="534.7142857142858" cy="272.8846" r="2.5" stroke="none" stroke-width="0" fill="#3366cc"></circle><circle cx="537.1703296703297" cy="269.876" r="2.5" stroke="none" stroke-width="0" fill="#3366cc"></circle><circle cx="539.6263736263736" cy="251.1208772432644" r="2.5" stroke="none" stroke-width="0" fill="#3366cc"></circle><circle cx="542.0824175824175" cy="257.6939202163972" r="2.5" stroke="none" stroke-width="0" fill="#3366cc"></circle><circle cx="544.5384615384615" cy="243.7154746170742" r="2.5" stroke="none" stroke-width="0" fill="#3366cc"></circle><circle cx="546.9945054945056" cy="271.411" r="2.5" stroke="none" stroke-width="0" fill="#3366cc"></circle><circle cx="549.4505494505495" cy="245.0076895851746" r="2.5" stroke="none" stroke-width="0" fill="#3366cc"></circle><circle cx="551.9065934065934" cy="266.462385321115" r="2.5" stroke="none" stroke-width="0" fill="#3366cc"></circle><circle cx="554.3626373626373" cy="257.41179999999997" r="2.5" stroke="none" stroke-width="0" fill="#3366cc"></circle><circle cx="566.6428571428571" cy="273.7495391304508" r="2.5" stroke="none" stroke-width="0" fill="#3366cc"></circle><circle cx="571.554945054945" cy="287.18756842104943" r="2.5" stroke="none" stroke-width="0" fill="#3366cc"></circle><circle cx="574.0109890109891" cy="300.3918" r="2.5" stroke="none" stroke-width="0" fill="#3366cc"></circle><circle cx="576.467032967033" cy="282.9542" r="2.5" stroke="none" stroke-width="0" fill="#3366cc"></circle><circle cx="578.9230769230769" cy="233.4524416776044" r="2.5" stroke="none" stroke-width="0" fill="#3366cc"></circle><circle cx="583.8351648351648" cy="295.1640285714198" r="2.5" stroke="none" stroke-width="0" fill="#3366cc"></circle><circle cx="588.7472527472528" cy="297.813" r="2.5" stroke="none" stroke-width="0" fill="#3366cc"></circle><circle cx="593.6593406593406" cy="274.4679332966588" r="2.5" stroke="none" stroke-width="0" fill="#3366cc"></circle><circle cx="596.1153846153846" cy="314.5138" r="2.5" stroke="none" stroke-width="0" fill="#3366cc"></circle><circle cx="598.5714285714286" cy="277.6738" r="2.5" stroke="none" stroke-width="0" fill="#3366cc"></circle><circle cx="601.0274725274726" cy="271.84941578535177" r="2.5" stroke="none" stroke-width="0" fill="#3366cc"></circle><circle cx="603.4835164835165" cy="264.8129950529788" r="2.5" stroke="none" stroke-width="0" fill="#3366cc"></circle><circle cx="605.9395604395604" cy="246.4776840933022" r="2.5" stroke="none" stroke-width="0" fill="#3366cc"></circle><circle cx="608.3956043956043" cy="271.9022" r="2.5" stroke="none" stroke-width="0" fill="#3366cc"></circle><circle cx="610.8516483516484" cy="236.17465636362522" r="2.5" stroke="none" stroke-width="0" fill="#3366cc"></circle><circle cx="613.3076923076924" cy="236.8341990851756" r="2.5" stroke="none" stroke-width="0" fill="#3366cc"></circle><circle cx="615.7637362637363" cy="259.2538" r="2.5" stroke="none" stroke-width="0" fill="#3366cc"></circle><circle cx="618.2197802197802" cy="274.5117" r="2.5" stroke="none" stroke-width="0" fill="#3366cc"></circle><circle cx="620.6758241758241" cy="257.9520661234648" r="2.5" stroke="none" stroke-width="0" fill="#3366cc"></circle><circle cx="623.1318681318681" cy="256.8875293301588" r="2.5" stroke="none" stroke-width="0" fill="#3366cc"></circle><circle cx="625.5879120879122" cy="272.8846" r="2.5" stroke="none" stroke-width="0" fill="#3366cc"></circle><circle cx="628.0439560439561" cy="244.6318398457492" r="2.5" stroke="none" stroke-width="0" fill="#3366cc"></circle><circle cx="630.5" cy="253.9287454545622" r="2.5" stroke="none" stroke-width="0" fill="#3366cc"></circle><circle cx="632.9560439560439" cy="235.0342148297966" r="2.5" stroke="none" stroke-width="0" fill="#3366cc"></circle><circle cx="635.4120879120879" cy="264.52531844382725" r="2.5" stroke="none" stroke-width="0" fill="#3366cc"></circle><circle cx="637.8681318681319" cy="244.33726271532163" r="2.5" stroke="none" stroke-width="0" fill="#3366cc"></circle><circle cx="640.3241758241759" cy="229.3608391677618" r="2.5" stroke="none" stroke-width="0" fill="#3366cc"></circle><circle cx="642.7802197802198" cy="248.693" r="2.5" stroke="none" stroke-width="0" fill="#3366cc"></circle><circle cx="645.2362637362637" cy="259.125973535971" r="2.5" stroke="none" stroke-width="0" fill="#3366cc"></circle><circle cx="650.1483516483516" cy="289.0953370818272" r="2.5" stroke="none" stroke-width="0" fill="#3366cc"></circle><circle cx="652.6043956043957" cy="300.25876666664624" r="2.5" stroke="none" stroke-width="0" fill="#3366cc"></circle><circle cx="655.0604395604396" cy="297.1951625" r="2.5" stroke="none" stroke-width="0" fill="#3366cc"></circle><circle cx="657.5164835164835" cy="248.06618003550602" r="2.5" stroke="none" stroke-width="0" fill="#3366cc"></circle><circle cx="659.9725274725274" cy="246.9738" r="2.5" stroke="none" stroke-width="0" fill="#3366cc"></circle><circle cx="662.4285714285714" cy="223.5291819825076" r="2.5" stroke="none" stroke-width="0" fill="#3366cc"></circle><circle cx="664.8846153846155" cy="246.7691333333538" r="2.5" stroke="none" stroke-width="0" fill="#3366cc"></circle><circle cx="667.3406593406594" cy="226.2267379988512" r="2.5" stroke="none" stroke-width="0" fill="#3366cc"></circle><circle cx="669.7967032967033" cy="223.3962" r="2.5" stroke="none" stroke-width="0" fill="#3366cc"></circle><circle cx="672.2527472527472" cy="228.4322895517194" r="2.5" stroke="none" stroke-width="0" fill="#3366cc"></circle><circle cx="674.7087912087912" cy="217.8122071095776" r="2.5" stroke="none" stroke-width="0" fill="#3366cc"></circle><circle cx="677.1648351648352" cy="276.17471037851897" r="2.5" stroke="none" stroke-width="0" fill="#3366cc"></circle><circle cx="679.6208791208792" cy="267.5428" r="2.5" stroke="none" stroke-width="0" fill="#3366cc"></circle><circle cx="682.0769230769231" cy="244.1494" r="2.5" stroke="none" stroke-width="0" fill="#3366cc"></circle><circle cx="684.532967032967" cy="254.9660333333538" r="2.5" stroke="none" stroke-width="0" fill="#3366cc"></circle><circle cx="689.445054945055" cy="231.9289063759852" r="2.5" stroke="none" stroke-width="0" fill="#3366cc"></circle><circle cx="691.901098901099" cy="229.6790960475274" r="2.5" stroke="none" stroke-width="0" fill="#3366cc"></circle><circle cx="694.3571428571429" cy="245.58791428574062" r="2.5" stroke="none" stroke-width="0" fill="#3366cc"></circle><circle cx="696.8131868131868" cy="221.5586926829448" r="2.5" stroke="none" stroke-width="0" fill="#3366cc"></circle><circle cx="699.2692307692308" cy="237.92422194631482" r="2.5" stroke="none" stroke-width="0" fill="#3366cc"></circle><circle cx="701.7252747252747" cy="262.1819646013694" r="2.5" stroke="none" stroke-width="0" fill="#3366cc"></circle><circle cx="706.6373626373627" cy="258.4029830795986" r="2.5" stroke="none" stroke-width="0" fill="#3366cc"></circle><circle cx="718.9175824175825" cy="271.53380000000004" r="2.5" stroke="none" stroke-width="0" fill="#3366cc"></circle><circle cx="723.8296703296703" cy="290.7677069767142" r="2.5" stroke="none" stroke-width="0" fill="#3366cc"></circle><circle cx="728.7417582417582" cy="267.5942600994566" r="2.5" stroke="none" stroke-width="0" fill="#3366cc"></circle><circle cx="731.1978021978022" cy="237.6262360165816" r="2.5" stroke="none" stroke-width="0" fill="#3366cc"></circle><circle cx="733.6538461538462" cy="251.9022743253632" r="2.5" stroke="none" stroke-width="0" fill="#3366cc"></circle><circle cx="736.1098901098901" cy="220.0848612250226" r="2.5" stroke="none" stroke-width="0" fill="#3366cc"></circle><circle cx="741.021978021978" cy="255.4968116779996" r="2.5" stroke="none" stroke-width="0" fill="#3366cc"></circle><circle cx="743.478021978022" cy="270.96582262929223" r="2.5" stroke="none" stroke-width="0" fill="#3366cc"></circle><circle cx="745.934065934066" cy="231.9291436092528" r="2.5" stroke="none" stroke-width="0" fill="#3366cc"></circle><circle cx="748.3901098901099" cy="225.3396555304642" r="2.5" stroke="none" stroke-width="0" fill="#3366cc"></circle><circle cx="750.8461538461538" cy="210.86012248731942" r="2.5" stroke="none" stroke-width="0" fill="#3366cc"></circle><circle cx="753.3021978021978" cy="260.973" r="2.5" stroke="none" stroke-width="0" fill="#3366cc"></circle><circle cx="758.2142857142858" cy="248.4570986477248" r="2.5" stroke="none" stroke-width="0" fill="#3366cc"></circle><circle cx="760.6703296703297" cy="272.8846" r="2.5" stroke="none" stroke-width="0" fill="#3366cc"></circle><circle cx="763.1263736263736" cy="259.98712897523285" r="2.5" stroke="none" stroke-width="0" fill="#3366cc"></circle><circle cx="765.5824175824176" cy="285.3833646392912" r="2.5" stroke="none" stroke-width="0" fill="#3366cc"></circle><circle cx="768.0384615384615" cy="238.5040338635224" r="2.5" stroke="none" stroke-width="0" fill="#3366cc"></circle><circle cx="770.4945054945055" cy="233.086747274683" r="2.5" stroke="none" stroke-width="0" fill="#3366cc"></circle><circle cx="772.9505494505495" cy="209.2727075579364" r="2.5" stroke="none" stroke-width="0" fill="#3366cc"></circle><circle cx="775.4065934065934" cy="196.99474227559" r="2.5" stroke="none" stroke-width="0" fill="#3366cc"></circle><circle cx="777.8626373626374" cy="205.46635457375962" r="2.5" stroke="none" stroke-width="0" fill="#3366cc"></circle><circle cx="780.3186813186813" cy="190.84915217595483" r="2.5" stroke="none" stroke-width="0" fill="#3366cc"></circle><circle cx="787.6868131868132" cy="246.5139277507142" r="2.5" stroke="none" stroke-width="0" fill="#3366cc"></circle><circle cx="790.1428571428571" cy="243.0731107602832" r="2.5" stroke="none" stroke-width="0" fill="#3366cc"></circle><circle cx="792.5989010989011" cy="223.1729554993734" r="2.5" stroke="none" stroke-width="0" fill="#3366cc"></circle><circle cx="795.054945054945" cy="204.71507208938624" r="2.5" stroke="none" stroke-width="0" fill="#3366cc"></circle><circle cx="797.5109890109891" cy="177.13009410191242" r="2.5" stroke="none" stroke-width="0" fill="#3366cc"></circle><circle cx="799.967032967033" cy="208.5297865515352" r="2.5" stroke="none" stroke-width="0" fill="#3366cc"></circle><circle cx="802.4230769230769" cy="191.2247083392008" r="2.5" stroke="none" stroke-width="0" fill="#3366cc"></circle><circle cx="804.8791208791209" cy="230.06577500000003" r="2.5" stroke="none" stroke-width="0" fill="#3366cc"></circle><circle cx="807.3351648351648" cy="206.600083121069" r="2.5" stroke="none" stroke-width="0" fill="#3366cc"></circle><circle cx="814.7032967032967" cy="231.2554" r="2.5" stroke="none" stroke-width="0" fill="#3366cc"></circle><circle cx="817.1593406593407" cy="250.7396666666462" r="2.5" stroke="none" stroke-width="0" fill="#3366cc"></circle><circle cx="824.5274725274726" cy="195.4629480749524" r="2.5" stroke="none" stroke-width="0" fill="#3366cc"></circle><circle cx="829.4395604395604" cy="222.72572263362042" r="2.5" stroke="none" stroke-width="0" fill="#3366cc"></circle><circle cx="831.8956043956044" cy="190.83764611773583" r="2.5" stroke="none" stroke-width="0" fill="#3366cc"></circle><circle cx="834.3516483516484" cy="179.76209258236062" r="2.5" stroke="none" stroke-width="0" fill="#3366cc"></circle><circle cx="836.8076923076924" cy="152.5726018287722" r="2.5" stroke="none" stroke-width="0" fill="#3366cc"></circle><circle cx="839.2637362637363" cy="198.7109065989882" r="2.5" stroke="none" stroke-width="0" fill="#3366cc"></circle><circle cx="846.6318681318681" cy="211.6238348702758" r="2.5" stroke="none" stroke-width="0" fill="#3366cc"></circle><circle cx="849.0879120879121" cy="239.36020000000002" r="2.5" stroke="none" stroke-width="0" fill="#3366cc"></circle><circle cx="854" cy="219.667051583785" r="2.5" stroke="none" stroke-width="0" fill="#3366cc"></circle><circle cx="858.9120879120879" cy="206.32692593483782" r="2.5" stroke="none" stroke-width="0" fill="#3366cc"></circle><circle cx="868.7362637362637" cy="185.74278689062461" r="2.5" stroke="none" stroke-width="0" fill="#3366cc"></circle><circle cx="881.0164835164835" cy="221.1858" r="2.5" stroke="none" stroke-width="0" fill="#3366cc"></circle><circle cx="885.9285714285714" cy="203.11455200000003" r="2.5" stroke="none" stroke-width="0" fill="#3366cc"></circle><circle cx="890.8406593406594" cy="211.22672" r="2.5" stroke="none" stroke-width="0" fill="#3366cc"></circle><circle cx="898.2087912087912" cy="243.0553636363748" r="2.5" stroke="none" stroke-width="0" fill="#3366cc"></circle><circle cx="900.6648351648352" cy="253.8455055218402" r="2.5" stroke="none" stroke-width="0" fill="#3366cc"></circle><circle cx="903.1208791208792" cy="178.7569980450812" r="2.5" stroke="none" stroke-width="0" fill="#3366cc"></circle><circle cx="905.5769230769231" cy="198.71340000000004" r="2.5" stroke="none" stroke-width="0" fill="#3366cc"></circle><circle cx="920.3131868131868" cy="187.7649301703978" r="2.5" stroke="none" stroke-width="0" fill="#3366cc"></circle><circle cx="922.7692307692308" cy="234.22879322458863" r="2.5" stroke="none" stroke-width="0" fill="#3366cc"></circle><circle cx="925.2252747252747" cy="181.84198573012821" r="2.5" stroke="none" stroke-width="0" fill="#3366cc"></circle><circle cx="932.5934065934066" cy="222.3045861504112" r="2.5" stroke="none" stroke-width="0" fill="#3366cc"></circle><circle cx="935.0494505494505" cy="190.1094200202442" r="2.5" stroke="none" stroke-width="0" fill="#3366cc"></circle><circle cx="939.9615384615385" cy="227.1257474564114" r="2.5" stroke="none" stroke-width="0" fill="#3366cc"></circle><circle cx="942.4175824175825" cy="214.1353617640414" r="2.5" stroke="none" stroke-width="0" fill="#3366cc"></circle><circle cx="947.3296703296703" cy="187.44325588059058" r="2.5" stroke="none" stroke-width="0" fill="#3366cc"></circle><circle cx="954.6978021978022" cy="204.1891331233378" r="2.5" stroke="none" stroke-width="0" fill="#3366cc"></circle><circle cx="957.1538461538462" cy="194.60454201434624" r="2.5" stroke="none" stroke-width="0" fill="#3366cc"></circle><circle cx="959.6098901098901" cy="169.55675962442902" r="2.5" stroke="none" stroke-width="0" fill="#3366cc"></circle><circle cx="964.521978021978" cy="206.36661027227743" r="2.5" stroke="none" stroke-width="0" fill="#3366cc"></circle><circle cx="966.978021978022" cy="222.6583895602778" r="2.5" stroke="none" stroke-width="0" fill="#3366cc"></circle><circle cx="969.434065934066" cy="185.7129733333538" r="2.5" stroke="none" stroke-width="0" fill="#3366cc"></circle><circle cx="976.8021978021978" cy="199.67115367945922" r="2.5" stroke="none" stroke-width="0" fill="#3366cc"></circle><circle cx="979.2582417582418" cy="221.9049564514446" r="2.5" stroke="none" stroke-width="0" fill="#3366cc"></circle><circle cx="981.7142857142858" cy="181.2890016005534" r="2.5" stroke="none" stroke-width="0" fill="#3366cc"></circle><circle cx="986.6263736263736" cy="235.0057681358096" r="2.5" stroke="none" stroke-width="0" fill="#3366cc"></circle><circle cx="989.0824175824176" cy="226.975916982221" r="2.5" stroke="none" stroke-width="0" fill="#3366cc"></circle><circle cx="991.5384615384615" cy="226.22268910153701" r="2.5" stroke="none" stroke-width="0" fill="#3366cc"></circle><circle cx="993.9945054945055" cy="203.5076182151232" r="2.5" stroke="none" stroke-width="0" fill="#3366cc"></circle><circle cx="996.4505494505495" cy="237.2584853839026" r="2.5" stroke="none" stroke-width="0" fill="#3366cc"></circle><circle cx="1001.3626373626374" cy="239.1888624505924" r="2.5" stroke="none" stroke-width="0" fill="#3366cc"></circle><circle cx="1003.8186813186813" cy="226.4238551724392" r="2.5" stroke="none" stroke-width="0" fill="#3366cc"></circle><circle cx="1008.7307692307693" cy="196.43186168277902" r="2.5" stroke="none" stroke-width="0" fill="#3366cc"></circle><circle cx="1011.1868131868132" cy="213.9046771209322" r="2.5" stroke="none" stroke-width="0" fill="#3366cc"></circle><circle cx="1013.6428571428571" cy="187.0221176470516" r="2.5" stroke="none" stroke-width="0" fill="#3366cc"></circle><circle cx="1016.0989010989011" cy="175.67946226092383" r="2.5" stroke="none" stroke-width="0" fill="#3366cc"></circle><circle cx="1018.554945054945" cy="201.8588267733892" r="2.5" stroke="none" stroke-width="0" fill="#3366cc"></circle><circle cx="1021.0109890109891" cy="216.38304969386502" r="2.5" stroke="none" stroke-width="0" fill="#3366cc"></circle><circle cx="1023.467032967033" cy="211.6046249202254" r="2.5" stroke="none" stroke-width="0" fill="#3366cc"></circle><circle cx="1025.923076923077" cy="165.9103586988754" r="2.5" stroke="none" stroke-width="0" fill="#3366cc"></circle><circle cx="1028.3791208791208" cy="200.05317372027582" r="2.5" stroke="none" stroke-width="0" fill="#3366cc"></circle><circle cx="1030.835164835165" cy="174.99202403128302" r="2.5" stroke="none" stroke-width="0" fill="#3366cc"></circle><circle cx="1033.2912087912086" cy="184.1277164813468" r="2.5" stroke="none" stroke-width="0" fill="#3366cc"></circle><circle cx="1035.7472527472528" cy="194.6552753641232" r="2.5" stroke="none" stroke-width="0" fill="#3366cc"></circle><circle cx="1038.2032967032967" cy="183.7318" r="2.5" stroke="none" stroke-width="0" fill="#3366cc"></circle><circle cx="1043.1153846153848" cy="183.265789743574" r="2.5" stroke="none" stroke-width="0" fill="#3366cc"></circle><circle cx="1045.5714285714284" cy="236.9042" r="2.5" stroke="none" stroke-width="0" fill="#3366cc"></circle><circle cx="1048.0274725274726" cy="193.19710519179822" r="2.5" stroke="none" stroke-width="0" fill="#3366cc"></circle><circle cx="1050.4835164835165" cy="201.85285684574043" r="2.5" stroke="none" stroke-width="0" fill="#3366cc"></circle><circle cx="1052.9395604395604" cy="193.97526298402744" r="2.5" stroke="none" stroke-width="0" fill="#3366cc"></circle><circle cx="1055.3956043956046" cy="231.82846666664622" r="2.5" stroke="none" stroke-width="0" fill="#3366cc"></circle><circle cx="1060.3076923076924" cy="238.48832000000002" r="2.5" stroke="none" stroke-width="0" fill="#3366cc"></circle><circle cx="1065.2197802197802" cy="217.0113251522358" r="2.5" stroke="none" stroke-width="0" fill="#3366cc"></circle><circle cx="1067.6758241758243" cy="238.1630360413398" r="2.5" stroke="none" stroke-width="0" fill="#3366cc"></circle><circle cx="1070.131868131868" cy="226.61398956133823" r="2.5" stroke="none" stroke-width="0" fill="#3366cc"></circle><circle cx="1072.5879120879122" cy="250.0438" r="2.5" stroke="none" stroke-width="0" fill="#3366cc"></circle><circle cx="1077.5" cy="221.5443002018842" r="2.5" stroke="none" stroke-width="0" fill="#3366cc"></circle></g><g><g><text text-anchor="middle" x="183.70467032967034" y="424.75" font-family="Arial" font-size="15" stroke="none" stroke-width="0" fill="#444444">January 2018</text></g><g><text text-anchor="middle" x="328.71359890109886" y="424.75" font-family="Arial" font-size="15" stroke="none" stroke-width="0" fill="#444444">March 2018</text></g><g><text text-anchor="middle" x="478.5322802197802" y="424.75" font-family="Arial" font-size="15" stroke="none" stroke-width="0" fill="#444444">May 2018</text></g><g><text text-anchor="middle" x="628.3509615384615" y="424.75" font-family="Arial" font-size="15" stroke="none" stroke-width="0" fill="#444444">July 2018</text></g><g><text text-anchor="middle" x="780.6256868131868" y="424.75" font-family="Arial" font-size="15" stroke="none" stroke-width="0" fill="#444444">September 2018</text></g><g><text text-anchor="middle" x="930.4443681318681" y="424.75" font-family="Arial" font-size="15" stroke="none" stroke-width="0" fill="#444444">November 2018</text></g><g><text text-anchor="end" x="168" y="407.75" font-family="Arial" font-size="15" stroke="none" stroke-width="0" fill="#444444">0</text></g><g><text text-anchor="end" x="168" y="346.35" font-family="Arial" font-size="15" stroke="none" stroke-width="0" fill="#444444">10</text></g><g><text text-anchor="end" x="168" y="284.95" font-family="Arial" font-size="15" stroke="none" stroke-width="0" fill="#444444">20</text></g><g><text text-anchor="end" x="168" y="223.55" font-family="Arial" font-size="15" stroke="none" stroke-width="0" fill="#444444">30</text></g><g><text text-anchor="end" x="168" y="162.15" font-family="Arial" font-size="15" stroke="none" stroke-width="0" fill="#444444">40</text></g><g><text text-anchor="end" x="168" y="100.75" font-family="Arial" font-size="15" stroke="none" stroke-width="0" fill="#444444">50</text></g></g></g><g><g><text text-anchor="middle" x="630.5" y="467.75" font-family="Arial" font-size="15" font-style="italic" stroke="none" stroke-width="0" fill="#222222">Ano</text><rect x="183" y="455" width="895" height="15" stroke="none" stroke-width="0" fill-opacity="0" fill="#ffffff"></rect></g><g><text text-anchor="middle" x="80.75" y="249" font-family="Arial" font-size="15" font-style="italic" transform="rotate(-90 80.75 249)" stroke="none" stroke-width="0" fill="#222222">Temperatura do solo (ºC)</text><path d="M67.99999999999999,403L68.00000000000001,95L83.00000000000001,95L82.99999999999999,403Z" stroke="none" stroke-width="0" fill-opacity="0" fill="#ffffff"></path></g></g><g></g></svg>