<svg width="1261" height="578" aria-label="A chart." style="overflow: hidden;"><defs id="_ABSTRACT_RENDERER_ID_281"><clipPath id="_ABSTRACT_RENDERER_ID_282"><rect x="200" y="111" width="862" height="357"></rect></clipPath></defs><rect x="0" y="0" width="1261" height="578" stroke="none" stroke-width="0" fill="#ffffff"></rect><g><text text-anchor="start" x="200" y="84.75" font-family="Arial" font-size="15" font-weight="bold" stroke="none" stroke-width="0" fill="#000000">Paranapoema</text><rect x="200" y="72" width="862" height="15" stroke="none" stroke-width="0" fill-opacity="0" fill="#ffffff"></rect></g><g><rect x="1077" y="111" width="169" height="15" stroke="none" stroke-width="0" fill-opacity="0" fill="#ffffff"></rect><g column-id="LST_Day_1km"><rect x="1077" y="111" width="169" height="15" stroke="none" stroke-width="0" fill-opacity="0" fill="#ffffff"></rect><g><text text-anchor="start" x="1113" y="123.75" font-family="Arial" font-size="15" stroke="none" stroke-width="0" fill="#222222">LST_Day_1km</text></g><path d="M1077,118.5L1107,118.5" stroke="#3366cc" stroke-width="1" fill-opacity="1" fill="none"></path><circle cx="1092" cy="118.5" r="2.5" stroke="none" stroke-width="0" fill="#3366cc"></circle></g></g><g><rect x="200" y="111" width="862" height="357" stroke="none" stroke-width="0" fill-opacity="0" fill="#ffffff"></rect><g clip-path="url(https://code.earthengine.google.com/#_ABSTRACT_RENDERER_ID_282)"><g><rect x="269" y="111" width="1" height="357" stroke="none" stroke-width="0" fill="#cccccc"></rect><rect x="336" y="111" width="1" height="357" stroke="none" stroke-width="0" fill="#cccccc"></rect><rect x="410" y="111" width="1" height="357" stroke="none" stroke-width="0" fill="#cccccc"></rect><rect x="481" y="111" width="1" height="357" stroke="none" stroke-width="0" fill="#cccccc"></rect><rect x="555" y="111" width="1" height="357" stroke="none" stroke-width="0" fill="#cccccc"></rect><rect x="626" y="111" width="1" height="357" stroke="none" stroke-width="0" fill="#cccccc"></rect><rect x="700" y="111" width="1" height="357" stroke="none" stroke-width="0" fill="#cccccc"></rect><rect x="774" y="111" width="1" height="357" stroke="none" stroke-width="0" fill="#cccccc"></rect><rect x="845" y="111" width="1" height="357" stroke="none" stroke-width="0" fill="#cccccc"></rect><rect x="918" y="111" width="1" height="357" stroke="none" stroke-width="0" fill="#cccccc"></rect><rect x="990" y="111" width="1" height="357" stroke="none" stroke-width="0" fill="#cccccc"></rect><rect x="200" y="467" width="862" height="1" stroke="none" stroke-width="0" fill="#cccccc"></rect><rect x="200" y="396" width="862" height="1" stroke="none" stroke-width="0" fill="#cccccc"></rect><rect x="200" y="325" width="862" height="1" stroke="none" stroke-width="0" fill="#cccccc"></rect><rect x="200" y="253" width="862" height="1" stroke="none" stroke-width="0" fill="#cccccc"></rect><rect x="200" y="182" width="862" height="1" stroke="none" stroke-width="0" fill="#cccccc"></rect><rect x="200" y="111" width="862" height="1" stroke="none" stroke-width="0" fill="#cccccc"></rect><rect x="200" y="431" width="862" height="1" stroke="none" stroke-width="0" fill="#ebebeb"></rect><rect x="200" y="360" width="862" height="1" stroke="none" stroke-width="0" fill="#ebebeb"></rect><rect x="200" y="289" width="862" height="1" stroke="none" stroke-width="0" fill="#ebebeb"></rect><rect x="200" y="218" width="862" height="1" stroke="none" stroke-width="0" fill="#ebebeb"></rect><rect x="200" y="147" width="862" height="1" stroke="none" stroke-width="0" fill="#ebebeb"></rect></g><g><rect x="200" y="467" width="862" height="1" stroke="none" stroke-width="0" fill="#333333"></rect></g><g><g><path d="M210.01381215469613,237.47060000000002L212.39226519337018,225.6573333333096L214.7707182320442,223.26026666669037M221.9060773480663,246.5664L224.28453038674033,270.30448M233.79834254143645,274.6666666666904L236.1767955801105,311.7856L238.55524861878453,258.38559999999995L240.93370165745856,308.5104L243.3121546961326,249.62625677124L245.69060773480663,289.62413294458963L248.06906077348066,285.4416L250.44751381215468,283.16319999999996M274.23204419889504,299.25440000000003L276.61049723756906,233.6214499339704L278.9889502762431,264.03413333330957L281.3674033149171,250.162L283.7458563535912,237.31040000000002L286.1243093922652,248.1684L288.50276243093924,234.6099347892112M302.77348066298345,238.8768L305.15193370165747,237.847396250504L307.5303867403315,240.6669714285816L309.9088397790055,230.51792L312.28729281767954,241.83872L314.6657458563536,225.6558909760272L317.04419889502765,273.3973493902248L319.4226519337017,230.9973333333096L321.8011049723757,227.59872M331.3149171270718,243.40511999999998L333.6933701657459,262.79999999999995L336.0718232044199,237.67261896798718L338.4502762430939,310.9312M350.3425414364641,286.47228894075283L352.7209944751381,236.29382714817842L355.09944751381215,265.56043538188965M359.8563535911602,243.86079999999998L362.2348066298342,246.4801484426776L364.6132596685083,238.9310374906408L366.99171270718233,267.1319631988408L369.37016574585635,239.03649966649283M381.26243093922653,265.9875503448104L383.64088397790056,267.54319622639355L386.0193370165746,249.1579607432752L388.3977900552486,305.37760000000003L390.77624309392263,237.5832216216488L393.15469613259665,255.1104L395.53314917127074,263.5365676581848M400.2900552486188,293.9856L402.66850828729287,255.413404886276L405.0469613259669,274.4768L407.4254143646409,250.987923789264M412.18232044198896,271.344L414.560773480663,277.3426L416.939226519337,306.37440000000004M431.2099447513812,321.7536L433.5883977900553,263.3696M438.34530386740335,280.52996368041124L440.72375690607737,262.1322063818088L443.1022099447514,276.04319999999996M459.7513812154696,299.1857572778688L462.12983425414365,273.3906056130184M471.6436464088398,312.2864179728616L474.0220994475138,296.0642398126392L476.40055248618785,301.6207529412016L478.7790055248619,286.1797309463176L481.15745856353595,313.7197798903376L483.53591160221,286.5825648334744M493.0497237569061,293.8432L495.4281767955801,306.3288200836832L497.8066298342542,292.70399999999995M504.94198895027625,284.7296L507.3204419889503,306.7329406440536L509.6988950276243,271.8875431826368L512.0773480662983,290.1586M531.1049723756906,301.81759999999997L533.4834254143647,320.5271574683328L535.8618784530387,301.1530666666904L538.2403314917127,268.92319999999995L540.6187845303867,297.616352976852L542.9972375690609,276.85500766095925M554.889502762431,352.3696L557.267955801105,330.0707534883456L559.646408839779,306.0896M576.2955801104972,335.6190368482112L578.6740331491712,358.92M588.1878453038674,307.0864L590.5662983425415,308.2256L592.9447513812155,286.7232L595.3232044198895,314.6336L597.7016574585635,304.3808M602.4585635359117,308.5104L604.8370165745857,294.4636281754016L607.2154696132598,294.75455361862885L609.5939226519338,286.5681224704008L611.9723756906078,306.37440000000004L614.3508287292818,294.9824L616.7292817679559,322.7504L619.1077348066299,288.4527857102696M623.8646408839779,316.48479999999995L626.243093922652,279.06524444441277L628.621546961326,344.6282181818376L631,348.24L633.378453038674,336.5632L635.756906077348,303.384M640.5138121546961,296.83360000000005L642.8922651933701,313.06719999999996M647.6491712707182,282.14943261692963L650.0276243093923,299.2132072507512L652.4060773480663,277.2971203747216L654.7845303867404,319.76L657.1629834254144,279.4737454545584L659.5414364640884,291.8496L661.9198895027624,273.72208L664.2983425414366,325.66959999999995L666.6767955801106,346.6024L669.0552486187846,319.6050824555192L671.4337016574586,348.952L673.8121546961327,282.59360000000004L676.1906077348067,314.20640000000003L678.5690607734807,285.7467428571632L680.9475138121547,265.648L683.3259668508288,274.70277192175524L685.7044198895028,260.7934545454416L688.0828729281768,291.6299336322672L690.4613259668508,274.5793721997496L692.8397790055249,309.388991505808L695.2182320441989,269.6535858227776M707.110497237569,276.8051232053168L709.4889502762431,321.18399999999997L711.8674033149172,279.0135436619608L714.2458563535912,314.776L716.6243093922652,281.312L719.0027624309392,225.54826443167437L721.3812154696133,251.8168000000208L723.7596685082873,278.5624732203064L726.1381215469613,278.2899555555872M747.5441988950276,319.9024L749.9226519337017,294.48183422052875L752.3011049723757,332.4336L754.6795580110497,259.57305966587523L757.0580110497237,249.2966299499256L759.4364640883978,252.8369289345608L761.8149171270719,228.87415114506481L764.1933701657459,256.40624L766.57182320442,230.62319711758238L768.950276243094,256.392L771.328729281768,226.54600392357756L773.707182320442,280.3864L776.085635359116,258.0818133333096L778.4640883977901,242.9685299595208L780.8425414364641,242.9971193482816L783.2209944751381,216.7817625884488L785.5994475138122,305.9260883720864L787.9779005524862,219.6440034082456L790.3563535911602,253.6864L792.7348066298343,267.7213761606128L795.1132596685084,231.4433247931672L797.4917127071824,226.71572817876236L799.8701657458564,197.294089898732L802.2486187845304,232.73560808623841L804.6270718232045,198.31612500586635L807.0055248618785,230.08682053790878L809.3839779005525,196.71365135135517L811.7624309392265,245.525784615412L814.1408839779006,205.3563710955384L816.5193370165746,208.22115807859922L818.8977900552486,222.2678702625176L821.2762430939226,207.798572734936L823.6546961325968,222.93746126126962L826.0331491712708,177.88112046553437L828.4116022099448,307.7984L830.7900552486188,248.79733333330958M835.5469613259669,231.4736861141136L837.9254143646409,218.4098514285816M852.1961325966851,249.7526L854.5745856353592,273.7648M866.4668508287293,257.38879999999995L868.8453038674033,193.80018494958318L871.2237569060774,214.5035753406704L873.6022099447514,198.0140574616808M878.3591160220994,240.747638723624L880.7375690607735,215.77952L883.1160220994476,261.240664229752L885.4944751381216,179.5178426275624L887.8729281767957,216.48439999999997M899.7651933701658,262.629969281076L902.1436464088398,282.0626514285816M906.9005524861878,262.79999999999995L909.2790055248619,292.70399999999995L911.6574585635359,276.5814458715936M918.7928176795581,242.480602171292L921.1712707182321,277.6096L923.5497237569061,208.0641278714848M942.5773480662983,242.077663730068L944.9558011049725,187.5979811382328L947.3342541436465,196.27426025880317L949.7127071823205,201.86842280147283L952.0911602209945,192.98164077495682L954.4696132596686,194.70569507890718L956.8480662983426,215.09599999999998L959.2265193370166,244.644L961.6049723756906,251.4345009584776L963.9834254143647,280.8136L966.3618784530387,224.0672M971.1187845303867,242.5792L973.4972375690608,206.3768585617368M992.5248618784531,311.216L994.9033149171271,205.42324600938804L997.2817679558011,284.8542M1006.7955801104973,291.5648L1009.1740331491714,242.1045333333096L1011.5524861878454,273.1952L1013.9309392265194,223.9722666666904L1016.3093922651934,211.4500746708248M1021.0662983425415,193.0118672646056L1023.4447513812155,219.5346744842816L1025.8232044198894,208.03298057060562L1028.2016574585637,218.0864L1030.5801104972375,198.3858534653416L1032.9585635359117,224.92159999999998" stroke="#3366cc" stroke-width="1" fill-opacity="1" fill="none"></path></g></g></g><g><circle cx="200.5" cy="248.2277333333096" r="2.5" stroke="none" stroke-width="0" fill="#3366cc"></circle><circle cx="210.01381215469613" cy="237.47060000000002" r="2.5" stroke="none" stroke-width="0" fill="#3366cc"></circle><circle cx="212.39226519337018" cy="225.6573333333096" r="2.5" stroke="none" stroke-width="0" fill="#3366cc"></circle><circle cx="214.7707182320442" cy="223.26026666669037" r="2.5" stroke="none" stroke-width="0" fill="#3366cc"></circle><circle cx="221.9060773480663" cy="246.5664" r="2.5" stroke="none" stroke-width="0" fill="#3366cc"></circle><circle cx="224.28453038674033" cy="270.30448" r="2.5" stroke="none" stroke-width="0" fill="#3366cc"></circle><circle cx="233.79834254143645" cy="274.6666666666904" r="2.5" stroke="none" stroke-width="0" fill="#3366cc"></circle><circle cx="236.1767955801105" cy="311.7856" r="2.5" stroke="none" stroke-width="0" fill="#3366cc"></circle><circle cx="238.55524861878453" cy="258.38559999999995" r="2.5" stroke="none" stroke-width="0" fill="#3366cc"></circle><circle cx="240.93370165745856" cy="308.5104" r="2.5" stroke="none" stroke-width="0" fill="#3366cc"></circle><circle cx="243.3121546961326" cy="249.62625677124" r="2.5" stroke="none" stroke-width="0" fill="#3366cc"></circle><circle cx="245.69060773480663" cy="289.62413294458963" r="2.5" stroke="none" stroke-width="0" fill="#3366cc"></circle><circle cx="248.06906077348066" cy="285.4416" r="2.5" stroke="none" stroke-width="0" fill="#3366cc"></circle><circle cx="250.44751381215468" cy="283.16319999999996" r="2.5" stroke="none" stroke-width="0" fill="#3366cc"></circle><circle cx="269.47513812154693" cy="275.47360000000003" r="2.5" stroke="none" stroke-width="0" fill="#3366cc"></circle><circle cx="274.23204419889504" cy="299.25440000000003" r="2.5" stroke="none" stroke-width="0" fill="#3366cc"></circle><circle cx="276.61049723756906" cy="233.6214499339704" r="2.5" stroke="none" stroke-width="0" fill="#3366cc"></circle><circle cx="278.9889502762431" cy="264.03413333330957" r="2.5" stroke="none" stroke-width="0" fill="#3366cc"></circle><circle cx="281.3674033149171" cy="250.162" r="2.5" stroke="none" stroke-width="0" fill="#3366cc"></circle><circle cx="283.7458563535912" cy="237.31040000000002" r="2.5" stroke="none" stroke-width="0" fill="#3366cc"></circle><circle cx="286.1243093922652" cy="248.1684" r="2.5" stroke="none" stroke-width="0" fill="#3366cc"></circle><circle cx="288.50276243093924" cy="234.6099347892112" r="2.5" stroke="none" stroke-width="0" fill="#3366cc"></circle><circle cx="302.77348066298345" cy="238.8768" r="2.5" stroke="none" stroke-width="0" fill="#3366cc"></circle><circle cx="305.15193370165747" cy="237.847396250504" r="2.5" stroke="none" stroke-width="0" fill="#3366cc"></circle><circle cx="307.5303867403315" cy="240.6669714285816" r="2.5" stroke="none" stroke-width="0" fill="#3366cc"></circle><circle cx="309.9088397790055" cy="230.51792" r="2.5" stroke="none" stroke-width="0" fill="#3366cc"></circle><circle cx="312.28729281767954" cy="241.83872" r="2.5" stroke="none" stroke-width="0" fill="#3366cc"></circle><circle cx="314.6657458563536" cy="225.6558909760272" r="2.5" stroke="none" stroke-width="0" fill="#3366cc"></circle><circle cx="317.04419889502765" cy="273.3973493902248" r="2.5" stroke="none" stroke-width="0" fill="#3366cc"></circle><circle cx="319.4226519337017" cy="230.9973333333096" r="2.5" stroke="none" stroke-width="0" fill="#3366cc"></circle><circle cx="321.8011049723757" cy="227.59872" r="2.5" stroke="none" stroke-width="0" fill="#3366cc"></circle><circle cx="326.55801104972375" cy="252.68959999999998" r="2.5" stroke="none" stroke-width="0" fill="#3366cc"></circle><circle cx="331.3149171270718" cy="243.40511999999998" r="2.5" stroke="none" stroke-width="0" fill="#3366cc"></circle><circle cx="333.6933701657459" cy="262.79999999999995" r="2.5" stroke="none" stroke-width="0" fill="#3366cc"></circle><circle cx="336.0718232044199" cy="237.67261896798718" r="2.5" stroke="none" stroke-width="0" fill="#3366cc"></circle><circle cx="338.4502762430939" cy="310.9312" r="2.5" stroke="none" stroke-width="0" fill="#3366cc"></circle><circle cx="345.58563535911605" cy="272.76800000000003" r="2.5" stroke="none" stroke-width="0" fill="#3366cc"></circle><circle cx="350.3425414364641" cy="286.47228894075283" r="2.5" stroke="none" stroke-width="0" fill="#3366cc"></circle><circle cx="352.7209944751381" cy="236.29382714817842" r="2.5" stroke="none" stroke-width="0" fill="#3366cc"></circle><circle cx="355.09944751381215" cy="265.56043538188965" r="2.5" stroke="none" stroke-width="0" fill="#3366cc"></circle><circle cx="359.8563535911602" cy="243.86079999999998" r="2.5" stroke="none" stroke-width="0" fill="#3366cc"></circle><circle cx="362.2348066298342" cy="246.4801484426776" r="2.5" stroke="none" stroke-width="0" fill="#3366cc"></circle><circle cx="364.6132596685083" cy="238.9310374906408" r="2.5" stroke="none" stroke-width="0" fill="#3366cc"></circle><circle cx="366.99171270718233" cy="267.1319631988408" r="2.5" stroke="none" stroke-width="0" fill="#3366cc"></circle><circle cx="369.37016574585635" cy="239.03649966649283" r="2.5" stroke="none" stroke-width="0" fill="#3366cc"></circle><circle cx="381.26243093922653" cy="265.9875503448104" r="2.5" stroke="none" stroke-width="0" fill="#3366cc"></circle><circle cx="383.64088397790056" cy="267.54319622639355" r="2.5" stroke="none" stroke-width="0" fill="#3366cc"></circle><circle cx="386.0193370165746" cy="249.1579607432752" r="2.5" stroke="none" stroke-width="0" fill="#3366cc"></circle><circle cx="388.3977900552486" cy="305.37760000000003" r="2.5" stroke="none" stroke-width="0" fill="#3366cc"></circle><circle cx="390.77624309392263" cy="237.5832216216488" r="2.5" stroke="none" stroke-width="0" fill="#3366cc"></circle><circle cx="393.15469613259665" cy="255.1104" r="2.5" stroke="none" stroke-width="0" fill="#3366cc"></circle><circle cx="395.53314917127074" cy="263.5365676581848" r="2.5" stroke="none" stroke-width="0" fill="#3366cc"></circle><circle cx="400.2900552486188" cy="293.9856" r="2.5" stroke="none" stroke-width="0" fill="#3366cc"></circle><circle cx="402.66850828729287" cy="255.413404886276" r="2.5" stroke="none" stroke-width="0" fill="#3366cc"></circle><circle cx="405.0469613259669" cy="274.4768" r="2.5" stroke="none" stroke-width="0" fill="#3366cc"></circle><circle cx="407.4254143646409" cy="250.987923789264" r="2.5" stroke="none" stroke-width="0" fill="#3366cc"></circle><circle cx="412.18232044198896" cy="271.344" r="2.5" stroke="none" stroke-width="0" fill="#3366cc"></circle><circle cx="414.560773480663" cy="277.3426" r="2.5" stroke="none" stroke-width="0" fill="#3366cc"></circle><circle cx="416.939226519337" cy="306.37440000000004" r="2.5" stroke="none" stroke-width="0" fill="#3366cc"></circle><circle cx="424.0745856353591" cy="308.5104" r="2.5" stroke="none" stroke-width="0" fill="#3366cc"></circle><circle cx="431.2099447513812" cy="321.7536" r="2.5" stroke="none" stroke-width="0" fill="#3366cc"></circle><circle cx="433.5883977900553" cy="263.3696" r="2.5" stroke="none" stroke-width="0" fill="#3366cc"></circle><circle cx="438.34530386740335" cy="280.52996368041124" r="2.5" stroke="none" stroke-width="0" fill="#3366cc"></circle><circle cx="440.72375690607737" cy="262.1322063818088" r="2.5" stroke="none" stroke-width="0" fill="#3366cc"></circle><circle cx="443.1022099447514" cy="276.04319999999996" r="2.5" stroke="none" stroke-width="0" fill="#3366cc"></circle><circle cx="450.23756906077347" cy="292.4192" r="2.5" stroke="none" stroke-width="0" fill="#3366cc"></circle><circle cx="459.7513812154696" cy="299.1857572778688" r="2.5" stroke="none" stroke-width="0" fill="#3366cc"></circle><circle cx="462.12983425414365" cy="273.3906056130184" r="2.5" stroke="none" stroke-width="0" fill="#3366cc"></circle><circle cx="471.6436464088398" cy="312.2864179728616" r="2.5" stroke="none" stroke-width="0" fill="#3366cc"></circle><circle cx="474.0220994475138" cy="296.0642398126392" r="2.5" stroke="none" stroke-width="0" fill="#3366cc"></circle><circle cx="476.40055248618785" cy="301.6207529412016" r="2.5" stroke="none" stroke-width="0" fill="#3366cc"></circle><circle cx="478.7790055248619" cy="286.1797309463176" r="2.5" stroke="none" stroke-width="0" fill="#3366cc"></circle><circle cx="481.15745856353595" cy="313.7197798903376" r="2.5" stroke="none" stroke-width="0" fill="#3366cc"></circle><circle cx="483.53591160221" cy="286.5825648334744" r="2.5" stroke="none" stroke-width="0" fill="#3366cc"></circle><circle cx="493.0497237569061" cy="293.8432" r="2.5" stroke="none" stroke-width="0" fill="#3366cc"></circle><circle cx="495.4281767955801" cy="306.3288200836832" r="2.5" stroke="none" stroke-width="0" fill="#3366cc"></circle><circle cx="497.8066298342542" cy="292.70399999999995" r="2.5" stroke="none" stroke-width="0" fill="#3366cc"></circle><circle cx="504.94198895027625" cy="284.7296" r="2.5" stroke="none" stroke-width="0" fill="#3366cc"></circle><circle cx="507.3204419889503" cy="306.7329406440536" r="2.5" stroke="none" stroke-width="0" fill="#3366cc"></circle><circle cx="509.6988950276243" cy="271.8875431826368" r="2.5" stroke="none" stroke-width="0" fill="#3366cc"></circle><circle cx="512.0773480662983" cy="290.1586" r="2.5" stroke="none" stroke-width="0" fill="#3366cc"></circle><circle cx="531.1049723756906" cy="301.81759999999997" r="2.5" stroke="none" stroke-width="0" fill="#3366cc"></circle><circle cx="533.4834254143647" cy="320.5271574683328" r="2.5" stroke="none" stroke-width="0" fill="#3366cc"></circle><circle cx="535.8618784530387" cy="301.1530666666904" r="2.5" stroke="none" stroke-width="0" fill="#3366cc"></circle><circle cx="538.2403314917127" cy="268.92319999999995" r="2.5" stroke="none" stroke-width="0" fill="#3366cc"></circle><circle cx="540.6187845303867" cy="297.616352976852" r="2.5" stroke="none" stroke-width="0" fill="#3366cc"></circle><circle cx="542.9972375690609" cy="276.85500766095925" r="2.5" stroke="none" stroke-width="0" fill="#3366cc"></circle><circle cx="554.889502762431" cy="352.3696" r="2.5" stroke="none" stroke-width="0" fill="#3366cc"></circle><circle cx="557.267955801105" cy="330.0707534883456" r="2.5" stroke="none" stroke-width="0" fill="#3366cc"></circle><circle cx="559.646408839779" cy="306.0896" r="2.5" stroke="none" stroke-width="0" fill="#3366cc"></circle><circle cx="564.4033149171271" cy="306.8016" r="2.5" stroke="none" stroke-width="0" fill="#3366cc"></circle><circle cx="569.1602209944751" cy="289.3585709091168" r="2.5" stroke="none" stroke-width="0" fill="#3366cc"></circle><circle cx="576.2955801104972" cy="335.6190368482112" r="2.5" stroke="none" stroke-width="0" fill="#3366cc"></circle><circle cx="578.6740331491712" cy="358.92" r="2.5" stroke="none" stroke-width="0" fill="#3366cc"></circle><circle cx="588.1878453038674" cy="307.0864" r="2.5" stroke="none" stroke-width="0" fill="#3366cc"></circle><circle cx="590.5662983425415" cy="308.2256" r="2.5" stroke="none" stroke-width="0" fill="#3366cc"></circle><circle cx="592.9447513812155" cy="286.7232" r="2.5" stroke="none" stroke-width="0" fill="#3366cc"></circle><circle cx="595.3232044198895" cy="314.6336" r="2.5" stroke="none" stroke-width="0" fill="#3366cc"></circle><circle cx="597.7016574585635" cy="304.3808" r="2.5" stroke="none" stroke-width="0" fill="#3366cc"></circle><circle cx="602.4585635359117" cy="308.5104" r="2.5" stroke="none" stroke-width="0" fill="#3366cc"></circle><circle cx="604.8370165745857" cy="294.4636281754016" r="2.5" stroke="none" stroke-width="0" fill="#3366cc"></circle><circle cx="607.2154696132598" cy="294.75455361862885" r="2.5" stroke="none" stroke-width="0" fill="#3366cc"></circle><circle cx="609.5939226519338" cy="286.5681224704008" r="2.5" stroke="none" stroke-width="0" fill="#3366cc"></circle><circle cx="611.9723756906078" cy="306.37440000000004" r="2.5" stroke="none" stroke-width="0" fill="#3366cc"></circle><circle cx="614.3508287292818" cy="294.9824" r="2.5" stroke="none" stroke-width="0" fill="#3366cc"></circle><circle cx="616.7292817679559" cy="322.7504" r="2.5" stroke="none" stroke-width="0" fill="#3366cc"></circle><circle cx="619.1077348066299" cy="288.4527857102696" r="2.5" stroke="none" stroke-width="0" fill="#3366cc"></circle><circle cx="623.8646408839779" cy="316.48479999999995" r="2.5" stroke="none" stroke-width="0" fill="#3366cc"></circle><circle cx="626.243093922652" cy="279.06524444441277" r="2.5" stroke="none" stroke-width="0" fill="#3366cc"></circle><circle cx="628.621546961326" cy="344.6282181818376" r="2.5" stroke="none" stroke-width="0" fill="#3366cc"></circle><circle cx="631" cy="348.24" r="2.5" stroke="none" stroke-width="0" fill="#3366cc"></circle><circle cx="633.378453038674" cy="336.5632" r="2.5" stroke="none" stroke-width="0" fill="#3366cc"></circle><circle cx="635.756906077348" cy="303.384" r="2.5" stroke="none" stroke-width="0" fill="#3366cc"></circle><circle cx="640.5138121546961" cy="296.83360000000005" r="2.5" stroke="none" stroke-width="0" fill="#3366cc"></circle><circle cx="642.8922651933701" cy="313.06719999999996" r="2.5" stroke="none" stroke-width="0" fill="#3366cc"></circle><circle cx="647.6491712707182" cy="282.14943261692963" r="2.5" stroke="none" stroke-width="0" fill="#3366cc"></circle><circle cx="650.0276243093923" cy="299.2132072507512" r="2.5" stroke="none" stroke-width="0" fill="#3366cc"></circle><circle cx="652.4060773480663" cy="277.2971203747216" r="2.5" stroke="none" stroke-width="0" fill="#3366cc"></circle><circle cx="654.7845303867404" cy="319.76" r="2.5" stroke="none" stroke-width="0" fill="#3366cc"></circle><circle cx="657.1629834254144" cy="279.4737454545584" r="2.5" stroke="none" stroke-width="0" fill="#3366cc"></circle><circle cx="659.5414364640884" cy="291.8496" r="2.5" stroke="none" stroke-width="0" fill="#3366cc"></circle><circle cx="661.9198895027624" cy="273.72208" r="2.5" stroke="none" stroke-width="0" fill="#3366cc"></circle><circle cx="664.2983425414366" cy="325.66959999999995" r="2.5" stroke="none" stroke-width="0" fill="#3366cc"></circle><circle cx="666.6767955801106" cy="346.6024" r="2.5" stroke="none" stroke-width="0" fill="#3366cc"></circle><circle cx="669.0552486187846" cy="319.6050824555192" r="2.5" stroke="none" stroke-width="0" fill="#3366cc"></circle><circle cx="671.4337016574586" cy="348.952" r="2.5" stroke="none" stroke-width="0" fill="#3366cc"></circle><circle cx="673.8121546961327" cy="282.59360000000004" r="2.5" stroke="none" stroke-width="0" fill="#3366cc"></circle><circle cx="676.1906077348067" cy="314.20640000000003" r="2.5" stroke="none" stroke-width="0" fill="#3366cc"></circle><circle cx="678.5690607734807" cy="285.7467428571632" r="2.5" stroke="none" stroke-width="0" fill="#3366cc"></circle><circle cx="680.9475138121547" cy="265.648" r="2.5" stroke="none" stroke-width="0" fill="#3366cc"></circle><circle cx="683.3259668508288" cy="274.70277192175524" r="2.5" stroke="none" stroke-width="0" fill="#3366cc"></circle><circle cx="685.7044198895028" cy="260.7934545454416" r="2.5" stroke="none" stroke-width="0" fill="#3366cc"></circle><circle cx="688.0828729281768" cy="291.6299336322672" r="2.5" stroke="none" stroke-width="0" fill="#3366cc"></circle><circle cx="690.4613259668508" cy="274.5793721997496" r="2.5" stroke="none" stroke-width="0" fill="#3366cc"></circle><circle cx="692.8397790055249" cy="309.388991505808" r="2.5" stroke="none" stroke-width="0" fill="#3366cc"></circle><circle cx="695.2182320441989" cy="269.6535858227776" r="2.5" stroke="none" stroke-width="0" fill="#3366cc"></circle><circle cx="702.353591160221" cy="252.0177446808344" r="2.5" stroke="none" stroke-width="0" fill="#3366cc"></circle><circle cx="707.110497237569" cy="276.8051232053168" r="2.5" stroke="none" stroke-width="0" fill="#3366cc"></circle><circle cx="709.4889502762431" cy="321.18399999999997" r="2.5" stroke="none" stroke-width="0" fill="#3366cc"></circle><circle cx="711.8674033149172" cy="279.0135436619608" r="2.5" stroke="none" stroke-width="0" fill="#3366cc"></circle><circle cx="714.2458563535912" cy="314.776" r="2.5" stroke="none" stroke-width="0" fill="#3366cc"></circle><circle cx="716.6243093922652" cy="281.312" r="2.5" stroke="none" stroke-width="0" fill="#3366cc"></circle><circle cx="719.0027624309392" cy="225.54826443167437" r="2.5" stroke="none" stroke-width="0" fill="#3366cc"></circle><circle cx="721.3812154696133" cy="251.8168000000208" r="2.5" stroke="none" stroke-width="0" fill="#3366cc"></circle><circle cx="723.7596685082873" cy="278.5624732203064" r="2.5" stroke="none" stroke-width="0" fill="#3366cc"></circle><circle cx="726.1381215469613" cy="278.2899555555872" r="2.5" stroke="none" stroke-width="0" fill="#3366cc"></circle><circle cx="730.8950276243094" cy="329.72799999999995" r="2.5" stroke="none" stroke-width="0" fill="#3366cc"></circle><circle cx="747.5441988950276" cy="319.9024" r="2.5" stroke="none" stroke-width="0" fill="#3366cc"></circle><circle cx="749.9226519337017" cy="294.48183422052875" r="2.5" stroke="none" stroke-width="0" fill="#3366cc"></circle><circle cx="752.3011049723757" cy="332.4336" r="2.5" stroke="none" stroke-width="0" fill="#3366cc"></circle><circle cx="754.6795580110497" cy="259.57305966587523" r="2.5" stroke="none" stroke-width="0" fill="#3366cc"></circle><circle cx="757.0580110497237" cy="249.2966299499256" r="2.5" stroke="none" stroke-width="0" fill="#3366cc"></circle><circle cx="759.4364640883978" cy="252.8369289345608" r="2.5" stroke="none" stroke-width="0" fill="#3366cc"></circle><circle cx="761.8149171270719" cy="228.87415114506481" r="2.5" stroke="none" stroke-width="0" fill="#3366cc"></circle><circle cx="764.1933701657459" cy="256.40624" r="2.5" stroke="none" stroke-width="0" fill="#3366cc"></circle><circle cx="766.57182320442" cy="230.62319711758238" r="2.5" stroke="none" stroke-width="0" fill="#3366cc"></circle><circle cx="768.950276243094" cy="256.392" r="2.5" stroke="none" stroke-width="0" fill="#3366cc"></circle><circle cx="771.328729281768" cy="226.54600392357756" r="2.5" stroke="none" stroke-width="0" fill="#3366cc"></circle><circle cx="773.707182320442" cy="280.3864" r="2.5" stroke="none" stroke-width="0" fill="#3366cc"></circle><circle cx="776.085635359116" cy="258.0818133333096" r="2.5" stroke="none" stroke-width="0" fill="#3366cc"></circle><circle cx="778.4640883977901" cy="242.9685299595208" r="2.5" stroke="none" stroke-width="0" fill="#3366cc"></circle><circle cx="780.8425414364641" cy="242.9971193482816" r="2.5" stroke="none" stroke-width="0" fill="#3366cc"></circle><circle cx="783.2209944751381" cy="216.7817625884488" r="2.5" stroke="none" stroke-width="0" fill="#3366cc"></circle><circle cx="785.5994475138122" cy="305.9260883720864" r="2.5" stroke="none" stroke-width="0" fill="#3366cc"></circle><circle cx="787.9779005524862" cy="219.6440034082456" r="2.5" stroke="none" stroke-width="0" fill="#3366cc"></circle><circle cx="790.3563535911602" cy="253.6864" r="2.5" stroke="none" stroke-width="0" fill="#3366cc"></circle><circle cx="792.7348066298343" cy="267.7213761606128" r="2.5" stroke="none" stroke-width="0" fill="#3366cc"></circle><circle cx="795.1132596685084" cy="231.4433247931672" r="2.5" stroke="none" stroke-width="0" fill="#3366cc"></circle><circle cx="797.4917127071824" cy="226.71572817876236" r="2.5" stroke="none" stroke-width="0" fill="#3366cc"></circle><circle cx="799.8701657458564" cy="197.294089898732" r="2.5" stroke="none" stroke-width="0" fill="#3366cc"></circle><circle cx="802.2486187845304" cy="232.73560808623841" r="2.5" stroke="none" stroke-width="0" fill="#3366cc"></circle><circle cx="804.6270718232045" cy="198.31612500586635" r="2.5" stroke="none" stroke-width="0" fill="#3366cc"></circle><circle cx="807.0055248618785" cy="230.08682053790878" r="2.5" stroke="none" stroke-width="0" fill="#3366cc"></circle><circle cx="809.3839779005525" cy="196.71365135135517" r="2.5" stroke="none" stroke-width="0" fill="#3366cc"></circle><circle cx="811.7624309392265" cy="245.525784615412" r="2.5" stroke="none" stroke-width="0" fill="#3366cc"></circle><circle cx="814.1408839779006" cy="205.3563710955384" r="2.5" stroke="none" stroke-width="0" fill="#3366cc"></circle><circle cx="816.5193370165746" cy="208.22115807859922" r="2.5" stroke="none" stroke-width="0" fill="#3366cc"></circle><circle cx="818.8977900552486" cy="222.2678702625176" r="2.5" stroke="none" stroke-width="0" fill="#3366cc"></circle><circle cx="821.2762430939226" cy="207.798572734936" r="2.5" stroke="none" stroke-width="0" fill="#3366cc"></circle><circle cx="823.6546961325968" cy="222.93746126126962" r="2.5" stroke="none" stroke-width="0" fill="#3366cc"></circle><circle cx="826.0331491712708" cy="177.88112046553437" r="2.5" stroke="none" stroke-width="0" fill="#3366cc"></circle><circle cx="828.4116022099448" cy="307.7984" r="2.5" stroke="none" stroke-width="0" fill="#3366cc"></circle><circle cx="830.7900552486188" cy="248.79733333330958" r="2.5" stroke="none" stroke-width="0" fill="#3366cc"></circle><circle cx="835.5469613259669" cy="231.4736861141136" r="2.5" stroke="none" stroke-width="0" fill="#3366cc"></circle><circle cx="837.9254143646409" cy="218.4098514285816" r="2.5" stroke="none" stroke-width="0" fill="#3366cc"></circle><circle cx="845.060773480663" cy="276.47040000000004" r="2.5" stroke="none" stroke-width="0" fill="#3366cc"></circle><circle cx="852.1961325966851" cy="249.7526" r="2.5" stroke="none" stroke-width="0" fill="#3366cc"></circle><circle cx="854.5745856353592" cy="273.7648" r="2.5" stroke="none" stroke-width="0" fill="#3366cc"></circle><circle cx="866.4668508287293" cy="257.38879999999995" r="2.5" stroke="none" stroke-width="0" fill="#3366cc"></circle><circle cx="868.8453038674033" cy="193.80018494958318" r="2.5" stroke="none" stroke-width="0" fill="#3366cc"></circle><circle cx="871.2237569060774" cy="214.5035753406704" r="2.5" stroke="none" stroke-width="0" fill="#3366cc"></circle><circle cx="873.6022099447514" cy="198.0140574616808" r="2.5" stroke="none" stroke-width="0" fill="#3366cc"></circle><circle cx="878.3591160220994" cy="240.747638723624" r="2.5" stroke="none" stroke-width="0" fill="#3366cc"></circle><circle cx="880.7375690607735" cy="215.77952" r="2.5" stroke="none" stroke-width="0" fill="#3366cc"></circle><circle cx="883.1160220994476" cy="261.240664229752" r="2.5" stroke="none" stroke-width="0" fill="#3366cc"></circle><circle cx="885.4944751381216" cy="179.5178426275624" r="2.5" stroke="none" stroke-width="0" fill="#3366cc"></circle><circle cx="887.8729281767957" cy="216.48439999999997" r="2.5" stroke="none" stroke-width="0" fill="#3366cc"></circle><circle cx="899.7651933701658" cy="262.629969281076" r="2.5" stroke="none" stroke-width="0" fill="#3366cc"></circle><circle cx="902.1436464088398" cy="282.0626514285816" r="2.5" stroke="none" stroke-width="0" fill="#3366cc"></circle><circle cx="906.9005524861878" cy="262.79999999999995" r="2.5" stroke="none" stroke-width="0" fill="#3366cc"></circle><circle cx="909.2790055248619" cy="292.70399999999995" r="2.5" stroke="none" stroke-width="0" fill="#3366cc"></circle><circle cx="911.6574585635359" cy="276.5814458715936" r="2.5" stroke="none" stroke-width="0" fill="#3366cc"></circle><circle cx="918.7928176795581" cy="242.480602171292" r="2.5" stroke="none" stroke-width="0" fill="#3366cc"></circle><circle cx="921.1712707182321" cy="277.6096" r="2.5" stroke="none" stroke-width="0" fill="#3366cc"></circle><circle cx="923.5497237569061" cy="208.0641278714848" r="2.5" stroke="none" stroke-width="0" fill="#3366cc"></circle><circle cx="933.0635359116022" cy="346.6736" r="2.5" stroke="none" stroke-width="0" fill="#3366cc"></circle><circle cx="937.8204419889503" cy="251.26559999999998" r="2.5" stroke="none" stroke-width="0" fill="#3366cc"></circle><circle cx="942.5773480662983" cy="242.077663730068" r="2.5" stroke="none" stroke-width="0" fill="#3366cc"></circle><circle cx="944.9558011049725" cy="187.5979811382328" r="2.5" stroke="none" stroke-width="0" fill="#3366cc"></circle><circle cx="947.3342541436465" cy="196.27426025880317" r="2.5" stroke="none" stroke-width="0" fill="#3366cc"></circle><circle cx="949.7127071823205" cy="201.86842280147283" r="2.5" stroke="none" stroke-width="0" fill="#3366cc"></circle><circle cx="952.0911602209945" cy="192.98164077495682" r="2.5" stroke="none" stroke-width="0" fill="#3366cc"></circle><circle cx="954.4696132596686" cy="194.70569507890718" r="2.5" stroke="none" stroke-width="0" fill="#3366cc"></circle><circle cx="956.8480662983426" cy="215.09599999999998" r="2.5" stroke="none" stroke-width="0" fill="#3366cc"></circle><circle cx="959.2265193370166" cy="244.644" r="2.5" stroke="none" stroke-width="0" fill="#3366cc"></circle><circle cx="961.6049723756906" cy="251.4345009584776" r="2.5" stroke="none" stroke-width="0" fill="#3366cc"></circle><circle cx="963.9834254143647" cy="280.8136" r="2.5" stroke="none" stroke-width="0" fill="#3366cc"></circle><circle cx="966.3618784530387" cy="224.0672" r="2.5" stroke="none" stroke-width="0" fill="#3366cc"></circle><circle cx="971.1187845303867" cy="242.5792" r="2.5" stroke="none" stroke-width="0" fill="#3366cc"></circle><circle cx="973.4972375690608" cy="206.3768585617368" r="2.5" stroke="none" stroke-width="0" fill="#3366cc"></circle><circle cx="985.389502762431" cy="256.3564" r="2.5" stroke="none" stroke-width="0" fill="#3366cc"></circle><circle cx="992.5248618784531" cy="311.216" r="2.5" stroke="none" stroke-width="0" fill="#3366cc"></circle><circle cx="994.9033149171271" cy="205.42324600938804" r="2.5" stroke="none" stroke-width="0" fill="#3366cc"></circle><circle cx="997.2817679558011" cy="284.8542" r="2.5" stroke="none" stroke-width="0" fill="#3366cc"></circle><circle cx="1006.7955801104973" cy="291.5648" r="2.5" stroke="none" stroke-width="0" fill="#3366cc"></circle><circle cx="1009.1740331491714" cy="242.1045333333096" r="2.5" stroke="none" stroke-width="0" fill="#3366cc"></circle><circle cx="1011.5524861878454" cy="273.1952" r="2.5" stroke="none" stroke-width="0" fill="#3366cc"></circle><circle cx="1013.9309392265194" cy="223.9722666666904" r="2.5" stroke="none" stroke-width="0" fill="#3366cc"></circle><circle cx="1016.3093922651934" cy="211.4500746708248" r="2.5" stroke="none" stroke-width="0" fill="#3366cc"></circle><circle cx="1021.0662983425415" cy="193.0118672646056" r="2.5" stroke="none" stroke-width="0" fill="#3366cc"></circle><circle cx="1023.4447513812155" cy="219.5346744842816" r="2.5" stroke="none" stroke-width="0" fill="#3366cc"></circle><circle cx="1025.8232044198894" cy="208.03298057060562" r="2.5" stroke="none" stroke-width="0" fill="#3366cc"></circle><circle cx="1028.2016574585637" cy="218.0864" r="2.5" stroke="none" stroke-width="0" fill="#3366cc"></circle><circle cx="1030.5801104972375" cy="198.3858534653416" r="2.5" stroke="none" stroke-width="0" fill="#3366cc"></circle><circle cx="1032.9585635359117" cy="224.92159999999998" r="2.5" stroke="none" stroke-width="0" fill="#3366cc"></circle><circle cx="1061.5" cy="271.4167032629728" r="2.5" stroke="none" stroke-width="0" fill="#3366cc"></circle></g><g><g><text text-anchor="middle" x="269.67334254143645" y="489.75" font-family="Arial" font-size="15" stroke="none" stroke-width="0" fill="#444444">February 2017</text></g><g><text text-anchor="middle" x="410.10117403314916" y="489.75" font-family="Arial" font-size="15" stroke="none" stroke-width="0" fill="#444444">April 2017</text></g><g><text text-anchor="middle" x="555.1868093922652" y="489.75" font-family="Arial" font-size="15" stroke="none" stroke-width="0" fill="#444444">June 2017</text></g><g><text text-anchor="middle" x="700.2724447513813" y="489.75" font-family="Arial" font-size="15" stroke="none" stroke-width="0" fill="#444444">August 2017</text></g><g><text text-anchor="middle" x="845.3580801104973" y="489.75" font-family="Arial" font-size="15" stroke="none" stroke-width="0" fill="#444444">October 2017</text></g><g><text text-anchor="middle" x="990.3446132596686" y="489.75" font-family="Arial" font-size="15" stroke="none" stroke-width="0" fill="#444444">December 2017</text></g><g><text text-anchor="end" x="185" y="472.75" font-family="Arial" font-size="15" stroke="none" stroke-width="0" fill="#444444">0</text></g><g><text text-anchor="end" x="185" y="401.55" font-family="Arial" font-size="15" stroke="none" stroke-width="0" fill="#444444">10</text></g><g><text text-anchor="end" x="185" y="330.35" font-family="Arial" font-size="15" stroke="none" stroke-width="0" fill="#444444">20</text></g><g><text text-anchor="end" x="185" y="259.15" font-family="Arial" font-size="15" stroke="none" stroke-width="0" fill="#444444">30</text></g><g><text text-anchor="end" x="185" y="187.95" font-family="Arial" font-size="15" stroke="none" stroke-width="0" fill="#444444">40</text></g><g><text text-anchor="end" x="185" y="116.75" font-family="Arial" font-size="15" stroke="none" stroke-width="0" fill="#444444">50</text></g></g></g><g><g><text text-anchor="middle" x="631" y="540.25" font-family="Arial" font-size="15" font-style="italic" stroke="none" stroke-width="0" fill="#222222">Ano</text><rect x="200" y="527.5" width="862" height="15" stroke="none" stroke-width="0" fill-opacity="0" fill="#ffffff"></rect></g><g><text text-anchor="middle" x="89.25" y="289.5" font-family="Arial" font-size="15" font-style="italic" transform="rotate(-90 89.25 289.5)" stroke="none" stroke-width="0" fill="#222222">Temperatura do solo (ºC)</text><path d="M76.49999999999999,468L76.50000000000001,111L91.50000000000001,111L91.49999999999999,468Z" stroke="none" stroke-width="0" fill-opacity="0" fill="#ffffff"></path></g></g><g></g></svg>