<svg width="1261" height="498" aria-label="A chart." style="overflow: hidden;"><defs id="_ABSTRACT_RENDERER_ID_299"><clipPath id="_ABSTRACT_RENDERER_ID_300"><rect x="183" y="95" width="895" height="308"></rect></clipPath></defs><rect x="0" y="0" width="1261" height="498" stroke="none" stroke-width="0" fill="#ffffff"></rect><g><text text-anchor="start" x="183" y="68.75" font-family="Arial" font-size="15" font-weight="bold" stroke="none" stroke-width="0" fill="#000000">Paranapoema</text><rect x="183" y="56" width="895" height="15" stroke="none" stroke-width="0" fill-opacity="0" fill="#ffffff"></rect></g><g><rect x="1093" y="95" width="153" height="15" stroke="none" stroke-width="0" fill-opacity="0" fill="#ffffff"></rect><g column-id="LST_Day_1km"><rect x="1093" y="95" width="153" height="15" stroke="none" stroke-width="0" fill-opacity="0" fill="#ffffff"></rect><g><text text-anchor="start" x="1129" y="107.75" font-family="Arial" font-size="15" stroke="none" stroke-width="0" fill="#222222">LST_Day_1km</text></g><path d="M1093,102.5L1123,102.5" stroke="#3366cc" stroke-width="1" fill-opacity="1" fill="none"></path><circle cx="1108" cy="102.5" r="2.5" stroke="none" stroke-width="0" fill="#3366cc"></circle></g></g><g><rect x="183" y="95" width="895" height="308" stroke="none" stroke-width="0" fill-opacity="0" fill="#ffffff"></rect><g clip-path="url(https://code.earthengine.google.com/#_ABSTRACT_RENDERER_ID_300)"><g><rect x="257" y="95" width="1" height="308" stroke="none" stroke-width="0" fill="#cccccc"></rect><rect x="326" y="95" width="1" height="308" stroke="none" stroke-width="0" fill="#cccccc"></rect><rect x="402" y="95" width="1" height="308" stroke="none" stroke-width="0" fill="#cccccc"></rect><rect x="476" y="95" width="1" height="308" stroke="none" stroke-width="0" fill="#cccccc"></rect><rect x="553" y="95" width="1" height="308" stroke="none" stroke-width="0" fill="#cccccc"></rect><rect x="627" y="95" width="1" height="308" stroke="none" stroke-width="0" fill="#cccccc"></rect><rect x="703" y="95" width="1" height="308" stroke="none" stroke-width="0" fill="#cccccc"></rect><rect x="779" y="95" width="1" height="308" stroke="none" stroke-width="0" fill="#cccccc"></rect><rect x="853" y="95" width="1" height="308" stroke="none" stroke-width="0" fill="#cccccc"></rect><rect x="930" y="95" width="1" height="308" stroke="none" stroke-width="0" fill="#cccccc"></rect><rect x="1003" y="95" width="1" height="308" stroke="none" stroke-width="0" fill="#cccccc"></rect><rect x="183" y="402" width="895" height="1" stroke="none" stroke-width="0" fill="#cccccc"></rect><rect x="183" y="341" width="895" height="1" stroke="none" stroke-width="0" fill="#cccccc"></rect><rect x="183" y="279" width="895" height="1" stroke="none" stroke-width="0" fill="#cccccc"></rect><rect x="183" y="218" width="895" height="1" stroke="none" stroke-width="0" fill="#cccccc"></rect><rect x="183" y="156" width="895" height="1" stroke="none" stroke-width="0" fill="#cccccc"></rect><rect x="183" y="95" width="895" height="1" stroke="none" stroke-width="0" fill="#cccccc"></rect><rect x="183" y="371" width="895" height="1" stroke="none" stroke-width="0" fill="#ebebeb"></rect><rect x="183" y="310" width="895" height="1" stroke="none" stroke-width="0" fill="#ebebeb"></rect><rect x="183" y="249" width="895" height="1" stroke="none" stroke-width="0" fill="#ebebeb"></rect><rect x="183" y="187" width="895" height="1" stroke="none" stroke-width="0" fill="#ebebeb"></rect><rect x="183" y="126" width="895" height="1" stroke="none" stroke-width="0" fill="#ebebeb"></rect></g><g><rect x="183" y="402" width="895" height="1" stroke="none" stroke-width="0" fill="#333333"></rect></g><g><g><path d="M205.66528925619835,199.7367333333538L208.12809917355372,214.18619999999999L210.5909090909091,206.6417767304672L213.05371900826447,189.01219999999998M225.36776859504133,226.6981555555692L227.8305785123967,202.12724L230.29338842975207,206.19192L232.75619834710744,176.66587133972402L235.21900826446281,167.85376M245.0702479338843,190.1583333333538L247.53305785123968,211.17933306448842L249.99586776859505,165.1697844890744L252.45867768595042,167.498770513685M267.23553719008265,216.151L269.69834710743805,211.23900000000003L272.1611570247934,199.6769550652132L274.62396694214874,168.22923384027501M294.3264462809917,239.95491735535822L296.7892561983471,190.41212M301.71487603305786,255.2014L304.1776859504132,246.6054L306.6404958677686,219.78588000000002M311.56611570247935,202.4640313901516L314.0289256198347,184.36215620643782L316.4917355371901,215.537M328.805785123967,226.2732416728904L331.2685950413223,271.81107329395024L333.7314049586777,233.8181002570642L336.1942148760331,263.364840449452M341.1198347107438,269.9374L343.58264462809916,238.9304M355.89669421487605,221.82046011342482L358.35950413223145,236.4744M363.28512396694214,261.9554L365.74793388429754,245.37740000000002M375.599173553719,264.043L378.0619834710744,246.851L380.52479338842977,212.6351859085292L382.9876033057851,212.0605051095016L385.4504132231405,203.871L387.9132231404959,196.19593974486443L390.37603305785126,229.294297622818L392.8388429752066,206.91980285528203L395.301652892562,237.9182943319848L397.7644628099174,205.51344999999998M419.9297520661157,230.33077490777399L422.39256198347107,228.11172L424.85537190082647,227.3006077232462L427.31818181818187,213.5624376568976L429.7809917355372,238.5676185205286L432.24380165289256,220.11130000000003M442.09504132231405,206.2079353612228L444.55785123966945,205.11354210524703L447.0206611570248,222.7448592198808L449.4834710743802,200.0684505137926M456.8719008264463,247.58780000000002L459.3347107438017,213.4791665540358L461.797520661157,217.414095564293L464.2603305785124,215.75479828354102L466.72314049586777,217.78833333335382M471.6487603305785,242.3971660818656L474.1115702479339,255.6347895384332M486.42561983471074,223.21200000000002L488.88842975206614,216.55459581587982M508.5909090909091,307.637L511.05371900826447,243.76324326625482M515.9793388429753,240.7032432499524L518.4421487603306,254.0962L520.904958677686,239.443418023667L523.3677685950413,233.114811940326L525.8305785123966,286.8127586777098L528.2933884297521,250.83421986299942M538.1446280991736,261.587L540.6074380165289,241.02553560812362M557.8471074380166,276.7111256089246L560.3099173553719,255.447L562.7727272727273,265.59424272462456L565.2355371900826,267.53819766033916L567.698347107438,244.64965272801382L570.1611570247934,268.4638L572.6239669421489,250.34996866536721M577.5495867768595,246.1245638861476L580.0123966942149,275.709L582.4752066115702,245.4041490677366L584.9380165289256,245.35284000000001L587.400826446281,251.8858L589.8636363636364,228.40433348929122L592.3264462809918,266.1653933333538L594.7892561983472,240.377621480895L597.2520661157025,237.55918691099382M602.1776859504132,239.2932284143068L604.6404958677685,251.96264417175882L607.103305785124,231.94540767093L609.5661157024794,260.2362L612.0289256198348,221.89426153843323M619.4173553719008,242.553L621.8801652892562,243.167L624.3429752066115,226.2198896134818L626.805785123967,256.7978M636.6570247933885,285.41020000000003L639.1198347107438,307.637L641.5826446280992,286.344601493411L644.0454545454545,291.3046L646.50826446281,261.07966179285L648.9710743801653,275.2178L651.4338842975208,248.42924160403282M656.3595041322315,253.3746577154316L658.8223140495868,231.5178810741454L661.2851239669421,270.42859999999996L663.7479338842975,272.68329538226965L666.2107438016529,312.1806L668.6735537190083,264.45416421725224L671.1363636363637,293.3922L673.5991735537191,250.34807576789862M680.9876033057851,226.9609224094448L683.4504132231405,235.4191099415158L685.9132231404959,253.20824020328402M695.7644628099174,234.22792673532442L698.2272727272727,232.638431670278L700.6900826446281,232.71402585703L703.1528925619835,218.4741788999214L705.6157024793389,230.78778658533741L708.0785123966942,257.6033957340116L710.5413223140496,298.5498L713.004132231405,258.777585921946L715.4669421487604,244.22297816171442L717.9297520661157,223.8956209204782L720.3925619834711,216.59615000000002L722.8553719008265,214.6849079385206L725.3181818181819,216.55819573914061L727.7809917355372,233.8003959556648L730.2438016528926,196.995109370533M735.1694214876034,236.13231428574062L737.6322314049587,250.8604452675122L740.095041322314,232.6803686404796L742.5578512396695,199.36515425815722M747.4834710743802,228.39486236159962L749.9462809917355,279.7614L752.409090909091,212.4056L754.8719008264463,232.324304433493L757.3347107438017,218.1158L759.797520661157,220.0247446525218L762.2603305785125,237.2726L764.7231404958678,213.1158737160234M796.7396694214876,196.38995021457623L799.202479338843,171.74736689652423L801.6652892561984,201.04659999999998L804.1280991735538,204.85340000000002L806.5909090909091,198.62756530610238L809.0537190082645,184.95092957110361M813.9793388429753,188.1277787234134L816.4421487603306,173.14837894734583L818.904958677686,155.06232394364903M831.2190082644628,210.4111274431014L833.6818181818182,237.3954L836.1446280991736,221.1858M841.0702479338843,247.30441538463901L843.5330578512397,201.24300805565522L845.9958677685951,236.951392756538L848.4586776859504,184.0956999741678L850.9214876033058,211.853L853.3842975206612,168.810559741859L855.8471074380166,176.241M860.7727272727273,199.67533333335382L863.2355371900827,187.78420000000003M870.6239669421487,217.8702L873.0867768595042,207.25764132229023L875.5495867768595,171.2156433052026L878.0123966942149,166.99059947932963L880.4752066115702,138.83282599026626L882.9380165289257,127.36884699390885L885.400826446281,150.20739999999998L887.8636363636364,168.1362M897.7148760330579,187.2316L900.1776859504132,181.8898M905.103305785124,229.68356L907.5661157024794,281.60339999999997L910.0289256198347,157.8824L912.4917355371902,196.33914591937102L914.9545454545455,206.64935L917.4173553719008,157.17460807737982M922.3429752066116,194.64772573125722L924.805785123967,189.7750779714468L927.2685950413223,154.91985000000003M937.1198347107438,148.20166666664625L939.5826446280992,158.0666M954.3595041322315,236.5358L956.8223140495868,169.6086659630602L959.2851239669421,181.12154384236058M964.2107438016529,246.9738L966.6735537190083,160.42683348272902L969.1363636363636,210.9934L971.5991735537191,152.0011374351588L974.0619834710744,178.75157777778463L976.5247933884298,151.9266L978.9876033057851,156.50896416314683L981.4504132231406,201.04659999999998L983.9132231404959,171.08340000000004M998.6900826446281,196.25246951067942L1001.1528925619835,188.7505934827104M1015.9297520661157,252.49980000000002L1018.3925619834711,175.1238160735016M1057.797520661157,214.27216L1060.2603305785124,241.2022L1062.723140495868,185.92330769228883M1072.5743801652893,172.56053405057781L1075.0371900826447,206.8840410429046L1077.5,193.87508" stroke="#3366cc" stroke-width="1" fill-opacity="1" fill="none"></path></g></g></g><g><circle cx="183.5" cy="179.8022" r="2.5" stroke="none" stroke-width="0" fill="#3366cc"></circle><circle cx="188.42561983471074" cy="175.603578907986" r="2.5" stroke="none" stroke-width="0" fill="#3366cc"></circle><circle cx="205.66528925619835" cy="199.7367333333538" r="2.5" stroke="none" stroke-width="0" fill="#3366cc"></circle><circle cx="208.12809917355372" cy="214.18619999999999" r="2.5" stroke="none" stroke-width="0" fill="#3366cc"></circle><circle cx="210.5909090909091" cy="206.6417767304672" r="2.5" stroke="none" stroke-width="0" fill="#3366cc"></circle><circle cx="213.05371900826447" cy="189.01219999999998" r="2.5" stroke="none" stroke-width="0" fill="#3366cc"></circle><circle cx="217.9793388429752" cy="236.2902" r="2.5" stroke="none" stroke-width="0" fill="#3366cc"></circle><circle cx="225.36776859504133" cy="226.6981555555692" r="2.5" stroke="none" stroke-width="0" fill="#3366cc"></circle><circle cx="227.8305785123967" cy="202.12724" r="2.5" stroke="none" stroke-width="0" fill="#3366cc"></circle><circle cx="230.29338842975207" cy="206.19192" r="2.5" stroke="none" stroke-width="0" fill="#3366cc"></circle><circle cx="232.75619834710744" cy="176.66587133972402" r="2.5" stroke="none" stroke-width="0" fill="#3366cc"></circle><circle cx="235.21900826446281" cy="167.85376" r="2.5" stroke="none" stroke-width="0" fill="#3366cc"></circle><circle cx="240.14462809917356" cy="213.94060000000002" r="2.5" stroke="none" stroke-width="0" fill="#3366cc"></circle><circle cx="245.0702479338843" cy="190.1583333333538" r="2.5" stroke="none" stroke-width="0" fill="#3366cc"></circle><circle cx="247.53305785123968" cy="211.17933306448842" r="2.5" stroke="none" stroke-width="0" fill="#3366cc"></circle><circle cx="249.99586776859505" cy="165.1697844890744" r="2.5" stroke="none" stroke-width="0" fill="#3366cc"></circle><circle cx="252.45867768595042" cy="167.498770513685" r="2.5" stroke="none" stroke-width="0" fill="#3366cc"></circle><circle cx="257.38429752066116" cy="209.5109295711036" r="2.5" stroke="none" stroke-width="0" fill="#3366cc"></circle><circle cx="262.3099173553719" cy="167.32468817428943" r="2.5" stroke="none" stroke-width="0" fill="#3366cc"></circle><circle cx="267.23553719008265" cy="216.151" r="2.5" stroke="none" stroke-width="0" fill="#3366cc"></circle><circle cx="269.69834710743805" cy="211.23900000000003" r="2.5" stroke="none" stroke-width="0" fill="#3366cc"></circle><circle cx="272.1611570247934" cy="199.6769550652132" r="2.5" stroke="none" stroke-width="0" fill="#3366cc"></circle><circle cx="274.62396694214874" cy="168.22923384027501" r="2.5" stroke="none" stroke-width="0" fill="#3366cc"></circle><circle cx="279.54958677685954" cy="163.5527771937102" r="2.5" stroke="none" stroke-width="0" fill="#3366cc"></circle><circle cx="294.3264462809917" cy="239.95491735535822" r="2.5" stroke="none" stroke-width="0" fill="#3366cc"></circle><circle cx="296.7892561983471" cy="190.41212" r="2.5" stroke="none" stroke-width="0" fill="#3366cc"></circle><circle cx="301.71487603305786" cy="255.2014" r="2.5" stroke="none" stroke-width="0" fill="#3366cc"></circle><circle cx="304.1776859504132" cy="246.6054" r="2.5" stroke="none" stroke-width="0" fill="#3366cc"></circle><circle cx="306.6404958677686" cy="219.78588000000002" r="2.5" stroke="none" stroke-width="0" fill="#3366cc"></circle><circle cx="311.56611570247935" cy="202.4640313901516" r="2.5" stroke="none" stroke-width="0" fill="#3366cc"></circle><circle cx="314.0289256198347" cy="184.36215620643782" r="2.5" stroke="none" stroke-width="0" fill="#3366cc"></circle><circle cx="316.4917355371901" cy="215.537" r="2.5" stroke="none" stroke-width="0" fill="#3366cc"></circle><circle cx="328.805785123967" cy="226.2732416728904" r="2.5" stroke="none" stroke-width="0" fill="#3366cc"></circle><circle cx="331.2685950413223" cy="271.81107329395024" r="2.5" stroke="none" stroke-width="0" fill="#3366cc"></circle><circle cx="333.7314049586777" cy="233.8181002570642" r="2.5" stroke="none" stroke-width="0" fill="#3366cc"></circle><circle cx="336.1942148760331" cy="263.364840449452" r="2.5" stroke="none" stroke-width="0" fill="#3366cc"></circle><circle cx="341.1198347107438" cy="269.9374" r="2.5" stroke="none" stroke-width="0" fill="#3366cc"></circle><circle cx="343.58264462809916" cy="238.9304" r="2.5" stroke="none" stroke-width="0" fill="#3366cc"></circle><circle cx="348.50826446280996" cy="231.8967839721034" r="2.5" stroke="none" stroke-width="0" fill="#3366cc"></circle><circle cx="355.89669421487605" cy="221.82046011342482" r="2.5" stroke="none" stroke-width="0" fill="#3366cc"></circle><circle cx="358.35950413223145" cy="236.4744" r="2.5" stroke="none" stroke-width="0" fill="#3366cc"></circle><circle cx="363.28512396694214" cy="261.9554" r="2.5" stroke="none" stroke-width="0" fill="#3366cc"></circle><circle cx="365.74793388429754" cy="245.37740000000002" r="2.5" stroke="none" stroke-width="0" fill="#3366cc"></circle><circle cx="370.6735537190083" cy="228.7719315789506" r="2.5" stroke="none" stroke-width="0" fill="#3366cc"></circle><circle cx="375.599173553719" cy="264.043" r="2.5" stroke="none" stroke-width="0" fill="#3366cc"></circle><circle cx="378.0619834710744" cy="246.851" r="2.5" stroke="none" stroke-width="0" fill="#3366cc"></circle><circle cx="380.52479338842977" cy="212.6351859085292" r="2.5" stroke="none" stroke-width="0" fill="#3366cc"></circle><circle cx="382.9876033057851" cy="212.0605051095016" r="2.5" stroke="none" stroke-width="0" fill="#3366cc"></circle><circle cx="385.4504132231405" cy="203.871" r="2.5" stroke="none" stroke-width="0" fill="#3366cc"></circle><circle cx="387.9132231404959" cy="196.19593974486443" r="2.5" stroke="none" stroke-width="0" fill="#3366cc"></circle><circle cx="390.37603305785126" cy="229.294297622818" r="2.5" stroke="none" stroke-width="0" fill="#3366cc"></circle><circle cx="392.8388429752066" cy="206.91980285528203" r="2.5" stroke="none" stroke-width="0" fill="#3366cc"></circle><circle cx="395.301652892562" cy="237.9182943319848" r="2.5" stroke="none" stroke-width="0" fill="#3366cc"></circle><circle cx="397.7644628099174" cy="205.51344999999998" r="2.5" stroke="none" stroke-width="0" fill="#3366cc"></circle><circle cx="410.07851239669424" cy="212.54275529544" r="2.5" stroke="none" stroke-width="0" fill="#3366cc"></circle><circle cx="419.9297520661157" cy="230.33077490777399" r="2.5" stroke="none" stroke-width="0" fill="#3366cc"></circle><circle cx="422.39256198347107" cy="228.11172" r="2.5" stroke="none" stroke-width="0" fill="#3366cc"></circle><circle cx="424.85537190082647" cy="227.3006077232462" r="2.5" stroke="none" stroke-width="0" fill="#3366cc"></circle><circle cx="427.31818181818187" cy="213.5624376568976" r="2.5" stroke="none" stroke-width="0" fill="#3366cc"></circle><circle cx="429.7809917355372" cy="238.5676185205286" r="2.5" stroke="none" stroke-width="0" fill="#3366cc"></circle><circle cx="432.24380165289256" cy="220.11130000000003" r="2.5" stroke="none" stroke-width="0" fill="#3366cc"></circle><circle cx="437.16942148760336" cy="219.6259133893926" r="2.5" stroke="none" stroke-width="0" fill="#3366cc"></circle><circle cx="442.09504132231405" cy="206.2079353612228" r="2.5" stroke="none" stroke-width="0" fill="#3366cc"></circle><circle cx="444.55785123966945" cy="205.11354210524703" r="2.5" stroke="none" stroke-width="0" fill="#3366cc"></circle><circle cx="447.0206611570248" cy="222.7448592198808" r="2.5" stroke="none" stroke-width="0" fill="#3366cc"></circle><circle cx="449.4834710743802" cy="200.0684505137926" r="2.5" stroke="none" stroke-width="0" fill="#3366cc"></circle><circle cx="456.8719008264463" cy="247.58780000000002" r="2.5" stroke="none" stroke-width="0" fill="#3366cc"></circle><circle cx="459.3347107438017" cy="213.4791665540358" r="2.5" stroke="none" stroke-width="0" fill="#3366cc"></circle><circle cx="461.797520661157" cy="217.414095564293" r="2.5" stroke="none" stroke-width="0" fill="#3366cc"></circle><circle cx="464.2603305785124" cy="215.75479828354102" r="2.5" stroke="none" stroke-width="0" fill="#3366cc"></circle><circle cx="466.72314049586777" cy="217.78833333335382" r="2.5" stroke="none" stroke-width="0" fill="#3366cc"></circle><circle cx="471.6487603305785" cy="242.3971660818656" r="2.5" stroke="none" stroke-width="0" fill="#3366cc"></circle><circle cx="474.1115702479339" cy="255.6347895384332" r="2.5" stroke="none" stroke-width="0" fill="#3366cc"></circle><circle cx="481.5" cy="234.20260000000002" r="2.5" stroke="none" stroke-width="0" fill="#3366cc"></circle><circle cx="486.42561983471074" cy="223.21200000000002" r="2.5" stroke="none" stroke-width="0" fill="#3366cc"></circle><circle cx="488.88842975206614" cy="216.55459581587982" r="2.5" stroke="none" stroke-width="0" fill="#3366cc"></circle><circle cx="493.8140495867769" cy="249.94428605444142" r="2.5" stroke="none" stroke-width="0" fill="#3366cc"></circle><circle cx="503.6652892561984" cy="260.1134" r="2.5" stroke="none" stroke-width="0" fill="#3366cc"></circle><circle cx="508.5909090909091" cy="307.637" r="2.5" stroke="none" stroke-width="0" fill="#3366cc"></circle><circle cx="511.05371900826447" cy="243.76324326625482" r="2.5" stroke="none" stroke-width="0" fill="#3366cc"></circle><circle cx="515.9793388429753" cy="240.7032432499524" r="2.5" stroke="none" stroke-width="0" fill="#3366cc"></circle><circle cx="518.4421487603306" cy="254.0962" r="2.5" stroke="none" stroke-width="0" fill="#3366cc"></circle><circle cx="520.904958677686" cy="239.443418023667" r="2.5" stroke="none" stroke-width="0" fill="#3366cc"></circle><circle cx="523.3677685950413" cy="233.114811940326" r="2.5" stroke="none" stroke-width="0" fill="#3366cc"></circle><circle cx="525.8305785123966" cy="286.8127586777098" r="2.5" stroke="none" stroke-width="0" fill="#3366cc"></circle><circle cx="528.2933884297521" cy="250.83421986299942" r="2.5" stroke="none" stroke-width="0" fill="#3366cc"></circle><circle cx="533.2190082644629" cy="287.62059999999997" r="2.5" stroke="none" stroke-width="0" fill="#3366cc"></circle><circle cx="538.1446280991736" cy="261.587" r="2.5" stroke="none" stroke-width="0" fill="#3366cc"></circle><circle cx="540.6074380165289" cy="241.02553560812362" r="2.5" stroke="none" stroke-width="0" fill="#3366cc"></circle><circle cx="550.4586776859504" cy="238.06202857141983" r="2.5" stroke="none" stroke-width="0" fill="#3366cc"></circle><circle cx="557.8471074380166" cy="276.7111256089246" r="2.5" stroke="none" stroke-width="0" fill="#3366cc"></circle><circle cx="560.3099173553719" cy="255.447" r="2.5" stroke="none" stroke-width="0" fill="#3366cc"></circle><circle cx="562.7727272727273" cy="265.59424272462456" r="2.5" stroke="none" stroke-width="0" fill="#3366cc"></circle><circle cx="565.2355371900826" cy="267.53819766033916" r="2.5" stroke="none" stroke-width="0" fill="#3366cc"></circle><circle cx="567.698347107438" cy="244.64965272801382" r="2.5" stroke="none" stroke-width="0" fill="#3366cc"></circle><circle cx="570.1611570247934" cy="268.4638" r="2.5" stroke="none" stroke-width="0" fill="#3366cc"></circle><circle cx="572.6239669421489" cy="250.34996866536721" r="2.5" stroke="none" stroke-width="0" fill="#3366cc"></circle><circle cx="577.5495867768595" cy="246.1245638861476" r="2.5" stroke="none" stroke-width="0" fill="#3366cc"></circle><circle cx="580.0123966942149" cy="275.709" r="2.5" stroke="none" stroke-width="0" fill="#3366cc"></circle><circle cx="582.4752066115702" cy="245.4041490677366" r="2.5" stroke="none" stroke-width="0" fill="#3366cc"></circle><circle cx="584.9380165289256" cy="245.35284000000001" r="2.5" stroke="none" stroke-width="0" fill="#3366cc"></circle><circle cx="587.400826446281" cy="251.8858" r="2.5" stroke="none" stroke-width="0" fill="#3366cc"></circle><circle cx="589.8636363636364" cy="228.40433348929122" r="2.5" stroke="none" stroke-width="0" fill="#3366cc"></circle><circle cx="592.3264462809918" cy="266.1653933333538" r="2.5" stroke="none" stroke-width="0" fill="#3366cc"></circle><circle cx="594.7892561983472" cy="240.377621480895" r="2.5" stroke="none" stroke-width="0" fill="#3366cc"></circle><circle cx="597.2520661157025" cy="237.55918691099382" r="2.5" stroke="none" stroke-width="0" fill="#3366cc"></circle><circle cx="602.1776859504132" cy="239.2932284143068" r="2.5" stroke="none" stroke-width="0" fill="#3366cc"></circle><circle cx="604.6404958677685" cy="251.96264417175882" r="2.5" stroke="none" stroke-width="0" fill="#3366cc"></circle><circle cx="607.103305785124" cy="231.94540767093" r="2.5" stroke="none" stroke-width="0" fill="#3366cc"></circle><circle cx="609.5661157024794" cy="260.2362" r="2.5" stroke="none" stroke-width="0" fill="#3366cc"></circle><circle cx="612.0289256198348" cy="221.89426153843323" r="2.5" stroke="none" stroke-width="0" fill="#3366cc"></circle><circle cx="619.4173553719008" cy="242.553" r="2.5" stroke="none" stroke-width="0" fill="#3366cc"></circle><circle cx="621.8801652892562" cy="243.167" r="2.5" stroke="none" stroke-width="0" fill="#3366cc"></circle><circle cx="624.3429752066115" cy="226.2198896134818" r="2.5" stroke="none" stroke-width="0" fill="#3366cc"></circle><circle cx="626.805785123967" cy="256.7978" r="2.5" stroke="none" stroke-width="0" fill="#3366cc"></circle><circle cx="636.6570247933885" cy="285.41020000000003" r="2.5" stroke="none" stroke-width="0" fill="#3366cc"></circle><circle cx="639.1198347107438" cy="307.637" r="2.5" stroke="none" stroke-width="0" fill="#3366cc"></circle><circle cx="641.5826446280992" cy="286.344601493411" r="2.5" stroke="none" stroke-width="0" fill="#3366cc"></circle><circle cx="644.0454545454545" cy="291.3046" r="2.5" stroke="none" stroke-width="0" fill="#3366cc"></circle><circle cx="646.50826446281" cy="261.07966179285" r="2.5" stroke="none" stroke-width="0" fill="#3366cc"></circle><circle cx="648.9710743801653" cy="275.2178" r="2.5" stroke="none" stroke-width="0" fill="#3366cc"></circle><circle cx="651.4338842975208" cy="248.42924160403282" r="2.5" stroke="none" stroke-width="0" fill="#3366cc"></circle><circle cx="656.3595041322315" cy="253.3746577154316" r="2.5" stroke="none" stroke-width="0" fill="#3366cc"></circle><circle cx="658.8223140495868" cy="231.5178810741454" r="2.5" stroke="none" stroke-width="0" fill="#3366cc"></circle><circle cx="661.2851239669421" cy="270.42859999999996" r="2.5" stroke="none" stroke-width="0" fill="#3366cc"></circle><circle cx="663.7479338842975" cy="272.68329538226965" r="2.5" stroke="none" stroke-width="0" fill="#3366cc"></circle><circle cx="666.2107438016529" cy="312.1806" r="2.5" stroke="none" stroke-width="0" fill="#3366cc"></circle><circle cx="668.6735537190083" cy="264.45416421725224" r="2.5" stroke="none" stroke-width="0" fill="#3366cc"></circle><circle cx="671.1363636363637" cy="293.3922" r="2.5" stroke="none" stroke-width="0" fill="#3366cc"></circle><circle cx="673.5991735537191" cy="250.34807576789862" r="2.5" stroke="none" stroke-width="0" fill="#3366cc"></circle><circle cx="680.9876033057851" cy="226.9609224094448" r="2.5" stroke="none" stroke-width="0" fill="#3366cc"></circle><circle cx="683.4504132231405" cy="235.4191099415158" r="2.5" stroke="none" stroke-width="0" fill="#3366cc"></circle><circle cx="685.9132231404959" cy="253.20824020328402" r="2.5" stroke="none" stroke-width="0" fill="#3366cc"></circle><circle cx="690.8388429752067" cy="234.94963667867142" r="2.5" stroke="none" stroke-width="0" fill="#3366cc"></circle><circle cx="695.7644628099174" cy="234.22792673532442" r="2.5" stroke="none" stroke-width="0" fill="#3366cc"></circle><circle cx="698.2272727272727" cy="232.638431670278" r="2.5" stroke="none" stroke-width="0" fill="#3366cc"></circle><circle cx="700.6900826446281" cy="232.71402585703" r="2.5" stroke="none" stroke-width="0" fill="#3366cc"></circle><circle cx="703.1528925619835" cy="218.4741788999214" r="2.5" stroke="none" stroke-width="0" fill="#3366cc"></circle><circle cx="705.6157024793389" cy="230.78778658533741" r="2.5" stroke="none" stroke-width="0" fill="#3366cc"></circle><circle cx="708.0785123966942" cy="257.6033957340116" r="2.5" stroke="none" stroke-width="0" fill="#3366cc"></circle><circle cx="710.5413223140496" cy="298.5498" r="2.5" stroke="none" stroke-width="0" fill="#3366cc"></circle><circle cx="713.004132231405" cy="258.777585921946" r="2.5" stroke="none" stroke-width="0" fill="#3366cc"></circle><circle cx="715.4669421487604" cy="244.22297816171442" r="2.5" stroke="none" stroke-width="0" fill="#3366cc"></circle><circle cx="717.9297520661157" cy="223.8956209204782" r="2.5" stroke="none" stroke-width="0" fill="#3366cc"></circle><circle cx="720.3925619834711" cy="216.59615000000002" r="2.5" stroke="none" stroke-width="0" fill="#3366cc"></circle><circle cx="722.8553719008265" cy="214.6849079385206" r="2.5" stroke="none" stroke-width="0" fill="#3366cc"></circle><circle cx="725.3181818181819" cy="216.55819573914061" r="2.5" stroke="none" stroke-width="0" fill="#3366cc"></circle><circle cx="727.7809917355372" cy="233.8003959556648" r="2.5" stroke="none" stroke-width="0" fill="#3366cc"></circle><circle cx="730.2438016528926" cy="196.995109370533" r="2.5" stroke="none" stroke-width="0" fill="#3366cc"></circle><circle cx="735.1694214876034" cy="236.13231428574062" r="2.5" stroke="none" stroke-width="0" fill="#3366cc"></circle><circle cx="737.6322314049587" cy="250.8604452675122" r="2.5" stroke="none" stroke-width="0" fill="#3366cc"></circle><circle cx="740.095041322314" cy="232.6803686404796" r="2.5" stroke="none" stroke-width="0" fill="#3366cc"></circle><circle cx="742.5578512396695" cy="199.36515425815722" r="2.5" stroke="none" stroke-width="0" fill="#3366cc"></circle><circle cx="747.4834710743802" cy="228.39486236159962" r="2.5" stroke="none" stroke-width="0" fill="#3366cc"></circle><circle cx="749.9462809917355" cy="279.7614" r="2.5" stroke="none" stroke-width="0" fill="#3366cc"></circle><circle cx="752.409090909091" cy="212.4056" r="2.5" stroke="none" stroke-width="0" fill="#3366cc"></circle><circle cx="754.8719008264463" cy="232.324304433493" r="2.5" stroke="none" stroke-width="0" fill="#3366cc"></circle><circle cx="757.3347107438017" cy="218.1158" r="2.5" stroke="none" stroke-width="0" fill="#3366cc"></circle><circle cx="759.797520661157" cy="220.0247446525218" r="2.5" stroke="none" stroke-width="0" fill="#3366cc"></circle><circle cx="762.2603305785125" cy="237.2726" r="2.5" stroke="none" stroke-width="0" fill="#3366cc"></circle><circle cx="764.7231404958678" cy="213.1158737160234" r="2.5" stroke="none" stroke-width="0" fill="#3366cc"></circle><circle cx="769.6487603305785" cy="219.4031918731514" r="2.5" stroke="none" stroke-width="0" fill="#3366cc"></circle><circle cx="777.0371900826447" cy="189.5735714285802" r="2.5" stroke="none" stroke-width="0" fill="#3366cc"></circle><circle cx="781.9628099173555" cy="263.9202" r="2.5" stroke="none" stroke-width="0" fill="#3366cc"></circle><circle cx="786.8884297520661" cy="220.4286170073704" r="2.5" stroke="none" stroke-width="0" fill="#3366cc"></circle><circle cx="791.814049586777" cy="261.894" r="2.5" stroke="none" stroke-width="0" fill="#3366cc"></circle><circle cx="796.7396694214876" cy="196.38995021457623" r="2.5" stroke="none" stroke-width="0" fill="#3366cc"></circle><circle cx="799.202479338843" cy="171.74736689652423" r="2.5" stroke="none" stroke-width="0" fill="#3366cc"></circle><circle cx="801.6652892561984" cy="201.04659999999998" r="2.5" stroke="none" stroke-width="0" fill="#3366cc"></circle><circle cx="804.1280991735538" cy="204.85340000000002" r="2.5" stroke="none" stroke-width="0" fill="#3366cc"></circle><circle cx="806.5909090909091" cy="198.62756530610238" r="2.5" stroke="none" stroke-width="0" fill="#3366cc"></circle><circle cx="809.0537190082645" cy="184.95092957110361" r="2.5" stroke="none" stroke-width="0" fill="#3366cc"></circle><circle cx="813.9793388429753" cy="188.1277787234134" r="2.5" stroke="none" stroke-width="0" fill="#3366cc"></circle><circle cx="816.4421487603306" cy="173.14837894734583" r="2.5" stroke="none" stroke-width="0" fill="#3366cc"></circle><circle cx="818.904958677686" cy="155.06232394364903" r="2.5" stroke="none" stroke-width="0" fill="#3366cc"></circle><circle cx="823.8305785123968" cy="206.8182" r="2.5" stroke="none" stroke-width="0" fill="#3366cc"></circle><circle cx="831.2190082644628" cy="210.4111274431014" r="2.5" stroke="none" stroke-width="0" fill="#3366cc"></circle><circle cx="833.6818181818182" cy="237.3954" r="2.5" stroke="none" stroke-width="0" fill="#3366cc"></circle><circle cx="836.1446280991736" cy="221.1858" r="2.5" stroke="none" stroke-width="0" fill="#3366cc"></circle><circle cx="841.0702479338843" cy="247.30441538463901" r="2.5" stroke="none" stroke-width="0" fill="#3366cc"></circle><circle cx="843.5330578512397" cy="201.24300805565522" r="2.5" stroke="none" stroke-width="0" fill="#3366cc"></circle><circle cx="845.9958677685951" cy="236.951392756538" r="2.5" stroke="none" stroke-width="0" fill="#3366cc"></circle><circle cx="848.4586776859504" cy="184.0956999741678" r="2.5" stroke="none" stroke-width="0" fill="#3366cc"></circle><circle cx="850.9214876033058" cy="211.853" r="2.5" stroke="none" stroke-width="0" fill="#3366cc"></circle><circle cx="853.3842975206612" cy="168.810559741859" r="2.5" stroke="none" stroke-width="0" fill="#3366cc"></circle><circle cx="855.8471074380166" cy="176.241" r="2.5" stroke="none" stroke-width="0" fill="#3366cc"></circle><circle cx="860.7727272727273" cy="199.67533333335382" r="2.5" stroke="none" stroke-width="0" fill="#3366cc"></circle><circle cx="863.2355371900827" cy="187.78420000000003" r="2.5" stroke="none" stroke-width="0" fill="#3366cc"></circle><circle cx="870.6239669421487" cy="217.8702" r="2.5" stroke="none" stroke-width="0" fill="#3366cc"></circle><circle cx="873.0867768595042" cy="207.25764132229023" r="2.5" stroke="none" stroke-width="0" fill="#3366cc"></circle><circle cx="875.5495867768595" cy="171.2156433052026" r="2.5" stroke="none" stroke-width="0" fill="#3366cc"></circle><circle cx="878.0123966942149" cy="166.99059947932963" r="2.5" stroke="none" stroke-width="0" fill="#3366cc"></circle><circle cx="880.4752066115702" cy="138.83282599026626" r="2.5" stroke="none" stroke-width="0" fill="#3366cc"></circle><circle cx="882.9380165289257" cy="127.36884699390885" r="2.5" stroke="none" stroke-width="0" fill="#3366cc"></circle><circle cx="885.400826446281" cy="150.20739999999998" r="2.5" stroke="none" stroke-width="0" fill="#3366cc"></circle><circle cx="887.8636363636364" cy="168.1362" r="2.5" stroke="none" stroke-width="0" fill="#3366cc"></circle><circle cx="897.7148760330579" cy="187.2316" r="2.5" stroke="none" stroke-width="0" fill="#3366cc"></circle><circle cx="900.1776859504132" cy="181.8898" r="2.5" stroke="none" stroke-width="0" fill="#3366cc"></circle><circle cx="905.103305785124" cy="229.68356" r="2.5" stroke="none" stroke-width="0" fill="#3366cc"></circle><circle cx="907.5661157024794" cy="281.60339999999997" r="2.5" stroke="none" stroke-width="0" fill="#3366cc"></circle><circle cx="910.0289256198347" cy="157.8824" r="2.5" stroke="none" stroke-width="0" fill="#3366cc"></circle><circle cx="912.4917355371902" cy="196.33914591937102" r="2.5" stroke="none" stroke-width="0" fill="#3366cc"></circle><circle cx="914.9545454545455" cy="206.64935" r="2.5" stroke="none" stroke-width="0" fill="#3366cc"></circle><circle cx="917.4173553719008" cy="157.17460807737982" r="2.5" stroke="none" stroke-width="0" fill="#3366cc"></circle><circle cx="922.3429752066116" cy="194.64772573125722" r="2.5" stroke="none" stroke-width="0" fill="#3366cc"></circle><circle cx="924.805785123967" cy="189.7750779714468" r="2.5" stroke="none" stroke-width="0" fill="#3366cc"></circle><circle cx="927.2685950413223" cy="154.91985000000003" r="2.5" stroke="none" stroke-width="0" fill="#3366cc"></circle><circle cx="932.1942148760331" cy="172.5672333333538" r="2.5" stroke="none" stroke-width="0" fill="#3366cc"></circle><circle cx="937.1198347107438" cy="148.20166666664625" r="2.5" stroke="none" stroke-width="0" fill="#3366cc"></circle><circle cx="939.5826446280992" cy="158.0666" r="2.5" stroke="none" stroke-width="0" fill="#3366cc"></circle><circle cx="949.4338842975206" cy="180.25246666664623" r="2.5" stroke="none" stroke-width="0" fill="#3366cc"></circle><circle cx="954.3595041322315" cy="236.5358" r="2.5" stroke="none" stroke-width="0" fill="#3366cc"></circle><circle cx="956.8223140495868" cy="169.6086659630602" r="2.5" stroke="none" stroke-width="0" fill="#3366cc"></circle><circle cx="959.2851239669421" cy="181.12154384236058" r="2.5" stroke="none" stroke-width="0" fill="#3366cc"></circle><circle cx="964.2107438016529" cy="246.9738" r="2.5" stroke="none" stroke-width="0" fill="#3366cc"></circle><circle cx="966.6735537190083" cy="160.42683348272902" r="2.5" stroke="none" stroke-width="0" fill="#3366cc"></circle><circle cx="969.1363636363636" cy="210.9934" r="2.5" stroke="none" stroke-width="0" fill="#3366cc"></circle><circle cx="971.5991735537191" cy="152.0011374351588" r="2.5" stroke="none" stroke-width="0" fill="#3366cc"></circle><circle cx="974.0619834710744" cy="178.75157777778463" r="2.5" stroke="none" stroke-width="0" fill="#3366cc"></circle><circle cx="976.5247933884298" cy="151.9266" r="2.5" stroke="none" stroke-width="0" fill="#3366cc"></circle><circle cx="978.9876033057851" cy="156.50896416314683" r="2.5" stroke="none" stroke-width="0" fill="#3366cc"></circle><circle cx="981.4504132231406" cy="201.04659999999998" r="2.5" stroke="none" stroke-width="0" fill="#3366cc"></circle><circle cx="983.9132231404959" cy="171.08340000000004" r="2.5" stroke="none" stroke-width="0" fill="#3366cc"></circle><circle cx="988.8388429752066" cy="176.5294148842866" r="2.5" stroke="none" stroke-width="0" fill="#3366cc"></circle><circle cx="998.6900826446281" cy="196.25246951067942" r="2.5" stroke="none" stroke-width="0" fill="#3366cc"></circle><circle cx="1001.1528925619835" cy="188.7505934827104" r="2.5" stroke="none" stroke-width="0" fill="#3366cc"></circle><circle cx="1006.0785123966942" cy="197.36260000000004" r="2.5" stroke="none" stroke-width="0" fill="#3366cc"></circle><circle cx="1015.9297520661157" cy="252.49980000000002" r="2.5" stroke="none" stroke-width="0" fill="#3366cc"></circle><circle cx="1018.3925619834711" cy="175.1238160735016" r="2.5" stroke="none" stroke-width="0" fill="#3366cc"></circle><circle cx="1025.780991735537" cy="221.92260000000002" r="2.5" stroke="none" stroke-width="0" fill="#3366cc"></circle><circle cx="1033.1694214876034" cy="210.2226841165472" r="2.5" stroke="none" stroke-width="0" fill="#3366cc"></circle><circle cx="1050.409090909091" cy="234.0798" r="2.5" stroke="none" stroke-width="0" fill="#3366cc"></circle><circle cx="1057.797520661157" cy="214.27216" r="2.5" stroke="none" stroke-width="0" fill="#3366cc"></circle><circle cx="1060.2603305785124" cy="241.2022" r="2.5" stroke="none" stroke-width="0" fill="#3366cc"></circle><circle cx="1062.723140495868" cy="185.92330769228883" r="2.5" stroke="none" stroke-width="0" fill="#3366cc"></circle><circle cx="1067.6487603305786" cy="184.17576923078343" r="2.5" stroke="none" stroke-width="0" fill="#3366cc"></circle><circle cx="1072.5743801652893" cy="172.56053405057781" r="2.5" stroke="none" stroke-width="0" fill="#3366cc"></circle><circle cx="1075.0371900826447" cy="206.8840410429046" r="2.5" stroke="none" stroke-width="0" fill="#3366cc"></circle><circle cx="1077.5" cy="193.87508" r="2.5" stroke="none" stroke-width="0" fill="#3366cc"></circle></g><g><g><text text-anchor="middle" x="257.58953168044076" y="424.75" font-family="Arial" font-size="15" stroke="none" stroke-width="0" fill="#444444">February 2019</text></g><g><text text-anchor="middle" x="402.99793388429754" y="424.75" font-family="Arial" font-size="15" stroke="none" stroke-width="0" fill="#444444">April 2019</text></g><g><text text-anchor="middle" x="553.2293388429753" y="424.75" font-family="Arial" font-size="15" stroke="none" stroke-width="0" fill="#444444">June 2019</text></g><g><text text-anchor="middle" x="703.4607438016529" y="424.75" font-family="Arial" font-size="15" stroke="none" stroke-width="0" fill="#444444">August 2019</text></g><g><text text-anchor="middle" x="853.6921487603306" y="424.75" font-family="Arial" font-size="15" stroke="none" stroke-width="0" fill="#444444">October 2019</text></g><g><text text-anchor="middle" x="1003.9235537190083" y="424.75" font-family="Arial" font-size="15" stroke="none" stroke-width="0" fill="#444444">December 2019</text></g><g><text text-anchor="end" x="168" y="407.75" font-family="Arial" font-size="15" stroke="none" stroke-width="0" fill="#444444">0</text></g><g><text text-anchor="end" x="168" y="346.35" font-family="Arial" font-size="15" stroke="none" stroke-width="0" fill="#444444">10</text></g><g><text text-anchor="end" x="168" y="284.95" font-family="Arial" font-size="15" stroke="none" stroke-width="0" fill="#444444">20</text></g><g><text text-anchor="end" x="168" y="223.55" font-family="Arial" font-size="15" stroke="none" stroke-width="0" fill="#444444">30</text></g><g><text text-anchor="end" x="168" y="162.15" font-family="Arial" font-size="15" stroke="none" stroke-width="0" fill="#444444">40</text></g><g><text text-anchor="end" x="168" y="100.75" font-family="Arial" font-size="15" stroke="none" stroke-width="0" fill="#444444">50</text></g></g></g><g><g><text text-anchor="middle" x="630.5" y="467.75" font-family="Arial" font-size="15" font-style="italic" stroke="none" stroke-width="0" fill="#222222">Ano</text><rect x="183" y="455" width="895" height="15" stroke="none" stroke-width="0" fill-opacity="0" fill="#ffffff"></rect></g><g><text text-anchor="middle" x="80.75" y="249" font-family="Arial" font-size="15" font-style="italic" transform="rotate(-90 80.75 249)" stroke="none" stroke-width="0" fill="#222222">Temperatura do solo (ºC)</text><path d="M67.99999999999999,403L68.00000000000001,95L83.00000000000001,95L82.99999999999999,403Z" stroke="none" stroke-width="0" fill-opacity="0" fill="#ffffff"></path></g></g><g></g></svg>