<svg width="1261" height="498" aria-label="A chart." style="overflow: hidden;"><defs id="_ABSTRACT_RENDERER_ID_307"><clipPath id="_ABSTRACT_RENDERER_ID_308"><rect x="183" y="95" width="895" height="308"></rect></clipPath></defs><rect x="0" y="0" width="1261" height="498" stroke="none" stroke-width="0" fill="#ffffff"></rect><g><text text-anchor="start" x="183" y="68.75" font-family="Arial" font-size="15" font-weight="bold" stroke="none" stroke-width="0" fill="#000000">Paranapoema</text><rect x="183" y="56" width="895" height="15" stroke="none" stroke-width="0" fill-opacity="0" fill="#ffffff"></rect></g><g><rect x="1093" y="95" width="153" height="15" stroke="none" stroke-width="0" fill-opacity="0" fill="#ffffff"></rect><g column-id="LST_Day_1km"><rect x="1093" y="95" width="153" height="15" stroke="none" stroke-width="0" fill-opacity="0" fill="#ffffff"></rect><g><text text-anchor="start" x="1129" y="107.75" font-family="Arial" font-size="15" stroke="none" stroke-width="0" fill="#222222">LST_Day_1km</text></g><path d="M1093,102.5L1123,102.5" stroke="#3366cc" stroke-width="1" fill-opacity="1" fill="none"></path><circle cx="1108" cy="102.5" r="2.5" stroke="none" stroke-width="0" fill="#3366cc"></circle></g></g><g><rect x="183" y="95" width="895" height="308" stroke="none" stroke-width="0" fill-opacity="0" fill="#ffffff"></rect><g clip-path="url(https://code.earthengine.google.com/#_ABSTRACT_RENDERER_ID_308)"><g><rect x="183" y="95" width="1" height="308" stroke="none" stroke-width="0" fill="#cccccc"></rect><rect x="202" y="95" width="1" height="308" stroke="none" stroke-width="0" fill="#ebebeb"></rect><rect x="228" y="95" width="1" height="308" stroke="none" stroke-width="0" fill="#ebebeb"></rect><rect x="254" y="95" width="1" height="308" stroke="none" stroke-width="0" fill="#ebebeb"></rect><rect x="280" y="95" width="1" height="308" stroke="none" stroke-width="0" fill="#ebebeb"></rect><rect x="298" y="95" width="1" height="308" stroke="none" stroke-width="0" fill="#cccccc"></rect><rect x="305" y="95" width="1" height="308" stroke="none" stroke-width="0" fill="#ebebeb"></rect><rect x="331" y="95" width="1" height="308" stroke="none" stroke-width="0" fill="#ebebeb"></rect><rect x="357" y="95" width="1" height="308" stroke="none" stroke-width="0" fill="#ebebeb"></rect><rect x="383" y="95" width="1" height="308" stroke="none" stroke-width="0" fill="#ebebeb"></rect><rect x="405" y="95" width="1" height="308" stroke="none" stroke-width="0" fill="#cccccc"></rect><rect x="409" y="95" width="1" height="308" stroke="none" stroke-width="0" fill="#ebebeb"></rect><rect x="435" y="95" width="1" height="308" stroke="none" stroke-width="0" fill="#ebebeb"></rect><rect x="461" y="95" width="1" height="308" stroke="none" stroke-width="0" fill="#ebebeb"></rect><rect x="486" y="95" width="1" height="308" stroke="none" stroke-width="0" fill="#ebebeb"></rect><rect x="512" y="95" width="1" height="308" stroke="none" stroke-width="0" fill="#ebebeb"></rect><rect x="520" y="95" width="1" height="308" stroke="none" stroke-width="0" fill="#cccccc"></rect><rect x="538" y="95" width="1" height="308" stroke="none" stroke-width="0" fill="#ebebeb"></rect><rect x="564" y="95" width="1" height="308" stroke="none" stroke-width="0" fill="#ebebeb"></rect><rect x="590" y="95" width="1" height="308" stroke="none" stroke-width="0" fill="#ebebeb"></rect><rect x="616" y="95" width="1" height="308" stroke="none" stroke-width="0" fill="#ebebeb"></rect><rect x="630" y="95" width="1" height="308" stroke="none" stroke-width="0" fill="#cccccc"></rect><rect x="642" y="95" width="1" height="308" stroke="none" stroke-width="0" fill="#ebebeb"></rect><rect x="667" y="95" width="1" height="308" stroke="none" stroke-width="0" fill="#ebebeb"></rect><rect x="693" y="95" width="1" height="308" stroke="none" stroke-width="0" fill="#ebebeb"></rect><rect x="719" y="95" width="1" height="308" stroke="none" stroke-width="0" fill="#ebebeb"></rect><rect x="745" y="95" width="1" height="308" stroke="none" stroke-width="0" fill="#ebebeb"></rect><rect x="745" y="95" width="1" height="308" stroke="none" stroke-width="0" fill="#cccccc"></rect><rect x="771" y="95" width="1" height="308" stroke="none" stroke-width="0" fill="#ebebeb"></rect><rect x="797" y="95" width="1" height="308" stroke="none" stroke-width="0" fill="#ebebeb"></rect><rect x="823" y="95" width="1" height="308" stroke="none" stroke-width="0" fill="#ebebeb"></rect><rect x="848" y="95" width="1" height="308" stroke="none" stroke-width="0" fill="#ebebeb"></rect><rect x="856" y="95" width="1" height="308" stroke="none" stroke-width="0" fill="#cccccc"></rect><rect x="874" y="95" width="1" height="308" stroke="none" stroke-width="0" fill="#ebebeb"></rect><rect x="900" y="95" width="1" height="308" stroke="none" stroke-width="0" fill="#ebebeb"></rect><rect x="926" y="95" width="1" height="308" stroke="none" stroke-width="0" fill="#ebebeb"></rect><rect x="952" y="95" width="1" height="308" stroke="none" stroke-width="0" fill="#ebebeb"></rect><rect x="970" y="95" width="1" height="308" stroke="none" stroke-width="0" fill="#cccccc"></rect><rect x="978" y="95" width="1" height="308" stroke="none" stroke-width="0" fill="#ebebeb"></rect><rect x="1004" y="95" width="1" height="308" stroke="none" stroke-width="0" fill="#ebebeb"></rect><rect x="1029" y="95" width="1" height="308" stroke="none" stroke-width="0" fill="#ebebeb"></rect><rect x="1055" y="95" width="1" height="308" stroke="none" stroke-width="0" fill="#ebebeb"></rect><rect x="183" y="402" width="895" height="1" stroke="none" stroke-width="0" fill="#cccccc"></rect><rect x="183" y="325" width="895" height="1" stroke="none" stroke-width="0" fill="#cccccc"></rect><rect x="183" y="249" width="895" height="1" stroke="none" stroke-width="0" fill="#cccccc"></rect><rect x="183" y="172" width="895" height="1" stroke="none" stroke-width="0" fill="#cccccc"></rect><rect x="183" y="95" width="895" height="1" stroke="none" stroke-width="0" fill="#cccccc"></rect><rect x="183" y="364" width="895" height="1" stroke="none" stroke-width="0" fill="#ebebeb"></rect><rect x="183" y="287" width="895" height="1" stroke="none" stroke-width="0" fill="#ebebeb"></rect><rect x="183" y="210" width="895" height="1" stroke="none" stroke-width="0" fill="#ebebeb"></rect><rect x="183" y="133" width="895" height="1" stroke="none" stroke-width="0" fill="#ebebeb"></rect></g><g><rect x="183" y="402" width="895" height="1" stroke="none" stroke-width="0" fill="#333333"></rect></g><g><g><path d="M183.5,132.25793685775926L187.19421487603307,169.41025M198.27685950413223,173.00215L201.9710743801653,175.39992444961226M224.13636363636363,202.10575L227.8305785123967,227.12625L231.52479338842977,190.98492820446677L235.21900826446281,169.9475L238.91322314049586,141.75234090906304M246.301652892562,211.73728547918225L249.99586776859505,148.54546595258253M268.4669421487603,241.55525L272.1611570247934,178.329214862977L275.85537190082647,131.67455456940252M316.4917355371901,179.54125L320.18595041322317,245.08575M334.96280991735534,194.77939461884478L338.6570247933885,197.078625L342.3512396694215,156.68893749999998M349.73966942148763,142.6859L353.43388429752065,141.78288680979904L357.1280991735537,143.21994551105172L360.8223140495868,151.895092105247L364.5165289256198,142.85475000000002L368.21074380165294,187.40231679984376M375.599173553719,178.68603571427474L379.2933884297521,202.71975M394.0702479338843,183.61333436637574L397.7644628099174,202.336L401.4586776859504,161.02915000000002L405.1528925619835,191.327351962428L408.84710743801656,180.71808333330776L412.5413223140496,192.10840589354225L416.23553719008265,180.179394799692L419.9297520661157,160.57303571427477L423.62396694214874,193.0273214285495L427.31818181818187,160.95142229295553L431.0123966942149,197.6418435023385L434.70661157024796,147.6058911984875L438.40082644628103,158.59439834656175L442.09504132231405,155.77067857145053L445.7892561983471,152.8120409616445L449.4834710743802,158.01347774868026L453.17768595041326,136.96035L456.8719008264463,193.35625000000002L460.56611570247935,146.53875L464.2603305785124,152.46717587229676M479.03719008264466,209.62725L482.73140495867773,196.82762235651424L486.42561983471074,159.64206154944603L490.1198347107438,205.17575L493.8140495867769,162.3382245467505L497.50826446280996,166.87023020185526L501.202479338843,170.62613279603676L504.89669421487605,163.44268292385726M512.2851239669421,183.5833275260955L515.9793388429753,189.82575L519.6735537190083,148.90027896217325L523.3677685950413,174.4538214285495M530.7561983471074,170.096669279019L534.4504132231405,171.63679509446476M545.5330578512396,168.18225L549.2272727272727,216.07425L552.9214876033059,168.18763832822927L556.6157024793388,165.70877566967576L560.3099173553719,185.50655954412125L564.004132231405,172.03510000000003M571.3925619834711,207.065463287625L575.0867768595042,233.03600000000003L578.7809917355372,186.38735M586.1694214876034,184.009444209017L589.8636363636364,180.6511730769585L593.5578512396694,183.07175L597.2520661157025,164.38042035847425L600.9462809917355,201.440026447511L604.6404958677685,172.04846320920626L608.3347107438017,203.33375L612.0289256198348,153.31471637934473L615.7231404958677,182.45775L619.4173553719008,180.62939325552728L623.111570247934,163.01670527156526L626.805785123967,180.1599192015285L630.5,154.41778692304152L634.1942148760331,227.43325000000002L637.8884297520661,177.81732692304152L641.5826446280992,228.96825L645.2768595041323,226.166875M652.6652892561983,204.67687500000002L656.3595041322315,196.44061422016026L660.0537190082645,222.26541666669226L663.7479338842975,170.48475M682.2190082644629,227.12625L685.9132231404959,216.112625L689.6074380165289,187.8149L693.3016528925621,223.28875L696.9958677685951,188.30993750000002L700.6900826446281,181.01485L704.3842975206612,202.66847629008274M719.1611570247934,265.92333734054023L722.8553719008265,230.9348226301265M730.2438016528926,225.59125L733.9380165289257,208.437625L737.6322314049587,226.67308681854726L741.3264462809917,199.826865384639L745.0206611570248,218.029154958665M789.3512396694215,191.66775L793.0454545454546,226.10756818179726L796.7396694214876,224.20975L800.4338842975206,203.79425L804.1280991735538,222.0111240095075L807.8223140495868,257.41691666669226L811.5165289256199,223.22405165286276L815.2107438016529,186.35245496895126L818.904958677686,189.91785000000002L822.5991735537191,193.10828846152077L826.2933884297521,227.39345370366675L829.9876033057851,265.04075L833.6818181818182,208.39925000000002M855.8471074380166,265.65475000000004L859.5413223140496,249.62879784169627L863.2355371900827,263.50575000000003L866.9297520661157,235.93597314243925M874.3181818181819,201.3553055555385L878.0123966942149,222.25042606284276M885.400826446281,259.3952869565318L889.095041322314,248.853258940551L892.7892561983472,193.1727940051365L896.4834710743802,224.51675L900.1776859504132,175.85725M907.5661157024794,228.776375L911.2603305785125,235.93715L914.9545454545455,197.48457367703475L918.6487603305785,181.08931382979048L922.3429752066116,200.66114838334826L926.0371900826447,181.69894311223553M933.4256198347108,174.0323055555385L937.1198347107438,178.240059087533L940.814049586777,180.539683072237L944.50826446281,208.38901666669224L948.202479338843,243.05187500000002L951.8966942148761,189.82471020320327L955.5909090909091,205.6993723797525L959.2851239669421,211.23246808510476M966.6735537190083,203.2484425086985L970.3677685950414,189.8054524793325L974.0619834710744,197.93055L977.7561983471074,180.67970833330776L981.4504132231406,210.39475L985.1446280991736,180.58382300166426L988.8388429752066,218.68375L992.5330578512397,172.956714862977L996.2272727272727,177.91989878015278L999.9214876033059,178.34270160368752L1003.6157024793389,155.3020764101155L1007.3099173553719,176.74716594998426L1011.004132231405,167.338M1047.9462809917354,271.8237874629133L1051.6404958677685,219.993021439205L1055.3347107438017,215.56659907029325L1059.0289256198348,203.645882337891L1062.723140495868,191.6351388339745L1066.4173553719008,186.44875000000002L1070.111570247934,146.03155467640624L1073.8057851239669,187.67675000000003L1077.5,127.64295419770326" stroke="#3366cc" stroke-width="1" fill-opacity="1" fill="none"></path></g></g></g><g><circle cx="183.5" cy="132.25793685775926" r="2.5" stroke="none" stroke-width="0" fill="#3366cc"></circle><circle cx="187.19421487603307" cy="169.41025" r="2.5" stroke="none" stroke-width="0" fill="#3366cc"></circle><circle cx="198.27685950413223" cy="173.00215" r="2.5" stroke="none" stroke-width="0" fill="#3366cc"></circle><circle cx="201.9710743801653" cy="175.39992444961226" r="2.5" stroke="none" stroke-width="0" fill="#3366cc"></circle><circle cx="216.74793388429754" cy="201.8755" r="2.5" stroke="none" stroke-width="0" fill="#3366cc"></circle><circle cx="224.13636363636363" cy="202.10575" r="2.5" stroke="none" stroke-width="0" fill="#3366cc"></circle><circle cx="227.8305785123967" cy="227.12625" r="2.5" stroke="none" stroke-width="0" fill="#3366cc"></circle><circle cx="231.52479338842977" cy="190.98492820446677" r="2.5" stroke="none" stroke-width="0" fill="#3366cc"></circle><circle cx="235.21900826446281" cy="169.9475" r="2.5" stroke="none" stroke-width="0" fill="#3366cc"></circle><circle cx="238.91322314049586" cy="141.75234090906304" r="2.5" stroke="none" stroke-width="0" fill="#3366cc"></circle><circle cx="246.301652892562" cy="211.73728547918225" r="2.5" stroke="none" stroke-width="0" fill="#3366cc"></circle><circle cx="249.99586776859505" cy="148.54546595258253" r="2.5" stroke="none" stroke-width="0" fill="#3366cc"></circle><circle cx="257.38429752066116" cy="167.94103571427476" r="2.5" stroke="none" stroke-width="0" fill="#3366cc"></circle><circle cx="268.4669421487603" cy="241.55525" r="2.5" stroke="none" stroke-width="0" fill="#3366cc"></circle><circle cx="272.1611570247934" cy="178.329214862977" r="2.5" stroke="none" stroke-width="0" fill="#3366cc"></circle><circle cx="275.85537190082647" cy="131.67455456940252" r="2.5" stroke="none" stroke-width="0" fill="#3366cc"></circle><circle cx="283.24380165289256" cy="117.18187500000005" r="2.5" stroke="none" stroke-width="0" fill="#3366cc"></circle><circle cx="316.4917355371901" cy="179.54125" r="2.5" stroke="none" stroke-width="0" fill="#3366cc"></circle><circle cx="320.18595041322317" cy="245.08575" r="2.5" stroke="none" stroke-width="0" fill="#3366cc"></circle><circle cx="327.57438016528926" cy="218.83725" r="2.5" stroke="none" stroke-width="0" fill="#3366cc"></circle><circle cx="334.96280991735534" cy="194.77939461884478" r="2.5" stroke="none" stroke-width="0" fill="#3366cc"></circle><circle cx="338.6570247933885" cy="197.078625" r="2.5" stroke="none" stroke-width="0" fill="#3366cc"></circle><circle cx="342.3512396694215" cy="156.68893749999998" r="2.5" stroke="none" stroke-width="0" fill="#3366cc"></circle><circle cx="349.73966942148763" cy="142.6859" r="2.5" stroke="none" stroke-width="0" fill="#3366cc"></circle><circle cx="353.43388429752065" cy="141.78288680979904" r="2.5" stroke="none" stroke-width="0" fill="#3366cc"></circle><circle cx="357.1280991735537" cy="143.21994551105172" r="2.5" stroke="none" stroke-width="0" fill="#3366cc"></circle><circle cx="360.8223140495868" cy="151.895092105247" r="2.5" stroke="none" stroke-width="0" fill="#3366cc"></circle><circle cx="364.5165289256198" cy="142.85475000000002" r="2.5" stroke="none" stroke-width="0" fill="#3366cc"></circle><circle cx="368.21074380165294" cy="187.40231679984376" r="2.5" stroke="none" stroke-width="0" fill="#3366cc"></circle><circle cx="375.599173553719" cy="178.68603571427474" r="2.5" stroke="none" stroke-width="0" fill="#3366cc"></circle><circle cx="379.2933884297521" cy="202.71975" r="2.5" stroke="none" stroke-width="0" fill="#3366cc"></circle><circle cx="394.0702479338843" cy="183.61333436637574" r="2.5" stroke="none" stroke-width="0" fill="#3366cc"></circle><circle cx="397.7644628099174" cy="202.336" r="2.5" stroke="none" stroke-width="0" fill="#3366cc"></circle><circle cx="401.4586776859504" cy="161.02915000000002" r="2.5" stroke="none" stroke-width="0" fill="#3366cc"></circle><circle cx="405.1528925619835" cy="191.327351962428" r="2.5" stroke="none" stroke-width="0" fill="#3366cc"></circle><circle cx="408.84710743801656" cy="180.71808333330776" r="2.5" stroke="none" stroke-width="0" fill="#3366cc"></circle><circle cx="412.5413223140496" cy="192.10840589354225" r="2.5" stroke="none" stroke-width="0" fill="#3366cc"></circle><circle cx="416.23553719008265" cy="180.179394799692" r="2.5" stroke="none" stroke-width="0" fill="#3366cc"></circle><circle cx="419.9297520661157" cy="160.57303571427477" r="2.5" stroke="none" stroke-width="0" fill="#3366cc"></circle><circle cx="423.62396694214874" cy="193.0273214285495" r="2.5" stroke="none" stroke-width="0" fill="#3366cc"></circle><circle cx="427.31818181818187" cy="160.95142229295553" r="2.5" stroke="none" stroke-width="0" fill="#3366cc"></circle><circle cx="431.0123966942149" cy="197.6418435023385" r="2.5" stroke="none" stroke-width="0" fill="#3366cc"></circle><circle cx="434.70661157024796" cy="147.6058911984875" r="2.5" stroke="none" stroke-width="0" fill="#3366cc"></circle><circle cx="438.40082644628103" cy="158.59439834656175" r="2.5" stroke="none" stroke-width="0" fill="#3366cc"></circle><circle cx="442.09504132231405" cy="155.77067857145053" r="2.5" stroke="none" stroke-width="0" fill="#3366cc"></circle><circle cx="445.7892561983471" cy="152.8120409616445" r="2.5" stroke="none" stroke-width="0" fill="#3366cc"></circle><circle cx="449.4834710743802" cy="158.01347774868026" r="2.5" stroke="none" stroke-width="0" fill="#3366cc"></circle><circle cx="453.17768595041326" cy="136.96035" r="2.5" stroke="none" stroke-width="0" fill="#3366cc"></circle><circle cx="456.8719008264463" cy="193.35625000000002" r="2.5" stroke="none" stroke-width="0" fill="#3366cc"></circle><circle cx="460.56611570247935" cy="146.53875" r="2.5" stroke="none" stroke-width="0" fill="#3366cc"></circle><circle cx="464.2603305785124" cy="152.46717587229676" r="2.5" stroke="none" stroke-width="0" fill="#3366cc"></circle><circle cx="479.03719008264466" cy="209.62725" r="2.5" stroke="none" stroke-width="0" fill="#3366cc"></circle><circle cx="482.73140495867773" cy="196.82762235651424" r="2.5" stroke="none" stroke-width="0" fill="#3366cc"></circle><circle cx="486.42561983471074" cy="159.64206154944603" r="2.5" stroke="none" stroke-width="0" fill="#3366cc"></circle><circle cx="490.1198347107438" cy="205.17575" r="2.5" stroke="none" stroke-width="0" fill="#3366cc"></circle><circle cx="493.8140495867769" cy="162.3382245467505" r="2.5" stroke="none" stroke-width="0" fill="#3366cc"></circle><circle cx="497.50826446280996" cy="166.87023020185526" r="2.5" stroke="none" stroke-width="0" fill="#3366cc"></circle><circle cx="501.202479338843" cy="170.62613279603676" r="2.5" stroke="none" stroke-width="0" fill="#3366cc"></circle><circle cx="504.89669421487605" cy="163.44268292385726" r="2.5" stroke="none" stroke-width="0" fill="#3366cc"></circle><circle cx="512.2851239669421" cy="183.5833275260955" r="2.5" stroke="none" stroke-width="0" fill="#3366cc"></circle><circle cx="515.9793388429753" cy="189.82575" r="2.5" stroke="none" stroke-width="0" fill="#3366cc"></circle><circle cx="519.6735537190083" cy="148.90027896217325" r="2.5" stroke="none" stroke-width="0" fill="#3366cc"></circle><circle cx="523.3677685950413" cy="174.4538214285495" r="2.5" stroke="none" stroke-width="0" fill="#3366cc"></circle><circle cx="530.7561983471074" cy="170.096669279019" r="2.5" stroke="none" stroke-width="0" fill="#3366cc"></circle><circle cx="534.4504132231405" cy="171.63679509446476" r="2.5" stroke="none" stroke-width="0" fill="#3366cc"></circle><circle cx="545.5330578512396" cy="168.18225" r="2.5" stroke="none" stroke-width="0" fill="#3366cc"></circle><circle cx="549.2272727272727" cy="216.07425" r="2.5" stroke="none" stroke-width="0" fill="#3366cc"></circle><circle cx="552.9214876033059" cy="168.18763832822927" r="2.5" stroke="none" stroke-width="0" fill="#3366cc"></circle><circle cx="556.6157024793388" cy="165.70877566967576" r="2.5" stroke="none" stroke-width="0" fill="#3366cc"></circle><circle cx="560.3099173553719" cy="185.50655954412125" r="2.5" stroke="none" stroke-width="0" fill="#3366cc"></circle><circle cx="564.004132231405" cy="172.03510000000003" r="2.5" stroke="none" stroke-width="0" fill="#3366cc"></circle><circle cx="571.3925619834711" cy="207.065463287625" r="2.5" stroke="none" stroke-width="0" fill="#3366cc"></circle><circle cx="575.0867768595042" cy="233.03600000000003" r="2.5" stroke="none" stroke-width="0" fill="#3366cc"></circle><circle cx="578.7809917355372" cy="186.38735" r="2.5" stroke="none" stroke-width="0" fill="#3366cc"></circle><circle cx="586.1694214876034" cy="184.009444209017" r="2.5" stroke="none" stroke-width="0" fill="#3366cc"></circle><circle cx="589.8636363636364" cy="180.6511730769585" r="2.5" stroke="none" stroke-width="0" fill="#3366cc"></circle><circle cx="593.5578512396694" cy="183.07175" r="2.5" stroke="none" stroke-width="0" fill="#3366cc"></circle><circle cx="597.2520661157025" cy="164.38042035847425" r="2.5" stroke="none" stroke-width="0" fill="#3366cc"></circle><circle cx="600.9462809917355" cy="201.440026447511" r="2.5" stroke="none" stroke-width="0" fill="#3366cc"></circle><circle cx="604.6404958677685" cy="172.04846320920626" r="2.5" stroke="none" stroke-width="0" fill="#3366cc"></circle><circle cx="608.3347107438017" cy="203.33375" r="2.5" stroke="none" stroke-width="0" fill="#3366cc"></circle><circle cx="612.0289256198348" cy="153.31471637934473" r="2.5" stroke="none" stroke-width="0" fill="#3366cc"></circle><circle cx="615.7231404958677" cy="182.45775" r="2.5" stroke="none" stroke-width="0" fill="#3366cc"></circle><circle cx="619.4173553719008" cy="180.62939325552728" r="2.5" stroke="none" stroke-width="0" fill="#3366cc"></circle><circle cx="623.111570247934" cy="163.01670527156526" r="2.5" stroke="none" stroke-width="0" fill="#3366cc"></circle><circle cx="626.805785123967" cy="180.1599192015285" r="2.5" stroke="none" stroke-width="0" fill="#3366cc"></circle><circle cx="630.5" cy="154.41778692304152" r="2.5" stroke="none" stroke-width="0" fill="#3366cc"></circle><circle cx="634.1942148760331" cy="227.43325000000002" r="2.5" stroke="none" stroke-width="0" fill="#3366cc"></circle><circle cx="637.8884297520661" cy="177.81732692304152" r="2.5" stroke="none" stroke-width="0" fill="#3366cc"></circle><circle cx="641.5826446280992" cy="228.96825" r="2.5" stroke="none" stroke-width="0" fill="#3366cc"></circle><circle cx="645.2768595041323" cy="226.166875" r="2.5" stroke="none" stroke-width="0" fill="#3366cc"></circle><circle cx="652.6652892561983" cy="204.67687500000002" r="2.5" stroke="none" stroke-width="0" fill="#3366cc"></circle><circle cx="656.3595041322315" cy="196.44061422016026" r="2.5" stroke="none" stroke-width="0" fill="#3366cc"></circle><circle cx="660.0537190082645" cy="222.26541666669226" r="2.5" stroke="none" stroke-width="0" fill="#3366cc"></circle><circle cx="663.7479338842975" cy="170.48475" r="2.5" stroke="none" stroke-width="0" fill="#3366cc"></circle><circle cx="671.1363636363637" cy="232.03825" r="2.5" stroke="none" stroke-width="0" fill="#3366cc"></circle><circle cx="682.2190082644629" cy="227.12625" r="2.5" stroke="none" stroke-width="0" fill="#3366cc"></circle><circle cx="685.9132231404959" cy="216.112625" r="2.5" stroke="none" stroke-width="0" fill="#3366cc"></circle><circle cx="689.6074380165289" cy="187.8149" r="2.5" stroke="none" stroke-width="0" fill="#3366cc"></circle><circle cx="693.3016528925621" cy="223.28875" r="2.5" stroke="none" stroke-width="0" fill="#3366cc"></circle><circle cx="696.9958677685951" cy="188.30993750000002" r="2.5" stroke="none" stroke-width="0" fill="#3366cc"></circle><circle cx="700.6900826446281" cy="181.01485" r="2.5" stroke="none" stroke-width="0" fill="#3366cc"></circle><circle cx="704.3842975206612" cy="202.66847629008274" r="2.5" stroke="none" stroke-width="0" fill="#3366cc"></circle><circle cx="719.1611570247934" cy="265.92333734054023" r="2.5" stroke="none" stroke-width="0" fill="#3366cc"></circle><circle cx="722.8553719008265" cy="230.9348226301265" r="2.5" stroke="none" stroke-width="0" fill="#3366cc"></circle><circle cx="730.2438016528926" cy="225.59125" r="2.5" stroke="none" stroke-width="0" fill="#3366cc"></circle><circle cx="733.9380165289257" cy="208.437625" r="2.5" stroke="none" stroke-width="0" fill="#3366cc"></circle><circle cx="737.6322314049587" cy="226.67308681854726" r="2.5" stroke="none" stroke-width="0" fill="#3366cc"></circle><circle cx="741.3264462809917" cy="199.826865384639" r="2.5" stroke="none" stroke-width="0" fill="#3366cc"></circle><circle cx="745.0206611570248" cy="218.029154958665" r="2.5" stroke="none" stroke-width="0" fill="#3366cc"></circle><circle cx="759.797520661157" cy="249.38375000000002" r="2.5" stroke="none" stroke-width="0" fill="#3366cc"></circle><circle cx="767.1859504132232" cy="240.29446703930725" r="2.5" stroke="none" stroke-width="0" fill="#3366cc"></circle><circle cx="774.5743801652893" cy="211.04278031734978" r="2.5" stroke="none" stroke-width="0" fill="#3366cc"></circle><circle cx="781.9628099173555" cy="200.305093839509" r="2.5" stroke="none" stroke-width="0" fill="#3366cc"></circle><circle cx="789.3512396694215" cy="191.66775" r="2.5" stroke="none" stroke-width="0" fill="#3366cc"></circle><circle cx="793.0454545454546" cy="226.10756818179726" r="2.5" stroke="none" stroke-width="0" fill="#3366cc"></circle><circle cx="796.7396694214876" cy="224.20975" r="2.5" stroke="none" stroke-width="0" fill="#3366cc"></circle><circle cx="800.4338842975206" cy="203.79425" r="2.5" stroke="none" stroke-width="0" fill="#3366cc"></circle><circle cx="804.1280991735538" cy="222.0111240095075" r="2.5" stroke="none" stroke-width="0" fill="#3366cc"></circle><circle cx="807.8223140495868" cy="257.41691666669226" r="2.5" stroke="none" stroke-width="0" fill="#3366cc"></circle><circle cx="811.5165289256199" cy="223.22405165286276" r="2.5" stroke="none" stroke-width="0" fill="#3366cc"></circle><circle cx="815.2107438016529" cy="186.35245496895126" r="2.5" stroke="none" stroke-width="0" fill="#3366cc"></circle><circle cx="818.904958677686" cy="189.91785000000002" r="2.5" stroke="none" stroke-width="0" fill="#3366cc"></circle><circle cx="822.5991735537191" cy="193.10828846152077" r="2.5" stroke="none" stroke-width="0" fill="#3366cc"></circle><circle cx="826.2933884297521" cy="227.39345370366675" r="2.5" stroke="none" stroke-width="0" fill="#3366cc"></circle><circle cx="829.9876033057851" cy="265.04075" r="2.5" stroke="none" stroke-width="0" fill="#3366cc"></circle><circle cx="833.6818181818182" cy="208.39925000000002" r="2.5" stroke="none" stroke-width="0" fill="#3366cc"></circle><circle cx="855.8471074380166" cy="265.65475000000004" r="2.5" stroke="none" stroke-width="0" fill="#3366cc"></circle><circle cx="859.5413223140496" cy="249.62879784169627" r="2.5" stroke="none" stroke-width="0" fill="#3366cc"></circle><circle cx="863.2355371900827" cy="263.50575000000003" r="2.5" stroke="none" stroke-width="0" fill="#3366cc"></circle><circle cx="866.9297520661157" cy="235.93597314243925" r="2.5" stroke="none" stroke-width="0" fill="#3366cc"></circle><circle cx="874.3181818181819" cy="201.3553055555385" r="2.5" stroke="none" stroke-width="0" fill="#3366cc"></circle><circle cx="878.0123966942149" cy="222.25042606284276" r="2.5" stroke="none" stroke-width="0" fill="#3366cc"></circle><circle cx="885.400826446281" cy="259.3952869565318" r="2.5" stroke="none" stroke-width="0" fill="#3366cc"></circle><circle cx="889.095041322314" cy="248.853258940551" r="2.5" stroke="none" stroke-width="0" fill="#3366cc"></circle><circle cx="892.7892561983472" cy="193.1727940051365" r="2.5" stroke="none" stroke-width="0" fill="#3366cc"></circle><circle cx="896.4834710743802" cy="224.51675" r="2.5" stroke="none" stroke-width="0" fill="#3366cc"></circle><circle cx="900.1776859504132" cy="175.85725" r="2.5" stroke="none" stroke-width="0" fill="#3366cc"></circle><circle cx="907.5661157024794" cy="228.776375" r="2.5" stroke="none" stroke-width="0" fill="#3366cc"></circle><circle cx="911.2603305785125" cy="235.93715" r="2.5" stroke="none" stroke-width="0" fill="#3366cc"></circle><circle cx="914.9545454545455" cy="197.48457367703475" r="2.5" stroke="none" stroke-width="0" fill="#3366cc"></circle><circle cx="918.6487603305785" cy="181.08931382979048" r="2.5" stroke="none" stroke-width="0" fill="#3366cc"></circle><circle cx="922.3429752066116" cy="200.66114838334826" r="2.5" stroke="none" stroke-width="0" fill="#3366cc"></circle><circle cx="926.0371900826447" cy="181.69894311223553" r="2.5" stroke="none" stroke-width="0" fill="#3366cc"></circle><circle cx="933.4256198347108" cy="174.0323055555385" r="2.5" stroke="none" stroke-width="0" fill="#3366cc"></circle><circle cx="937.1198347107438" cy="178.240059087533" r="2.5" stroke="none" stroke-width="0" fill="#3366cc"></circle><circle cx="940.814049586777" cy="180.539683072237" r="2.5" stroke="none" stroke-width="0" fill="#3366cc"></circle><circle cx="944.50826446281" cy="208.38901666669224" r="2.5" stroke="none" stroke-width="0" fill="#3366cc"></circle><circle cx="948.202479338843" cy="243.05187500000002" r="2.5" stroke="none" stroke-width="0" fill="#3366cc"></circle><circle cx="951.8966942148761" cy="189.82471020320327" r="2.5" stroke="none" stroke-width="0" fill="#3366cc"></circle><circle cx="955.5909090909091" cy="205.6993723797525" r="2.5" stroke="none" stroke-width="0" fill="#3366cc"></circle><circle cx="959.2851239669421" cy="211.23246808510476" r="2.5" stroke="none" stroke-width="0" fill="#3366cc"></circle><circle cx="966.6735537190083" cy="203.2484425086985" r="2.5" stroke="none" stroke-width="0" fill="#3366cc"></circle><circle cx="970.3677685950414" cy="189.8054524793325" r="2.5" stroke="none" stroke-width="0" fill="#3366cc"></circle><circle cx="974.0619834710744" cy="197.93055" r="2.5" stroke="none" stroke-width="0" fill="#3366cc"></circle><circle cx="977.7561983471074" cy="180.67970833330776" r="2.5" stroke="none" stroke-width="0" fill="#3366cc"></circle><circle cx="981.4504132231406" cy="210.39475" r="2.5" stroke="none" stroke-width="0" fill="#3366cc"></circle><circle cx="985.1446280991736" cy="180.58382300166426" r="2.5" stroke="none" stroke-width="0" fill="#3366cc"></circle><circle cx="988.8388429752066" cy="218.68375" r="2.5" stroke="none" stroke-width="0" fill="#3366cc"></circle><circle cx="992.5330578512397" cy="172.956714862977" r="2.5" stroke="none" stroke-width="0" fill="#3366cc"></circle><circle cx="996.2272727272727" cy="177.91989878015278" r="2.5" stroke="none" stroke-width="0" fill="#3366cc"></circle><circle cx="999.9214876033059" cy="178.34270160368752" r="2.5" stroke="none" stroke-width="0" fill="#3366cc"></circle><circle cx="1003.6157024793389" cy="155.3020764101155" r="2.5" stroke="none" stroke-width="0" fill="#3366cc"></circle><circle cx="1007.3099173553719" cy="176.74716594998426" r="2.5" stroke="none" stroke-width="0" fill="#3366cc"></circle><circle cx="1011.004132231405" cy="167.338" r="2.5" stroke="none" stroke-width="0" fill="#3366cc"></circle><circle cx="1018.3925619834711" cy="185.44248708870575" r="2.5" stroke="none" stroke-width="0" fill="#3366cc"></circle><circle cx="1047.9462809917354" cy="271.8237874629133" r="2.5" stroke="none" stroke-width="0" fill="#3366cc"></circle><circle cx="1051.6404958677685" cy="219.993021439205" r="2.5" stroke="none" stroke-width="0" fill="#3366cc"></circle><circle cx="1055.3347107438017" cy="215.56659907029325" r="2.5" stroke="none" stroke-width="0" fill="#3366cc"></circle><circle cx="1059.0289256198348" cy="203.645882337891" r="2.5" stroke="none" stroke-width="0" fill="#3366cc"></circle><circle cx="1062.723140495868" cy="191.6351388339745" r="2.5" stroke="none" stroke-width="0" fill="#3366cc"></circle><circle cx="1066.4173553719008" cy="186.44875000000002" r="2.5" stroke="none" stroke-width="0" fill="#3366cc"></circle><circle cx="1070.111570247934" cy="146.03155467640624" r="2.5" stroke="none" stroke-width="0" fill="#3366cc"></circle><circle cx="1073.8057851239669" cy="187.67675000000003" r="2.5" stroke="none" stroke-width="0" fill="#3366cc"></circle><circle cx="1077.5" cy="127.64295419770326" r="2.5" stroke="none" stroke-width="0" fill="#3366cc"></circle></g><g><g><text text-anchor="middle" x="183.96177685950414" y="424.75" font-family="Arial" font-size="15" stroke="none" stroke-width="0" fill="#444444">January 2020</text></g><g><text text-anchor="middle" x="298.48243801652893" y="424.75" font-family="Arial" font-size="15" stroke="none" stroke-width="0" fill="#444444">February 2020</text></g><g><text text-anchor="middle" x="405.61466942148763" y="424.75" font-family="Arial" font-size="15" stroke="none" stroke-width="0" fill="#444444">March 2020</text></g><g><text text-anchor="middle" x="520.1353305785124" y="424.75" font-family="Arial" font-size="15" stroke="none" stroke-width="0" fill="#444444">April 2020</text></g><g><text text-anchor="middle" x="630.9617768595042" y="424.75" font-family="Arial" font-size="15" stroke="none" stroke-width="0" fill="#444444">May 2020</text></g><g><text text-anchor="middle" x="745.4824380165289" y="424.75" font-family="Arial" font-size="15" stroke="none" stroke-width="0" fill="#444444">June 2020</text></g><g><text text-anchor="middle" x="856.3088842975206" y="424.75" font-family="Arial" font-size="15" stroke="none" stroke-width="0" fill="#444444">July 2020</text></g><g><text text-anchor="middle" x="970.8295454545455" y="424.75" font-family="Arial" font-size="15" stroke="none" stroke-width="0" fill="#444444">August 2020</text></g><g><text text-anchor="middle" x="693.7634297520661" y="424.75" font-family="Arial" font-size="15" stroke="none" stroke-width="0" fill="#444444">18</text></g><g><text text-anchor="middle" x="797.2014462809917" y="424.75" font-family="Arial" font-size="15" stroke="none" stroke-width="0" fill="#444444">15</text></g><g><text text-anchor="middle" x="1029.9369834710744" y="424.75" font-family="Arial" font-size="15" stroke="none" stroke-width="0" fill="#444444">17</text></g><g><text text-anchor="middle" x="1055.7964876033059" y="424.75" font-family="Arial" font-size="15" stroke="none" stroke-width="0" fill="#444444">24</text></g><g><text text-anchor="end" x="168" y="407.75" font-family="Arial" font-size="15" stroke="none" stroke-width="0" fill="#444444">0</text></g><g><text text-anchor="end" x="168" y="331" font-family="Arial" font-size="15" stroke="none" stroke-width="0" fill="#444444">10</text></g><g><text text-anchor="end" x="168" y="254.25" font-family="Arial" font-size="15" stroke="none" stroke-width="0" fill="#444444">20</text></g><g><text text-anchor="end" x="168" y="177.5" font-family="Arial" font-size="15" stroke="none" stroke-width="0" fill="#444444">30</text></g><g><text text-anchor="end" x="168" y="100.75" font-family="Arial" font-size="15" stroke="none" stroke-width="0" fill="#444444">40</text></g></g></g><g><g><text text-anchor="middle" x="630.5" y="467.75" font-family="Arial" font-size="15" font-style="italic" stroke="none" stroke-width="0" fill="#222222">Ano</text><rect x="183" y="455" width="895" height="15" stroke="none" stroke-width="0" fill-opacity="0" fill="#ffffff"></rect></g><g><text text-anchor="middle" x="80.75" y="249" font-family="Arial" font-size="15" font-style="italic" transform="rotate(-90 80.75 249)" stroke="none" stroke-width="0" fill="#222222">Temperatura do solo (ºC)</text><path d="M67.99999999999999,403L68.00000000000001,95L83.00000000000001,95L82.99999999999999,403Z" stroke="none" stroke-width="0" fill-opacity="0" fill="#ffffff"></path></g></g><g></g></svg>