<svg width="1261" height="498" aria-label="A chart." style="overflow: hidden;"><defs id="_ABSTRACT_RENDERER_ID_291"><clipPath id="_ABSTRACT_RENDERER_ID_292"><rect x="183" y="95" width="895" height="308"></rect></clipPath></defs><rect x="0" y="0" width="1261" height="498" stroke="none" stroke-width="0" fill="#ffffff"></rect><g><text text-anchor="start" x="183" y="68.75" font-family="Arial" font-size="15" font-weight="bold" stroke="none" stroke-width="0" fill="#000000">Paranapoema</text><rect x="183" y="56" width="895" height="15" stroke="none" stroke-width="0" fill-opacity="0" fill="#ffffff"></rect></g><g><rect x="1093" y="95" width="153" height="15" stroke="none" stroke-width="0" fill-opacity="0" fill="#ffffff"></rect><g column-id="LST_Day_1km"><rect x="1093" y="95" width="153" height="15" stroke="none" stroke-width="0" fill-opacity="0" fill="#ffffff"></rect><g><text text-anchor="start" x="1129" y="107.75" font-family="Arial" font-size="15" stroke="none" stroke-width="0" fill="#222222">LST_Day_1km</text></g><path d="M1093,102.5L1123,102.5" stroke="#3366cc" stroke-width="1" fill-opacity="1" fill="none"></path><circle cx="1108" cy="102.5" r="2.5" stroke="none" stroke-width="0" fill="#3366cc"></circle></g></g><g><rect x="183" y="95" width="895" height="308" stroke="none" stroke-width="0" fill-opacity="0" fill="#ffffff"></rect><g clip-path="url(https://code.earthengine.google.com/#_ABSTRACT_RENDERER_ID_292)"><g><rect x="253" y="95" width="1" height="308" stroke="none" stroke-width="0" fill="#cccccc"></rect><rect x="322" y="95" width="1" height="308" stroke="none" stroke-width="0" fill="#cccccc"></rect><rect x="399" y="95" width="1" height="308" stroke="none" stroke-width="0" fill="#cccccc"></rect><rect x="473" y="95" width="1" height="308" stroke="none" stroke-width="0" fill="#cccccc"></rect><rect x="550" y="95" width="1" height="308" stroke="none" stroke-width="0" fill="#cccccc"></rect><rect x="624" y="95" width="1" height="308" stroke="none" stroke-width="0" fill="#cccccc"></rect><rect x="701" y="95" width="1" height="308" stroke="none" stroke-width="0" fill="#cccccc"></rect><rect x="778" y="95" width="1" height="308" stroke="none" stroke-width="0" fill="#cccccc"></rect><rect x="852" y="95" width="1" height="308" stroke="none" stroke-width="0" fill="#cccccc"></rect><rect x="929" y="95" width="1" height="308" stroke="none" stroke-width="0" fill="#cccccc"></rect><rect x="1003" y="95" width="1" height="308" stroke="none" stroke-width="0" fill="#cccccc"></rect><rect x="183" y="402" width="895" height="1" stroke="none" stroke-width="0" fill="#cccccc"></rect><rect x="183" y="341" width="895" height="1" stroke="none" stroke-width="0" fill="#cccccc"></rect><rect x="183" y="279" width="895" height="1" stroke="none" stroke-width="0" fill="#cccccc"></rect><rect x="183" y="218" width="895" height="1" stroke="none" stroke-width="0" fill="#cccccc"></rect><rect x="183" y="156" width="895" height="1" stroke="none" stroke-width="0" fill="#cccccc"></rect><rect x="183" y="95" width="895" height="1" stroke="none" stroke-width="0" fill="#cccccc"></rect><rect x="183" y="371" width="895" height="1" stroke="none" stroke-width="0" fill="#ebebeb"></rect><rect x="183" y="310" width="895" height="1" stroke="none" stroke-width="0" fill="#ebebeb"></rect><rect x="183" y="249" width="895" height="1" stroke="none" stroke-width="0" fill="#ebebeb"></rect><rect x="183" y="187" width="895" height="1" stroke="none" stroke-width="0" fill="#ebebeb"></rect><rect x="183" y="126" width="895" height="1" stroke="none" stroke-width="0" fill="#ebebeb"></rect></g><g><rect x="183" y="402" width="895" height="1" stroke="none" stroke-width="0" fill="#333333"></rect></g><g><g><path d="M183.5,206.52944561251823L185.97645429362882,225.30642222221542L188.4529085872576,218.14036000000002M228.07617728531855,213.930846931429L230.55263157894737,221.92260000000002L233.02908587257616,199.23552449724983M250.36426592797784,276.937L252.84072022160666,254.05936000000003L255.31717451523548,214.036269767449L257.79362880886424,213.9710283185694L260.27008310249306,225.2994188790258L262.7465373961219,205.50233804713662L265.2229916897507,222.8514957954438L267.6994459833795,184.3458L270.1759002770083,208.7147777777846L272.6523545706371,195.63572500000004M302.3698060941828,219.7103128807012L304.84626038781164,224.54687487657662L307.32271468144046,202.7649635913326L309.7991689750693,230.273L312.27562326869804,203.4832858252302L314.75207756232686,203.6254M329.6108033240997,197.77193333335381L332.08725761772854,203.15876L334.56371191135736,260.1134L337.0401662049861,232.6062L339.516620498615,234.1412L341.99307479224376,205.0761430656764M346.9459833795014,196.3064479765106L349.42243767313016,224.2558L351.89889196675904,186.54483502608704L354.3753462603878,226.58900000000003M359.32825484764544,216.5086020689634L361.8047091412742,220.3262L364.2811634349031,198.1585939155604M376.6634349030471,214.2739142857406L379.1398891966759,219.76132M403.90443213296396,233.84648L406.38088642659284,238.86900000000003L408.8573407202216,239.4216L411.3337950138504,210.024716838899L413.81024930747924,213.94060000000002L416.286703601108,209.5594665377024L418.7631578947369,228.18540000000002L421.23961218836564,214.2739142857406L423.71606648199446,241.93900000000002L426.1925207756233,204.71346073621442L428.66897506925204,222.0454L431.1454293628809,221.9050571428396L433.6218836565097,237.02700000000002M438.5747922437673,228.8307271400912L441.05124653739614,247.39132L443.52770083102496,212.33475384614442L446.0041551246537,297.3218L448.48060941828254,230.34565429236963L450.95706371191136,215.75171976515063L453.4335180055402,223.1946058111508L455.909972299169,212.7126L458.3864265927978,232.41677446808382L460.8628808864266,206.2257070240096L463.3393351800554,243.6582L465.8157894736842,206.1871304987716L468.29224376731304,216.083425550302L470.76869806094186,203.85565000000003L473.2451523545706,200.07233286145782L475.72160664819944,226.2570165517072L478.19806094182826,202.7964498529622L480.6745152354571,234.50917571568482L483.1509695290859,213.4519503634496M488.1038781163435,220.4672111078672L490.5803324099723,229.7814651670116L493.0567867036011,229.7272222222154L495.53324099722994,224.1680857142594L498.00969529085876,292.901L500.4861495844875,246.50014285716043L502.96260387811634,269.81460000000004L505.43905817174516,231.20967659574862L507.915512465374,222.0454M512.8684210526316,261.4642L515.3448753462603,242.03724M520.2977839335181,287.6308333333538L522.7742382271468,272.63850740916723L525.2506925207756,298.6024285714198L527.7271468144045,274.03808681575356L530.2036011080332,251.17888011867763M535.1565096952909,249.87466380588123L537.6329639889198,254.2977052829386L540.1094182825484,236.88786674825923L542.5858725761773,262.523680615361L545.0623268698062,264.0533619389694L547.5387811634349,243.01968796875002L550.0152354570637,301.2514M572.303324099723,287.00660000000005L574.7797783933518,210.3607425414558M589.6385041551247,281.45604000000003L592.1149584487534,272.8846L594.5914127423823,272.8846L597.0678670360111,280.98940000000005L599.5443213296398,284.8967689654876L602.0207756232687,238.0918703183516L604.4972299168976,261.587L606.9736842105262,224.6131053732956L609.4501385041551,223.9236492978616M614.4030470914128,227.69420000000002L616.8795013850415,260.0081428571604L619.3559556786704,237.0619341779542L621.8324099722992,267.26036L624.3088642659279,226.241552104072L626.7853185595568,257.3572222222154L629.2617728531857,231.56216015625L631.7382271468144,278.84056094364485L634.2146814404432,239.2516232996848L636.6911357340721,220.449L639.1675900277008,261.0958L641.6440443213296,241.5296666666462M646.5969529085874,266.4987387234134L649.073407202216,271.05926497033704M654.0263157894738,265.0254L656.5027700831025,244.5879714285802L658.9792243767313,216.6125875202998L661.4556786703602,268.8322L663.9321329639889,216.99842586207322L666.4085872576177,215.3852858726022L668.8850415512466,216.6422L671.3614958448754,202.7841949970604M676.314404432133,258.3932443579972L678.7908587257618,254.64880000000002L681.2673130193906,286.5154L683.7437673130194,287.7434L686.2202216066482,225.51851594958302L688.696675900277,220.51917142858022L691.1731301939058,238.03396L693.6495844875346,205.51403138217103L696.1260387811634,275.709L698.6024930747923,230.7949M725.8434903047091,259.49916710918603L728.319944598338,237.5787344247362L730.7963988919668,257.367912123329L733.2728531855956,223.906007013041M740.702216066482,276.09336679302464L743.1786703601108,230.1034277819474L745.6551246537397,233.172270408157L748.1315789473684,208.57269261328682L750.6080332409972,272.2501333333538M755.5609418282548,246.1142L758.0373961218837,238.0904792541964L760.5138504155125,239.95474426838982L762.9903047091412,268.2182L765.4667590027701,239.635079102383L767.9432132963989,234.51146768061142L770.4196675900278,207.8006L772.8961218836565,186.6701208731182L775.3725761772853,202.39739999999998L777.8490304709142,190.923595819912M785.2783933518006,271.53380000000004L787.7548476454293,236.554889857115L790.2313019390582,218.1225751724392L792.707756232687,211.27993333335382L795.1842105263158,181.0288795699136L797.6606648199446,219.22825018451343L800.1371191135735,197.33478270556284L802.6135734072022,255.2935L805.090027700831,210.44855391508682M827.3781163434903,230.7635949248584L829.8545706371191,196.6069133896562L832.331024930748,190.8491805411584L834.8074792243767,165.9416219619064M857.095567867036,188.73677193728622L859.5720221606648,250.4039097046442L862.0484764542937,210.50220000000002M894.2423822714682,209.2742L896.7188365650969,253.0319333333538L899.1952908587258,253.389949657188L901.6717451523546,186.48384481324823L904.1481994459834,246.82644000000002L906.6246537396122,180.94132672675423M919.0069252077562,190.81343996612L921.4833795013851,246.1142L923.9598337950139,212.44244M938.8185595567867,239.21284L941.2950138504156,220.0396666666462M953.6772853185596,200.28933333335382L956.1537396121884,245.5352857142594L958.6301939058172,181.0633219616206M963.5831024930748,214.72652L966.0595567867036,227.97050000000002L968.5360110803324,260.35900000000004M975.9653739612188,202.84134644149802L978.4418282548477,224.9983734328514L980.9182825484764,194.53820000000002M985.8711911357341,235.73077777778462L988.347645429363,226.58900000000003L990.8240997229917,213.542433840275L993.3005540166205,209.9446524793632L995.7770083102494,214.923L998.2534626038781,213.5722M1003.2063711911358,209.4891L1005.6828254847645,241.6934L1008.1592797783934,202.60206666664624L1010.6357340720222,197.86863372810822L1013.112188365651,176.8408850575002L1015.5886426592798,180.439586109057L1018.0650969529086,224.62420000000003L1020.5415512465374,194.99256000000003L1023.0180055401662,202.10268000000002L1025.4944598337952,155.05317412332403L1027.9709141274238,188.84030568140963L1030.4473684210525,158.99374438887205L1032.9238227146816,168.76142973685182L1035.4002770083102,180.4162L1037.8767313019391,174.3683M1047.7825484764544,195.46443139015162L1050.259002770083,161.25940000000003L1052.735457063712,166.6194456125182L1055.2119113573408,205.4674M1065.1177285318558,228.6766L1067.594182825485,212.3943457076304L1070.0706371191136,217.37900000000002L1072.5470914127422,270.0602L1075.0235457063714,243.5354L1077.5,226.58900000000003" stroke="#3366cc" stroke-width="1" fill-opacity="1" fill="none"></path></g></g></g><g><circle cx="183.5" cy="206.52944561251823" r="2.5" stroke="none" stroke-width="0" fill="#3366cc"></circle><circle cx="185.97645429362882" cy="225.30642222221542" r="2.5" stroke="none" stroke-width="0" fill="#3366cc"></circle><circle cx="188.4529085872576" cy="218.14036000000002" r="2.5" stroke="none" stroke-width="0" fill="#3366cc"></circle><circle cx="193.40581717451522" cy="281.97180000000003" r="2.5" stroke="none" stroke-width="0" fill="#3366cc"></circle><circle cx="203.31163434903047" cy="281.4806" r="2.5" stroke="none" stroke-width="0" fill="#3366cc"></circle><circle cx="210.7409972299169" cy="226.7118" r="2.5" stroke="none" stroke-width="0" fill="#3366cc"></circle><circle cx="223.12326869806094" cy="216.1138014598576" r="2.5" stroke="none" stroke-width="0" fill="#3366cc"></circle><circle cx="228.07617728531855" cy="213.930846931429" r="2.5" stroke="none" stroke-width="0" fill="#3366cc"></circle><circle cx="230.55263157894737" cy="221.92260000000002" r="2.5" stroke="none" stroke-width="0" fill="#3366cc"></circle><circle cx="233.02908587257616" cy="199.23552449724983" r="2.5" stroke="none" stroke-width="0" fill="#3366cc"></circle><circle cx="237.9819944598338" cy="243.2898" r="2.5" stroke="none" stroke-width="0" fill="#3366cc"></circle><circle cx="242.9349030470914" cy="259.6222" r="2.5" stroke="none" stroke-width="0" fill="#3366cc"></circle><circle cx="250.36426592797784" cy="276.937" r="2.5" stroke="none" stroke-width="0" fill="#3366cc"></circle><circle cx="252.84072022160666" cy="254.05936000000003" r="2.5" stroke="none" stroke-width="0" fill="#3366cc"></circle><circle cx="255.31717451523548" cy="214.036269767449" r="2.5" stroke="none" stroke-width="0" fill="#3366cc"></circle><circle cx="257.79362880886424" cy="213.9710283185694" r="2.5" stroke="none" stroke-width="0" fill="#3366cc"></circle><circle cx="260.27008310249306" cy="225.2994188790258" r="2.5" stroke="none" stroke-width="0" fill="#3366cc"></circle><circle cx="262.7465373961219" cy="205.50233804713662" r="2.5" stroke="none" stroke-width="0" fill="#3366cc"></circle><circle cx="265.2229916897507" cy="222.8514957954438" r="2.5" stroke="none" stroke-width="0" fill="#3366cc"></circle><circle cx="267.6994459833795" cy="184.3458" r="2.5" stroke="none" stroke-width="0" fill="#3366cc"></circle><circle cx="270.1759002770083" cy="208.7147777777846" r="2.5" stroke="none" stroke-width="0" fill="#3366cc"></circle><circle cx="272.6523545706371" cy="195.63572500000004" r="2.5" stroke="none" stroke-width="0" fill="#3366cc"></circle><circle cx="289.9875346260388" cy="250.7806" r="2.5" stroke="none" stroke-width="0" fill="#3366cc"></circle><circle cx="302.3698060941828" cy="219.7103128807012" r="2.5" stroke="none" stroke-width="0" fill="#3366cc"></circle><circle cx="304.84626038781164" cy="224.54687487657662" r="2.5" stroke="none" stroke-width="0" fill="#3366cc"></circle><circle cx="307.32271468144046" cy="202.7649635913326" r="2.5" stroke="none" stroke-width="0" fill="#3366cc"></circle><circle cx="309.7991689750693" cy="230.273" r="2.5" stroke="none" stroke-width="0" fill="#3366cc"></circle><circle cx="312.27562326869804" cy="203.4832858252302" r="2.5" stroke="none" stroke-width="0" fill="#3366cc"></circle><circle cx="314.75207756232686" cy="203.6254" r="2.5" stroke="none" stroke-width="0" fill="#3366cc"></circle><circle cx="319.7049861495845" cy="280.007" r="2.5" stroke="none" stroke-width="0" fill="#3366cc"></circle><circle cx="324.6578947368421" cy="226.9574" r="2.5" stroke="none" stroke-width="0" fill="#3366cc"></circle><circle cx="329.6108033240997" cy="197.77193333335381" r="2.5" stroke="none" stroke-width="0" fill="#3366cc"></circle><circle cx="332.08725761772854" cy="203.15876" r="2.5" stroke="none" stroke-width="0" fill="#3366cc"></circle><circle cx="334.56371191135736" cy="260.1134" r="2.5" stroke="none" stroke-width="0" fill="#3366cc"></circle><circle cx="337.0401662049861" cy="232.6062" r="2.5" stroke="none" stroke-width="0" fill="#3366cc"></circle><circle cx="339.516620498615" cy="234.1412" r="2.5" stroke="none" stroke-width="0" fill="#3366cc"></circle><circle cx="341.99307479224376" cy="205.0761430656764" r="2.5" stroke="none" stroke-width="0" fill="#3366cc"></circle><circle cx="346.9459833795014" cy="196.3064479765106" r="2.5" stroke="none" stroke-width="0" fill="#3366cc"></circle><circle cx="349.42243767313016" cy="224.2558" r="2.5" stroke="none" stroke-width="0" fill="#3366cc"></circle><circle cx="351.89889196675904" cy="186.54483502608704" r="2.5" stroke="none" stroke-width="0" fill="#3366cc"></circle><circle cx="354.3753462603878" cy="226.58900000000003" r="2.5" stroke="none" stroke-width="0" fill="#3366cc"></circle><circle cx="359.32825484764544" cy="216.5086020689634" r="2.5" stroke="none" stroke-width="0" fill="#3366cc"></circle><circle cx="361.8047091412742" cy="220.3262" r="2.5" stroke="none" stroke-width="0" fill="#3366cc"></circle><circle cx="364.2811634349031" cy="198.1585939155604" r="2.5" stroke="none" stroke-width="0" fill="#3366cc"></circle><circle cx="369.23407202216066" cy="190.9156" r="2.5" stroke="none" stroke-width="0" fill="#3366cc"></circle><circle cx="376.6634349030471" cy="214.2739142857406" r="2.5" stroke="none" stroke-width="0" fill="#3366cc"></circle><circle cx="379.1398891966759" cy="219.76132" r="2.5" stroke="none" stroke-width="0" fill="#3366cc"></circle><circle cx="391.5221606648199" cy="228.8588122301986" r="2.5" stroke="none" stroke-width="0" fill="#3366cc"></circle><circle cx="398.9515235457064" cy="247.6696666666462" r="2.5" stroke="none" stroke-width="0" fill="#3366cc"></circle><circle cx="403.90443213296396" cy="233.84648" r="2.5" stroke="none" stroke-width="0" fill="#3366cc"></circle><circle cx="406.38088642659284" cy="238.86900000000003" r="2.5" stroke="none" stroke-width="0" fill="#3366cc"></circle><circle cx="408.8573407202216" cy="239.4216" r="2.5" stroke="none" stroke-width="0" fill="#3366cc"></circle><circle cx="411.3337950138504" cy="210.024716838899" r="2.5" stroke="none" stroke-width="0" fill="#3366cc"></circle><circle cx="413.81024930747924" cy="213.94060000000002" r="2.5" stroke="none" stroke-width="0" fill="#3366cc"></circle><circle cx="416.286703601108" cy="209.5594665377024" r="2.5" stroke="none" stroke-width="0" fill="#3366cc"></circle><circle cx="418.7631578947369" cy="228.18540000000002" r="2.5" stroke="none" stroke-width="0" fill="#3366cc"></circle><circle cx="421.23961218836564" cy="214.2739142857406" r="2.5" stroke="none" stroke-width="0" fill="#3366cc"></circle><circle cx="423.71606648199446" cy="241.93900000000002" r="2.5" stroke="none" stroke-width="0" fill="#3366cc"></circle><circle cx="426.1925207756233" cy="204.71346073621442" r="2.5" stroke="none" stroke-width="0" fill="#3366cc"></circle><circle cx="428.66897506925204" cy="222.0454" r="2.5" stroke="none" stroke-width="0" fill="#3366cc"></circle><circle cx="431.1454293628809" cy="221.9050571428396" r="2.5" stroke="none" stroke-width="0" fill="#3366cc"></circle><circle cx="433.6218836565097" cy="237.02700000000002" r="2.5" stroke="none" stroke-width="0" fill="#3366cc"></circle><circle cx="438.5747922437673" cy="228.8307271400912" r="2.5" stroke="none" stroke-width="0" fill="#3366cc"></circle><circle cx="441.05124653739614" cy="247.39132" r="2.5" stroke="none" stroke-width="0" fill="#3366cc"></circle><circle cx="443.52770083102496" cy="212.33475384614442" r="2.5" stroke="none" stroke-width="0" fill="#3366cc"></circle><circle cx="446.0041551246537" cy="297.3218" r="2.5" stroke="none" stroke-width="0" fill="#3366cc"></circle><circle cx="448.48060941828254" cy="230.34565429236963" r="2.5" stroke="none" stroke-width="0" fill="#3366cc"></circle><circle cx="450.95706371191136" cy="215.75171976515063" r="2.5" stroke="none" stroke-width="0" fill="#3366cc"></circle><circle cx="453.4335180055402" cy="223.1946058111508" r="2.5" stroke="none" stroke-width="0" fill="#3366cc"></circle><circle cx="455.909972299169" cy="212.7126" r="2.5" stroke="none" stroke-width="0" fill="#3366cc"></circle><circle cx="458.3864265927978" cy="232.41677446808382" r="2.5" stroke="none" stroke-width="0" fill="#3366cc"></circle><circle cx="460.8628808864266" cy="206.2257070240096" r="2.5" stroke="none" stroke-width="0" fill="#3366cc"></circle><circle cx="463.3393351800554" cy="243.6582" r="2.5" stroke="none" stroke-width="0" fill="#3366cc"></circle><circle cx="465.8157894736842" cy="206.1871304987716" r="2.5" stroke="none" stroke-width="0" fill="#3366cc"></circle><circle cx="468.29224376731304" cy="216.083425550302" r="2.5" stroke="none" stroke-width="0" fill="#3366cc"></circle><circle cx="470.76869806094186" cy="203.85565000000003" r="2.5" stroke="none" stroke-width="0" fill="#3366cc"></circle><circle cx="473.2451523545706" cy="200.07233286145782" r="2.5" stroke="none" stroke-width="0" fill="#3366cc"></circle><circle cx="475.72160664819944" cy="226.2570165517072" r="2.5" stroke="none" stroke-width="0" fill="#3366cc"></circle><circle cx="478.19806094182826" cy="202.7964498529622" r="2.5" stroke="none" stroke-width="0" fill="#3366cc"></circle><circle cx="480.6745152354571" cy="234.50917571568482" r="2.5" stroke="none" stroke-width="0" fill="#3366cc"></circle><circle cx="483.1509695290859" cy="213.4519503634496" r="2.5" stroke="none" stroke-width="0" fill="#3366cc"></circle><circle cx="488.1038781163435" cy="220.4672111078672" r="2.5" stroke="none" stroke-width="0" fill="#3366cc"></circle><circle cx="490.5803324099723" cy="229.7814651670116" r="2.5" stroke="none" stroke-width="0" fill="#3366cc"></circle><circle cx="493.0567867036011" cy="229.7272222222154" r="2.5" stroke="none" stroke-width="0" fill="#3366cc"></circle><circle cx="495.53324099722994" cy="224.1680857142594" r="2.5" stroke="none" stroke-width="0" fill="#3366cc"></circle><circle cx="498.00969529085876" cy="292.901" r="2.5" stroke="none" stroke-width="0" fill="#3366cc"></circle><circle cx="500.4861495844875" cy="246.50014285716043" r="2.5" stroke="none" stroke-width="0" fill="#3366cc"></circle><circle cx="502.96260387811634" cy="269.81460000000004" r="2.5" stroke="none" stroke-width="0" fill="#3366cc"></circle><circle cx="505.43905817174516" cy="231.20967659574862" r="2.5" stroke="none" stroke-width="0" fill="#3366cc"></circle><circle cx="507.915512465374" cy="222.0454" r="2.5" stroke="none" stroke-width="0" fill="#3366cc"></circle><circle cx="512.8684210526316" cy="261.4642" r="2.5" stroke="none" stroke-width="0" fill="#3366cc"></circle><circle cx="515.3448753462603" cy="242.03724" r="2.5" stroke="none" stroke-width="0" fill="#3366cc"></circle><circle cx="520.2977839335181" cy="287.6308333333538" r="2.5" stroke="none" stroke-width="0" fill="#3366cc"></circle><circle cx="522.7742382271468" cy="272.63850740916723" r="2.5" stroke="none" stroke-width="0" fill="#3366cc"></circle><circle cx="525.2506925207756" cy="298.6024285714198" r="2.5" stroke="none" stroke-width="0" fill="#3366cc"></circle><circle cx="527.7271468144045" cy="274.03808681575356" r="2.5" stroke="none" stroke-width="0" fill="#3366cc"></circle><circle cx="530.2036011080332" cy="251.17888011867763" r="2.5" stroke="none" stroke-width="0" fill="#3366cc"></circle><circle cx="535.1565096952909" cy="249.87466380588123" r="2.5" stroke="none" stroke-width="0" fill="#3366cc"></circle><circle cx="537.6329639889198" cy="254.2977052829386" r="2.5" stroke="none" stroke-width="0" fill="#3366cc"></circle><circle cx="540.1094182825484" cy="236.88786674825923" r="2.5" stroke="none" stroke-width="0" fill="#3366cc"></circle><circle cx="542.5858725761773" cy="262.523680615361" r="2.5" stroke="none" stroke-width="0" fill="#3366cc"></circle><circle cx="545.0623268698062" cy="264.0533619389694" r="2.5" stroke="none" stroke-width="0" fill="#3366cc"></circle><circle cx="547.5387811634349" cy="243.01968796875002" r="2.5" stroke="none" stroke-width="0" fill="#3366cc"></circle><circle cx="550.0152354570637" cy="301.2514" r="2.5" stroke="none" stroke-width="0" fill="#3366cc"></circle><circle cx="562.3975069252078" cy="269.5184769763528" r="2.5" stroke="none" stroke-width="0" fill="#3366cc"></circle><circle cx="567.3504155124654" cy="274.4274954485338" r="2.5" stroke="none" stroke-width="0" fill="#3366cc"></circle><circle cx="572.303324099723" cy="287.00660000000005" r="2.5" stroke="none" stroke-width="0" fill="#3366cc"></circle><circle cx="574.7797783933518" cy="210.3607425414558" r="2.5" stroke="none" stroke-width="0" fill="#3366cc"></circle><circle cx="579.7326869806094" cy="296.2166" r="2.5" stroke="none" stroke-width="0" fill="#3366cc"></circle><circle cx="589.6385041551247" cy="281.45604000000003" r="2.5" stroke="none" stroke-width="0" fill="#3366cc"></circle><circle cx="592.1149584487534" cy="272.8846" r="2.5" stroke="none" stroke-width="0" fill="#3366cc"></circle><circle cx="594.5914127423823" cy="272.8846" r="2.5" stroke="none" stroke-width="0" fill="#3366cc"></circle><circle cx="597.0678670360111" cy="280.98940000000005" r="2.5" stroke="none" stroke-width="0" fill="#3366cc"></circle><circle cx="599.5443213296398" cy="284.8967689654876" r="2.5" stroke="none" stroke-width="0" fill="#3366cc"></circle><circle cx="602.0207756232687" cy="238.0918703183516" r="2.5" stroke="none" stroke-width="0" fill="#3366cc"></circle><circle cx="604.4972299168976" cy="261.587" r="2.5" stroke="none" stroke-width="0" fill="#3366cc"></circle><circle cx="606.9736842105262" cy="224.6131053732956" r="2.5" stroke="none" stroke-width="0" fill="#3366cc"></circle><circle cx="609.4501385041551" cy="223.9236492978616" r="2.5" stroke="none" stroke-width="0" fill="#3366cc"></circle><circle cx="614.4030470914128" cy="227.69420000000002" r="2.5" stroke="none" stroke-width="0" fill="#3366cc"></circle><circle cx="616.8795013850415" cy="260.0081428571604" r="2.5" stroke="none" stroke-width="0" fill="#3366cc"></circle><circle cx="619.3559556786704" cy="237.0619341779542" r="2.5" stroke="none" stroke-width="0" fill="#3366cc"></circle><circle cx="621.8324099722992" cy="267.26036" r="2.5" stroke="none" stroke-width="0" fill="#3366cc"></circle><circle cx="624.3088642659279" cy="226.241552104072" r="2.5" stroke="none" stroke-width="0" fill="#3366cc"></circle><circle cx="626.7853185595568" cy="257.3572222222154" r="2.5" stroke="none" stroke-width="0" fill="#3366cc"></circle><circle cx="629.2617728531857" cy="231.56216015625" r="2.5" stroke="none" stroke-width="0" fill="#3366cc"></circle><circle cx="631.7382271468144" cy="278.84056094364485" r="2.5" stroke="none" stroke-width="0" fill="#3366cc"></circle><circle cx="634.2146814404432" cy="239.2516232996848" r="2.5" stroke="none" stroke-width="0" fill="#3366cc"></circle><circle cx="636.6911357340721" cy="220.449" r="2.5" stroke="none" stroke-width="0" fill="#3366cc"></circle><circle cx="639.1675900277008" cy="261.0958" r="2.5" stroke="none" stroke-width="0" fill="#3366cc"></circle><circle cx="641.6440443213296" cy="241.5296666666462" r="2.5" stroke="none" stroke-width="0" fill="#3366cc"></circle><circle cx="646.5969529085874" cy="266.4987387234134" r="2.5" stroke="none" stroke-width="0" fill="#3366cc"></circle><circle cx="649.073407202216" cy="271.05926497033704" r="2.5" stroke="none" stroke-width="0" fill="#3366cc"></circle><circle cx="654.0263157894738" cy="265.0254" r="2.5" stroke="none" stroke-width="0" fill="#3366cc"></circle><circle cx="656.5027700831025" cy="244.5879714285802" r="2.5" stroke="none" stroke-width="0" fill="#3366cc"></circle><circle cx="658.9792243767313" cy="216.6125875202998" r="2.5" stroke="none" stroke-width="0" fill="#3366cc"></circle><circle cx="661.4556786703602" cy="268.8322" r="2.5" stroke="none" stroke-width="0" fill="#3366cc"></circle><circle cx="663.9321329639889" cy="216.99842586207322" r="2.5" stroke="none" stroke-width="0" fill="#3366cc"></circle><circle cx="666.4085872576177" cy="215.3852858726022" r="2.5" stroke="none" stroke-width="0" fill="#3366cc"></circle><circle cx="668.8850415512466" cy="216.6422" r="2.5" stroke="none" stroke-width="0" fill="#3366cc"></circle><circle cx="671.3614958448754" cy="202.7841949970604" r="2.5" stroke="none" stroke-width="0" fill="#3366cc"></circle><circle cx="676.314404432133" cy="258.3932443579972" r="2.5" stroke="none" stroke-width="0" fill="#3366cc"></circle><circle cx="678.7908587257618" cy="254.64880000000002" r="2.5" stroke="none" stroke-width="0" fill="#3366cc"></circle><circle cx="681.2673130193906" cy="286.5154" r="2.5" stroke="none" stroke-width="0" fill="#3366cc"></circle><circle cx="683.7437673130194" cy="287.7434" r="2.5" stroke="none" stroke-width="0" fill="#3366cc"></circle><circle cx="686.2202216066482" cy="225.51851594958302" r="2.5" stroke="none" stroke-width="0" fill="#3366cc"></circle><circle cx="688.696675900277" cy="220.51917142858022" r="2.5" stroke="none" stroke-width="0" fill="#3366cc"></circle><circle cx="691.1731301939058" cy="238.03396" r="2.5" stroke="none" stroke-width="0" fill="#3366cc"></circle><circle cx="693.6495844875346" cy="205.51403138217103" r="2.5" stroke="none" stroke-width="0" fill="#3366cc"></circle><circle cx="696.1260387811634" cy="275.709" r="2.5" stroke="none" stroke-width="0" fill="#3366cc"></circle><circle cx="698.6024930747923" cy="230.7949" r="2.5" stroke="none" stroke-width="0" fill="#3366cc"></circle><circle cx="703.5554016620499" cy="278.9018" r="2.5" stroke="none" stroke-width="0" fill="#3366cc"></circle><circle cx="720.8905817174515" cy="320.2854" r="2.5" stroke="none" stroke-width="0" fill="#3366cc"></circle><circle cx="725.8434903047091" cy="259.49916710918603" r="2.5" stroke="none" stroke-width="0" fill="#3366cc"></circle><circle cx="728.319944598338" cy="237.5787344247362" r="2.5" stroke="none" stroke-width="0" fill="#3366cc"></circle><circle cx="730.7963988919668" cy="257.367912123329" r="2.5" stroke="none" stroke-width="0" fill="#3366cc"></circle><circle cx="733.2728531855956" cy="223.906007013041" r="2.5" stroke="none" stroke-width="0" fill="#3366cc"></circle><circle cx="740.702216066482" cy="276.09336679302464" r="2.5" stroke="none" stroke-width="0" fill="#3366cc"></circle><circle cx="743.1786703601108" cy="230.1034277819474" r="2.5" stroke="none" stroke-width="0" fill="#3366cc"></circle><circle cx="745.6551246537397" cy="233.172270408157" r="2.5" stroke="none" stroke-width="0" fill="#3366cc"></circle><circle cx="748.1315789473684" cy="208.57269261328682" r="2.5" stroke="none" stroke-width="0" fill="#3366cc"></circle><circle cx="750.6080332409972" cy="272.2501333333538" r="2.5" stroke="none" stroke-width="0" fill="#3366cc"></circle><circle cx="755.5609418282548" cy="246.1142" r="2.5" stroke="none" stroke-width="0" fill="#3366cc"></circle><circle cx="758.0373961218837" cy="238.0904792541964" r="2.5" stroke="none" stroke-width="0" fill="#3366cc"></circle><circle cx="760.5138504155125" cy="239.95474426838982" r="2.5" stroke="none" stroke-width="0" fill="#3366cc"></circle><circle cx="762.9903047091412" cy="268.2182" r="2.5" stroke="none" stroke-width="0" fill="#3366cc"></circle><circle cx="765.4667590027701" cy="239.635079102383" r="2.5" stroke="none" stroke-width="0" fill="#3366cc"></circle><circle cx="767.9432132963989" cy="234.51146768061142" r="2.5" stroke="none" stroke-width="0" fill="#3366cc"></circle><circle cx="770.4196675900278" cy="207.8006" r="2.5" stroke="none" stroke-width="0" fill="#3366cc"></circle><circle cx="772.8961218836565" cy="186.6701208731182" r="2.5" stroke="none" stroke-width="0" fill="#3366cc"></circle><circle cx="775.3725761772853" cy="202.39739999999998" r="2.5" stroke="none" stroke-width="0" fill="#3366cc"></circle><circle cx="777.8490304709142" cy="190.923595819912" r="2.5" stroke="none" stroke-width="0" fill="#3366cc"></circle><circle cx="785.2783933518006" cy="271.53380000000004" r="2.5" stroke="none" stroke-width="0" fill="#3366cc"></circle><circle cx="787.7548476454293" cy="236.554889857115" r="2.5" stroke="none" stroke-width="0" fill="#3366cc"></circle><circle cx="790.2313019390582" cy="218.1225751724392" r="2.5" stroke="none" stroke-width="0" fill="#3366cc"></circle><circle cx="792.707756232687" cy="211.27993333335382" r="2.5" stroke="none" stroke-width="0" fill="#3366cc"></circle><circle cx="795.1842105263158" cy="181.0288795699136" r="2.5" stroke="none" stroke-width="0" fill="#3366cc"></circle><circle cx="797.6606648199446" cy="219.22825018451343" r="2.5" stroke="none" stroke-width="0" fill="#3366cc"></circle><circle cx="800.1371191135735" cy="197.33478270556284" r="2.5" stroke="none" stroke-width="0" fill="#3366cc"></circle><circle cx="802.6135734072022" cy="255.2935" r="2.5" stroke="none" stroke-width="0" fill="#3366cc"></circle><circle cx="805.090027700831" cy="210.44855391508682" r="2.5" stroke="none" stroke-width="0" fill="#3366cc"></circle><circle cx="822.4252077562327" cy="193.52434384236062" r="2.5" stroke="none" stroke-width="0" fill="#3366cc"></circle><circle cx="827.3781163434903" cy="230.7635949248584" r="2.5" stroke="none" stroke-width="0" fill="#3366cc"></circle><circle cx="829.8545706371191" cy="196.6069133896562" r="2.5" stroke="none" stroke-width="0" fill="#3366cc"></circle><circle cx="832.331024930748" cy="190.8491805411584" r="2.5" stroke="none" stroke-width="0" fill="#3366cc"></circle><circle cx="834.8074792243767" cy="165.9416219619064" r="2.5" stroke="none" stroke-width="0" fill="#3366cc"></circle><circle cx="844.713296398892" cy="223.87648144897042" r="2.5" stroke="none" stroke-width="0" fill="#3366cc"></circle><circle cx="852.1426592797784" cy="232.4527" r="2.5" stroke="none" stroke-width="0" fill="#3366cc"></circle><circle cx="857.095567867036" cy="188.73677193728622" r="2.5" stroke="none" stroke-width="0" fill="#3366cc"></circle><circle cx="859.5720221606648" cy="250.4039097046442" r="2.5" stroke="none" stroke-width="0" fill="#3366cc"></circle><circle cx="862.0484764542937" cy="210.50220000000002" r="2.5" stroke="none" stroke-width="0" fill="#3366cc"></circle><circle cx="867.0013850415513" cy="202.336" r="2.5" stroke="none" stroke-width="0" fill="#3366cc"></circle><circle cx="879.3836565096954" cy="252.6226" r="2.5" stroke="none" stroke-width="0" fill="#3366cc"></circle><circle cx="884.3365650969529" cy="216.183931446078" r="2.5" stroke="none" stroke-width="0" fill="#3366cc"></circle><circle cx="889.2894736842105" cy="209.4611120141154" r="2.5" stroke="none" stroke-width="0" fill="#3366cc"></circle><circle cx="894.2423822714682" cy="209.2742" r="2.5" stroke="none" stroke-width="0" fill="#3366cc"></circle><circle cx="896.7188365650969" cy="253.0319333333538" r="2.5" stroke="none" stroke-width="0" fill="#3366cc"></circle><circle cx="899.1952908587258" cy="253.389949657188" r="2.5" stroke="none" stroke-width="0" fill="#3366cc"></circle><circle cx="901.6717451523546" cy="186.48384481324823" r="2.5" stroke="none" stroke-width="0" fill="#3366cc"></circle><circle cx="904.1481994459834" cy="246.82644000000002" r="2.5" stroke="none" stroke-width="0" fill="#3366cc"></circle><circle cx="906.6246537396122" cy="180.94132672675423" r="2.5" stroke="none" stroke-width="0" fill="#3366cc"></circle><circle cx="919.0069252077562" cy="190.81343996612" r="2.5" stroke="none" stroke-width="0" fill="#3366cc"></circle><circle cx="921.4833795013851" cy="246.1142" r="2.5" stroke="none" stroke-width="0" fill="#3366cc"></circle><circle cx="923.9598337950139" cy="212.44244" r="2.5" stroke="none" stroke-width="0" fill="#3366cc"></circle><circle cx="933.8656509695292" cy="193.53828334578083" r="2.5" stroke="none" stroke-width="0" fill="#3366cc"></circle><circle cx="938.8185595567867" cy="239.21284" r="2.5" stroke="none" stroke-width="0" fill="#3366cc"></circle><circle cx="941.2950138504156" cy="220.0396666666462" r="2.5" stroke="none" stroke-width="0" fill="#3366cc"></circle><circle cx="946.2479224376732" cy="198.1394090322442" r="2.5" stroke="none" stroke-width="0" fill="#3366cc"></circle><circle cx="953.6772853185596" cy="200.28933333335382" r="2.5" stroke="none" stroke-width="0" fill="#3366cc"></circle><circle cx="956.1537396121884" cy="245.5352857142594" r="2.5" stroke="none" stroke-width="0" fill="#3366cc"></circle><circle cx="958.6301939058172" cy="181.0633219616206" r="2.5" stroke="none" stroke-width="0" fill="#3366cc"></circle><circle cx="963.5831024930748" cy="214.72652" r="2.5" stroke="none" stroke-width="0" fill="#3366cc"></circle><circle cx="966.0595567867036" cy="227.97050000000002" r="2.5" stroke="none" stroke-width="0" fill="#3366cc"></circle><circle cx="968.5360110803324" cy="260.35900000000004" r="2.5" stroke="none" stroke-width="0" fill="#3366cc"></circle><circle cx="975.9653739612188" cy="202.84134644149802" r="2.5" stroke="none" stroke-width="0" fill="#3366cc"></circle><circle cx="978.4418282548477" cy="224.9983734328514" r="2.5" stroke="none" stroke-width="0" fill="#3366cc"></circle><circle cx="980.9182825484764" cy="194.53820000000002" r="2.5" stroke="none" stroke-width="0" fill="#3366cc"></circle><circle cx="985.8711911357341" cy="235.73077777778462" r="2.5" stroke="none" stroke-width="0" fill="#3366cc"></circle><circle cx="988.347645429363" cy="226.58900000000003" r="2.5" stroke="none" stroke-width="0" fill="#3366cc"></circle><circle cx="990.8240997229917" cy="213.542433840275" r="2.5" stroke="none" stroke-width="0" fill="#3366cc"></circle><circle cx="993.3005540166205" cy="209.9446524793632" r="2.5" stroke="none" stroke-width="0" fill="#3366cc"></circle><circle cx="995.7770083102494" cy="214.923" r="2.5" stroke="none" stroke-width="0" fill="#3366cc"></circle><circle cx="998.2534626038781" cy="213.5722" r="2.5" stroke="none" stroke-width="0" fill="#3366cc"></circle><circle cx="1003.2063711911358" cy="209.4891" r="2.5" stroke="none" stroke-width="0" fill="#3366cc"></circle><circle cx="1005.6828254847645" cy="241.6934" r="2.5" stroke="none" stroke-width="0" fill="#3366cc"></circle><circle cx="1008.1592797783934" cy="202.60206666664624" r="2.5" stroke="none" stroke-width="0" fill="#3366cc"></circle><circle cx="1010.6357340720222" cy="197.86863372810822" r="2.5" stroke="none" stroke-width="0" fill="#3366cc"></circle><circle cx="1013.112188365651" cy="176.8408850575002" r="2.5" stroke="none" stroke-width="0" fill="#3366cc"></circle><circle cx="1015.5886426592798" cy="180.439586109057" r="2.5" stroke="none" stroke-width="0" fill="#3366cc"></circle><circle cx="1018.0650969529086" cy="224.62420000000003" r="2.5" stroke="none" stroke-width="0" fill="#3366cc"></circle><circle cx="1020.5415512465374" cy="194.99256000000003" r="2.5" stroke="none" stroke-width="0" fill="#3366cc"></circle><circle cx="1023.0180055401662" cy="202.10268000000002" r="2.5" stroke="none" stroke-width="0" fill="#3366cc"></circle><circle cx="1025.4944598337952" cy="155.05317412332403" r="2.5" stroke="none" stroke-width="0" fill="#3366cc"></circle><circle cx="1027.9709141274238" cy="188.84030568140963" r="2.5" stroke="none" stroke-width="0" fill="#3366cc"></circle><circle cx="1030.4473684210525" cy="158.99374438887205" r="2.5" stroke="none" stroke-width="0" fill="#3366cc"></circle><circle cx="1032.9238227146816" cy="168.76142973685182" r="2.5" stroke="none" stroke-width="0" fill="#3366cc"></circle><circle cx="1035.4002770083102" cy="180.4162" r="2.5" stroke="none" stroke-width="0" fill="#3366cc"></circle><circle cx="1037.8767313019391" cy="174.3683" r="2.5" stroke="none" stroke-width="0" fill="#3366cc"></circle><circle cx="1042.8296398891966" cy="147.23901384532942" r="2.5" stroke="none" stroke-width="0" fill="#3366cc"></circle><circle cx="1047.7825484764544" cy="195.46443139015162" r="2.5" stroke="none" stroke-width="0" fill="#3366cc"></circle><circle cx="1050.259002770083" cy="161.25940000000003" r="2.5" stroke="none" stroke-width="0" fill="#3366cc"></circle><circle cx="1052.735457063712" cy="166.6194456125182" r="2.5" stroke="none" stroke-width="0" fill="#3366cc"></circle><circle cx="1055.2119113573408" cy="205.4674" r="2.5" stroke="none" stroke-width="0" fill="#3366cc"></circle><circle cx="1065.1177285318558" cy="228.6766" r="2.5" stroke="none" stroke-width="0" fill="#3366cc"></circle><circle cx="1067.594182825485" cy="212.3943457076304" r="2.5" stroke="none" stroke-width="0" fill="#3366cc"></circle><circle cx="1070.0706371191136" cy="217.37900000000002" r="2.5" stroke="none" stroke-width="0" fill="#3366cc"></circle><circle cx="1072.5470914127422" cy="270.0602" r="2.5" stroke="none" stroke-width="0" fill="#3366cc"></circle><circle cx="1075.0235457063714" cy="243.5354" r="2.5" stroke="none" stroke-width="0" fill="#3366cc"></circle><circle cx="1077.5" cy="226.58900000000003" r="2.5" stroke="none" stroke-width="0" fill="#3366cc"></circle></g><g><g><text text-anchor="middle" x="253.0470914127424" y="424.75" font-family="Arial" font-size="15" stroke="none" stroke-width="0" fill="#444444">February 2018</text></g><g><text text-anchor="middle" x="399.26108033240996" y="424.75" font-family="Arial" font-size="15" stroke="none" stroke-width="0" fill="#444444">April 2018</text></g><g><text text-anchor="middle" x="550.3247922437673" y="424.75" font-family="Arial" font-size="15" stroke="none" stroke-width="0" fill="#444444">June 2018</text></g><g><text text-anchor="middle" x="701.3885041551247" y="424.75" font-family="Arial" font-size="15" stroke="none" stroke-width="0" fill="#444444">August 2018</text></g><g><text text-anchor="middle" x="852.452216066482" y="424.75" font-family="Arial" font-size="15" stroke="none" stroke-width="0" fill="#444444">October 2018</text></g><g><text text-anchor="middle" x="1003.4127423822715" y="424.75" font-family="Arial" font-size="15" stroke="none" stroke-width="0" fill="#444444">December 2018</text></g><g><text text-anchor="end" x="168" y="407.75" font-family="Arial" font-size="15" stroke="none" stroke-width="0" fill="#444444">0</text></g><g><text text-anchor="end" x="168" y="346.35" font-family="Arial" font-size="15" stroke="none" stroke-width="0" fill="#444444">10</text></g><g><text text-anchor="end" x="168" y="284.95" font-family="Arial" font-size="15" stroke="none" stroke-width="0" fill="#444444">20</text></g><g><text text-anchor="end" x="168" y="223.55" font-family="Arial" font-size="15" stroke="none" stroke-width="0" fill="#444444">30</text></g><g><text text-anchor="end" x="168" y="162.15" font-family="Arial" font-size="15" stroke="none" stroke-width="0" fill="#444444">40</text></g><g><text text-anchor="end" x="168" y="100.75" font-family="Arial" font-size="15" stroke="none" stroke-width="0" fill="#444444">50</text></g></g></g><g><g><text text-anchor="middle" x="630.5" y="467.75" font-family="Arial" font-size="15" font-style="italic" stroke="none" stroke-width="0" fill="#222222">Ano</text><rect x="183" y="455" width="895" height="15" stroke="none" stroke-width="0" fill-opacity="0" fill="#ffffff"></rect></g><g><text text-anchor="middle" x="80.75" y="249" font-family="Arial" font-size="15" font-style="italic" transform="rotate(-90 80.75 249)" stroke="none" stroke-width="0" fill="#222222">Temperatura do solo (ºC)</text><path d="M67.99999999999999,403L68.00000000000001,95L83.00000000000001,95L82.99999999999999,403Z" stroke="none" stroke-width="0" fill-opacity="0" fill="#ffffff"></path></g></g><g></g></svg>